<?xml version="1.0" encoding="UTF-8"?>
<svg id="Camada_1" data-name="Camada 1" xmlns="http://www.w3.org/2000/svg" xmlns:xlink="http://www.w3.org/1999/xlink" viewBox="0 0 100 100">
  <defs>
    <style>
      .cls-1 {
        fill: none;
      }

      .cls-1, .cls-2 {
        stroke-width: 0px;
      }

      .cls-3 {
        clip-path: url(#clippath);
      }

      .cls-2 {
        fill: #8b47fe;
      }
    </style>
    <clipPath id="clippath">
      <rect class="cls-1" x="13.57" y="13.57" width="72.86" height="72.86"/>
    </clipPath>
  </defs>
  <g class="cls-3">
    <g>
      <path class="cls-2" d="M37.37,48.57c-.5,2.3-2.55,4.02-5,4.02-.65,0-1.18.53-1.18,1.18s.53,1.18,1.18,1.18c3.74,0,6.85-2.76,7.39-6.36,2.29-.25,4.41-1.27,6.04-2.94.46-.46.45-1.21-.02-1.67-.47-.46-1.21-.45-1.67.02-1.45,1.48-3.38,2.29-5.45,2.29-4.21,0-7.63-3.42-7.63-7.63,0-.65-.53-1.18-1.18-1.18s-1.18.53-1.18,1.18c0,5.07,3.8,9.27,8.69,9.91Z"/>
      <path class="cls-2" d="M42.37,58.81c0-.65-.53-1.18-1.18-1.18-5.51,0-9.99,4.48-9.99,9.99,0,.06,0,.11,0,.17-.44-.06-.89-.09-1.34-.09-.65,0-1.18.53-1.18,1.18s.53,1.18,1.18,1.18c4.21,0,7.63,3.42,7.63,7.63,0,.65.53,1.18,1.18,1.18s1.18-.53,1.18-1.18c0-4.19-2.59-7.78-6.25-9.26-.03-.27-.04-.54-.04-.81,0-4.21,3.42-7.63,7.63-7.63.65,0,1.18-.53,1.18-1.18Z"/>
      <path class="cls-2" d="M82.66,48.74c0-2.69-1.07-5.23-2.97-7.11.3-.96.45-1.96.45-2.97,0-4.86-3.49-8.92-8.09-9.81.35-.88.53-1.82.53-2.78,0-3.08-1.87-5.73-4.53-6.87-4.44-3.53-9.29-5.64-13.01-5.64-2.07,0-3.91,1.02-5.04,2.58-1.13-1.56-2.97-2.58-5.04-2.58-3.72,0-8.58,2.11-13.01,5.64-2.66,1.14-4.53,3.79-4.53,6.87,0,.96.18,1.9.53,2.78-4.6.89-8.09,4.95-8.09,9.81,0,1.01.15,2,.45,2.97-1.9,1.87-2.97,4.42-2.97,7.11,0,2.1.65,4.05,1.76,5.66-1.16,1.67-1.76,3.62-1.76,5.67,0,3.63,1.98,6.96,5.12,8.72-.05.45-.08.9-.08,1.35,0,4.9,3.2,9.23,7.84,10.71,2.02,3.45,5.69,5.58,9.71,5.58,4.41,0,8.23-2.55,10.07-6.24,1.85,3.7,5.67,6.24,10.07,6.24,4.02,0,7.69-2.12,9.71-5.58,4.64-1.48,7.84-5.81,7.84-10.71,0-.45-.03-.9-.08-1.35,3.14-1.76,5.12-5.09,5.12-8.72,0-2.05-.61-4-1.76-5.67,1.11-1.61,1.76-3.56,1.76-5.66ZM39.93,84.07c-3.31,0-6.32-1.82-7.87-4.76-.15-.29-.42-.5-.74-.59-3.87-1.04-6.58-4.57-6.58-8.58,0-.6.06-1.2.18-1.79.11-.54-.17-1.09-.68-1.31-2.76-1.23-4.54-3.96-4.54-6.97,0-1.37.35-2.68,1.03-3.84,1.76,1.55,4.07,2.5,6.6,2.5.65,0,1.18-.53,1.18-1.18s-.53-1.18-1.18-1.18c-4.21,0-7.63-3.42-7.63-7.63,0-2.27,1-4.4,2.74-5.86.39-.33.53-.87.34-1.35-.37-.92-.56-1.88-.56-2.87,0-4.21,3.42-7.63,7.63-7.63s7.63,3.42,7.63,7.63c0,.65.53,1.18,1.18,1.18s1.18-.53,1.18-1.18c0-5.29-4.14-9.64-9.35-9.97-.47-.79-.72-1.69-.72-2.62,0-2.1,1.28-3.92,3.1-4.7.07-.02.14-.05.21-.08.56-.22,1.17-.33,1.81-.33,1.98,0,3.74,1.1,4.6,2.88.28.59.99.83,1.58.55.59-.28.83-.99.55-1.58-.99-2.03-2.85-3.49-5-4.01,3.01-1.84,5.98-2.88,8.35-2.88,2.13,0,3.86,1.73,3.86,3.86v15.27c-1.06-.84-2.4-1.35-3.86-1.35-.65,0-1.18.53-1.18,1.18s.53,1.18,1.18,1.18c2.13,0,3.86,1.73,3.86,3.85v28.37c-1.47-1.89-3.54-3.32-5.97-3.98-.63-.17-1.28.2-1.45.83-.17.63.2,1.28.83,1.45,3.88,1.04,6.58,4.57,6.58,8.58,0,4.9-3.99,8.89-8.89,8.89ZM75.76,67.04c-.51.23-.79.77-.68,1.31.12.59.18,1.19.18,1.79,0,4.01-2.71,7.53-6.58,8.58-.32.08-.58.3-.74.59-1.55,2.94-4.56,4.76-7.87,4.76-4.9,0-8.89-3.99-8.89-8.89,0-.33-.02-.66-.04-.99.03-.1.04-.21.04-.32v-38.98c0-2.12,1.73-3.85,3.86-3.85.65,0,1.18-.53,1.18-1.18s-.53-1.18-1.18-1.18c-1.46,0-2.8.5-3.86,1.35v-10.24c0-2.13,1.73-3.86,3.86-3.86,2.37,0,5.33,1.04,8.35,2.88-2.15.52-4.02,1.98-5,4.01-.28.59-.04,1.29.55,1.58.59.28,1.29.04,1.58-.55.86-1.78,2.63-2.88,4.6-2.88.64,0,1.25.12,1.81.33.07.03.14.06.21.08,1.82.78,3.1,2.6,3.1,4.7,0,.93-.25,1.83-.72,2.62-5.21.33-9.35,4.68-9.35,9.97,0,.65.53,1.18,1.18,1.18s1.18-.53,1.18-1.18c0-4.21,3.42-7.63,7.63-7.63s7.63,3.42,7.63,7.63c0,.98-.19,1.95-.56,2.87-.19.48-.06,1.02.34,1.35,1.74,1.46,2.74,3.59,2.74,5.86,0,4.21-3.42,7.63-7.63,7.63-.65,0-1.18.53-1.18,1.18s.53,1.18,1.18,1.18c2.53,0,4.84-.95,6.6-2.5.68,1.16,1.03,2.47,1.03,3.84,0,3.01-1.78,5.75-4.54,6.97Z"/>
      <path class="cls-2" d="M70.14,51.34c-2.44,0-4.49-1.72-5-4.02,4.9-.64,8.69-4.84,8.69-9.91,0-.65-.53-1.18-1.18-1.18s-1.18.53-1.18,1.18c0,4.21-3.42,7.63-7.63,7.63-2.07,0-4-.82-5.45-2.29-.46-.46-1.2-.47-1.67-.02-.47.46-.47,1.2-.02,1.67,1.64,1.67,3.75,2.69,6.04,2.94.54,3.59,3.65,6.36,7.39,6.36.65,0,1.18-.53,1.18-1.18s-.53-1.18-1.18-1.18Z"/>
      <path class="cls-2" d="M66.37,65.19c-.45,0-.9.03-1.34.09,0-.06,0-.11,0-.17,0-5.51-4.48-9.99-9.99-9.99-.65,0-1.18.53-1.18,1.18s.53,1.18,1.18,1.18c4.21,0,7.63,3.42,7.63,7.63,0,.27-.01.54-.04.81-3.66,1.48-6.25,5.07-6.25,9.26,0,.65.53,1.18,1.18,1.18s1.18-.53,1.18-1.18c0-4.21,3.42-7.63,7.63-7.63.65,0,1.18-.53,1.18-1.18s-.53-1.18-1.18-1.18Z"/>
    </g>
  </g>
</svg>