<?xml version="1.0" encoding="UTF-8"?>
<svg id="Camada_1" data-name="Camada 1" xmlns="http://www.w3.org/2000/svg" viewBox="0 0 100 100">
  <defs>
    <style>
      .cls-1 {
        fill: #8b47fe;
        stroke-width: 0px;
      }
    </style>
  </defs>
  <path class="cls-1" d="M34.42,47.72c7.47,0,13.55-6.08,13.55-13.55s-6.08-13.55-13.55-13.55-13.55,6.08-13.55,13.55,6.08,13.55,13.55,13.55ZM34.42,25.64c4.7,0,8.53,3.83,8.53,8.53s-3.83,8.53-8.53,8.53-8.53-3.82-8.53-8.53,3.83-8.53,8.53-8.53Z"/>
  <path class="cls-1" d="M65.58,47.72c7.47,0,13.55-6.08,13.55-13.55s-6.08-13.55-13.55-13.55-13.55,6.08-13.55,13.55c0,7.47,6.08,13.55,13.55,13.55ZM65.58,25.64c4.7,0,8.53,3.83,8.53,8.53s-3.83,8.53-8.53,8.53-8.53-3.82-8.53-8.53c0-4.7,3.83-8.53,8.53-8.53Z"/>
  <path class="cls-1" d="M50,57.54c-11.72-14.6-35.58-6.33-35.58,12.55v6.78c0,1.39,1.12,2.51,2.51,2.51h66.15c1.39,0,2.51-1.12,2.51-2.51v-6.78c0-18.88-23.88-27.14-35.58-12.55ZM49.4,74.36h-29.96v-4.27c0-8.26,6.72-14.98,14.98-14.98s14.98,6.75,14.98,14.98v4.27h0ZM80.56,74.36h-26.15c0-4.69.3-7.66-1.6-12.12,2.72-4.43,7.51-7.13,12.76-7.13,8.26,0,14.98,6.72,14.98,14.98v4.27h0Z"/>
</svg>