<?xml version="1.0" encoding="UTF-8"?>
<svg id="Camada_1" data-name="Camada 1" xmlns="http://www.w3.org/2000/svg" xmlns:xlink="http://www.w3.org/1999/xlink" viewBox="0 0 100 100">
  <defs>
    <style>
      .cls-1 {
        fill: none;
      }

      .cls-1, .cls-2 {
        stroke-width: 0px;
      }

      .cls-3 {
        clip-path: url(#clippath);
      }

      .cls-2 {
        fill: #8b47fe;
      }
    </style>
    <clipPath id="clippath">
      <rect class="cls-1" x="12.26" y="12.26" width="75.47" height="75.47"/>
    </clipPath>
  </defs>
  <g class="cls-3">
    <path class="cls-2" d="M57.09,60.94h-14.24c-2.12,0-3.8-1.72-3.8-3.85v-14.24c0-2.12,1.68-3.8,3.8-3.8h14.24c2.12,0,3.85,1.68,3.85,3.8v14.24c0,2.12-1.72,3.85-3.85,3.85ZM63.86,71.42h-3.32v14.99c0,1.72-2.65,1.72-2.65,0v-14.99h-6.59v10.35c0,1.77-2.65,1.77-2.65,0v-10.35h-6.59v14.99c0,1.72-2.65,1.72-2.65,0v-14.99h-3.27c-4.2,0-7.6-3.4-7.6-7.56v-1.37h-10.48c-1.77,0-1.77-2.65,0-2.65h10.48v-4.82h-6.59c-1.77,0-1.77-2.65,0-2.65h6.59v-4.78h-10.48c-1.77,0-1.77-2.65,0-2.65h10.48v-4.78h-6.59c-1.77,0-1.77-2.65,0-2.65h6.59v-1.37c0-4.2,3.4-7.6,7.6-7.6h3.27v-14.95c0-1.77,2.65-1.77,2.65,0v14.95h6.59v-10.35c0-1.73,2.65-1.73,2.65,0v10.35h6.59v-14.95c0-1.77,2.65-1.77,2.65,0v14.95h3.32c4.16,0,7.56,3.4,7.56,7.6v1.37h6.63c1.73,0,1.73,2.65,0,2.65h-6.63v4.78h10.52c1.72,0,1.72,2.65,0,2.65h-10.52v4.78h6.63c1.73,0,1.73,2.65,0,2.65h-6.63v4.82h10.52c1.72,0,1.72,2.65,0,2.65h-10.52v1.37c0,4.16-3.4,7.56-7.56,7.56ZM42.86,41.71c-.62,0-1.15.53-1.15,1.15v14.24c0,.66.53,1.19,1.15,1.19h14.24c.66,0,1.19-.53,1.19-1.19v-14.24c0-.62-.53-1.15-1.19-1.15h-14.24ZM36.14,31.19c-2.74,0-4.95,2.21-4.95,4.95v27.72c0,2.7,2.21,4.91,4.95,4.91h27.72c2.7,0,4.91-2.21,4.91-4.91v-27.72c0-2.74-2.21-4.95-4.91-4.95h-27.72Z"/>
  </g>
</svg>