<?xml version="1.0" encoding="UTF-8"?>
<svg id="Camada_1" data-name="Camada 1" xmlns="http://www.w3.org/2000/svg" xmlns:xlink="http://www.w3.org/1999/xlink" viewBox="0 0 100 100">
  <defs>
    <style>
      .cls-1 {
        fill: none;
      }

      .cls-1, .cls-2 {
        stroke-width: 0px;
      }

      .cls-3 {
        clip-path: url(#clippath);
      }

      .cls-2 {
        fill: #8b47fe;
      }
    </style>
    <clipPath id="clippath">
      <rect class="cls-1" x="24.91" y="24.91" width="50.19" height="50.19"/>
    </clipPath>
  </defs>
  <g class="cls-3">
    <path class="cls-2" d="M71.65,60.63c-.14-.33-.4-.59-.74-.71-3.4-1.29-5.68-4.37-5.94-8.05-.25-3.6,1.51-6.8,4.72-8.56.33-.18.57-.51.64-.88s-.02-.76-.26-1.06c-2.67-3.33-6.46-5.31-10.15-5.31-1.75,0-3.11.3-4.29.68.76-.58,1.46-1.25,2.05-2.01,2.07-2.65,3.01-5.83,2.58-8.71-.1-.67-.69-1.14-1.37-1.1-2.9.2-6.19,1.96-8.19,4.38-2.07,2.52-3.07,5.56-2.71,8.23-.28-.09-.57-.19-.86-.3-1.53-.55-3.27-1.17-5.45-1.17-4.19,0-8.44,2.53-11.08,6.6-1.89,2.91-2.68,7.02-2.24,11.58.47,4.74,2.19,9.49,4.98,13.75,2.16,3.29,5.17,7.07,9.27,7.11h.08c1.69,0,2.83-.51,3.93-1,1.16-.52,2.26-1.01,4.25-1.02h.06c1.95,0,3.01.49,4.13,1,1.08.5,2.19,1.01,3.88,1.01h.08c3.99-.04,7-3.8,9.41-7.48,1.47-2.24,2.05-3.41,3.19-5.95.14-.33.15-.7.02-1.03ZM52.69,30.93c1.23-1.49,3.22-2.73,5.08-3.22-.1,2.52-1.47,4.57-2.13,5.42-1.28,1.64-3.25,2.83-5.13,3.15.03-1.24.42-3.21,2.19-5.35ZM66.28,66.19c-1.92,2.93-4.49,6.29-7.28,6.32h-.05c-1.13,0-1.87-.34-2.81-.77-1.2-.55-2.7-1.24-5.21-1.24h-.08c-2.53.01-4.06.69-5.28,1.24-.97.43-1.74.77-2.88.77h-.05c-1.51-.02-3.69-.7-7.13-5.95-4.98-7.57-6.15-17.25-2.74-22.51,2.17-3.35,5.59-5.42,8.92-5.42,1.73,0,3.11.49,4.58,1.02,1.41.5,2.87,1.02,4.55,1.02,1.59,0,2.89-.49,4.14-.97,1.4-.53,2.85-1.08,4.95-1.08,2.51,0,5.1,1.2,7.17,3.26-3.25,2.36-4.98,6.05-4.69,10.14.3,4.23,2.69,7.85,6.34,9.73-.78,1.68-1.32,2.69-2.46,4.41Z"/>
  </g>
</svg>