<?xml version="1.0" encoding="UTF-8"?>
<svg id="Camada_1" data-name="Camada 1" xmlns="http://www.w3.org/2000/svg" viewBox="0 0 100 100">
  <defs>
    <style>
      .cls-1 {
        fill: #8b47fe;
        stroke-width: 0px;
      }
    </style>
  </defs>
  <path class="cls-1" d="M51.03,55.18h16.46v-2.07h-16.46v-6.22h2.06v-2.07h-2.06v-4.14h12.35v-2.07h-12.35v-11.4c0-5.14-4.16-9.32-9.26-9.32-3.71,0-6.91,2.22-8.39,5.4h-.05c-5.25,1.08-9.06,5.78-9.06,11.18,0,1.3.22,2.58.66,3.81-4.18,2.37-6.83,6.87-6.83,11.73,0,4.4,2.17,8.53,5.72,11.04-1.01,1.6-1.61,3.5-1.61,5.54,0,5.71,4.62,10.36,10.29,10.36.31,0,.63-.02.95-.05,1.54,3.16,4.78,5.23,8.31,5.23,5.11,0,9.26-4.18,9.26-9.32v-11.4h7.2v-2.07h-7.2v-4.14ZM48.97,72.79c0,4-3.23,7.25-7.2,7.25-2.96,0-5.66-1.87-6.72-4.66l-.3-.8-.83.14c-.5.09-.97.13-1.41.13-4.54,0-8.23-3.72-8.23-8.29s3.69-8.29,8.23-8.29v-2.07c-2.9,0-5.53,1.22-7.4,3.18-3.06-2.11-4.95-5.62-4.95-9.39,0-4.39,2.56-8.43,6.52-10.31l.92-.43-.42-.93c-.56-1.23-.84-2.53-.84-3.86,0-4.03,2.6-7.57,6.32-8.83-.09.52-.14,1.04-.14,1.58,0,1.64.43,3.25,1.24,4.66l1.78-1.04c-.63-1.1-.96-2.35-.96-3.62,0-4,3.23-7.25,7.2-7.25s7.2,3.25,7.2,7.25v45.58Z"/>
  <path class="cls-1" d="M41.78,75.9v2.07c2.84,0,5.14-2.32,5.14-5.18h-2.06c0,1.71-1.39,3.11-3.09,3.11Z"/>
  <path class="cls-1" d="M28.38,66.57h-2.06c0,3.43,2.77,6.22,6.17,6.22v-2.07c-2.27,0-4.12-1.86-4.12-4.14Z"/>
  <path class="cls-1" d="M75.72,68.83v-4.33c0-2.86-2.31-5.18-5.15-5.18h-10.29v2.07h10.29c1.7,0,3.09,1.39,3.09,3.11v4.33c-1.19.43-2.06,1.57-2.06,2.92,0,1.71,1.39,3.11,3.09,3.11s3.09-1.4,3.09-3.11c0-1.35-.86-2.49-2.06-2.92ZM74.69,72.79c-.57,0-1.03-.47-1.03-1.03s.46-1.04,1.03-1.04,1.03.47,1.03,1.04-.46,1.03-1.03,1.03Z"/>
  <path class="cls-1" d="M78.81,51.04c-1.34,0-2.47.87-2.9,2.07h-6.36v2.07h6.36c.43,1.2,1.56,2.07,2.9,2.07,1.7,0,3.09-1.4,3.09-3.11s-1.39-3.11-3.09-3.11ZM78.81,55.18c-.57,0-1.03-.47-1.03-1.03s.46-1.04,1.03-1.04,1.03.47,1.03,1.04-.46,1.03-1.03,1.03Z"/>
  <path class="cls-1" d="M75.91,44.82h-20.77v2.07h20.77c.43,1.2,1.56,2.07,2.9,2.07,1.7,0,3.09-1.39,3.09-3.11s-1.39-3.11-3.09-3.11c-1.34,0-2.47.87-2.9,2.07ZM78.81,44.82c.57,0,1.03.47,1.03,1.04s-.46,1.04-1.03,1.04-1.03-.47-1.03-1.04.46-1.04,1.03-1.04Z"/>
  <path class="cls-1" d="M75.73,35.5v-4.34c1.19-.43,2.06-1.57,2.06-2.92,0-1.71-1.39-3.11-3.09-3.11s-3.09,1.39-3.09,3.11c0,1.35.86,2.49,2.06,2.92v4.34c0,1.71-1.38,3.11-3.09,3.11h-5.15v2.07h5.15c2.84,0,5.15-2.32,5.15-5.18ZM74.7,27.21c.57,0,1.03.47,1.03,1.04s-.46,1.04-1.03,1.04-1.03-.47-1.03-1.04.46-1.04,1.03-1.04Z"/>
  <path class="cls-1" d="M29.29,44.69c-2.01,2.02-2.01,5.31,0,7.33l1.46-1.47c-1.2-1.21-1.2-3.18,0-4.4,1.2-1.21,3.16-1.21,4.37,0l1.46-1.47c-2.01-2.02-5.27-2.02-7.28,0Z"/>
  <path class="cls-1" d="M41.77,22.03c-2.84,0-5.14,2.32-5.14,5.18h2.06c0-1.71,1.39-3.11,3.09-3.11s3.09,1.39,3.09,3.11h2.06c0-2.86-2.31-5.18-5.15-5.18Z"/>
  <path class="cls-1" d="M45.89,41.71c0-2.85-2.31-5.18-5.15-5.18v2.07c1.7,0,3.09,1.4,3.09,3.11s-1.39,3.11-3.09,3.11v2.07c2.84,0,5.15-2.32,5.15-5.18Z"/>
  <path class="cls-1" d="M35.6,63.47c0,2.86,2.31,5.18,5.15,5.18v-2.07c-1.7,0-3.09-1.39-3.09-3.11s1.38-3.11,3.09-3.11v-2.07c-2.84,0-5.15,2.32-5.15,5.18Z"/>
</svg>