<?xml version="1.0" encoding="UTF-8"?>
<svg id="Camada_1" data-name="Camada 1" xmlns="http://www.w3.org/2000/svg" viewBox="0 0 100 100">
  <defs>
    <style>
      .cls-1 {
        fill: #8b47fe;
        stroke-width: 0px;
      }
    </style>
  </defs>
  <path class="cls-1" d="M29.34,76.15h-6.8c-1.89,0-3.42-1.53-3.42-3.42v-6.8c0-1.89,1.54-3.42,3.42-3.42h6.8c1.89,0,3.42,1.54,3.42,3.42v6.8c0,1.89-1.54,3.42-3.42,3.42ZM22.54,64.32c-.89,0-1.61.72-1.61,1.61v6.8c0,.89.72,1.61,1.61,1.61h6.8c.89,0,1.61-.72,1.61-1.61v-6.8c0-.89-.72-1.61-1.61-1.61h-6.8Z"/>
  <path class="cls-1" d="M45.38,76.15h-6.8c-1.89,0-3.42-1.53-3.42-3.42v-2.17c0-.5.41-.9.91-.9s.91.41.91.9v2.17c0,.89.72,1.61,1.61,1.61h6.8c.89,0,1.61-.72,1.61-1.61v-18.63c0-.89-.72-1.61-1.61-1.61h-6.8c-.89,0-1.61.72-1.61,1.61v12.24c0,.5-.41.91-.91.91s-.91-.41-.91-.91v-12.24c0-1.89,1.54-3.42,3.42-3.42h6.8c1.89,0,3.42,1.54,3.42,3.42v18.63c0,1.89-1.54,3.42-3.42,3.42Z"/>
  <path class="cls-1" d="M61.42,76.15h-6.8c-1.89,0-3.42-1.53-3.42-3.42v-30.46c0-1.89,1.54-3.42,3.42-3.42h6.8c1.89,0,3.42,1.54,3.42,3.42v30.46c0,1.89-1.53,3.42-3.42,3.42ZM54.62,40.65c-.89,0-1.61.72-1.61,1.61v30.46c0,.89.72,1.61,1.61,1.61h6.8c.89,0,1.61-.72,1.61-1.61v-30.46c0-.89-.72-1.61-1.61-1.61h-6.8Z"/>
  <path class="cls-1" d="M77.46,76.15h-6.8c-1.89,0-3.42-1.53-3.42-3.42v-35.07c0-.5.4-.91.9-.91s.91.41.91.91v35.07c0,.89.72,1.61,1.61,1.61h6.8c.89,0,1.61-.72,1.61-1.61V30.43c0-.89-.72-1.61-1.61-1.61h-6.8c-.89,0-1.61.72-1.61,1.61v3c0,.5-.41.91-.91.91s-.9-.41-.9-.91v-3c0-1.89,1.53-3.42,3.42-3.42h6.8c1.89,0,3.42,1.53,3.42,3.42v42.3c0,1.89-1.54,3.42-3.42,3.42Z"/>
  <path class="cls-1" d="M42.02,39.41c-4.29,0-7.78-3.49-7.78-7.78s3.49-7.78,7.78-7.78c1.56,0,3.06.46,4.35,1.33.42.28.52.84.24,1.26-.28.41-.84.52-1.26.24-.99-.67-2.14-1.02-3.34-1.02-3.29,0-5.97,2.68-5.97,5.97s2.68,5.97,5.97,5.97c1.52,0,2.8-.58,3.69-1.68.71-.87,1.16-2.05,1.3-3.39h-3.16c-.5,0-.91-.41-.91-.91s.41-.91.91-.91h4.11c.5,0,.91.41.91.91,0,2.12-.62,4.04-1.75,5.43-1.24,1.54-3.01,2.35-5.09,2.35Z"/>
  <path class="cls-1" d="M27.61,39.41c-1.69,0-3.25-.83-4.19-2.24-.28-.41-.17-.98.25-1.26.41-.28.98-.17,1.26.25.62.92,1.65,1.46,2.76,1.44,1.69-.03,3.08-1.38,3.17-3.06.05-.9-.27-1.75-.89-2.4-.62-.65-1.45-1.01-2.35-1.01-1.17,0-1.68.19-2.27.45-.08.03-.13.06-.13.06-.31.15-.67.13-.95-.08s-.42-.54-.36-.88l1.01-6.08c.07-.44.45-.76.89-.76h5.09c.5,0,.91.41.91.91s-.41.91-.91.91h-4.32l-.63,3.81c.47-.1,1-.15,1.68-.15,1.4,0,2.7.56,3.66,1.57.96,1.01,1.45,2.34,1.38,3.74-.14,2.63-2.3,4.73-4.94,4.78h-.1Z"/>
</svg>