<?xml version="1.0" encoding="UTF-8"?>
<svg id="Camada_1" data-name="Camada 1" xmlns="http://www.w3.org/2000/svg" viewBox="0 0 100 100">
  <defs>
    <style>
      .cls-1 {
        fill: #8b47fe;
        stroke-width: 0px;
      }
    </style>
  </defs>
  <path class="cls-1" d="M72.39,70.36h-9.54c.4-.84.73-1.73.99-2.65l6.46-1.58c3.94-.96,6.7-4.47,6.7-8.52,0-4.84-3.94-8.77-8.79-8.77h-.84l.64-3.43c.23-1.25-.73-2.4-2-2.4H31.43c-1.27,0-2.23,1.15-2,2.4,4.37,23.61,3.97,22.46,5.15,24.96h-9.54c-1.75,0-2.69,2.07-1.52,3.38,3.36,3.76,5.98,7.78,13.19,7.78h24.02c7.24,0,9.91-4.11,13.19-7.78,1.17-1.31.23-3.38-1.52-3.38ZM60.72,77.46h-24.02c-2.72,0-5.17-.85-7.13-3.03h38.27c-1.94,2.17-4.39,3.03-7.13,3.03ZM33.87,47.07h29.68c-3.8,20.48-3.47,20.52-5.39,23.29h-18.9c-1.87-2.71-1.55-2.55-5.39-23.29ZM72.93,57.61c0,2.15-1.46,4.05-3.6,4.58l-4.65,1.13,1.93-10.42h1.59c2.6,0,4.72,2.11,4.72,4.71Z"/>
  <path class="cls-1" d="M42.92,39.11c1.15,2.43,4.84.71,3.68-1.73-1.66-3.51-1.24-2.62-2-4.24-.89-1.88-.27-4.17,1.54-5.32,5.43-3.45,5.5-9.07,2.71-12.55-1.68-2.1-4.86.44-3.18,2.54,1.56,1.95,1.09,4.81-1.03,6.15-4.59,2.91-5.42,7.35-3.73,10.92l2,4.24Z"/>
  <path class="cls-1" d="M50.87,35.8c-1.81,2.06,1.32,4.66,3.05,2.69l1.5-1.7c1.67-1.89,2.13-4.63.47-7.37-.41-.69-.37-1.54.11-2.19l2.5-3.35c1.61-2.16-1.66-4.58-3.26-2.42l-2.5,3.35c-1.47,1.97-1.6,4.6-.33,6.7,1.1,1.82.11,2.43-1.54,4.3Z"/>
</svg>