<?xml version="1.0" encoding="UTF-8"?>
<svg id="Camada_1" data-name="Camada 1" xmlns="http://www.w3.org/2000/svg" viewBox="0 0 100 100">
  <defs>
    <style>
      .cls-1 {
        fill: #8b47fe;
        stroke-width: 0px;
      }
    </style>
  </defs>
  <g>
    <path class="cls-1" d="M68.95,25.36h0c-.36-.53-1.09-.67-1.62-.31-.53.36-.67,1.09-.31,1.62,1.32,1.93,2.18,4.07,2.57,6.36h0c.1.6.65,1.02,1.26.97.3-.03.57-.04.84-.04,4.95,0,8.98,4.03,8.98,8.98s-4.03,8.98-8.98,8.98h-39.08c-7.32,0-13.28-5.96-13.28-13.28s5.96-13.28,13.28-13.28c2.19,0,4.35.54,6.26,1.57l.09-.17c.44.23.98.1,1.26-.3l.16.11h0c3.02-4.36,7.99-6.96,13.29-6.96,4.09,0,7.99,1.53,10.99,4.31.47.44,1.21.41,1.65-.06h0c.44-.47.41-1.21-.06-1.65h0c-3.43-3.18-7.9-4.93-12.58-4.93-5.72,0-11.11,2.65-14.61,7.15-2.02-.91-4.23-1.39-6.45-1.39-8.61,0-15.62,7-15.62,15.62s7,15.62,15.62,15.62h2.65v6c0,.8-.65,1.45-1.45,1.45h-2.62c-.5-1.65-2.04-2.85-3.85-2.85-2.22,0-4.02,1.8-4.02,4.02s1.8,4.02,4.02,4.02c1.81,0,3.34-1.2,3.85-2.85h2.62c2.09,0,3.79-1.7,3.79-3.79v-6h5.45v5.53c0,.64.52,1.17,1.17,1.17s1.17-.52,1.17-1.17v-5.53h6.08v21.82c0,2.09,1.7,3.79,3.78,3.79h2.62c.5,1.65,2.04,2.85,3.85,2.85,2.22,0,4.02-1.8,4.02-4.02s-1.8-4.02-4.02-4.02c-1.81,0-3.35,1.2-3.85,2.85h-2.62c-.8,0-1.45-.65-1.45-1.45v-21.82h7.26v11.44c0,2.09,1.7,3.79,3.79,3.79h6.91c.5,1.65,2.04,2.85,3.85,2.85,2.22,0,4.02-1.8,4.02-4.02s-1.8-4.02-4.02-4.02c-1.81,0-3.35,1.2-3.85,2.85h-6.91c-.8,0-1.45-.65-1.45-1.45v-11.44h8.3c6.24,0,11.31-5.08,11.31-11.31s-5.07-11.31-11.31-11.31c-.51-2.24-1.43-4.35-2.74-6.27ZM27.35,64.56c-.93,0-1.69-.76-1.69-1.69s.76-1.69,1.69-1.69,1.69.76,1.69,1.69-.76,1.69-1.69,1.69ZM61.71,77.02c.93,0,1.69.76,1.69,1.69s-.76,1.69-1.69,1.69-1.69-.75-1.69-1.69.75-1.69,1.69-1.69ZM75.6,66.64c.93,0,1.69.76,1.69,1.69s-.76,1.69-1.69,1.69-1.69-.76-1.69-1.69.75-1.69,1.69-1.69Z"/>
    <path class="cls-1" d="M61.71,82.92c-1.79,0-3.41-1.17-3.99-2.85h-2.47c-2.19,0-3.98-1.79-3.98-3.98v-21.63h-5.7v5.33c0,.75-.61,1.36-1.36,1.36s-1.36-.61-1.36-1.36v-5.33h-5.06v5.8c0,2.19-1.78,3.98-3.98,3.98h-2.48c-.58,1.69-2.2,2.85-3.99,2.85-2.32,0-4.21-1.89-4.21-4.22s1.89-4.21,4.21-4.21c1.79,0,3.41,1.17,3.99,2.85h2.48c.69,0,1.26-.56,1.26-1.25v-5.8h-2.46c-8.72,0-15.81-7.09-15.81-15.81s7.09-15.81,15.81-15.81c2.19,0,4.39.47,6.39,1.35,3.52-4.45,8.99-7.1,14.66-7.1,4.73,0,9.24,1.77,12.71,4.99.55.51.58,1.37.07,1.92-.51.55-1.37.58-1.93.07-2.96-2.75-6.81-4.26-10.85-4.26-5.23,0-10.14,2.57-13.13,6.88l-.11.16-.17-.12c-.31.32-.79.43-1.21.29l-.1.18-.17-.09c-1.88-1.01-4.02-1.54-6.17-1.54-7.22,0-13.09,5.87-13.09,13.09s5.87,13.09,13.09,13.09h39.08c4.84,0,8.79-3.94,8.79-8.79s-3.94-8.79-8.79-8.79c-.25,0-.51.01-.82.04-.69.07-1.35-.43-1.46-1.13-.39-2.27-1.24-4.38-2.54-6.29-.2-.3-.28-.66-.21-1.02.07-.36.27-.67.57-.87.61-.42,1.46-.26,1.89.36h0c1.29,1.9,2.21,3.98,2.73,6.19,6.27.08,11.35,5.21,11.35,11.51s-5.16,11.51-11.51,11.51h-8.1v11.25c0,.69.56,1.26,1.26,1.26h6.77c.58-1.69,2.2-2.85,3.99-2.85,2.32,0,4.21,1.89,4.21,4.22s-1.89,4.22-4.21,4.22c-1.79,0-3.41-1.17-3.99-2.85h-6.77c-2.19,0-3.98-1.79-3.98-3.98v-11.25h-6.88v21.63c0,.69.56,1.26,1.26,1.26h2.47c.58-1.69,2.2-2.85,3.99-2.85,2.32,0,4.21,1.89,4.21,4.22s-1.89,4.22-4.21,4.22ZM45.19,54.07h6.47v22.01c0,1.98,1.61,3.59,3.59,3.59h2.76l.04.14c.49,1.6,1.99,2.72,3.66,2.72,2.11,0,3.83-1.72,3.83-3.83s-1.72-3.83-3.83-3.83c-1.67,0-3.18,1.12-3.66,2.72l-.04.14h-2.76c-.9,0-1.64-.74-1.64-1.64v-22.01h7.65v11.64c0,1.98,1.61,3.59,3.59,3.59h7.05l.04.14c.49,1.6,1.99,2.72,3.66,2.72,2.11,0,3.83-1.72,3.83-3.83s-1.72-3.83-3.83-3.83c-1.67,0-3.18,1.12-3.66,2.72l-.04.14h-7.05c-.9,0-1.64-.74-1.64-1.64v-11.64h8.49c6.13,0,11.12-4.99,11.12-11.12s-4.99-11.12-11.12-11.12h-.15l-.03-.15c-.51-2.22-1.42-4.31-2.71-6.21h0c-.3-.44-.91-.56-1.35-.26-.22.15-.36.37-.41.62-.05.26,0,.51.15.73,1.33,1.95,2.2,4.12,2.6,6.44.08.5.56.86,1.05.81.31-.03.6-.04.86-.04,5.06,0,9.17,4.11,9.17,9.17s-4.11,9.17-9.17,9.17h-39.08c-7.43,0-13.47-6.05-13.47-13.47s6.04-13.47,13.47-13.47c2.15,0,4.28.52,6.18,1.5l.09-.17.17.09c.34.19.78.09,1.01-.24l.11-.16.16.11c3.07-4.31,8.04-6.88,13.33-6.88,4.14,0,8.09,1.55,11.12,4.36.39.36,1.01.34,1.38-.05.37-.39.34-1.01-.05-1.38-3.39-3.15-7.81-4.88-12.44-4.88-5.61,0-11.01,2.64-14.45,7.07l-.09.12-.14-.06c-1.99-.9-4.19-1.37-6.37-1.37-8.5,0-15.42,6.92-15.42,15.42s6.92,15.42,15.42,15.42h2.84v6.19c0,.9-.74,1.64-1.64,1.64h-2.76l-.04-.14c-.49-1.6-1.99-2.72-3.66-2.72-2.11,0-3.83,1.72-3.83,3.83s1.72,3.83,3.83,3.83c1.67,0,3.18-1.12,3.66-2.72l.04-.14h2.76c1.98,0,3.59-1.61,3.59-3.59v-6.19h5.83v5.72c0,.54.44.98.98.98s.98-.44.98-.98v-5.72ZM61.71,80.58c-1.03,0-1.88-.84-1.88-1.88s.84-1.88,1.88-1.88,1.88.84,1.88,1.88-.84,1.88-1.88,1.88ZM61.71,77.21c-.82,0-1.49.67-1.49,1.49s.67,1.49,1.49,1.49,1.49-.67,1.49-1.49-.67-1.49-1.49-1.49ZM75.6,70.2c-1.03,0-1.88-.84-1.88-1.88s.84-1.88,1.88-1.88,1.88.84,1.88,1.88-.84,1.88-1.88,1.88ZM75.6,66.83c-.82,0-1.49.67-1.49,1.49s.67,1.49,1.49,1.49,1.49-.67,1.49-1.49-.67-1.49-1.49-1.49ZM27.35,64.76c-1.04,0-1.88-.84-1.88-1.88s.84-1.88,1.88-1.88,1.88.84,1.88,1.88-.84,1.88-1.88,1.88ZM27.35,61.39c-.82,0-1.49.67-1.49,1.49s.67,1.49,1.49,1.49,1.49-.67,1.49-1.49-.67-1.49-1.49-1.49Z"/>
  </g>
  <g>
    <path class="cls-1" d="M44.21,62.52c-.65,0-1.17.52-1.17,1.17v6.95c0,.8-.65,1.45-1.45,1.45h-5.38c-.5-1.65-2.04-2.85-3.85-2.85-2.22,0-4.02,1.8-4.02,4.02s1.8,4.02,4.02,4.02c1.81,0,3.35-1.2,3.85-2.85h5.38c2.08,0,3.78-1.7,3.78-3.79v-6.95c0-.64-.52-1.17-1.17-1.17ZM32.36,74.94c-.93,0-1.69-.76-1.69-1.69s.76-1.69,1.69-1.69,1.69.75,1.69,1.69-.76,1.69-1.69,1.69Z"/>
    <path class="cls-1" d="M32.36,77.47c-2.32,0-4.21-1.89-4.21-4.21s1.89-4.22,4.21-4.22c1.79,0,3.41,1.17,3.99,2.85h5.24c.69,0,1.26-.56,1.26-1.26v-6.95c0-.75.61-1.36,1.36-1.36s1.36.61,1.36,1.36v6.95c0,2.19-1.78,3.98-3.98,3.98h-5.24c-.58,1.69-2.2,2.85-3.99,2.85ZM32.36,69.43c-2.11,0-3.83,1.72-3.83,3.83s1.72,3.83,3.83,3.83c1.67,0,3.17-1.12,3.66-2.72l.04-.14h5.52c1.98,0,3.59-1.61,3.59-3.59v-6.95c0-.54-.44-.97-.98-.97s-.98.44-.98.97v6.95c0,.91-.74,1.64-1.64,1.64h-5.52l-.04-.14c-.49-1.6-1.99-2.72-3.66-2.72ZM32.36,75.13c-1.04,0-1.88-.84-1.88-1.88s.84-1.88,1.88-1.88,1.88.84,1.88,1.88-.84,1.88-1.88,1.88ZM32.36,71.76c-.82,0-1.49.67-1.49,1.49s.67,1.49,1.49,1.49,1.49-.67,1.49-1.49-.67-1.49-1.49-1.49Z"/>
  </g>
</svg>