<?xml version="1.0" encoding="UTF-8"?>
<svg id="Camada_1" data-name="Camada 1" xmlns="http://www.w3.org/2000/svg" xmlns:xlink="http://www.w3.org/1999/xlink" viewBox="0 0 100 100">
  <defs>
    <style>
      .cls-1 {
        fill: none;
      }

      .cls-1, .cls-2 {
        stroke-width: 0px;
      }

      .cls-3 {
        clip-path: url(#clippath);
      }

      .cls-2 {
        fill: #8b47fe;
      }
    </style>
    <clipPath id="clippath">
      <rect class="cls-1" x="16.96" y="14.42" width="66.08" height="71.17"/>
    </clipPath>
  </defs>
  <g class="cls-3">
    <g>
      <path class="cls-2" d="M82.58,15.05c-.38-.42-.91-.65-1.45-.64-.24,0-5.88.1-13.31,2.08-6.9,1.84-16.71,5.73-24.21,13.81-.87.94-1.69,1.91-2.46,2.91-6.08-.89-11.93.95-17.05,5.41-4.37,3.8-6.66,8.15-6.76,8.34-.34.65-.34,1.44-.01,2.1.33.66.95,1.08,1.65,1.13l11.44.77-3.13,3.38c-.38.41-.59.96-.59,1.54s.21,1.13.59,1.54l1.58,1.71s-.04.05-.07.07c-6.8,7.32-7.01,18.66-7.01,19.14,0,.59.21,1.15.59,1.56.38.41.89.64,1.43.64h.03c.45,0,10.98-.23,17.77-7.55.02-.02.04-.05.06-.07l1.59,1.71c.38.41.89.64,1.43.64s1.05-.23,1.43-.64l3.13-3.38.71,12.32c.04.74.44,1.41,1.05,1.77.3.18.63.26.96.26s.68-.09.99-.28c.17-.1,4.21-2.57,7.74-7.27,4.14-5.52,5.85-11.81,5.02-18.36.93-.83,1.83-1.71,2.7-2.65,7.5-8.08,11.11-18.64,12.82-26.07,1.84-8.01,1.93-14.08,1.94-14.34,0-.58-.21-1.15-.59-1.56ZM31.56,55.87l3.44-3.71,13.12,14.13-3.44,3.71-13.12-14.13ZM31.66,62.25s.04-.05.07-.07l7.1,7.65s-.04.05-.07.07c-3.92,4.22-9.61,5.61-12.73,6.06.42-3.36,1.71-9.49,5.63-13.71ZM51.46,63.74l-14.08-15.17c2-5.28,4.9-10.68,9.09-15.19,5.58-6.01,12.63-9.49,18.5-11.5l11.28,12.15c-1.87,6.32-5.1,13.92-10.68,19.93-4.24,4.56-9.33,7.67-14.11,9.79ZM77.45,29.33l-8.13-8.76c4.08-1.05,7.58-1.49,9.69-1.68-.18,2.28-.59,6.04-1.56,10.44ZM26.74,41.92c3.59-3.09,7.48-4.62,11.58-4.58-1.92,3.13-3.44,6.37-4.63,9.49l-10.85-.73c.96-1.27,2.27-2.78,3.9-4.18ZM57.64,75.2c-1.3,1.75-2.7,3.16-3.88,4.2l-.68-11.68c2.9-1.29,5.91-2.92,8.81-4.99.04,4.42-1.38,8.6-4.25,12.47Z"/>
      <path class="cls-2" d="M65.18,33.79c-1.53-1.65-3.57-2.56-5.74-2.56s-4.21.91-5.74,2.56c-3.17,3.41-3.17,8.96,0,12.37,1.53,1.65,3.57,2.56,5.74,2.56s4.21-.91,5.74-2.56c1.53-1.65,2.38-3.85,2.38-6.18s-.84-4.53-2.38-6.18ZM62.33,43.09c-.77.83-1.8,1.29-2.89,1.29s-2.12-.46-2.89-1.29c-1.59-1.72-1.59-4.51,0-6.23.77-.83,1.8-1.29,2.89-1.29s2.12.46,2.89,1.29c.77.83,1.2,1.94,1.2,3.11s-.43,2.28-1.2,3.11Z"/>
    </g>
  </g>
</svg>