<?xml version="1.0" encoding="UTF-8"?>
<svg id="Camada_1" data-name="Camada 1" xmlns="http://www.w3.org/2000/svg" viewBox="0 0 100 100">
  <defs>
    <style>
      .cls-1 {
        fill: #8b47fe;
        stroke-width: 0px;
      }
    </style>
  </defs>
  <path class="cls-1" d="M90.19,42.01l-8.9-15.06c-.34-.57-.78-1.07-1.31-1.47-.53-.4-1.14-.69-1.79-.86-.65-.17-1.32-.21-1.99-.13-.66.09-1.3.3-1.89.63l-1.4.79c-.7.4-1.3.96-1.73,1.63-.44.67-.71,1.43-.78,2.22l-3.02-1.18c-1.88-.74-3.89-1.11-5.91-1.11h-5.61c-2.41,0-4.79.55-6.95,1.59l-9.65-1.18c-2.42-.29-4.88-.04-7.19.74l-2.55.87c-.11-.74-.39-1.45-.82-2.06-.43-.62-.99-1.14-1.65-1.51l-1.38-.79c-.58-.33-1.22-.54-1.89-.63-.66-.09-1.34-.04-1.99.13-.65.17-1.26.46-1.79.86-.53.4-.98.9-1.31,1.47l-8.9,15.06c-.34.57-.55,1.19-.64,1.85-.09.65-.04,1.31.13,1.94.17.63.47,1.23.88,1.75.41.52.92.96,1.5,1.28l1.39.79c.77.44,1.65.66,2.54.66.54,0,1.07-.1,1.58-.27l4.13,5.34c-.27.77-.35,1.6-.23,2.4.12.81.44,1.57.92,2.24.48.66,1.12,1.21,1.87,1.58.74.37,1.56.57,2.4.57.09,0,.17,0,.26-.01.16,1.24.77,2.38,1.73,3.2.96.83,2.19,1.28,3.47,1.28.08,0,.17-.03.25-.03.15,1.24.76,2.39,1.72,3.22.96.83,2.19,1.29,3.47,1.29.08,0,.17-.02.25-.02.16,1.24.77,2.38,1.73,3.21.96.83,2.19,1.28,3.47,1.28.16,0,.31,0,.47-.02.69-.06,1.36-.25,1.97-.56.61-.31,1.16-.74,1.6-1.26l2.12-2.47,1.79,1.6c.69.62,1.54,1.05,2.45,1.25.92.19,1.87.14,2.76-.15.89-.29,1.68-.81,2.3-1.5.62-.7,1.03-1.54,1.19-2.44.26.04.52.07.79.07,1.12,0,2.21-.34,3.11-.99.9-.65,1.56-1.56,1.89-2.61.61.23,1.25.35,1.9.34h.24c.69-.03,1.37-.19,1.99-.48.63-.29,1.19-.69,1.65-1.19.47-.5.83-1.08,1.06-1.72s.34-1.31.31-1.98c-.03-.51-.14-1.02-.33-1.5.98-.32,1.83-.92,2.45-1.72.62-.8.98-1.77,1.03-2.77l5.41-6.65c.79.78,1.83,1.28,2.94,1.42,1.11.14,2.24-.07,3.22-.62l1.39-.79c.58-.33,1.09-.76,1.5-1.28.41-.52.71-1.11.88-1.75.17-.63.22-1.29.13-1.94-.09-.65-.31-1.28-.64-1.84h-.01ZM17.08,46.13c-.22.38-.6.66-1.03.77-.44.11-.9.05-1.29-.17l-1.4-.79c-.19-.11-.36-.26-.5-.43-.14-.17-.24-.37-.29-.58-.06-.21-.07-.43-.04-.65.03-.22.1-.43.21-.62l8.9-15.07c.11-.19.26-.36.44-.49s.38-.23.6-.29c.22-.06.44-.07.67-.04.22.03.44.1.63.21l1.4.79c.39.22.67.58.79,1.01.12.43.06.88-.17,1.26l-8.9,15.07ZM25.08,58.39c-.19-.15-.34-.34-.45-.55-.11-.21-.18-.44-.2-.68-.02-.24,0-.48.08-.71.07-.23.19-.44.35-.62l3.98-4.64c.15-.19.34-.35.56-.46.22-.12.46-.19.7-.21.25-.02.5,0,.73.07.24.07.46.19.65.34.19.16.35.35.46.56.11.21.18.45.2.69s-.01.48-.09.71c-.08.23-.21.44-.37.62l-3.97,4.63c-.16.18-.35.33-.57.44-.21.11-.45.18-.7.2-.24.02-.49,0-.72-.08-.23-.07-.45-.19-.63-.34h0ZM30.52,62.86c-.19-.15-.34-.34-.45-.55-.11-.21-.18-.44-.2-.68-.02-.24,0-.48.08-.7.07-.23.19-.44.35-.62l5.11-5.96c.32-.37.77-.59,1.26-.64.49-.04.98.11,1.36.41.38.31.61.75.65,1.23.04.48-.11.95-.43,1.32l-5.1,5.95c-.16.18-.35.34-.57.45-.21.11-.45.18-.7.2-.24.02-.49,0-.72-.08-.23-.07-.45-.19-.64-.34h-.01ZM35.96,67.34c-.38-.31-.61-.75-.65-1.23-.04-.48.11-.96.43-1.32l3.97-4.63c.16-.18.35-.33.56-.44.22-.11.45-.18.69-.2h.17c.35,0,.7.1,1,.28.3.19.54.45.68.76.15.31.2.66.16,1-.05.34-.19.66-.42.93l-3.96,4.62c-.32.37-.77.6-1.26.64-.49.04-.98-.11-1.35-.42h-.02ZM44.04,71.59c-.16.18-.35.33-.56.44-.21.11-.45.18-.7.2-.49.04-.98-.11-1.36-.42-.19-.15-.34-.34-.45-.55-.11-.21-.18-.44-.2-.68-.02-.24,0-.48.08-.7.07-.23.19-.44.35-.62l2.85-3.29c.16-.18.35-.33.56-.44.22-.11.45-.18.7-.2h.17c.35,0,.7.1,1,.28.3.19.54.45.68.76.15.31.2.66.16,1-.04.34-.19.66-.42.93l-2.85,3.29ZM71.51,56.34c-.16.18-.36.32-.58.42-.22.1-.46.16-.7.17-.45.02-.89-.12-1.23-.4l-4.62-4.21-.08-.07c-.33-.3-.77-.46-1.22-.45-.45.01-.88.2-1.19.53-.31.32-.47.75-.46,1.19.02.44.21.86.54,1.16l6.23,5.67c.27.24.47.56.56.91.09.35.07.72-.05,1.06-.13.34-.35.63-.65.85s-.65.34-1.02.35c-.24.01-.48-.02-.71-.1-.23-.08-.44-.2-.61-.37l-6.16-5.62-.04-.04c-.33-.3-.77-.46-1.22-.45-.45.01-.88.2-1.19.53-.31.32-.47.75-.46,1.19s.21.86.54,1.16l4.12,3.79c.33.33.51.77.52,1.23s-.17.9-.48,1.25c-.32.34-.75.55-1.22.58-.47.04-.93-.1-1.3-.39l-4.11-3.78c-.33-.3-.76-.47-1.22-.45-.45.01-.88.2-1.19.52-.31.32-.48.75-.46,1.19.01.44.2.86.53,1.16l2.99,2.78c.36.33.58.78.6,1.26.02.48-.15.95-.48,1.31-.16.18-.36.32-.58.42-.22.1-.46.16-.7.17-.25.01-.49-.03-.72-.11-.23-.08-.44-.21-.62-.37l-2.32-2.07c.25-.93.22-1.91-.08-2.82-.3-.91-.86-1.73-1.62-2.34-.72-.58-1.58-.97-2.5-1.11.06-.4.08-.8.05-1.2-.1-1.13-.58-2.2-1.37-3.03-.79-.83-1.84-1.39-2.99-1.57.06-.4.08-.8.05-1.2-.07-.77-.32-1.52-.72-2.19-.41-.67-.96-1.23-1.63-1.66-.66-.43-1.42-.7-2.21-.79-.79-.1-1.59-.02-2.34.23-.3-.86-.83-1.62-1.54-2.21-.7-.59-1.56-.99-2.47-1.15-.91-.16-1.85-.08-2.72.23-.87.31-1.64.84-2.23,1.54l-2.91,3.38-3.44-4.46c.04-.07.11-.12.15-.2l8.52-14.45,4.63-1.59c1.81-.62,3.75-.82,5.66-.58l5.33.65-4.37,2.69c-1.39.85-2.39,2.18-2.83,3.72-.43,1.54-.26,3.19.48,4.61.75,1.43,2.01,2.52,3.54,3.08,1.53.56,3.22.54,4.74-.06l11.04-4.39,14.61,12.31c.36.32.58.77.6,1.25.02.48-.15.95-.48,1.3h0ZM74.05,51.73c-.12-.15-.26-.3-.4-.44l-15.44-13c-.24-.2-.53-.33-.83-.38-.31-.05-.63-.02-.91.1l-12,4.77c-.73.29-1.54.3-2.28.03-.74-.27-1.35-.8-1.71-1.48-.36-.68-.44-1.48-.23-2.22.21-.74.7-1.38,1.36-1.79l7.6-4.66c2-1.22,4.3-1.87,6.66-1.87h5.61c1.59,0,3.17.3,4.65.88l5.59,2.19,7.1,12.02-4.77,5.85ZM87.42,44.94c-.06.21-.16.41-.29.58-.13.17-.31.32-.5.43l-1.4.79c-.39.22-.85.28-1.29.17-.44-.11-.81-.39-1.03-.77l-8.9-15.07c-.22-.38-.29-.84-.17-1.26.12-.43.4-.79.79-1.01l1.4-.79c.26-.15.55-.22.85-.22.15,0,.3.02.44.06.21.06.42.15.59.29.18.13.33.3.44.49l8.89,15.06c.11.19.19.4.22.62.03.22.01.44-.05.65Z"/>
</svg>