<?xml version="1.0" encoding="UTF-8"?>
<svg id="Camada_1" data-name="Camada 1" xmlns="http://www.w3.org/2000/svg" xmlns:xlink="http://www.w3.org/1999/xlink" viewBox="0 0 100 100">
  <defs>
    <style>
      .cls-1 {
        fill: none;
      }

      .cls-1, .cls-2 {
        stroke-width: 0px;
      }

      .cls-3 {
        clip-path: url(#clippath);
      }

      .cls-2 {
        fill: #8b47fe;
      }
    </style>
    <clipPath id="clippath">
      <rect class="cls-1" x="18" y="18" width="64" height="64"/>
    </clipPath>
  </defs>
  <g class="cls-3">
    <g>
      <path class="cls-2" d="M33.43,37.72h33.21v2.77h-33.21v-2.77Z"/>
      <path class="cls-2" d="M29.29,64.01c-3.06,0-5.54-2.48-5.54-5.54v-15.22c0-3.06,2.48-5.54,5.54-5.54s5.54,2.48,5.54,5.54v15.22c0,3.06-2.48,5.54-5.54,5.54ZM29.29,40.48c-1.53,0-2.77,1.24-2.77,2.77v15.22c0,1.53,1.24,2.77,2.77,2.77s2.77-1.24,2.77-2.77v-15.22c0-1.53-1.24-2.77-2.77-2.77Z"/>
      <path class="cls-2" d="M70.8,64.01c-3.06,0-5.54-2.48-5.54-5.54v-15.22c0-3.06,2.48-5.54,5.54-5.54s5.54,2.48,5.54,5.54v15.22c0,3.06-2.48,5.54-5.54,5.54ZM70.8,40.48c-1.53,0-2.77,1.24-2.77,2.77v15.22c0,1.53,1.24,2.77,2.77,2.77s2.77-1.24,2.77-2.77v-15.22c0-1.53-1.24-2.77-2.77-2.77Z"/>
      <path class="cls-2" d="M56.96,82c-3.06,0-5.54-2.48-5.54-5.54v-6.92h-2.77v6.92c0,3.06-2.48,5.54-5.54,5.54s-5.53-2.48-5.53-5.54v-6.92h-1.38c-2.29,0-4.15-1.86-4.15-4.15v-26.29c0-9.94,8.05-17.99,17.99-17.99s17.99,8.06,17.99,17.99v26.29c0,2.29-1.86,4.15-4.15,4.15h-1.38v6.92c0,3.06-2.48,5.54-5.53,5.54ZM45.89,66.78h8.3v9.69c0,1.53,1.24,2.77,2.77,2.77s2.77-1.24,2.77-2.77v-9.69h4.15c.76,0,1.38-.62,1.38-1.38v-26.29c0-8.41-6.82-15.22-15.22-15.22s-15.22,6.82-15.22,15.22v26.29c0,.76.62,1.38,1.38,1.38h4.15v9.69c0,1.53,1.24,2.77,2.77,2.77s2.77-1.24,2.77-2.77v-9.69Z"/>
      <path class="cls-2" d="M44.5,30.8h-2.77v2.77h2.77v-2.77Z"/>
      <path class="cls-2" d="M58.34,30.8h-2.77v2.77h2.77v-2.77Z"/>
      <path class="cls-2" d="M37.14,19.59l2.3-1.54,3.83,5.7-2.3,1.54-3.83-5.7Z"/>
      <path class="cls-2" d="M56.78,23.7l3.83-5.7,2.3,1.54-3.83,5.7-2.3-1.54Z"/>
    </g>
  </g>
</svg>