<?xml version="1.0" encoding="UTF-8"?>
<svg id="Camada_1" data-name="Camada 1" xmlns="http://www.w3.org/2000/svg" viewBox="0 0 100 100">
  <defs>
    <style>
      .cls-1 {
        fill: #8b47fe;
        fill-rule: evenodd;
        stroke-width: 0px;
      }
    </style>
  </defs>
  <path class="cls-1" d="M33.38,30.5c.24-.24.52-.43.83-.56.31-.13.64-.2.97-.2.34,0,.67.07.97.2.31.13.59.32.82.56.24.24.42.53.55.85.13.31.19.65.19,1,0,.34-.07.68-.2.99-.13.31-.32.6-.56.84l-15.56,15.81,15.56,15.82c.24.24.42.53.55.84.13.31.19.65.2.99,0,.34-.07.68-.19.99-.13.31-.31.6-.55.84-.24.24-.52.43-.82.56-.31.13-.64.2-.97.2-.33,0-.67-.07-.97-.19-.31-.13-.59-.32-.83-.56l-17.37-17.65c-.24-.24-.43-.53-.55-.85-.13-.32-.19-.65-.19-1s.07-.68.19-1c.13-.31.32-.6.55-.84l17.37-17.65ZM63.04,34.18l15.56,15.81-15.56,15.82c-.24.24-.43.53-.55.84-.13.31-.2.65-.2.99,0,.34.06.68.19.99.13.31.31.6.55.84.24.24.52.43.82.57.31.13.64.2.97.2s.67-.07.97-.2c.31-.13.59-.32.83-.56l17.37-17.65c.24-.24.43-.53.55-.85.13-.32.19-.65.19-1s-.07-.68-.19-1c-.13-.31-.32-.6-.55-.84l-17.37-17.65c-.24-.24-.52-.43-.83-.56-.31-.13-.64-.19-.97-.19s-.66.07-.97.2c-.31.13-.59.32-.82.57s-.42.53-.55.84c-.13.32-.19.65-.19.99,0,.34.07.68.19.99.13.31.32.6.55.84ZM48.72,72.94l7.56-45c.06-.34.05-.68-.03-1.01-.07-.33-.21-.65-.4-.92-.19-.28-.44-.51-.72-.69-.28-.18-.6-.3-.93-.36-.33-.06-.66-.05-.99.03-.32.08-.63.21-.9.41-.27.2-.5.45-.68.74s-.3.61-.36.95l-7.56,45c-.11.68.04,1.37.43,1.93.39.56.98.94,1.65,1.06s1.35-.04,1.89-.44c.55-.4.92-1,1.04-1.68Z"/>
</svg>