<?xml version="1.0" encoding="UTF-8"?>
<svg id="Camada_1" data-name="Camada 1" xmlns="http://www.w3.org/2000/svg" viewBox="0 0 100 100">
  <defs>
    <style>
      .cls-1 {
        fill: #8b47fe;
        stroke-width: 0px;
      }
    </style>
  </defs>
  <path class="cls-1" d="M33.18,43.47c0,3.07.87,6.08,2.5,8.68,1.63,2.6,3.96,4.69,6.72,6.02l.03.12.14-.04c2.15,1.01,4.49,1.53,6.85,1.54,2.37,0,4.71-.51,6.86-1.51h.03v-.02c2.65-1.23,4.92-3.16,6.57-5.57,1.65-2.41,2.62-5.23,2.82-8.15.19-2.92-.4-5.84-1.72-8.45-1.32-2.61-3.31-4.82-5.77-6.39-2.46-1.57-5.3-2.46-8.21-2.55-2.92-.1-5.81.59-8.37,2-2.56,1.41-4.69,3.48-6.18,6-1.49,2.52-2.27,5.39-2.27,8.32ZM53.56,33.69c-.73.13-1.47.23-2.21.29v-2.9c.58.09,1.15.22,1.7.39.19.74.36,1.48.51,2.23ZM53.16,55.45c-.59.18-1.2.32-1.81.42v-2.72c.76.06,1.51.16,2.25.3-.14.67-.28,1.34-.45,2.01ZM45.14,53.44c.8-.15,1.62-.25,2.43-.31v2.74c-.68-.11-1.35-.27-2.01-.49-.16-.64-.3-1.29-.42-1.93ZM45.68,31.53c.62-.2,1.26-.35,1.9-.45v2.92c-.8-.06-1.6-.16-2.39-.3.14-.73.3-1.45.48-2.16h.01ZM47.57,37.79v3.79h-3.36c.06-1.39.17-2.77.35-4.15,1,.17,2,.29,3.01.36ZM47.57,45.37v3.97c-1.02.07-2.03.19-3.04.37-.18-1.44-.29-2.89-.34-4.34h3.38ZM51.35,49.35v-3.98h3.2c-.05,1.44-.16,2.89-.34,4.33-.95-.17-1.9-.28-2.86-.35ZM51.35,41.58v-3.8c.95-.07,1.89-.18,2.83-.35.17,1.38.29,2.76.35,4.15h-3.18ZM39.44,35.99c.47.18.95.36,1.44.51-.23,1.68-.38,3.38-.44,5.08h-3.33c.31-2.03,1.11-3.95,2.34-5.59h0ZM37.1,45.37h3.31c.06,1.76.2,3.52.43,5.27-.44.14-.87.3-1.3.46-1.28-1.67-2.12-3.64-2.44-5.73h0ZM59.34,51.14c-.48-.19-.96-.36-1.44-.52.23-1.75.37-3.5.43-5.26h3.5c-.32,2.11-1.18,4.1-2.48,5.78h0ZM61.82,41.58h-3.51c-.07-1.69-.21-3.38-.44-5.07.54-.18,1.06-.36,1.58-.57,1.24,1.65,2.06,3.59,2.37,5.63h0Z"/>
  <path class="cls-1" d="M80.14,32.72c.5,0,.97-.2,1.32-.56.35-.36.55-.84.55-1.34v-4.89c0-4.74-3.69-8.59-8.21-8.59H26.21c-4.53,0-8.21,3.85-8.21,8.59v35.7c0,4.51,3.33,8.21,7.56,8.57l10.49,11.19c.54.58,1.24.99,2.01,1.16.77.17,1.57.11,2.3-.19.75-.31,1.4-.84,1.85-1.53s.69-1.49.68-2.32v-8.29h30.92c4.53,0,8.21-3.85,8.21-8.59v-19.66c0-.5-.2-.99-.55-1.34-.35-.36-.83-.56-1.32-.56s-.97.2-1.32.56c-.35.36-.55.84-.55,1.34v19.66c0,2.64-2.01,4.79-4.47,4.79h-34.66v12.09c0,.07,0,.13-.04.19-.03.06-.08.1-.14.13-.09.04-.14,0-.21-.06l-11.57-12.35h-.97c-2.46,0-4.47-2.15-4.47-4.79V25.94c0-2.64,2.01-4.8,4.47-4.8h47.59c2.46,0,4.47,2.15,4.47,4.8v4.89c0,.5.2.99.55,1.34.35.36.83.56,1.32.56Z"/>
</svg>