<?xml version="1.0" encoding="UTF-8"?>
<svg id="Camada_1" data-name="Camada 1" xmlns="http://www.w3.org/2000/svg" viewBox="0 0 100 100">
  <defs>
    <style>
      .cls-1 {
        fill: #43eae8;
        stroke-width: 0px;
      }
    </style>
  </defs>
  <path class="cls-1" d="M62.68,41.57h-25.35c-1.78,0-3.22,1.44-3.22,3.22v3.97h-10.21c-2.26,0-4.04,1.85-4.04,4.04v17.75c0,2.26,1.85,4.04,4.04,4.04h4.32l-1.1,1.1c-.48.48-.48,1.23,0,1.71.48.48,1.23.48,1.64,0,0,0,2.33-2.33,3.08-3.08.41-.41.55-1.17,0-1.64-.07-.07-3.01-3.01-3.15-3.15-.48-.48-1.23-.34-1.71.14-.34.41-.34,1.1,0,1.51l1.03,1.03h-4.25c-.89,0-1.64-.75-1.64-1.64v-17.68c0-.89.75-1.64,1.64-1.64h10.21v3.97c0,1.78,1.44,3.22,3.22,3.22h25.49c1.78,0,3.22-1.44,3.22-3.22v-10.42c.07-1.78-1.37-3.22-3.22-3.22ZM63.57,55.21c0,.48-.41.82-.82.82h-25.42c-.48,0-.82-.41-.82-.82v-10.42c0-.48.41-.82.82-.82h25.35c.48,0,.82.41.82.82v10.42h.07Z"/>
  <path class="cls-1" d="M62.68,65.14h-25.35c-1.78,0-3.22,1.44-3.22,3.22v10.42c0,1.78,1.44,3.22,3.22,3.22h25.35c1.78,0,3.22-1.44,3.22-3.22v-10.35c.07-1.85-1.37-3.29-3.22-3.29ZM63.57,78.78c0,.48-.41.82-.82.82h-25.42c-.48,0-.82-.41-.82-.82v-10.35c0-.48.41-.82.82-.82h25.35c.48,0,.82.41.82.82v10.35h.07Z"/>
  <path class="cls-1" d="M76.11,25.19h-10.14v-3.97c0-1.78-1.44-3.22-3.22-3.22h-25.42c-1.78,0-3.22,1.44-3.22,3.22v10.42c0,1.78,1.44,3.22,3.22,3.22h25.35c1.78,0,3.22-1.44,3.22-3.22v-3.97h10.21c.89,0,1.64.75,1.64,1.64v17.54c0,.96-.75,1.64-1.71,1.64h-4.18l1.03-1.03c.48-.48.48-1.23,0-1.71-.48-.48-1.23-.48-1.71,0l-3.01,3.15c-.48.48-.48,1.23,0,1.71l3.08,3.08c.41.48,1.16.55,1.71.14.55-.48.55-1.3,0-1.78l-1.1-1.1h4.32c2.26,0,4.04-1.85,4.04-4.04v-17.61c0-2.26-1.85-4.11-4.11-4.11ZM63.57,31.57c0,.48-.41.82-.82.82h-25.42c-.48,0-.82-.41-.82-.82v-10.35c0-.48.41-.82.82-.82h25.35c.48,0,.82.41.82.82v10.35h.07Z"/>
  <path class="cls-1" d="M77.89,72.75c-.75-.75-3.08-3.08-3.08-3.08-.48-.48-1.23-.48-1.71,0-.48.48-.48,1.23,0,1.71l1.1,1.1h-5.14c-.69,0-1.23.55-1.23,1.23s.55,1.23,1.23,1.23h5.14l-1.1,1.1c-.48.48-.48,1.23,0,1.71.48.48,1.23.48,1.71,0,0,0,2.33-2.33,3.08-3.08.48-.69.48-1.44,0-1.92Z"/>
  <path class="cls-1" d="M21.01,26.57h5.14l-1.1,1.1c-.48.48-.48,1.23,0,1.71.48.48,1.23.48,1.71,0,0,0,2.33-2.33,3.08-3.08.41-.41.55-1.1,0-1.71-.34-.34-3.08-3.08-3.08-3.08-.48-.48-1.23-.48-1.71,0-.48.48-.48,1.23,0,1.64l1.1,1.1h-5.14c-.69,0-1.23.55-1.23,1.23s.55,1.1,1.23,1.1Z"/>
</svg>