<?xml version="1.0" encoding="UTF-8"?>
<svg id="Camada_1" data-name="Camada 1" xmlns="http://www.w3.org/2000/svg" viewBox="0 0 100 100">
  <defs>
    <style>
      .cls-1 {
        fill: #43eae8;
        stroke-width: 0px;
      }
    </style>
  </defs>
  <path class="cls-1" d="M80.96,18.61H19.04c-.51,0-.92.4-.92.89v53.97c0,.49.41.89.92.89h1.46v6.15c0,.49.41.89.92.89h35.72c.51,0,.92-.4.92-.89v-6.15h5.3v6.15c0,.49.41.89.92.89h14.29c.51,0,.92-.4.92-.89v-6.15h1.46c.51,0,.92-.4.92-.89V19.5c0-.49-.41-.89-.92-.89ZM29.49,24.19v-3.8h7.68v5.26h-7.68v-1.46ZM38.09,27.42h1.46v12.3h-12.44v-12.3h10.98ZM19.96,26.53v-6.15h7.68v5.26h-1.46c-.51,0-.92.4-.92.89v1.46h-5.3v-1.46ZM19.96,35.92v-6.15h5.3v7.61h-5.3v-1.46ZM27.64,75.81v3.8h-5.3v-5.26h5.3v1.46ZM34.79,75.81v3.8h-5.3v-5.26h5.3v1.46ZM41.93,75.81v3.8h-5.3v-5.26h5.3v1.46ZM49.08,75.81v3.8h-5.3v-5.26h5.3v1.46ZM56.22,75.81v3.8h-5.3v-5.26h5.3v1.46ZM70.51,75.81v3.8h-5.3v-5.26h5.3v1.46ZM77.65,75.81v3.8h-5.3v-5.26h5.3v1.46ZM80.04,21.84v50.74H19.96v-33.42h5.3v1.46c0,.49.41.89.92.89h1.46v7.61h-1.46c-.51,0-.92.4-.92.89v4.69c0,.49.41.89.92.89h4.76c.51,0,.92-.4.92-.89v-4.69c0-.49-.41-.89-.92-.89h-1.46v-7.61h7.68v20.23c0,.49.41.89.92.89h4.66c.08-.02.16-.04.25-.06l1.23-.23.41,1.18c.79,2.27,2.94,3.8,5.35,3.8,3.14,0,5.69-2.5,5.69-5.58s-2.55-5.58-5.69-5.58c-2.41,0-4.56,1.53-5.35,3.8l-.41,1.17-1.22-.22c-.09-.02-.17-.04-.26-.06h-3.74v-19.34h1.46c.51,0,.92-.4.92-.89v-1.46h5.3v8.5c0,.49.41.89.92.89h6.22v3.8c0,.49.41.89.92.89h1.46v1.46c0,.49.41.89.92.89s.92-.4.92-.89v-1.46h5.3v1.46c0,.49.41.89.92.89s.92-.4.92-.89v-1.46h5.3v1.46c0,.49.41.89.92.89s.92-.4.92-.89v-1.46h1.46c.51,0,.92-.4.92-.89v-9.39c0-.49-.41-.89-.92-.89h-1.46v-1.46c0-.49-.41-.89-.92-.89s-.92.4-.92.89v1.46h-5.3v-1.46c0-.49-.41-.89-.92-.89s-.92.4-.92.89v1.46h-5.3v-1.46c0-.49-.41-.89-.92-.89s-.92.4-.92.89v1.46h-1.46c-.51,0-.92.4-.92.89v3.8h-5.3v-8.5c0-.49-.41-.89-.92-.89h-6.22v-7.61h17.21l.35.96c.81,2.23,2.95,3.73,5.33,3.73,3.14,0,5.69-2.5,5.69-5.58s-2.55-5.58-5.69-5.58c-2.38,0-4.53,1.5-5.33,3.73l-.35.96h-17.21v-1.46c0-.49-.41-.89-.92-.89h-1.46v-5.26h41.02v1.46ZM46.16,61.73c0-2.1,1.72-3.8,3.84-3.8s3.84,1.71,3.84,3.8-1.72,3.8-3.84,3.8-3.84-1.71-3.84-3.8ZM55.69,51.46v-7.61h17.21v7.61h-17.21ZM60.45,28.88c0-2.1,1.72-3.8,3.84-3.8s3.84,1.71,3.84,3.8-1.72,3.8-3.84,3.8-3.84-1.71-3.84-3.8Z"/>
  <path class="cls-1" d="M78.58,81.89h-14.29c-.78,0-1.42-.62-1.42-1.39v-5.65h-4.3v5.65c0,.77-.64,1.39-1.42,1.39H21.42c-.78,0-1.42-.62-1.42-1.39v-5.65h-.96c-.79,0-1.42-.62-1.42-1.39V19.5c0-.77.64-1.39,1.42-1.39h61.92c.79,0,1.42.62,1.42,1.39v53.97c0,.77-.64,1.39-1.42,1.39h-.96v5.65c0,.77-.64,1.39-1.42,1.39ZM57.57,73.85h6.3v6.65c0,.21.19.39.42.39h14.29c.23,0,.42-.17.42-.39v-6.65h1.96c.23,0,.42-.17.42-.39V19.5c0-.21-.19-.39-.42-.39H19.04c-.23,0-.42.17-.42.39v53.97c0,.21.19.39.42.39h1.96v6.65c0,.21.19.39.42.39h35.72c.23,0,.42-.17.42-.39v-6.65ZM78.16,80.12h-6.3v-6.26h6.3v6.26ZM72.86,79.12h4.3v-4.26h-4.3v4.26ZM71.01,80.12h-6.3v-6.26h6.3v6.26ZM65.71,79.12h4.3v-4.26h-4.3v4.26ZM56.72,80.12h-6.3v-6.26h6.3v6.26ZM51.42,79.12h4.3v-4.26h-4.3v4.26ZM49.58,80.12h-6.3v-6.26h6.3v6.26ZM44.28,79.12h4.3v-4.26h-4.3v4.26ZM42.43,80.12h-6.3v-6.26h6.3v6.26ZM37.13,79.12h4.3v-4.26h-4.3v4.26ZM35.29,80.12h-6.3v-6.26h6.3v6.26ZM29.99,79.12h4.3v-4.26h-4.3v4.26ZM28.14,80.12h-6.3v-6.26h6.3v6.26ZM22.84,79.12h4.3v-4.26h-4.3v4.26ZM80.54,73.08H19.46v-34.42h6.3v1.96c0,.21.19.39.42.39h1.96v8.61h-1.96c-.23,0-.42.17-.42.39v4.69c0,.21.19.39.42.39h4.76c.23,0,.42-.17.42-.39v-4.69c0-.21-.19-.39-.42-.39h-1.96v-8.61h8.68v20.73c0,.21.19.39.42.39h4.6c.07-.02.15-.04.22-.05l1.65-.3.55,1.59c.72,2.07,2.68,3.46,4.88,3.46,2.86,0,5.19-2.28,5.19-5.08s-2.33-5.08-5.19-5.08c-2.2,0-4.16,1.39-4.88,3.46l-.55,1.58-1.64-.29c-.08-.01-.16-.03-.24-.05h-4.17v-20.34h1.96c.23,0,.42-.17.42-.39v-1.96h6.3v9c0,.21.19.39.42.39h6.72v4.31c0,.21.19.39.42.39h1.96v1.96c0,.21.19.39.42.39s.42-.17.42-.39v-1.96h6.3v1.96c0,.21.19.39.42.39s.42-.17.42-.39v-1.96h6.3v1.96c0,.21.19.39.42.39s.42-.17.42-.39v-1.96h1.96c.23,0,.42-.17.42-.39v-9.39c0-.21-.19-.39-.42-.39h-1.96v-1.96c0-.21-.19-.39-.42-.39s-.42.17-.42.39v1.96h-6.3v-1.96c0-.21-.19-.39-.42-.39s-.42.17-.42.39v1.96h-6.3v-1.96c0-.21-.19-.39-.42-.39s-.42.17-.42.39v1.96h-1.96c-.23,0-.42.17-.42.39v4.31h-6.3v-9c0-.21-.19-.39-.42-.39h-6.72v-8.61h18.06l.47,1.29c.74,2.03,2.69,3.4,4.86,3.4,2.86,0,5.19-2.28,5.19-5.08s-2.33-5.08-5.19-5.08c-2.17,0-4.13,1.37-4.87,3.4l-.47,1.29h-18.06v-1.96c0-.21-.19-.39-.42-.39h-1.96v-6.26h42.02v53.19ZM20.46,72.08h59.07V20.88h-40.02v4.26h.96c.78,0,1.42.62,1.42,1.39v.96h16.36l.23-.63c.88-2.43,3.21-4.06,5.81-4.06,3.41,0,6.19,2.73,6.19,6.08s-2.78,6.08-6.19,6.08c-2.59,0-4.92-1.63-5.8-4.06l-.23-.63h-16.36v6.61h5.72c.79,0,1.42.62,1.42,1.39v8h4.3v-3.31c0-.77.64-1.39,1.42-1.39h.96v-.96c0-.77.64-1.39,1.42-1.39s1.42.62,1.42,1.39v.96h4.3v-.96c0-.77.64-1.39,1.42-1.39s1.42.62,1.42,1.39v.96h4.3v-.96c0-.77.64-1.39,1.42-1.39s1.42.62,1.42,1.39v.96h.96c.78,0,1.42.62,1.42,1.39v9.39c0,.77-.64,1.39-1.42,1.39h-.96v.96c0,.77-.64,1.39-1.42,1.39s-1.42-.62-1.42-1.39v-.96h-4.3v.96c0,.77-.64,1.39-1.42,1.39s-1.42-.62-1.42-1.39v-.96h-4.3v.96c0,.77-.64,1.39-1.42,1.39s-1.42-.62-1.42-1.39v-.96h-.96c-.78,0-1.42-.62-1.42-1.39v-3.31h-5.72c-.78,0-1.42-.62-1.42-1.39v-8h-4.3v.96c0,.77-.64,1.39-1.42,1.39h-.96v18.34l3.37.02c.07.02.14.04.22.05l.8.14.27-.77c.86-2.47,3.2-4.13,5.83-4.13,3.41,0,6.19,2.73,6.19,6.08s-2.78,6.08-6.19,6.08c-2.62,0-4.97-1.66-5.83-4.13l-.27-.78-.81.15c-.07.01-.14.03-.21.05l-.13.02h-4.66c-.78,0-1.42-.62-1.42-1.39v-19.73h-6.68v6.61h.96c.79,0,1.42.62,1.42,1.39v4.69c0,.77-.64,1.39-1.42,1.39h-4.76c-.78,0-1.42-.62-1.42-1.39v-4.69c0-.77.64-1.39,1.42-1.39h.96v-6.61h-.96c-.78,0-1.42-.62-1.42-1.39v-.96h-4.3v32.42ZM50,66.04c-2.39,0-4.34-1.93-4.34-4.3s1.95-4.3,4.34-4.3,4.34,1.93,4.34,4.3-1.95,4.3-4.34,4.3ZM50,58.43c-1.84,0-3.34,1.48-3.34,3.3s1.5,3.3,3.34,3.3,3.34-1.48,3.34-3.3-1.5-3.3-3.34-3.3ZM73.39,51.96h-18.21v-8.61h18.21v8.61ZM56.19,50.96h16.21v-6.61h-16.21v6.61ZM40.05,40.23h-13.44v-13.3h13.44v13.3ZM27.61,39.23h11.44v-11.3h-11.44v11.3ZM25.76,37.88h-6.3v-8.61h6.3v8.61ZM20.46,36.88h4.3v-6.61h-4.3v6.61ZM64.29,33.19c-2.39,0-4.34-1.93-4.34-4.31s1.95-4.3,4.34-4.3,4.34,1.93,4.34,4.3-1.95,4.31-4.34,4.31ZM64.29,25.58c-1.84,0-3.34,1.48-3.34,3.3s1.5,3.31,3.34,3.31,3.34-1.48,3.34-3.31-1.5-3.3-3.34-3.3ZM25.76,28.49h-6.3v-8.61h8.68v6.26h-1.96c-.23,0-.42.17-.42.39v1.96ZM20.46,27.49h4.3v-.96c0-.77.64-1.39,1.42-1.39h.96v-4.26h-6.68v6.61ZM37.67,26.15h-8.68v-6.26h8.68v6.26ZM29.99,25.15h6.68v-4.26h-6.68v4.26Z"/>
</svg>