<?xml version="1.0" encoding="UTF-8"?>
<svg id="Camada_1" data-name="Camada 1" xmlns="http://www.w3.org/2000/svg" xmlns:xlink="http://www.w3.org/1999/xlink" viewBox="0 0 100 100">
  <defs>
    <style>
      .cls-1 {
        stroke-linecap: round;
      }

      .cls-1, .cls-2 {
        fill: none;
        stroke: #43eae8;
        stroke-linejoin: round;
        stroke-width: 3px;
      }

      .cls-3 {
        fill: #fff;
        stroke-width: 0px;
      }

      .cls-4 {
        mask: url(#mask);
      }
    </style>
    <mask id="mask" x="17.23" y="17.46" width="65.54" height="65.08" maskUnits="userSpaceOnUse">
      <g id="mask5_1734_2729" data-name="mask5 1734 2729">
        <path class="cls-3" d="M17.46,17.46h65.08v65.08H17.46V17.46Z"/>
      </g>
    </mask>
  </defs>
  <g class="cls-4">
    <g>
      <path class="cls-2" d="M81.27,33.49c0-2.47-2.56-4.74-6.83-6.53-5.73-2.4-14.55-3.94-24.44-3.94s-18.71,1.54-24.44,3.94c-4.27,1.79-6.83,4.06-6.83,6.53"/>
      <path class="cls-2" d="M61.37,49.36c5.16.68,9.65,1.8,13.06,3.22"/>
      <path class="cls-2" d="M25.56,52.59c3.4-1.43,7.9-2.55,13.06-3.22"/>
      <path class="cls-1" d="M44.28,76.99h-11.44v-7.48c0-4.19,3.4-7.59,7.59-7.59h3.92v-3.02"/>
      <path class="cls-1" d="M55.65,58.9v3.02h3.92c4.19,0,7.59,3.4,7.59,7.59v7.48h-11.51"/>
      <path class="cls-2" d="M61.38,49.36c-.12,4.09-2.4,7.63-5.73,9.54-1.67.95-3.59,1.5-5.65,1.5s-3.98-.54-5.65-1.5c-3.33-1.91-5.61-5.46-5.73-9.54"/>
      <path class="cls-2" d="M38.95,38.66c1.24-4.95,5.71-8.62,11.04-8.62,3.14,0,5.99,1.28,8.05,3.33,1.43,1.43,2.49,3.25,2.99,5.28"/>
      <path class="cls-2" d="M62.91,40.18v7.66c0,.84-.68,1.52-1.52,1.52h-7.01c-.42,0-.81-.17-1.1-.47l-3.27-3.45-3.27,3.45c-.29.3-.68.47-1.1.47h-7.01c-.84,0-1.52-.68-1.52-1.52v-7.66c0-.84.68-1.52,1.52-1.52h22.77c.84,0,1.52.68,1.52,1.52Z"/>
      <path class="cls-2" d="M55.65,61.92v1.7c0,.4-.16.79-.45,1.08-.8.8-2.58,2.22-5.2,2.22-.37,0-3.13-.05-5.23-2.24-.27-.28-.42-.66-.42-1.05v-1.71"/>
      <path class="cls-1" d="M59.11,76.99v-5.36"/>
      <path class="cls-1" d="M40.9,71.63v5.36"/>
      <path class="cls-1" d="M48.63,54.34c.21.1.74.32,1.45.3.62-.02,1.07-.2,1.28-.3"/>
      <path class="cls-2" d="M74.44,52.59v-12.57c4.27-1.79,6.83-4.06,6.83-6.53v25.64c0,2.47-2.56,4.74-6.83,6.53v-13.07Z"/>
      <path class="cls-2" d="M25.56,52.59v-12.57c-4.27-1.79-6.83-4.06-6.83-6.53v25.63c0,2.47,2.56,4.74,6.83,6.53v-13.07Z"/>
    </g>
  </g>
</svg>