<?xml version="1.0" encoding="UTF-8"?>
<svg id="Camada_1" data-name="Camada 1" xmlns="http://www.w3.org/2000/svg" viewBox="0 0 400 400">
  <defs>
    <style>
      .cls-1 {
        fill: #8b47fe;
        stroke-width: 0px;
      }
    </style>
  </defs>
  <path class="cls-1" d="M352.09,93.47h0s0,0,0,0c-4.78-4.61-11.19-7.18-17.86-7.16H65.78c-6.6-.01-12.95,2.5-17.72,7.02h0s0,.01,0,.01h0s0,0,0,0c-2.52,2.36-4.52,5.21-5.89,8.37-1.36,3.16-2.06,6.56-2.05,10v176.58c0,6.74,2.71,13.2,7.53,17.96,4.81,4.76,11.34,7.44,18.15,7.45h268.43c6.81,0,13.34-2.68,18.15-7.45,4.81-4.76,7.52-11.23,7.52-17.96V111.71c.01-3.4-.67-6.78-2.02-9.91-1.34-3.14-3.31-5.97-5.79-8.33ZM245.54,199.83l101.38-93.08c.63,1.58.95,3.26.94,4.95v176.58c0,1.69-.32,3.36-.94,4.93l-101.39-93.39ZM334.22,98.2c1.27,0,2.54.18,3.76.52l-137.87,126.58-72.8-66.83-65.12-59.79c1.17-.32,2.38-.48,3.59-.48h268.43ZM53.07,293.22c-.62-1.57-.94-3.24-.94-4.93V111.71c0-1.75.34-3.48,1-5.1l65.99,60.6,35.43,32.53-101.49,93.49ZM65.78,301.8c-1.28,0-2.56-.18-3.79-.53l101.41-93.41,32.61,29.94c1.11,1.02,2.57,1.59,4.09,1.59s2.98-.57,4.09-1.59l32.5-29.84,101.31,93.32c-1.23.35-2.51.53-3.79.53H65.78Z"/>
</svg>