<?xml version="1.0" encoding="UTF-8"?>
<svg id="Camada_1" data-name="Camada 1" xmlns="http://www.w3.org/2000/svg" viewBox="0 0 400 400">
  <defs>
    <style>
      .cls-1 {
        fill: #8b47fe;
        stroke-width: 0px;
      }
    </style>
  </defs>
  <path class="cls-1" d="M334.47,277.53c-1.65-8.04-6.98-15.23-14.62-19.73-14.14-8.32-28.73-16.27-42.85-23.97l-9.7-5.29c-12.26-6.7-20.69-5.46-25.61-3.23-4.68,2.13-10.83,7.25-13.53,19.58-.04.19-.07.4-.09.63-.85,3.19-3.21,4.48-4.57,4.97-3.12,1.12-6.8.38-9.82-1.98-23.57-18.5-43.97-38.72-62.37-61.84-2.35-2.94-3.08-6.54-1.96-9.63.52-1.45,1.94-3.98,5.86-4.81t.01,0c.19-.02.38-.05.57-.09,12.55-2.76,17.54-9.18,19.52-14.08,2.23-5.51,2.98-14.94-6.11-28.55-6.84-10.2-12.56-21.35-18.09-32.13-2.51-4.9-5.03-9.8-7.65-14.63-5.2-9.59-12.12-15.56-20.04-17.27-7.16-1.56-14.72.5-21.89,5.9-7.11,5.41-14.66,11.35-21.76,18.19-15.32,14.86-18.81,33.65-10.13,54.33,36.9,87.9,100.46,150.77,188.91,186.86,6.94,2.84,13.67,4.25,20.12,4.25,11.65,0,22.35-4.61,31.58-13.72,7.54-7.39,14.14-15.89,19.78-23.35,4.36-5.92,5.93-13.17,4.44-20.43ZM320.97,291.25c-5.36,7.07-11.65,15.19-18.66,22.05-11.19,11.04-24.1,13.37-39.47,7.07-85.58-34.92-147.08-95.75-182.78-180.79-6.94-16.53-4.46-30.24,7.56-41.91,6.67-6.42,13.92-12.12,20.75-17.31,3.62-2.73,7.08-4.11,10.31-4.11.79,0,1.57.08,2.34.25,4.59.99,8.91,5.01,12.49,11.62,2.58,4.76,5.05,9.58,7.53,14.41,5.68,11.07,11.55,22.51,18.76,33.25,4.96,7.43,6.75,13.85,5.03,18.1-1.67,4.13-6.71,6.16-10.88,7.16-.8.05-1.33.24-1.41.29-6.54,1.37-11.57,5.71-13.82,11.93-2.45,6.78-1.05,14.42,3.74,20.44,18.95,23.8,39.96,44.63,64.24,63.69,6.12,4.78,13.83,6.16,20.64,3.72,6.15-2.21,10.48-7.16,11.88-13.58.04-.2.07-.43.09-.68.98-4.22,2.99-9.42,7.07-11.27,4.63-2.1,10.99.39,15.49,2.85l9.71,5.3c14.04,7.65,28.56,15.56,42.53,23.78,4.89,2.88,8.28,7.36,9.29,12.3.85,4.1-.03,8.2-2.43,11.46Z"/>
</svg>