<?xml version="1.0" encoding="UTF-8"?>
<svg id="Camada_1" data-name="Camada 1" xmlns="http://www.w3.org/2000/svg" viewBox="0 0 100 100">
  <defs>
    <style>
      .cls-1 {
        fill: #8b47fe;
        stroke-width: 0px;
      }
    </style>
  </defs>
  <path class="cls-1" d="M97.96,31.06l-47.6-13.01c-.24-.06-.48-.06-.72,0L2.04,31.06c-.59.16-1,.69-1,1.3s.41,1.14,1,1.3l19.72,5.39v23.53c0,.55.31,1.04.8,1.28.15.07,3.45,1.68,8.33,3.4l-.34,1.59-.03.28v11.5c0,.75.61,1.35,1.35,1.35h7.03c.75,0,1.35-.61,1.35-1.35v-10.47c3.3.72,6.39,1.11,9.19,1.11.06,0,.49,0,.55,0,.07,0,.14,0,.21,0,12.7,0,26.68-6.75,27.27-7.04.47-.23.76-.7.76-1.21v-23.98l19.72-5.39c.59-.16,1-.69,1-1.3s-.41-1.14-1-1.3h0ZM24.68,62.41v-23.51l9.74,2.68v10.02c-1.88.61-3.26,2.35-3.26,4.44,0,1.37.61,2.6,1.55,3.46l-1.21,5.67c-3.17-1.13-5.63-2.2-6.82-2.75h0ZM35.23,57.6c-.97,0-1.75-.79-1.75-1.75s.79-1.75,1.75-1.75,1.75.79,1.75,1.75-.79,1.75-1.75,1.75ZM37.34,79.08h-.97v-5.06c0-.75-.65-1.35-1.46-1.35s-1.46.61-1.46,1.35v5.06h-.97v-9.78l1.96-8.86c.16.02.31.05.47.05s.31-.03.47-.05l1.81,8.18s0,.03.01.05l.14.63v9.78ZM75.32,61.96c-3.07,1.39-14.85,6.41-25.29,6.41-.06,0-.13,0-.19,0,0,0,0,0,0,0,0,0,0,0,0,0-3.04,0-6.44-.41-10.12-1.23l-1.7-7.95c.91-.82,1.49-1.98,1.49-3.29,0-1.98-1.32-3.65-3.12-4.22v-8.79l13.1,3.59c.12.03.24.05.36.05s.24-.02.36-.05l25.13-6.88v22.38h0ZM49.98,43.71l-11.83-3.25,8.24-6.6c.95.62,2.2,1,3.59,1,3.04,0,5.42-1.79,5.42-4.07s-2.38-4.07-5.42-4.07-5.42,1.79-5.42,4.07c0,.33.05.65.15.95l-9.78,7.83-27.16-7.47,42.22-11.61,42.22,11.61-42.22,11.61ZM47.47,31.25s-.01-.01-.02-.02c-.13-.15-.19-.31-.19-.45,0-.56,1.06-1.36,2.72-1.36s2.72.81,2.72,1.36-1.06,1.37-2.72,1.37c-1.23,0-2.13-.44-2.51-.9h0Z"/>
</svg>