<svg width="107" height="78" viewBox="0 0 107 78" fill="none" xmlns="http://www.w3.org/2000/svg">
<path d="M102.576 19.8711L57.6956 0.87907C56.3162 0.298869 54.8349 0 53.3386 0C51.8422 0 50.3609 0.298869 48.9816 0.87907L4.09656 19.8711C2.88227 20.3832 1.84596 21.242 1.1173 22.34C0.388644 23.4381 0 24.7267 0 26.0446C0 27.3624 0.388644 28.651 1.1173 29.7491C1.84596 30.8472 2.88227 31.706 4.09656 32.2181L19.8266 38.8701V60.2561C19.8146 62.1768 20.3027 64.0675 21.243 65.7423C22.1834 67.4171 23.5435 68.8183 25.1896 69.8081C33.7315 74.8022 43.4483 77.4343 53.3431 77.4343C63.2379 77.4343 72.9546 74.8022 81.4966 69.8081C83.1425 68.8182 84.5024 67.4169 85.4425 65.7421C86.3827 64.0673 86.8707 62.1767 86.8586 60.2561V38.8701L93.5586 36.0321V46.6321C92.6616 47.0209 91.8831 47.6395 91.3015 48.4253C90.72 49.2111 90.3559 50.1363 90.246 51.1077C90.1362 52.0792 90.2845 53.0624 90.6759 53.9582C91.0674 54.854 91.6881 55.6307 92.4756 56.2101C91.7744 56.7258 91.204 57.3987 90.8101 58.1749C90.4162 58.951 90.2099 59.8087 90.2076 60.6791V66.2651C90.2076 66.8576 90.4429 67.4258 90.8619 67.8447C91.2808 68.2637 91.8491 68.4991 92.4416 68.4991H99.1416C99.734 68.4991 100.302 68.2637 100.721 67.8447C101.14 67.4258 101.376 66.8576 101.376 66.2651V60.6781C101.373 59.8077 101.167 58.95 100.773 58.1739C100.379 57.3977 99.8087 56.7248 99.1076 56.2091C99.8957 55.6298 100.517 54.8528 100.909 53.9566C101.301 53.0604 101.449 52.0767 101.339 51.1048C101.229 50.1328 100.865 49.2071 100.283 48.4211C99.7005 47.6351 98.9212 47.0166 98.0236 46.6281V34.1421L102.573 32.2181C103.787 31.706 104.823 30.8472 105.552 29.7491C106.28 28.651 106.669 27.3624 106.669 26.0446C106.669 24.7267 106.28 23.4381 105.552 22.34C104.823 21.242 103.787 20.3832 102.573 19.8711H102.576ZM96.9136 51.7411C96.9136 51.962 96.848 52.178 96.7253 52.3616C96.6026 52.5453 96.4281 52.6885 96.224 52.773C96.0199 52.8576 95.7953 52.8797 95.5786 52.8366C95.362 52.7935 95.1629 52.6871 95.0067 52.5309C94.8505 52.3747 94.7441 52.1757 94.701 51.959C94.6579 51.7423 94.68 51.5177 94.7646 51.3136C94.8491 51.1095 94.9923 50.9351 95.176 50.8123C95.3597 50.6896 95.5756 50.6241 95.7966 50.6241C96.0928 50.6241 96.3769 50.7418 96.5864 50.9512C96.7959 51.1607 96.9136 51.4448 96.9136 51.7411ZM96.9136 64.0301H94.6756V60.6781C94.6756 60.3818 94.7932 60.0977 95.0027 59.8882C95.2122 59.6788 95.4963 59.5611 95.7926 59.5611C96.0888 59.5611 96.3729 59.6788 96.5824 59.8882C96.7919 60.0977 96.9096 60.3818 96.9096 60.6781L96.9136 64.0301ZM82.3906 60.2561C82.4035 61.3989 82.1187 62.5254 81.5643 63.5248C81.0099 64.5242 80.2049 65.3621 79.2286 65.9561C71.3736 70.5447 62.4401 72.9629 53.3431 72.9629C44.246 72.9629 35.3125 70.5447 27.4576 65.9561C26.4812 65.3621 25.6762 64.5242 25.1218 63.5248C24.5674 62.5254 24.2827 61.3989 24.2956 60.2561V40.7561L48.9896 51.2091C50.3687 51.7899 51.8501 52.0891 53.3466 52.0891C54.843 52.0891 56.3244 51.7899 57.7036 51.2091L82.3906 40.7561V60.2561ZM100.841 28.0981L55.9546 47.0951C55.1275 47.4424 54.2396 47.6213 53.3426 47.6213C52.4456 47.6213 51.5576 47.4424 50.7306 47.0951L5.84556 28.1031C5.44094 27.9322 5.09568 27.6458 4.85292 27.2798C4.61016 26.9138 4.48069 26.4843 4.48069 26.0451C4.48069 25.6059 4.61016 25.1764 4.85292 24.8103C5.09568 24.4443 5.44094 24.1579 5.84556 23.9871L50.7306 4.99407C51.5574 4.64599 52.4455 4.46669 53.3426 4.46669C54.2397 4.46669 55.1277 4.64599 55.9546 4.99407L100.84 23.9871C101.244 24.1579 101.589 24.4443 101.832 24.8103C102.075 25.1764 102.204 25.6059 102.204 26.0451C102.204 26.4843 102.075 26.9138 101.832 27.2798C101.589 27.6458 101.244 27.9322 100.84 28.1031L100.841 28.0981Z" fill="#8A47FE"/>
</svg>
