<svg width="104" height="104" viewBox="0 0 104 104" fill="none" xmlns="http://www.w3.org/2000/svg">
<path d="M24.7158 69.5602C27.7876 69.4196 30.687 68.1004 32.811 65.8769C34.9351 63.6534 36.1203 60.6967 36.1203 57.6217C36.1203 54.5467 34.9351 51.5901 32.811 49.3666C30.687 47.1431 27.7876 45.8238 24.7158 45.6832C21.644 45.8238 18.7446 47.1431 16.6206 49.3666C14.4965 51.5901 13.3113 54.5467 13.3113 57.6217C13.3113 60.6967 14.4965 63.6534 16.6206 65.8769C18.7446 68.1004 21.644 69.4196 24.7158 69.5602ZM24.7158 52.1832C26.0622 52.3212 27.3095 52.9538 28.2164 53.9584C29.1233 54.963 29.6253 56.2683 29.6253 57.6217C29.6253 58.9751 29.1233 60.2805 28.2164 61.2851C27.3095 62.2897 26.0622 62.9222 24.7158 63.0602C23.3694 62.9222 22.1221 62.2897 21.2152 61.2851C20.3083 60.2805 19.8063 58.9751 19.8063 57.6217C19.8063 56.2683 20.3083 54.963 21.2152 53.9584C22.1221 52.9538 23.3694 52.3212 24.7158 52.1832ZM48.3108 81.8872C48.1626 80.4756 47.6369 79.13 46.789 77.9919C45.941 76.8537 44.802 75.965 43.4918 75.4192L34.4598 71.0402C33.9334 70.785 33.3478 70.6766 32.7649 70.7264C32.182 70.7762 31.6233 70.9824 31.1478 71.3232C29.2786 72.6833 27.0264 73.4159 24.7148 73.4159C22.4032 73.4159 20.151 72.6833 18.2818 71.3232C17.8063 70.9823 17.2476 70.7761 16.6647 70.7263C16.0818 70.6765 15.4962 70.7849 14.9698 71.0402L5.93779 75.4222C4.62819 75.9679 3.48971 76.8562 2.64193 77.9938C1.79415 79.1314 1.26836 80.4763 1.11979 81.8872L0.0197928 97.7472C-0.0428085 98.5426 0.0597544 99.3423 0.321038 100.096C0.582322 100.85 0.996679 101.542 1.53808 102.128C2.07948 102.714 2.73622 103.181 3.46704 103.501C4.19786 103.821 4.98697 103.987 5.78479 103.987H43.6458C44.4436 103.987 45.2328 103.822 45.9637 103.502C46.6947 103.183 47.3516 102.715 47.8933 102.13C48.435 101.544 48.8497 100.853 49.1113 100.099C49.373 99.3452 49.476 98.5456 49.4138 97.7502L48.3108 81.8872ZM6.55079 97.4872L7.60179 82.3412C7.62379 82.0292 8.09379 81.5992 8.77179 81.2702L16.1718 77.6802C18.7779 79.1478 21.7184 79.9187 24.7093 79.9187C27.7002 79.9187 30.6406 79.1478 33.2468 77.6802L40.6468 81.2702C41.3248 81.5992 41.7948 82.0292 41.8168 82.3402L42.8798 97.4872H6.55079ZM103.986 52.0552L102.886 36.1952C102.738 34.7836 102.212 33.438 101.364 32.2999C100.516 31.1617 99.377 30.273 98.0668 29.7272L89.0348 25.3482C88.5083 25.093 87.9228 24.9846 87.3399 25.0344C86.757 25.0842 86.1983 25.2904 85.7228 25.6312C83.8536 26.9914 81.6015 27.7241 79.2898 27.7241C76.9781 27.7241 74.7259 26.9914 72.8568 25.6312C72.3813 25.2904 71.8226 25.0842 71.2397 25.0344C70.6568 24.9846 70.0712 25.093 69.5448 25.3482L60.5088 29.7272C59.1986 30.273 58.0596 31.1617 57.2116 32.2999C56.3636 33.438 55.8379 34.7836 55.6898 36.1952L54.5898 52.0552C54.5284 52.8499 54.6318 53.6488 54.8936 54.4017C55.1554 55.1545 55.5699 55.8452 56.1112 56.4303C56.6525 57.0154 57.3088 57.4824 58.0391 57.802C58.7693 58.1215 59.5577 58.2867 60.3548 58.2872H98.2168C99.0146 58.2872 99.8038 58.1221 100.535 57.8025C101.266 57.4828 101.923 57.0154 102.464 56.4297C103.006 55.844 103.421 55.1526 103.682 54.3989C103.944 53.6452 104.047 52.8456 103.985 52.0502L103.986 52.0552ZM61.1208 51.7872L62.1748 36.6422C62.1968 36.3302 62.6668 35.9002 63.3448 35.5712L70.7448 31.9812C73.3509 33.4488 76.2914 34.2197 79.2823 34.2197C82.2732 34.2197 85.2136 33.4488 87.8198 31.9812L95.2198 35.5712C95.8978 35.9002 96.3678 36.3302 96.3898 36.6412L97.4508 51.7872H61.1208ZM79.2858 23.8642C82.381 23.7897 85.3204 22.4915 87.4602 20.2538C89.6 18.0162 90.7657 15.0216 90.7018 11.9262C90.7695 10.3852 90.5244 8.84635 89.9813 7.40256C89.4382 5.95878 88.6083 4.63992 87.5418 3.5255C86.4752 2.41109 85.1941 1.52419 83.7755 0.918279C82.3569 0.31237 80.8303 0 79.2878 0C77.7452 0 76.2187 0.31237 74.8001 0.918279C73.3815 1.52419 72.1003 2.41109 71.0338 3.5255C69.9672 4.63992 69.1374 5.95878 68.5943 7.40256C68.0512 8.84635 67.8061 10.3852 67.8738 11.9262C67.8099 15.021 68.975 18.0149 71.1139 20.2524C73.2529 22.49 76.1913 23.7887 79.2858 23.8642ZM79.2858 6.48723C80.6574 6.5607 81.9443 7.17393 82.8654 8.19298C83.7865 9.21204 84.2669 10.5541 84.2018 11.9262C84.2712 12.6132 84.1958 13.3071 83.9804 13.9631C83.765 14.6191 83.4145 15.2227 82.9515 15.7348C82.4884 16.247 81.9231 16.6564 81.2921 16.9366C80.661 17.2168 79.9783 17.3615 79.2878 17.3615C78.5973 17.3615 77.9145 17.2168 77.2835 16.9366C76.6525 16.6564 76.0872 16.247 75.6241 15.7348C75.1611 15.2227 74.8106 14.6191 74.5952 13.9631C74.3798 13.3071 74.3044 12.6132 74.3738 11.9262C74.3087 10.5548 74.7886 9.21328 75.7088 8.19433C76.629 7.17539 77.9148 6.56172 79.2858 6.48723ZM82.5358 65.5142V73.8012C82.5313 77.7001 80.9805 81.438 78.2235 84.195C75.4666 86.9519 71.7287 88.5027 67.8298 88.5072H56.6298C55.7678 88.5072 54.9412 88.1648 54.3317 87.5553C53.7222 86.9458 53.3798 86.1192 53.3798 85.2572C53.3798 84.3953 53.7222 83.5686 54.3317 82.9591C54.9412 82.3496 55.7678 82.0072 56.6298 82.0072H67.8298C70.0054 82.0046 72.091 81.1392 73.6294 79.6008C75.1677 78.0625 76.0331 75.9768 76.0358 73.8012V65.5142C76.0358 64.6523 76.3782 63.8256 76.9877 63.2161C77.5972 62.6066 78.4238 62.2642 79.2858 62.2642C80.1477 62.2642 80.9744 62.6066 81.5839 63.2161C82.1934 63.8256 82.5358 64.6523 82.5358 65.5142ZM21.4658 38.4582V26.7582C21.4703 22.8593 23.0211 19.1214 25.778 16.3645C28.535 13.6075 32.2729 12.0567 36.1718 12.0522H59.9078C60.7697 12.0522 61.5964 12.3946 62.2059 13.0041C62.8154 13.6136 63.1578 14.4403 63.1578 15.3022C63.1578 16.1642 62.8154 16.9908 62.2059 17.6003C61.5964 18.2098 60.7697 18.5522 59.9078 18.5522H36.1718C33.9962 18.5549 31.9105 19.4203 30.3722 20.9586C28.8338 22.497 27.9684 24.5827 27.9658 26.7582V38.4582C27.9658 39.3202 27.6234 40.1468 27.0139 40.7563C26.4044 41.3658 25.5777 41.7082 24.7158 41.7082C23.8538 41.7082 23.0272 41.3658 22.4177 40.7563C21.8082 40.1468 21.4658 39.3202 21.4658 38.4582Z" fill="#8A47FE"/>
</svg>
