<?xml version="1.0" encoding="UTF-8"?>
<svg id="Camada_1" data-name="Camada 1" xmlns="http://www.w3.org/2000/svg" viewBox="0 0 100 100">
  <defs>
    <style>
      .cls-1 {
        fill: #8b47fe;
        stroke-width: 0px;
      }
    </style>
  </defs>
  <path class="cls-1" d="M85.49,22.61c-4.14-5.42-7.68-7.7-13.54-3.24l-4.21,3.21c-1.01.77-4.73,1.03-8.32,1.27-.28.02-.56.04-.84.06l-1.11-.47c-4.35-1.85-6.33-2.69-11.36-2.28-1.01.09-2.15.21-3.35.33-3.27.35-9.03.94-11.05.72-.07-.09-.13-.18-.23-.26l-3.17-2.48c-5.79-4.54-9.37-2.31-13.59,3.06l-6.59,8.4c-2.06,2.62-3.91,5.44-3.57,8.27.24,1.99,1.46,3.77,2.65,4.7l4.53,3.55c.93.74,1.57,1.51,2.02,2.37l-1.96,2.06c-1.42,1.49-1.84,3.72-1.1,5.8.72,2.02,2.44,3.65,4.49,4.27.59.17,1.19.26,1.76.26.29,0,.56-.04.83-.08-.08.85.02,1.73.32,2.59.72,2.01,2.44,3.65,4.49,4.26.59.17,1.19.26,1.77.26.28,0,.56-.04.83-.08-.08.85.02,1.73.32,2.6.72,2.02,2.44,3.64,4.5,4.26.59.17,1.18.26,1.76.26.36,0,.72-.03,1.06-.1.05.42.14.83.3,1.24.66,1.82,2.22,3.3,4.07,3.86.56.17,1.12.26,1.68.26,1.35,0,2.62-.51,3.52-1.46h0s.52-.56.52-.56l3.61,2.81c.42.33,1.45.66,2.51.66.79,0,1.6-.18,2.38-.56,1.75-.83,3.08-2.53,3.46-4.41.04-.22.07-.44.09-.66.39.08.77.14,1.18.14.86,0,1.74-.19,2.58-.58,1.94-.91,3.41-2.77,3.81-4.87.09-.46.12-.92.11-1.38.54.18,1.12.27,1.71.27.86,0,1.74-.19,2.58-.58,1.94-.9,3.4-2.77,3.81-4.87.07-.36.1-.73.11-1.08.77.39,1.62.6,2.5.6s1.74-.19,2.58-.58c1.94-.9,3.4-2.77,3.82-4.87.36-1.84-.12-3.64-1.25-4.92,3.32-1.45,6.96-3.53,9.98-7.38l2.98-2.28c2.4-1.83,3.65-3.6,3.92-5.57.36-2.68-1.12-5.26-3.46-8.33l-6.48-8.5ZM16.87,24.4c4.12-5.26,6.23-5.81,10.25-2.67l2.2,1.72-16.97,21.63-3.13-2.44c-.92-.73-1.86-2.02-2.02-3.33-.2-1.6.7-3.49,3.08-6.52l6.59-8.4ZM12.92,57.29c-.44-1.23-.22-2.52.58-3.36l3.98-4.2c.41-.42,1.69-.71,2.96-.34,1.34.4,2.46,1.46,2.92,2.78.44,1.24.22,2.53-.57,3.36h0s-3.99,4.2-3.99,4.2c-.39.42-1.68.7-2.94.33-1.34-.4-2.46-1.46-2.93-2.78ZM20.64,64.33c-.43-1.25-.22-2.54.58-3.38l3.6-3.77c.8-.84,2.08-1.12,3.34-.74,1.34.39,2.46,1.45,2.93,2.77.44,1.24.22,2.53-.58,3.37l-3.59,3.77c-.8.83-2.08,1.13-3.35.75-1.34-.4-2.46-1.47-2.93-2.77ZM27.97,71.37c-.44-1.25-.21-2.53.58-3.37l3.59-3.77h0c.8-.84,2.08-1.13,3.35-.75,1.33.39,2.46,1.46,2.92,2.77.44,1.24.22,2.53-.57,3.37l-3.61,3.78c-.79.83-2.07,1.11-3.33.74-1.34-.4-2.46-1.46-2.93-2.77h0ZM35.5,77.27c-.18-.48-.22-.95-.17-1.4l.54-.57s0,0,0,0h0s3.31-3.47,3.31-3.47c.45-.07.92-.06,1.41.09,1.14.35,2.12,1.27,2.53,2.4.38,1.04.21,2.12-.43,2.8l-1.91,1.99c-.64.68-1.7.91-2.77.57-1.15-.35-2.12-1.27-2.53-2.4h0s0,0,0,0ZM75.24,62.23c-1.2.56-2.5.46-2.96.1l-9.22-7.21c-.52-.41-1.26-.31-1.67.2-.41.52-.32,1.27.2,1.68l6.06,4.75c.91.72,1.32,1.95,1.07,3.24-.27,1.37-1.23,2.59-2.49,3.18-1.2.55-2.52.46-3.42-.26l-6.07-4.75c-.52-.41-1.26-.31-1.67.2-.41.52-.31,1.27.2,1.67l4.17,3.27c.91.72,1.31,1.95,1.06,3.24-.27,1.36-1.22,2.58-2.49,3.17-1.2.55-2.52.46-3.42-.26h0l-4.15-3.26c-.52-.41-1.27-.31-1.68.2-.41.52-.31,1.26.2,1.67l3.84,3c.11.45.14.92.04,1.41-.24,1.18-1.07,2.23-2.15,2.75-1.01.48-2.09.42-2.83-.16l-3.02-2.37c1.06-1.33,1.33-3.18.69-4.95-.67-1.82-2.23-3.29-4.07-3.86-.22-.07-.43-.11-.64-.15.38-1.18.36-2.5-.09-3.77-.72-2.01-2.44-3.65-4.48-4.26-.88-.26-1.76-.31-2.6-.2.07-.84-.02-1.72-.33-2.58-.72-2.03-2.44-3.66-4.49-4.26-.87-.26-1.75-.32-2.6-.2.08-.84-.02-1.72-.33-2.58-.71-2.03-2.43-3.65-4.49-4.26-2.09-.63-4.24-.11-5.67,1.31-.42-.65-.94-1.26-1.57-1.84l17.04-21.72c1.85.34,5.49.07,12.06-.62,1.19-.12,2.32-.24,3.31-.33,3.32-.28,4.96,0,7.42.95-.8.15-1.58.33-2.28.58l-10.76,3.89c-.47.07-.91.13-1.3.18-2.68.37-4.3.59-5.15,2.74-.6,1.55-.15,3.48,1.2,5.03,2.24,2.58,6.09,3.54,10.18,2.58l6.07-.78c2.48-.33,4.61,1.4,6.68,3.05l18.02,14.12c.91.71,1.32,1.96,1.07,3.24-.27,1.37-1.23,2.59-2.49,3.17h0ZM76.79,53.33h0s-16.66-13.04-16.66-13.04c-2.22-1.79-4.99-4-8.47-3.56l-6.19.8c-4.94,1.15-7.34-1.09-7.96-1.79-.75-.87-1.06-1.89-.77-2.6.3-.77.61-.88,3.26-1.25.44-.06.92-.12,1.45-.2.08-.02.15-.03.23-.06l10.87-3.93c1.96-.7,4.68-.89,7.31-1.07,3.49-.24,7.07-.5,9.65-1.91l16.94,22.07c-2.92,3.44-6.35,5.2-9.64,6.55M90.34,43.51l-2.16,1.65-16.74-21.8,2.22-1.69c4.06-3.09,6.16-2.51,10.2,2.8l6.48,8.48c2.34,3.07,3.21,4.97,2.99,6.56-.18,1.31-1.13,2.58-3,4h0Z"/>
</svg>