<svg width="90" height="90" viewBox="0 0 90 90" fill="none" xmlns="http://www.w3.org/2000/svg">
<path d="M45.0012 25.7139C47.3403 25.5254 49.6601 26.2614 51.4628 27.7638C53.2656 29.2662 54.4075 31.4154 54.6437 33.7502C54.6437 34.6027 54.9823 35.4204 55.5852 36.0232C56.188 36.626 57.0056 36.9647 57.8582 36.9647C58.7107 36.9647 59.5283 36.626 60.1312 36.0232C60.734 35.4204 61.0727 34.6027 61.0727 33.7502C60.9208 30.258 59.5523 26.9289 57.2042 24.3395C54.8562 21.7501 51.6764 20.0634 48.2157 19.5716V16.0714C48.2157 15.2189 47.877 14.4013 47.2742 13.7984C46.6713 13.1956 45.8537 12.8569 45.0012 12.8569C44.1486 12.8569 43.331 13.1956 42.7282 13.7984C42.1253 14.4013 41.7867 15.2189 41.7867 16.0714V19.5747C38.3265 20.0664 35.1471 21.7526 32.7991 24.3414C30.4511 26.9302 29.0823 30.2585 28.9297 33.7502C28.9297 43.6504 40.3409 46.9974 44.1008 48.0861C54.1935 51.0429 54.6437 52.8116 54.6437 56.2507C54.4075 58.5855 53.2656 60.7347 51.4628 62.2371C49.6601 63.7395 47.3403 64.4755 45.0012 64.287C42.6621 64.4755 40.3422 63.7395 38.5395 62.2371C36.7368 60.7347 35.5949 58.5855 35.3587 56.2507C35.3587 55.3982 35.02 54.5805 34.4172 53.9777C33.8144 53.3749 32.9967 53.0362 32.1442 53.0362C31.2917 53.0362 30.474 53.3749 29.8712 53.9777C29.2684 54.5805 28.9297 55.3982 28.9297 56.2507C29.0816 59.7429 30.4501 63.072 32.7982 65.6614C35.1462 68.2508 38.326 69.9375 41.7867 70.4293V73.9284C41.7867 74.781 42.1253 75.5986 42.7282 76.2014C43.331 76.8043 44.1486 77.1429 45.0012 77.1429C45.8537 77.1429 46.6713 76.8043 47.2742 76.2014C47.877 75.5986 48.2157 74.781 48.2157 73.9284V70.4252C51.6764 69.9334 54.8562 68.2467 57.2042 65.6573C59.5523 63.0678 60.9208 59.7388 61.0727 56.2466C61.0727 47.0532 54.6437 44.4183 45.9016 41.7823C36.4516 39.1463 35.3587 35.9318 35.3587 33.7471C35.5949 31.4123 36.7368 29.2631 38.5395 27.7607C40.3422 26.2583 42.6621 25.5223 45.0012 25.7108V25.7139Z" fill="#8740F6"/>
<path d="M45 0C36.0998 0 27.3996 2.6392 19.9994 7.58387C12.5991 12.5285 6.83138 19.5566 3.42544 27.7792C0.0194978 36.0019 -0.871652 45.0499 0.864682 53.779C2.60102 62.5082 6.88685 70.5264 13.1802 76.8198C19.4736 83.1131 27.4918 87.399 36.2209 89.1353C44.9501 90.8716 53.9981 89.9805 62.2208 86.5746C70.4434 83.1686 77.4715 77.4009 82.4161 70.0006C87.3608 62.6004 90 53.9001 90 45C90 39.0905 88.836 33.2389 86.5746 27.7792C84.3131 22.3196 80.9984 17.3588 76.8198 13.1802C72.6412 9.00156 67.6804 5.68688 62.2208 3.42542C56.7611 1.16396 50.9095 0 45 0ZM45 83.572C37.3712 83.572 29.9137 81.3098 23.5705 77.0714C17.2274 72.8331 12.2835 66.809 9.36412 59.7609C6.44469 52.7127 5.68084 44.9572 7.16915 37.475C8.65746 29.9927 12.3311 23.1199 17.7255 17.7255C23.1199 12.3311 29.9927 8.65744 37.475 7.16913C44.9572 5.68082 52.7128 6.44467 59.7609 9.3641C66.809 12.2835 72.8331 17.2274 77.0715 23.5705C81.3098 29.9137 83.572 37.3712 83.572 45C83.572 55.2299 79.5082 65.0409 72.2745 72.2745C65.0409 79.5082 55.2299 83.572 45 83.572Z" fill="#8740F6"/>
</svg>
