<svg width="99" height="98" viewBox="0 0 99 98" fill="none" xmlns="http://www.w3.org/2000/svg">
<path d="M5.43516 97.8551H13.5962C14.6151 97.85 15.607 97.5273 16.434 96.9321C17.261 96.3369 17.8818 95.4986 18.2102 94.5341L54.3952 92.9591C56.3702 92.9591 62.5872 92.3941 64.8802 91.1231C72.2442 87.0421 95.1662 75.8841 95.5352 75.6971C96.8237 74.9125 97.7763 73.6788 98.2095 72.2337C98.6428 70.7887 98.526 69.2344 97.8817 67.8703C97.2374 66.5062 96.1111 65.4287 94.7198 64.8454C93.3285 64.2621 91.7706 64.2143 90.3462 64.7111L60.5972 76.3311C60.0983 76.4972 59.5759 76.5816 59.0502 76.5811H58.1052C58.0067 75.4875 57.6683 74.429 57.1142 73.4811L56.9692 73.2391C56.0974 71.7895 54.8661 70.5895 53.3944 69.7554C51.9228 68.9213 50.2607 68.4813 48.5692 68.4781H40.0352C37.0244 68.4698 34.1047 67.4451 31.7492 65.5701C28.815 63.2357 25.1787 61.9602 21.4292 61.9501H18.1882C17.8516 60.9987 17.2296 60.1744 16.407 59.5898C15.5844 59.0052 14.6013 58.6889 13.5922 58.6841H5.43516C4.1356 58.6841 2.88926 59.2003 1.97033 60.1193C1.0514 61.0382 0.535156 62.2845 0.535156 63.5841L0.535156 92.9591C0.535156 93.6026 0.661898 94.2397 0.908147 94.8342C1.15439 95.4287 1.51533 95.9689 1.97033 96.4239C2.42534 96.8789 2.96551 97.2398 3.56001 97.4861C4.1545 97.7323 4.79168 97.8591 5.43516 97.8591V97.8551ZM29.7132 68.1211C32.6473 70.4555 36.2837 71.731 40.0332 71.7411H48.5692C49.6969 71.7425 50.8051 72.0354 51.7863 72.5914C52.7675 73.1473 53.5883 73.9474 54.1692 74.9141L54.3142 75.1541C54.5745 75.5937 54.753 76.0768 54.8412 76.5801H44.5452C41.3219 76.5773 38.1704 77.5316 35.4902 79.3221L34.2952 80.1221C33.942 80.3667 33.6992 80.7403 33.619 81.1623C33.5389 81.5843 33.6278 82.0209 33.8666 82.3779C34.1054 82.7349 34.475 82.9838 34.8956 83.0708C35.3163 83.1579 35.7543 83.0761 36.1152 82.8431L37.3102 82.0431C39.454 80.6107 41.9748 79.8471 44.5532 79.8491H59.0622C59.9664 79.848 60.8643 79.6969 61.7192 79.4021L91.4632 67.7841C92.0304 67.5956 92.6427 67.5907 93.2129 67.7703C93.7831 67.9498 94.2822 68.3046 94.6392 68.7841C94.8792 69.1 95.0493 69.4634 95.1383 69.8501C95.2272 70.2368 95.233 70.638 95.1552 71.0271C95.0902 71.3926 94.9526 71.7415 94.7504 72.0529C94.5483 72.3643 94.2857 72.632 93.9782 72.8401C93.0312 73.3001 70.7462 84.1461 63.3072 88.2721C60.402 89.1902 57.3768 89.6722 54.3302 89.7021L18.4882 91.2551V65.2131H21.4262C24.4369 65.2214 27.3576 66.2461 29.7132 68.1211ZM3.79916 63.5841C3.79863 63.3691 3.84058 63.1561 3.92261 62.9574C4.00464 62.7587 4.12513 62.5781 4.27715 62.4261C4.42917 62.2741 4.60974 62.1536 4.80846 62.0715C5.00719 61.9895 5.22017 61.9476 5.43516 61.9481H13.5962C13.8105 61.9486 14.0226 61.9913 14.2204 62.0738C14.4182 62.1563 14.5978 62.277 14.749 62.4289C14.9002 62.5808 15.0199 62.761 15.1015 62.9592C15.183 63.1574 15.2247 63.3698 15.2242 63.5841V92.9591C15.2242 93.3919 15.0522 93.807 14.7462 94.1131C14.4401 94.4191 14.025 94.5911 13.5922 94.5911H5.43516C5.00232 94.5911 4.58722 94.4191 4.28116 94.1131C3.9751 93.807 3.80316 93.3919 3.80316 92.9591L3.79916 63.5841Z" fill="#8A47FE"/>
<path d="M60.9235 35.8339C62.2149 35.8339 63.4772 35.4509 64.551 34.7335C65.6247 34.016 66.4615 32.9963 66.9556 31.8032C67.4498 30.6101 67.579 29.2973 67.327 28.0308C67.075 26.7642 66.4531 25.6009 65.5399 24.6878C64.6267 23.7748 63.4632 23.153 62.1967 22.9012C60.9301 22.6494 59.6173 22.7788 58.4243 23.2732C57.2313 23.7675 56.2117 24.6045 55.4944 25.6783C54.7771 26.7521 54.3943 28.0145 54.3945 29.3059C54.3948 31.0373 55.0828 32.6977 56.3072 33.9219C57.5316 35.1461 59.1921 35.8339 60.9235 35.8339ZM60.9235 26.0409C61.5691 26.0409 62.2001 26.2323 62.7369 26.591C63.2737 26.9496 63.692 27.4594 63.9391 28.0558C64.1861 28.6522 64.2508 29.3085 64.1248 29.9417C63.9989 30.5748 63.688 31.1564 63.2315 31.6129C62.7751 32.0694 62.1935 32.3802 61.5603 32.5062C60.9272 32.6321 60.2709 32.5675 59.6745 32.3204C59.078 32.0734 58.5683 31.655 58.2096 31.1183C57.851 30.5815 57.6595 29.9504 57.6595 29.3049C57.6595 28.4392 58.0034 27.609 58.6155 26.9969C59.2277 26.3848 60.0579 26.0409 60.9235 26.0409Z" fill="#8A47FE"/>
<path d="M39.0785 57.456C39.1791 58.0473 39.4402 58.5996 39.8332 59.0527C40.2263 59.5057 40.7363 59.8421 41.3075 60.025C41.6344 60.1312 41.9758 60.1862 42.3195 60.188C43.1829 60.1873 44.0113 59.8468 44.6255 59.24L48.2535 55.656C48.4848 55.4267 48.7782 55.2703 49.0975 55.206L52.1975 54.594C52.3685 54.92 52.5235 55.203 52.6625 55.436C52.9511 55.9315 53.3643 56.3429 53.8611 56.6292C54.358 56.9155 54.9211 57.0668 55.4945 57.068H56.0265V58.696C56.0276 59.5612 56.3721 60.3905 56.9843 61.0018C57.5965 61.6131 58.4264 61.9563 59.2915 61.956H62.5555C63.4212 61.956 64.2514 61.6121 64.8635 61C65.4756 60.3879 65.8195 59.5577 65.8195 58.692V57.056H66.3585C66.9324 57.0551 67.4961 56.904 67.9935 56.6177C68.4908 56.3314 68.9046 55.9198 69.1935 55.424C69.3275 55.191 69.4845 54.905 69.6555 54.588L72.7385 55.197C73.0644 55.2619 73.3637 55.422 73.5985 55.657L77.2265 59.248C77.8394 59.8525 78.6657 60.1913 79.5265 60.191C79.8702 60.1892 80.2116 60.1342 80.5385 60.028C81.1109 59.8442 81.6217 59.5067 82.0152 59.0522C82.4086 58.5977 82.6696 58.0438 82.7695 57.451L83.6835 51.983C83.8576 50.9321 83.7689 49.8544 83.4255 48.846L80.9985 41.567C80.5912 40.3828 79.8561 39.3387 78.8785 38.556L75.2875 35.718C75.735 31.6186 75.7307 27.4824 75.2745 23.384C74.2175 13.919 68.0395 5.64701 64.4535 1.55601C64.0055 1.06573 63.4603 0.674164 62.8527 0.406262C62.245 0.13836 61.5881 0 60.924 0C60.2599 0 59.6031 0.13836 58.9954 0.406262C58.3877 0.674164 57.8425 1.06573 57.3945 1.55601C53.8035 5.64401 47.6295 13.916 46.5865 23.376C46.131 27.4759 46.1283 31.6135 46.5785 35.714L42.9845 38.556C42.0049 39.3425 41.269 40.3913 40.8625 41.58L38.4335 48.835C38.0879 49.8463 37.9983 50.9276 38.1725 51.982L39.0785 57.456ZM59.2925 58.68V43.994C59.2925 43.5612 59.4645 43.1461 59.7705 42.84C60.0766 42.5339 60.4917 42.362 60.9245 42.362C61.3574 42.362 61.7725 42.5339 62.0785 42.84C62.3846 43.1461 62.5565 43.5612 62.5565 43.994V58.683L59.2925 58.68ZM76.8285 41.107C77.3207 41.5 77.6922 42.0236 77.9005 42.618L80.3355 49.891C80.5079 50.39 80.5529 50.9242 80.4665 51.445L79.5195 56.919L75.9015 53.328C75.2118 52.6403 74.3339 52.1723 73.3785 51.983L71.1165 51.536C72.7925 47.6624 74.0075 43.6052 74.7365 39.448L76.8285 41.107ZM59.8505 3.71001C59.9819 3.55287 60.1462 3.42647 60.3318 3.33975C60.5173 3.25302 60.7197 3.20807 60.9245 3.20807C61.1294 3.20807 61.3317 3.25302 61.5173 3.33975C61.7028 3.42647 61.8671 3.55287 61.9985 3.71001C64.4304 6.47001 66.5527 9.48799 68.3275 12.71C66.0807 14.0075 63.5214 14.6646 60.9275 14.61C58.3336 14.6646 55.7743 14.0075 53.5275 12.71C55.3033 9.48575 57.427 6.46573 59.8605 3.70401L59.8505 3.71001ZM49.8245 23.738C50.1671 20.9464 50.9269 18.222 52.0785 15.656C54.7777 17.1709 57.8318 17.9389 60.9265 17.881C64.0178 17.9372 67.0683 17.1692 69.7645 15.656C70.9172 18.2232 71.6781 20.9489 72.0215 23.742C73.2771 34.1013 71.2991 44.5955 66.3585 53.787H65.8195V43.994C65.8444 43.3354 65.7362 42.6786 65.5014 42.0628C65.2665 41.447 64.9098 40.8849 64.4527 40.4101C63.9956 39.9354 63.4473 39.5577 62.8409 39.2997C62.2344 39.0418 61.5821 38.9088 60.923 38.9088C60.264 38.9088 59.6117 39.0418 59.0052 39.2997C58.3987 39.5577 57.8505 39.9354 57.3933 40.4101C56.9362 40.8849 56.5795 41.447 56.3447 42.0628C56.1098 42.6786 56.0016 43.3354 56.0265 43.994V53.787H55.4785C50.5426 44.5925 48.5663 34.0981 49.8195 23.738H49.8245ZM41.5005 49.881L43.9275 42.634C44.1336 42.0359 44.5041 41.5081 44.9965 41.111L47.0965 39.454C47.8253 43.6113 49.0403 47.6685 50.7165 51.542L48.4425 51.991C47.496 52.1821 46.6266 52.6474 45.9425 53.329L42.2785 56.921L41.3675 51.456C41.2837 50.928 41.3343 50.3873 41.5145 49.884L41.5005 49.881Z" fill="#8A47FE"/>
<path d="M62.557 65.2121C62.557 64.7792 62.385 64.3641 62.079 64.0581C61.7729 63.752 61.3578 63.5801 60.925 63.5801C60.4921 63.5801 60.077 63.752 59.771 64.0581C59.4649 64.3641 59.293 64.7792 59.293 65.2121V66.8441C59.293 67.2769 59.4649 67.692 59.771 67.9981C60.077 68.3041 60.4921 68.4761 60.925 68.4761C61.3578 68.4761 61.7729 68.3041 62.079 67.9981C62.385 67.692 62.557 67.2769 62.557 66.8441V65.2121Z" fill="#8A47FE"/>
<path d="M60.925 73.3729C61.8263 73.3729 62.557 72.6422 62.557 71.7409C62.557 70.8396 61.8263 70.1089 60.925 70.1089C60.0236 70.1089 59.293 70.8396 59.293 71.7409C59.293 72.6422 60.0236 73.3729 60.925 73.3729Z" fill="#8A47FE"/>
<path d="M51.132 57.0522C50.9177 57.0522 50.7055 57.0945 50.5075 57.1765C50.3095 57.2585 50.1295 57.3787 49.978 57.5302C49.8265 57.6818 49.7062 57.8617 49.6242 58.0597C49.5422 58.2577 49.5 58.4699 49.5 58.6842V63.5842C49.5 64.0171 49.6719 64.4322 49.978 64.7382C50.2841 65.0443 50.6992 65.2162 51.132 65.2162C51.5648 65.2162 51.9799 65.0443 52.286 64.7382C52.5921 64.4322 52.764 64.0171 52.764 63.5842V58.6842C52.764 58.2514 52.5921 57.8363 52.286 57.5302C51.9799 57.2242 51.5648 57.0522 51.132 57.0522Z" fill="#8A47FE"/>
<path d="M69.0859 58.6842V63.5842C69.0859 64.0171 69.2579 64.4322 69.5639 64.7382C69.87 65.0443 70.2851 65.2162 70.7179 65.2162C71.1508 65.2162 71.5659 65.0443 71.8719 64.7382C72.178 64.4322 72.3499 64.0171 72.3499 63.5842V58.6842C72.3499 58.2514 72.178 57.8363 71.8719 57.5302C71.5659 57.2242 71.1508 57.0522 70.7179 57.0522C70.2851 57.0522 69.87 57.2242 69.5639 57.5302C69.2579 57.8363 69.0859 58.2514 69.0859 58.6842Z" fill="#8A47FE"/>
</svg>
