<?xml version="1.0" encoding="UTF-8"?>
<svg id="Camada_1" data-name="Camada 1" xmlns="http://www.w3.org/2000/svg" viewBox="0 0 100 100">
  <defs>
    <style>
      .cls-1 {
        fill: #8b47fe;
        stroke-width: 0px;
      }
    </style>
  </defs>
  <g id="Page-1">
    <g id="_002---Launch" data-name="002---Launch">
      <path id="Shape" class="cls-1" d="M14.11,89.85h6.65c1.7,0,3.21-1.09,3.76-2.71l29.48-1.28c1.61,0,6.67-.46,8.54-1.5,6-3.32,24.67-12.41,24.97-12.56,2.17-1.32,3-4.07,1.91-6.37s-3.73-3.41-6.14-2.57l-24.23,9.46c-.41.14-.83.2-1.26.2h-.77c-.08-.89-.36-1.75-.81-2.53l-.12-.2c-1.44-2.4-4.04-3.87-6.84-3.88h-6.95c-2.45,0-4.83-.84-6.75-2.37-2.39-1.9-5.35-2.94-8.41-2.95h-2.64c-.56-1.59-2.06-2.65-3.74-2.66h-6.65c-2.2,0-3.99,1.79-3.99,3.99v23.93c0,2.2,1.79,3.99,3.99,3.99h0ZM33.88,65.63c2.39,1.9,5.35,2.94,8.41,2.95h6.95c1.87,0,3.6.98,4.56,2.58l.12.2c.21.36.36.75.43,1.16h-8.39c-2.63,0-5.19.78-7.38,2.23l-.97.65c-.4.26-.62.72-.59,1.2.03.48.31.9.74,1.11.43.21.93.18,1.33-.09l.97-.65c1.75-1.17,3.8-1.79,5.9-1.79h11.82c.74,0,1.47-.12,2.16-.36l24.23-9.46c.95-.32,1.99.01,2.59.81.39.52.55,1.19.42,1.83-.11.6-.45,1.13-.96,1.48-.77.37-18.92,9.21-24.98,12.57-2.37.75-4.83,1.14-7.31,1.16l-29.19,1.27v-21.21h2.39c2.45,0,4.83.84,6.75,2.37h0ZM12.78,61.93c0-.73.6-1.33,1.33-1.33h6.65c.73,0,1.33.6,1.33,1.33v23.93c0,.73-.6,1.33-1.33,1.33h-6.65c-.73,0-1.33-.6-1.33-1.33v-23.93Z"/>
      <path id="Shape-2" data-name="Shape" class="cls-1" d="M59.31,39.33c2.94,0,5.32-2.38,5.32-5.32s-2.38-5.32-5.32-5.32-5.32,2.38-5.32,5.32,2.38,5.32,5.32,5.32ZM59.31,31.36c1.47,0,2.66,1.19,2.66,2.66s-1.19,2.66-2.66,2.66-2.66-1.19-2.66-2.66,1.19-2.66,2.66-2.66Z"/>
      <path id="Shape-3" data-name="Shape" class="cls-1" d="M41.51,56.95c.17.98.87,1.79,1.82,2.09.27.09.54.13.82.13.7,0,1.38-.28,1.88-.77l2.96-2.92c.19-.19.43-.31.69-.37l2.53-.5c.14.27.27.5.38.69.48.82,1.36,1.33,2.31,1.33h.43v1.33c0,1.47,1.19,2.66,2.66,2.66h2.66c1.47,0,2.66-1.19,2.66-2.66v-1.34h.44c.95,0,1.83-.51,2.31-1.33.11-.19.24-.42.38-.68l2.51.5c.27.05.51.18.7.37l2.96,2.92c.5.49,1.17.77,1.87.77.28,0,.56-.05.82-.13.95-.31,1.65-1.11,1.82-2.1l.74-4.45c.14-.86.07-1.73-.21-2.56l-1.98-5.93c-.33-.97-.93-1.82-1.73-2.46l-2.92-2.31c.36-3.34.36-6.71-.01-10.05-.86-7.71-5.89-14.44-8.81-17.77-.74-.81-1.78-1.27-2.87-1.27s-2.14.46-2.87,1.27c-2.92,3.33-7.95,10.07-8.8,17.77-.37,3.34-.37,6.71,0,10.05l-2.92,2.32c-.8.64-1.4,1.5-1.73,2.46l-1.98,5.91c-.28.82-.35,1.7-.21,2.56l.74,4.46ZM57.98,57.95v-11.96c0-.73.6-1.33,1.33-1.33s1.33.6,1.33,1.33v11.96h-2.66ZM72.26,43.63c.4.32.7.75.87,1.23l1.98,5.92c.14.41.18.84.11,1.27l-.77,4.46-2.95-2.92c-.56-.56-1.27-.94-2.05-1.1l-1.84-.36c1.37-3.16,2.35-6.46,2.95-9.85l1.7,1.35ZM58.43,13.17c.22-.26.54-.41.87-.41s.66.15.87.41c1.98,2.25,3.71,4.71,5.16,7.33-1.83,1.06-3.92,1.59-6.03,1.55-2.11.05-4.2-.49-6.03-1.55,1.45-2.63,3.18-5.09,5.16-7.34h0ZM50.27,29.48c.28-2.27.9-4.49,1.83-6.58,2.2,1.23,4.69,1.86,7.21,1.81,2.52.05,5-.58,7.2-1.81.94,2.09,1.56,4.31,1.84,6.59,1.02,8.44-.59,16.99-4.61,24.47h-.44v-7.98c0-2.2-1.79-3.99-3.99-3.99s-3.99,1.79-3.99,3.99v7.98h-.44c-4.02-7.49-5.63-16.04-4.61-24.48h0ZM43.49,50.78l1.98-5.9c.17-.49.47-.92.87-1.24l1.71-1.35c.59,3.39,1.58,6.69,2.95,9.85l-1.85.37c-.77.16-1.48.53-2.04,1.09l-2.98,2.92-.74-4.45c-.07-.43-.03-.87.12-1.28h-.01Z"/>
      <path id="Shape-4" data-name="Shape" class="cls-1" d="M60.64,63.26c0-.73-.6-1.33-1.33-1.33s-1.33.6-1.33,1.33v1.33c0,.73.6,1.33,1.33,1.33s1.33-.6,1.33-1.33v-1.33Z"/>
      <circle id="Oval" class="cls-1" cx="59.31" cy="68.58" r="1.33"/>
      <path id="Shape-5" data-name="Shape" class="cls-1" d="M51.33,56.62c-.73,0-1.33.6-1.33,1.33v3.99c0,.73.6,1.33,1.33,1.33s1.33-.6,1.33-1.33v-3.99c0-.73-.6-1.33-1.33-1.33Z"/>
      <path id="Shape-6" data-name="Shape" class="cls-1" d="M65.95,57.95v3.99c0,.73.6,1.33,1.33,1.33s1.33-.6,1.33-1.33v-3.99c0-.73-.6-1.33-1.33-1.33s-1.33.6-1.33,1.33Z"/>
    </g>
  </g>
</svg>