<svg width="87" height="90" viewBox="0 0 87 90" fill="none" xmlns="http://www.w3.org/2000/svg">
<path d="M12.2473 89.999H2.44925C1.8003 89.9981 1.17815 89.7401 0.719069 89.2814C0.259993 88.8227 0.00142257 88.2008 0 87.5519V72.8521C0.000853806 72.2028 0.259173 71.5803 0.718311 71.1211C1.17745 70.662 1.79993 70.4037 2.44925 70.4028H12.2473C12.8966 70.4037 13.5191 70.662 13.9782 71.1211C14.4374 71.5803 14.6957 72.2028 14.6966 72.8521V87.5519C14.6951 88.2008 14.4366 88.8227 13.9775 89.2814C13.5184 89.7401 12.8963 89.9981 12.2473 89.999ZM3.26566 86.7333H11.4309V73.6685H3.26566V86.7333Z" fill="#8740F6"/>
<path d="M30.2121 90H20.4141C19.7646 89.9991 19.1419 89.7407 18.6828 89.2813C18.2236 88.8219 17.9654 88.1992 17.9648 87.5497V63.054C17.9657 62.4047 18.224 61.7822 18.6832 61.323C19.1423 60.8639 19.7648 60.6056 20.4141 60.6047H30.2121C30.8615 60.6056 31.4839 60.8639 31.9431 61.323C32.4022 61.7822 32.6605 62.4047 32.6614 63.054V87.5497C32.6608 88.1992 32.4026 88.8219 31.9435 89.2813C31.4843 89.7407 30.8617 89.9991 30.2121 90ZM21.2305 86.7343H29.3957V63.8704H21.2305V86.7343Z" fill="#8740F6"/>
<path d="M48.1692 90H38.3711C37.7216 89.9991 37.099 89.7406 36.6398 89.2813C36.1806 88.8219 35.9224 88.1991 35.9219 87.5496V53.2559C35.9227 52.6066 36.181 51.9841 36.6402 51.525C37.0993 51.0658 37.7218 50.8075 38.3711 50.8066H48.1692C48.8185 50.8075 49.441 51.0658 49.9001 51.525C50.3593 51.9841 50.6176 52.6066 50.6184 53.2559V87.5496C50.6179 88.1991 50.3597 88.8219 49.9005 89.2813C49.4413 89.7406 48.8187 89.9991 48.1692 90ZM39.1875 86.7343H47.3528V54.0723H39.1875V86.7343Z" fill="#8740F6"/>
<path d="M66.1379 90H56.3399C55.6907 89.9991 55.0684 89.7409 54.6093 89.282C54.1502 88.8231 53.8918 88.2009 53.8906 87.5518V36.9254C53.8915 36.2761 54.1498 35.6536 54.6089 35.1945C55.0681 34.7354 55.6906 34.4771 56.3399 34.4762H66.1379C66.7873 34.4771 67.4097 34.7354 67.8689 35.1945C68.328 35.6536 68.5863 36.2761 68.5872 36.9254V87.5518C68.586 88.2009 68.3276 88.8231 67.8685 89.282C67.4094 89.7409 66.7871 89.9991 66.1379 90ZM57.1563 86.7343H65.3215V37.7419H57.1563V86.7343Z" fill="#8740F6"/>
<path d="M84.1028 90H74.3047C73.6554 89.9992 73.0329 89.7408 72.5738 89.2817C72.1146 88.8226 71.8563 88.2001 71.8555 87.5508V17.3294C71.8563 16.6801 72.1146 16.0576 72.5738 15.5984C73.0329 15.1393 73.6554 14.881 74.3047 14.8801H84.1028C84.7521 14.881 85.3746 15.1393 85.8337 15.5984C86.2928 16.0576 86.5512 16.6801 86.552 17.3294V87.5508C86.5512 88.2001 86.2928 88.8226 85.8337 89.2817C85.3746 89.7408 84.7521 89.9992 84.1028 90ZM75.1211 86.7344H83.2864V18.1458H75.1211V86.7344Z" fill="#8740F6"/>
<path d="M74.6451 1.26023C74.5482 0.854949 74.3007 0.501684 73.953 0.272002C73.6053 0.0423194 73.1833 -0.0466059 72.7724 0.0232402L65.3849 1.38286C65.174 1.4217 64.9728 1.50171 64.7928 1.6183C64.6129 1.73489 64.4576 1.8858 64.336 2.06239C64.0903 2.41904 63.9963 2.85868 64.0748 3.2846C64.1532 3.71052 64.3976 4.08783 64.7543 4.33353C65.1109 4.57923 65.5506 4.67319 65.9765 4.59474L69.7251 3.90417C59.6881 20.3358 46.1885 34.3809 30.1672 45.0605C21.3149 50.926 11.7825 55.6938 1.7798 59.2591C1.57781 59.3311 1.39198 59.4422 1.23293 59.5861C1.07388 59.7299 0.944717 59.9037 0.852825 60.0975C0.760933 60.2913 0.708107 60.5012 0.697363 60.7154C0.686619 60.9296 0.718168 61.1438 0.790209 61.3458C0.862249 61.5478 0.97337 61.7336 1.11723 61.8927C1.26108 62.0517 1.43486 62.1809 1.62863 62.2728C1.82241 62.3647 2.03238 62.4175 2.24657 62.4283C2.46076 62.439 2.67497 62.4075 2.87696 62.3354C13.1283 58.6806 22.8976 53.7936 31.97 47.7819C48.238 36.9432 61.9701 22.715 72.2249 6.07267L72.8208 9.31252C72.8993 9.73844 73.1437 10.1158 73.5004 10.3615C73.857 10.6071 74.2967 10.7011 74.7226 10.6227C75.1485 10.5442 75.5258 10.2998 75.7715 9.94312C76.0172 9.58648 76.1112 9.14683 76.0327 8.72091C75.9467 8.25408 74.7527 1.72276 74.6441 1.26023H74.6451Z" fill="#8740F6"/>
</svg>
