<?xml version="1.0" encoding="UTF-8"?>
<svg id="Camada_1" data-name="Camada 1" xmlns="http://www.w3.org/2000/svg" viewBox="0 0 400 400">
  <defs>
    <style>
      .cls-1 {
        fill: #fff;
        stroke-width: 0px;
      }
    </style>
  </defs>
  <path class="cls-1" d="M377.84,184.44c-7.33-86.39-76.61-155.1-163.04-162.05C109.53,13.93,21.5,96.69,21.5,200s79.91,178.2,178.5,178.2c1.05,0,2.09,0,3.14-.07v-138.73h-38.47v-44.62h38.47v-32.79c0-38.01,23.25-58.71,57.23-58.71,16.29,0,30.28,1.18,34.32,1.74v39.76h-23.36c-18.42,0-22.03,8.75-22.03,21.61v28.4h44.28l-5.79,44.62h-38.49v131.91c79.32-22.72,136.02-98.78,128.54-186.87Z"/>
</svg>