<?xml version="1.0" encoding="UTF-8"?>
<svg id="Camada_1" data-name="Camada 1" xmlns="http://www.w3.org/2000/svg" viewBox="0 0 400 400">
  <defs>
    <style>
      .cls-1 {
        fill: #fff;
        stroke-width: 0px;
      }
    </style>
  </defs>
  <path class="cls-1" d="M200,21.74C101.57,21.74,21.74,101.57,21.74,200s79.82,178.26,178.26,178.26,178.26-79.82,178.26-178.26S298.43,21.74,200,21.74ZM148.7,291.16h-43.6v-130.81h43.6v130.81ZM126.49,143.09h-.28c-14.57,0-23.99-10.03-23.99-22.56s9.71-22.57,24.56-22.57,23.99,9.75,24.27,22.57c0,12.53-9.42,22.56-24.56,22.56ZM304.95,291.16h-43.6v-69.87c0-17.56-6.25-29.54-21.86-29.54-11.92,0-19.02,8.08-22.14,15.88-1.14,2.79-1.42,6.69-1.42,10.59v72.94h-43.37s.57-118.54,0-130.81h43.37v18.52c5.76-8.91,16.08-21.59,39.09-21.59,28.54,0,49.93,18.7,49.93,58.87v75.01Z"/>
</svg>