<?xml version="1.0" encoding="UTF-8"?>
<svg id="Camada_1" data-name="Camada 1" xmlns="http://www.w3.org/2000/svg" viewBox="0 0 400 400">
  <defs>
    <style>
      .cls-1 {
        fill: #fff;
        stroke-width: 0px;
      }
    </style>
  </defs>
  <circle class="cls-1" cx="200" cy="200" r="37.48"/>
  <path class="cls-1" d="M200,21.53C101.43,21.53,21.53,101.43,21.53,200s79.91,178.47,178.47,178.47,178.47-79.91,178.47-178.47S298.57,21.53,200,21.53ZM310.44,245.41c-.86,16.94-5.62,33.64-17.98,45.86-12.48,12.33-29.28,16.92-46.4,17.77h-91.63c-17.12-.85-33.92-5.44-46.4-17.77-12.36-12.21-17.12-28.92-17.98-45.86v-90.57c.86-16.94,5.62-33.64,17.98-45.86,12.48-12.33,29.28-16.92,46.4-17.77h91.63c17.12.85,33.92,5.44,46.4,17.77,12.36,12.21,17.12,28.92,17.98,45.86v90.57Z"/>
  <path class="cls-1" d="M244.67,111.58c-22.33-.61-67.04-.61-89.37,0-11.62.32-24.8,3.21-33.08,12.06-8.61,9.19-11.86,20.3-12.19,32.73-.58,21.81,0,87.27,0,87.27.38,12.43,3.58,23.53,12.19,32.73,8.28,8.85,21.46,11.74,33.08,12.06,22.33.61,67.04.61,89.37,0,11.62-.32,24.8-3.21,33.08-12.06,8.61-9.19,11.86-20.3,12.19-32.73v-87.27c-.33-12.43-3.58-23.53-12.19-32.73-8.28-8.85-21.46-11.74-33.08-12.06h0ZM200,258.09c-32.08,0-58.09-26.01-58.09-58.09s26.01-58.09,58.09-58.09,58.09,26.01,58.09,58.09h0c0,32.08-26.01,58.09-58.09,58.09ZM258.34,153.57c-7.42,0-13.21-6.96-11.22-14.7.98-3.83,3.94-6.92,7.73-8.03,9.45-2.76,17.89,6.15,14.24,15.66-1.65,4.3-5.87,7.07-10.47,7.07h-.28Z"/>
</svg>