<svg width="94" height="94" viewBox="0 0 94 94" fill="none" xmlns="http://www.w3.org/2000/svg">
<path d="M69.5811 38.8971C66.0309 35.347 61.3596 33.1378 56.3631 32.6459C51.3667 32.154 46.3542 33.4099 42.1799 36.1995C38.0056 38.9892 34.9278 43.1399 33.4709 47.9445C32.0139 52.7491 32.2681 57.9102 34.19 62.5484C36.112 67.1866 39.5827 71.0149 44.0109 73.3809C48.4391 75.7469 53.5507 76.5042 58.4746 75.5238C63.3986 74.5434 67.8303 71.8859 71.0145 68.0042C74.1987 64.1225 75.9384 59.2567 75.9371 54.2361C75.937 48.4819 73.6514 42.9634 69.5831 38.8941L69.5811 38.8971ZM67.3881 67.3881C64.345 70.4307 60.3411 72.3239 56.0586 72.7453C51.7761 73.1667 47.4799 72.0902 43.9022 69.6992C40.3244 67.3082 37.6864 63.7505 36.4376 59.6325C35.1888 55.5145 35.4064 51.0909 37.0535 47.1154C38.7006 43.1399 41.6752 39.8585 45.4704 37.8303C49.2657 35.8021 53.6468 35.1526 57.8672 35.9924C62.0877 36.8323 65.8863 39.1095 68.616 42.4361C71.3457 45.7627 72.8374 49.9329 72.8371 54.2361C72.8369 56.6788 72.3556 59.0974 71.4207 61.354C70.4857 63.6107 69.1155 65.6611 67.3881 67.3881Z" fill="#8A47FE"/>
<path fill-rule="evenodd" clip-rule="evenodd" d="M54.2371 38.74C52.2015 38.7347 50.185 39.1331 48.3044 39.9122C46.4238 40.6913 44.7164 41.8357 43.2811 43.279C43.1299 43.4212 43.0088 43.5923 42.925 43.7822C42.8411 43.9721 42.7963 44.1769 42.7932 44.3844C42.79 44.5919 42.8285 44.798 42.9064 44.9903C42.9844 45.1827 43.1002 45.3574 43.2469 45.5042C43.3937 45.6509 43.5684 45.7667 43.7608 45.8447C43.9532 45.9226 44.1592 45.9612 44.3667 45.958C44.5743 45.9548 44.779 45.91 44.9689 45.8262C45.1588 45.7423 45.3299 45.6212 45.4721 45.4701C46.6204 44.3154 47.9863 43.3999 49.4909 42.7768C50.9954 42.1537 52.6086 41.8353 54.2371 41.84C54.6481 41.84 55.0424 41.6768 55.3331 41.3861C55.6237 41.0954 55.7871 40.7011 55.7871 40.29C55.7871 39.879 55.6237 39.4847 55.3331 39.194C55.0424 38.9034 54.6481 38.74 54.2371 38.74Z" fill="#8A47FE"/>
<path d="M83.307 74.539C82.9279 74.1502 82.4507 73.871 81.926 73.731C81.4012 73.5911 80.8484 73.5956 80.326 73.744L76.961 70.38C79.386 66.9811 81.0151 63.0801 81.7277 58.966C82.4403 54.852 82.2182 50.6303 81.0778 46.6138C79.9373 42.5972 77.9078 38.8887 75.1396 35.763C72.3713 32.6373 68.9353 30.1745 65.086 28.557V4.64903C65.086 3.41604 64.5962 2.23354 63.7244 1.36169C62.8525 0.489831 61.67 2.72351e-05 60.437 2.72351e-05H19.882C19.2688 -0.0020771 18.6612 0.117783 18.0947 0.352635C17.5281 0.587487 17.0139 0.932643 16.582 1.36803L1.36803 16.581C0.932657 17.0132 0.58752 17.5275 0.352674 18.0942C0.117827 18.6609 -0.00204415 19.2686 2.63717e-05 19.882V72.834C2.63717e-05 73.4445 0.120276 74.0491 0.35391 74.6131C0.587545 75.1772 0.929987 75.6897 1.36169 76.1214C1.79339 76.5531 2.30589 76.8955 2.86993 77.1291C3.43397 77.3628 4.03851 77.483 4.64903 77.483H38.821C43.5179 80.595 49.0478 82.2102 54.6813 82.1156C60.3148 82.021 65.7873 80.221 70.377 76.953L73.746 80.323C73.6748 80.5805 73.6369 80.846 73.633 81.113C73.6319 81.5201 73.7116 81.9234 73.8674 82.2995C74.0233 82.6756 74.2523 83.0171 74.541 83.304L82.4 91.164C82.9688 91.7688 83.6532 92.2532 84.4127 92.5884C85.1722 92.9237 85.9913 93.103 86.8214 93.1157C87.6515 93.1285 88.4757 92.9744 89.2451 92.6626C90.0145 92.3507 90.7135 91.8876 91.3005 91.3005C91.8876 90.7135 92.3507 90.0145 92.6625 89.2451C92.9744 88.4757 93.1285 87.6515 93.1157 86.8214C93.103 85.9913 92.9237 85.1722 92.5884 84.4127C92.2532 83.6532 91.7688 82.9688 91.164 82.4L83.307 74.539ZM17.046 5.29003V15.5C17.046 15.9111 16.8827 16.3054 16.592 16.596C16.3014 16.8867 15.9071 17.05 15.496 17.05H5.29003L17.046 5.29003ZM4.64903 74.384C4.23794 74.384 3.84369 74.2207 3.55301 73.93C3.26233 73.6394 3.09903 73.2451 3.09903 72.834V20.146H15.5C16.732 20.1452 17.9132 19.6555 18.7844 18.7844C19.6555 17.9132 20.1452 16.732 20.146 15.5V3.10003H60.437C60.8481 3.10003 61.2424 3.26333 61.533 3.55401C61.8237 3.84469 61.987 4.23894 61.987 4.65003V27.457C56.0443 25.7361 49.6981 26.0403 43.9472 28.3217C38.1963 30.6031 33.3675 34.7322 30.2207 40.0591C27.0739 45.3859 25.7879 51.6079 26.5652 57.7458C27.3424 63.8836 30.1388 69.5887 34.514 73.963C34.669 74.118 34.824 74.239 34.979 74.385L4.64903 74.384ZM36.707 71.771C32.71 67.7206 30.239 62.411 29.7141 56.7448C29.1892 51.0786 30.6427 45.4054 33.8276 40.6897C37.0124 35.9739 41.7321 32.5066 47.1843 30.8772C52.6366 29.2478 58.4848 29.5568 63.735 31.7517C68.9851 33.9465 73.3132 37.8919 75.9834 42.9169C78.6537 47.942 79.5013 53.7368 78.3822 59.3162C77.2631 64.8955 74.2464 69.9152 69.8448 73.5218C65.4433 77.1285 59.9285 79.0996 54.238 79.1C50.9774 79.0908 47.7506 78.4385 44.7424 77.1806C41.7342 75.9226 39.0036 74.0837 36.707 71.769V71.771ZM73.963 73.962C74.332 73.593 74.663 73.196 75.006 72.812L77.828 75.634L75.634 77.828L72.81 75C73.194 74.658 73.592 74.332 73.963 73.962ZM88.973 88.972C88.3829 89.5358 87.5981 89.8503 86.782 89.8503C85.9659 89.8503 85.1812 89.5358 84.591 88.972L76.733 81.114L81.115 76.732L88.973 84.59C89.5538 85.1713 89.88 85.9594 89.88 86.781C89.88 87.6027 89.5538 88.3908 88.973 88.972Z" fill="#8A47FE"/>
<path fill-rule="evenodd" clip-rule="evenodd" d="M26.3449 15.496H55.7889C56.2 15.496 56.5943 15.3327 56.8849 15.042C57.1756 14.7513 57.3389 14.3571 57.3389 13.946C57.3389 13.5349 57.1756 13.1407 56.8849 12.85C56.5943 12.5593 56.2 12.396 55.7889 12.396H26.3449C26.1414 12.396 25.9398 12.4361 25.7518 12.514C25.5637 12.5919 25.3928 12.706 25.2489 12.85C25.105 12.9939 24.9908 13.1648 24.9129 13.3528C24.835 13.5409 24.7949 13.7424 24.7949 13.946C24.7949 14.1495 24.835 14.3511 24.9129 14.5392C24.9908 14.7272 25.105 14.8981 25.2489 15.042C25.3928 15.1859 25.5637 15.3001 25.7518 15.378C25.9398 15.4559 26.1414 15.496 26.3449 15.496Z" fill="#8A47FE"/>
<path fill-rule="evenodd" clip-rule="evenodd" d="M26.3449 23.244H55.7889C56.2 23.244 56.5943 23.0807 56.8849 22.7901C57.1756 22.4994 57.3389 22.1051 57.3389 21.694C57.3389 21.2829 57.1756 20.8887 56.8849 20.598C56.5943 20.3073 56.2 20.144 55.7889 20.144H26.3449C25.9338 20.144 25.5396 20.3073 25.2489 20.598C24.9582 20.8887 24.7949 21.2829 24.7949 21.694C24.7949 22.1051 24.9582 22.4994 25.2489 22.7901C25.5396 23.0807 25.9338 23.244 26.3449 23.244Z" fill="#8A47FE"/>
<path fill-rule="evenodd" clip-rule="evenodd" d="M9.29805 30.9931H30.9981C31.4091 30.9931 31.8034 30.8298 32.0941 30.5391C32.3847 30.2484 32.548 29.8542 32.548 29.4431C32.548 29.032 32.3847 28.6377 32.0941 28.347C31.8034 28.0564 31.4091 27.8931 30.9981 27.8931H9.29805C8.88696 27.8931 8.49272 28.0564 8.20203 28.347C7.91135 28.6377 7.74805 29.032 7.74805 29.4431C7.74805 29.8542 7.91135 30.2484 8.20203 30.5391C8.49272 30.8298 8.88696 30.9931 9.29805 30.9931Z" fill="#8A47FE"/>
<path fill-rule="evenodd" clip-rule="evenodd" d="M24.7941 35.6421H9.29414C8.88305 35.6421 8.48881 35.8054 8.19812 36.0961C7.90744 36.3868 7.74414 36.781 7.74414 37.1921C7.74414 37.6032 7.90744 37.9974 8.19812 38.2881C8.48881 38.5788 8.88305 38.7421 9.29414 38.7421H24.7941C25.2052 38.7421 25.5995 38.5788 25.8902 38.2881C26.1808 37.9974 26.3441 37.6032 26.3441 37.1921C26.3441 36.781 26.1808 36.3868 25.8902 36.0961C25.5995 35.8054 25.2052 35.6421 24.7941 35.6421Z" fill="#8A47FE"/>
<path fill-rule="evenodd" clip-rule="evenodd" d="M21.6961 43.3899H9.29609C8.88501 43.3899 8.49076 43.5532 8.20008 43.8439C7.9094 44.1346 7.74609 44.5288 7.74609 44.9399C7.74609 45.351 7.9094 45.7452 8.20008 46.0359C8.49076 46.3266 8.88501 46.4899 9.29609 46.4899H21.6961C22.1072 46.4899 22.5014 46.3266 22.7921 46.0359C23.0828 45.7452 23.2461 45.351 23.2461 44.9399C23.2461 44.5288 23.0828 44.1346 22.7921 43.8439C22.5014 43.5532 22.1072 43.3899 21.6961 43.3899Z" fill="#8A47FE"/>
<path fill-rule="evenodd" clip-rule="evenodd" d="M9.29805 54.2379H20.145C20.5561 54.2379 20.9504 54.0746 21.2411 53.784C21.5317 53.4933 21.695 53.099 21.695 52.688C21.695 52.2769 21.5317 51.8826 21.2411 51.5919C20.9504 51.3012 20.5561 51.1379 20.145 51.1379H9.29805C8.88696 51.1379 8.49272 51.3012 8.20203 51.5919C7.91135 51.8826 7.74805 52.2769 7.74805 52.688C7.74805 53.099 7.91135 53.4933 8.20203 53.784C8.49272 54.0746 8.88696 54.2379 9.29805 54.2379Z" fill="#8A47FE"/>
<path fill-rule="evenodd" clip-rule="evenodd" d="M9.29805 61.986H20.145C20.5561 61.986 20.9504 61.8227 21.2411 61.532C21.5317 61.2413 21.695 60.8471 21.695 60.436C21.695 60.0249 21.5317 59.6306 21.2411 59.34C20.9504 59.0493 20.5561 58.886 20.145 58.886H9.29805C8.88696 58.886 8.49272 59.0493 8.20203 59.34C7.91135 59.6306 7.74805 60.0249 7.74805 60.436C7.74805 60.8471 7.91135 61.2413 8.20203 61.532C8.49272 61.8227 8.88696 61.986 9.29805 61.986Z" fill="#8A47FE"/>
<path fill-rule="evenodd" clip-rule="evenodd" d="M21.6961 66.635H9.29609C8.88501 66.635 8.49076 66.7983 8.20008 67.089C7.9094 67.3797 7.74609 67.7739 7.74609 68.185C7.74609 68.5961 7.9094 68.9904 8.20008 69.281C8.49076 69.5717 8.88501 69.735 9.29609 69.735H21.6961C22.1072 69.735 22.5014 69.5717 22.7921 69.281C23.0828 68.9904 23.2461 68.5961 23.2461 68.185C23.2461 67.7739 23.0828 67.3797 22.7921 67.089C22.5014 66.7983 22.1072 66.635 21.6961 66.635Z" fill="#8A47FE"/>
</svg>
