<?xml version="1.0" encoding="UTF-8"?>
<svg id="Camada_1" data-name="Camada 1" xmlns="http://www.w3.org/2000/svg" viewBox="0 0 100 100">
  <defs>
    <style>
      .cls-1 {
        fill-rule: evenodd;
      }

      .cls-1, .cls-2 {
        fill: #8b47fe;
        stroke-width: 0px;
      }
    </style>
  </defs>
  <g id="Page-1">
    <g id="_009---Search-Document" data-name="009---Search-Document">
      <path id="Shape" class="cls-2" d="M71.33,43.93c-5.82-5.82-14.94-6.72-21.78-2.15s-9.5,13.34-6.36,20.95c3.15,7.6,11.23,11.93,19.3,10.32,8.07-1.61,13.89-8.69,13.89-16.92,0-4.58-1.82-8.96-5.05-12.2h0ZM69.59,66.59c-4.99,4.99-12.81,5.76-18.67,1.84-5.87-3.92-8.15-11.44-5.45-17.95,2.7-6.52,9.63-10.22,16.55-8.84,6.92,1.38,11.9,7.45,11.9,14.5,0,3.92-1.56,7.68-4.33,10.46h0Z"/>
      <path id="Path" class="cls-1" d="M59.13,43.81c-3.27,0-6.41,1.29-8.71,3.61-.32.31-.45.77-.34,1.2s.45.77.88.88.89-.02,1.2-.34c1.84-1.86,4.35-2.89,6.97-2.89.68,0,1.23-.55,1.23-1.23s-.55-1.23-1.23-1.23h0Z"/>
      <path id="Shape-2" data-name="Shape" class="cls-2" d="M82.25,72.27c-.46-.46-1.09-.73-1.74-.72-.21,0-.42.03-.63.09l-2.68-2.68c3.91-5.48,5.11-12.43,3.27-18.9-1.84-6.47-6.52-11.75-12.72-14.36v-19.01c0-2.04-1.66-3.7-3.7-3.7H31.81c-.99,0-1.93.39-2.62,1.09l-12.1,12.1c-.7.69-1.09,1.64-1.09,2.62v42.11c0,2.04,1.66,3.7,3.7,3.7h27.17c7.65,5.07,17.62,4.9,25.09-.42l2.68,2.68c-.06.2-.09.42-.09.63,0,.65.26,1.28.72,1.74l6.25,6.25c1.24,1.28,3.07,1.8,4.79,1.34s3.07-1.8,3.52-3.52-.06-3.56-1.34-4.79l-6.25-6.25ZM29.56,17.21v8.12c0,.68-.55,1.23-1.23,1.23h-8.12l9.35-9.35ZM19.7,72.15c-.68,0-1.23-.55-1.23-1.23V29.02h9.86c2.04,0,3.7-1.66,3.7-3.7v-9.86h32.04c.68,0,1.23.55,1.23,1.23v18.14c-9.72-2.81-20.11,1.31-25.26,10.02-5.15,8.71-3.74,19.8,3.41,26.96.12.12.25.22.37.34h-24.12ZM45.19,70.07c-5.64-5.64-7.33-14.12-4.28-21.49s10.24-12.17,18.22-12.17,15.16,4.8,18.22,12.17,1.36,15.85-4.28,21.49c-3.68,3.73-8.7,5.83-13.94,5.83s-10.26-2.1-13.94-5.83h0ZM74.82,71.82c.29-.29.55-.61.83-.91l2.24,2.24-1.74,1.74-2.25-2.25c.31-.27.62-.53.92-.83ZM86.75,83.75c-.98.93-2.51.93-3.49,0l-6.25-6.25,3.49-3.49,6.25,6.25c.96.96.96,2.52,0,3.49h0Z"/>
      <g>
        <path id="Path-2" data-name="Path" class="cls-1" d="M36.95,25.32h23.41c.68,0,1.23-.55,1.23-1.23s-.55-1.23-1.23-1.23h-23.41c-.68,0-1.23.55-1.23,1.23s.55,1.23,1.23,1.23h0Z"/>
        <path id="Path-3" data-name="Path" class="cls-1" d="M36.95,31.48h23.41c.68,0,1.23-.55,1.23-1.23s-.55-1.23-1.23-1.23h-23.41c-.68,0-1.23.55-1.23,1.23s.55,1.23,1.23,1.23h0Z"/>
        <path id="Path-4" data-name="Path" class="cls-1" d="M23.39,37.65h17.25c.68,0,1.23-.55,1.23-1.23s-.55-1.23-1.23-1.23h-17.25c-.68,0-1.23.55-1.23,1.23s.55,1.23,1.23,1.23Z"/>
        <path id="Path-5" data-name="Path" class="cls-1" d="M35.72,41.34h-12.32c-.68,0-1.23.55-1.23,1.23s.55,1.23,1.23,1.23h12.32c.68,0,1.23-.55,1.23-1.23s-.55-1.23-1.23-1.23Z"/>
        <path id="Path-6" data-name="Path" class="cls-1" d="M33.25,47.51h-9.86c-.68,0-1.23.55-1.23,1.23s.55,1.23,1.23,1.23h9.86c.68,0,1.23-.55,1.23-1.23s-.55-1.23-1.23-1.23h0Z"/>
        <path id="Path-7" data-name="Path" class="cls-1" d="M23.39,56.13h8.63c.68,0,1.23-.55,1.23-1.23s-.55-1.23-1.23-1.23h-8.63c-.68,0-1.23.55-1.23,1.23s.55,1.23,1.23,1.23Z"/>
        <path id="Path-8" data-name="Path" class="cls-1" d="M23.39,62.29h8.63c.68,0,1.23-.55,1.23-1.23s-.55-1.23-1.23-1.23h-8.63c-.68,0-1.23.55-1.23,1.23s.55,1.23,1.23,1.23Z"/>
        <path id="Path-9" data-name="Path" class="cls-1" d="M33.25,65.99h-9.86c-.68,0-1.23.55-1.23,1.23s.55,1.23,1.23,1.23h9.86c.68,0,1.23-.55,1.23-1.23s-.55-1.23-1.23-1.23h0Z"/>
      </g>
    </g>
  </g>
</svg>