<svg width="127" height="90" viewBox="0 0 127 90" fill="none" xmlns="http://www.w3.org/2000/svg">
<path d="M25.0787 43.0051C22.2026 42.9788 19.3985 42.1019 17.0198 40.4848C14.6412 38.8677 12.7943 36.5828 11.7118 33.918C10.6294 31.2532 10.3598 28.3276 10.9371 25.5098C11.5144 22.6921 12.9127 20.1082 14.9559 18.0837C16.999 16.0592 19.5956 14.6847 22.4186 14.1333C25.2415 13.5819 28.1645 13.8783 30.8193 14.9851C33.4741 16.092 35.7419 17.9598 37.3371 20.3532C38.9322 22.7466 39.7834 25.5586 39.7833 28.4349C39.7607 32.3154 38.1999 36.0287 35.4433 38.7601C32.6867 41.4915 28.9594 43.0181 25.0787 43.0051ZM25.0787 17.9538C23.0114 17.9801 20.9981 18.6171 19.2919 19.7848C17.5857 20.9524 16.263 22.5986 15.49 24.5161C14.717 26.4336 14.5283 28.5369 14.9477 30.5614C15.3671 32.5859 16.3758 34.4412 17.8469 35.8938C19.318 37.3465 21.1859 38.3316 23.2155 38.7254C25.2451 39.1192 27.3459 38.904 29.2535 38.1068C31.1611 37.3097 32.7904 35.9663 33.9364 34.2455C35.0824 32.5247 35.694 30.5035 35.6941 28.436C35.673 25.6394 34.5436 22.9653 32.5535 21.0002C30.5635 19.0352 27.8754 17.9396 25.0787 17.9538Z" fill="#8740F6"/>
<path d="M30.9913 83.346H5.34378C3.93131 83.3499 2.57508 82.7928 1.57309 81.7973C0.571092 80.8017 0.00529159 79.4491 0 78.0367V71.3483C0.0541454 66.7242 1.3834 62.2048 3.84136 58.2877C6.29933 54.3706 9.79065 51.2079 13.9308 49.1478C18.071 47.0877 22.6994 46.2101 27.3064 46.6118C31.9133 47.0135 36.32 48.6788 40.0412 51.4243C40.4777 51.7463 40.7685 52.2285 40.8495 52.7649C40.9305 53.3013 40.7951 53.8479 40.4731 54.2844C40.1511 54.721 39.6688 55.0117 39.1325 55.0927C38.5961 55.1737 38.0495 55.0383 37.613 54.7163C34.5009 52.4197 30.8159 51.0256 26.963 50.6872C23.11 50.3488 19.2384 51.0792 15.7737 52.7982C12.3089 54.5171 9.38511 57.1581 7.32372 60.4307C5.26233 63.7033 4.14314 67.4809 4.08916 71.3483V78.0367C4.09414 78.3648 4.22898 78.6776 4.46414 78.9065C4.6993 79.1355 5.01562 79.2618 5.34378 79.258H30.9913C31.2638 79.2516 31.5348 79.2998 31.7884 79.3997C32.042 79.4996 32.2731 79.6492 32.4681 79.8397C32.6631 80.0302 32.818 80.2577 32.9238 80.5089C33.0296 80.7601 33.0841 81.03 33.0841 81.3025C33.0841 81.5751 33.0296 81.845 32.9238 82.0962C32.818 82.3474 32.6631 82.5749 32.4681 82.7654C32.2731 82.9559 32.042 83.1055 31.7884 83.2054C31.5348 83.3053 31.2638 83.3535 30.9913 83.3471V83.346Z" fill="#8740F6"/>
<path d="M121.42 81.7983H95.7721C95.4995 81.8047 95.2285 81.7565 94.9749 81.6566C94.7213 81.5567 94.4902 81.4071 94.2952 81.2166C94.1002 81.0261 93.9453 80.7986 93.8395 80.5474C93.7338 80.2961 93.6793 80.0263 93.6793 79.7537C93.6793 79.4812 93.7338 79.2113 93.8395 78.9601C93.9453 78.7089 94.1002 78.4813 94.2952 78.2909C94.4902 78.1004 94.7213 77.9508 94.9749 77.8509C95.2285 77.751 95.4995 77.7028 95.7721 77.7091H121.42C121.748 77.7133 122.064 77.587 122.299 77.3581C122.535 77.1291 122.669 76.8161 122.674 76.4879V69.7995C122.636 64.2682 120.405 58.978 116.471 55.0895C112.537 51.2009 107.221 49.0315 101.69 49.0572C96.8561 49.0576 92.1679 50.7117 88.4042 53.7448C88.1955 53.9137 87.9556 54.0398 87.6981 54.1159C87.4407 54.192 87.1708 54.2167 86.9038 54.1885C86.6368 54.1603 86.378 54.0798 86.1421 53.9515C85.9063 53.8233 85.698 53.6499 85.5291 53.4412C85.3603 53.2325 85.2342 52.9925 85.1581 52.7351C85.082 52.4776 85.0573 52.2077 85.0855 51.9408C85.1137 51.6738 85.1942 51.415 85.3224 51.1791C85.4507 50.9433 85.6241 50.735 85.8328 50.5661C90.3251 46.945 95.9209 44.9696 101.691 44.9681C108.307 44.9433 114.662 47.5437 119.363 52.1989C124.064 56.8541 126.726 63.1839 126.766 69.7995V76.4845C126.76 77.897 126.194 79.2496 125.192 80.2451C124.19 81.2407 122.834 81.7977 121.422 81.7939L121.42 81.7983Z" fill="#8740F6"/>
<path d="M101.698 41.9958C98.8215 41.9691 96.0177 41.0918 93.6393 39.4744C91.2609 37.8571 89.4144 35.5721 88.3323 32.9072C87.2502 30.2423 86.981 27.3168 87.5585 24.4992C88.136 21.6816 89.5345 19.0979 91.5777 17.0737C93.621 15.0494 96.2176 13.6751 99.0405 13.1239C101.863 12.5726 104.786 12.8692 107.441 13.9761C110.096 15.083 112.363 16.9508 113.958 19.3441C115.553 21.7375 116.404 24.5494 116.404 27.4256C116.382 31.3065 114.821 35.0201 112.064 37.7515C109.307 40.483 105.579 42.0094 101.698 41.9958ZM101.698 16.9445C99.6304 16.9712 97.6173 17.6086 95.9114 18.7766C94.2055 19.9445 92.8831 21.5907 92.1105 23.5083C91.3378 25.4259 91.1495 27.5291 91.5691 29.5534C91.9887 31.5778 92.9976 33.4328 94.4688 34.8852C95.94 36.3377 97.8078 37.3226 99.8374 37.7162C101.867 38.1098 103.968 37.8945 105.875 37.0973C107.783 36.3001 109.412 34.9567 110.558 33.2359C111.704 31.5152 112.315 29.4941 112.315 27.4267C112.295 24.6294 111.165 21.9545 109.175 19.9891C107.184 18.0237 104.495 16.9283 101.698 16.9434V16.9445Z" fill="#8740F6"/>
<path d="M91.131 89.9999H35.6314C33.8652 90.0046 32.1692 89.3084 30.9157 88.0641C29.6622 86.8197 28.9535 85.1289 28.9453 83.3626V73.9563C29.0346 64.882 32.7019 56.2097 39.1502 49.8245C45.5985 43.4393 54.3065 39.8574 63.3812 39.8574C72.456 39.8574 81.1639 43.4393 87.6122 49.8245C94.0605 56.2097 97.7279 64.882 97.8172 73.9563V83.3626C97.8089 85.1289 97.1003 86.8197 95.8468 88.0641C94.5933 89.3084 92.8973 90.0046 91.131 89.9999ZM63.3807 43.9543C55.3805 43.918 47.6926 47.0564 42.0034 52.6811C36.3142 58.3057 33.0883 65.9574 33.0334 73.9574V83.3638C33.0407 84.0458 33.3182 84.697 33.805 85.1747C34.2919 85.6524 34.9483 85.9175 35.6303 85.9118H91.1299C91.812 85.9175 92.4684 85.6524 92.9552 85.1747C93.442 84.697 93.7195 84.0458 93.7269 83.3638V73.9574C93.6723 65.9575 90.4466 58.3058 84.7576 52.6811C79.0686 47.0564 71.3807 43.918 63.3807 43.9543Z" fill="#8740F6"/>
<path d="M62.6704 37.4737C57.6838 37.4914 52.8937 35.5304 49.351 32.0209C45.8084 28.5113 43.8025 23.7399 43.7734 18.7532C43.8117 13.7664 45.8195 8.9968 49.3593 5.48401C52.8991 1.97121 57.684 0 62.671 0C67.658 0 72.4428 1.97121 75.9826 5.48401C79.5225 8.9968 81.5303 13.7664 81.5685 18.7532C81.5394 23.74 79.5334 28.5117 75.9905 32.0213C72.4477 35.5308 67.6573 37.4917 62.6704 37.4737ZM62.6704 4.12529C58.7681 4.10637 55.0176 5.63603 52.2416 8.37872C49.4656 11.1214 47.8908 14.8532 47.8626 18.7555C47.9103 22.6513 49.4914 26.3715 52.2632 29.1095C55.0351 31.8476 58.7743 33.3831 62.6704 33.3831C66.5666 33.3831 70.3058 31.8476 73.0776 29.1095C75.8494 26.3715 77.4305 22.6513 77.4782 18.7555C77.4501 14.8532 75.8752 11.1214 73.0993 8.37872C70.3233 5.63603 66.5728 4.10637 62.6704 4.12529Z" fill="#8740F6"/>
</svg>
