<svg width="46" height="90" viewBox="0 0 46 90" fill="none" xmlns="http://www.w3.org/2000/svg">
<path d="M13.6754 13.1112H7.5974C7.19482 13.1124 6.80906 13.2728 6.52439 13.5575C6.23972 13.8421 6.07928 14.2279 6.07812 14.6305V20.7085C6.07928 21.1111 6.23972 21.4968 6.52439 21.7815C6.80906 22.0662 7.19482 22.2266 7.5974 22.2278H13.6754C14.078 22.2266 14.4638 22.0662 14.7484 21.7815C15.0331 21.4968 15.1936 21.1111 15.1947 20.7085V14.6305C15.1936 14.2279 15.0331 13.8421 14.7484 13.5575C14.4638 13.2728 14.078 13.1124 13.6754 13.1112ZM12.1561 19.1892H9.1167V16.1506H12.1561V19.1892Z" fill="#8740F6"/>
<path d="M25.8317 13.1112H19.7537C19.3511 13.1124 18.9653 13.2728 18.6806 13.5575C18.396 13.8421 18.2355 14.2279 18.2344 14.6305V20.7085C18.2355 21.1111 18.396 21.4968 18.6806 21.7815C18.9653 22.0662 19.3511 22.2266 19.7537 22.2278H25.8317C26.2342 22.2266 26.62 22.0662 26.9047 21.7815C27.1894 21.4968 27.3498 21.1111 27.351 20.7085V14.6305C27.3498 14.2279 27.1894 13.8421 26.9047 13.5575C26.62 13.2728 26.2342 13.1124 25.8317 13.1112ZM24.3124 19.1892H21.2729V16.1506H24.3124V19.1892Z" fill="#8740F6"/>
<path d="M37.984 13.1112H31.906C31.5034 13.1124 31.1177 13.2728 30.833 13.5575C30.5483 13.8421 30.3879 14.2279 30.3867 14.6305V20.7085C30.3879 21.1111 30.5483 21.4968 30.833 21.7815C31.1177 22.0662 31.5034 22.2266 31.906 22.2278H37.984C38.3866 22.2266 38.7724 22.0662 39.057 21.7815C39.3417 21.4968 39.5021 21.1111 39.5033 20.7085V14.6305C39.5021 14.2279 39.3417 13.8421 39.057 13.5575C38.7724 13.2728 38.3866 13.1124 37.984 13.1112ZM36.4647 19.1892H33.4253V16.1506H36.4647V19.1892Z" fill="#8740F6"/>
<path d="M13.6754 25.2673H7.5974C7.19482 25.2685 6.80906 25.4289 6.52439 25.7136C6.23972 25.9983 6.07928 26.384 6.07812 26.7866V32.8646C6.07928 33.2672 6.23972 33.653 6.52439 33.9376C6.80906 34.2223 7.19482 34.3828 7.5974 34.3839H13.6754C14.078 34.3828 14.4638 34.2223 14.7484 33.9376C15.0331 33.653 15.1936 33.2672 15.1947 32.8646V26.7866C15.1936 26.384 15.0331 25.9983 14.7484 25.7136C14.4638 25.4289 14.078 25.2685 13.6754 25.2673ZM12.1561 31.3453H9.1167V28.3059H12.1561V31.3453Z" fill="#8740F6"/>
<path d="M25.8317 25.2673H19.7537C19.3511 25.2685 18.9653 25.4289 18.6806 25.7136C18.396 25.9983 18.2355 26.384 18.2344 26.7866V32.8646C18.2355 33.2672 18.396 33.653 18.6806 33.9376C18.9653 34.2223 19.3511 34.3828 19.7537 34.3839H25.8317C26.2342 34.3828 26.62 34.2223 26.9047 33.9376C27.1894 33.653 27.3498 33.2672 27.351 32.8646V26.7866C27.3498 26.384 27.1894 25.9983 26.9047 25.7136C26.62 25.4289 26.2342 25.2685 25.8317 25.2673ZM24.3124 31.3453H21.2729V28.3059H24.3124V31.3453Z" fill="#8740F6"/>
<path d="M37.984 25.2673H31.906C31.5034 25.2685 31.1177 25.4289 30.833 25.7136C30.5483 25.9983 30.3879 26.384 30.3867 26.7866V32.8646C30.3879 33.2672 30.5483 33.653 30.833 33.9376C31.1177 34.2223 31.5034 34.3828 31.906 34.3839H37.984C38.3866 34.3828 38.7724 34.2223 39.057 33.9376C39.3417 33.653 39.5021 33.2672 39.5033 32.8646V26.7866C39.5021 26.384 39.3417 25.9983 39.057 25.7136C38.7724 25.4289 38.3866 25.2685 37.984 25.2673ZM36.4647 31.3453H33.4253V28.3059H36.4647V31.3453Z" fill="#8740F6"/>
<path d="M13.6754 37.4235H7.5974C7.19482 37.4246 6.80906 37.5851 6.52439 37.8697C6.23972 38.1544 6.07928 38.5402 6.07812 38.9427V45.0208C6.07928 45.4233 6.23972 45.8091 6.52439 46.0938C6.80906 46.3784 7.19482 46.5389 7.5974 46.54H13.6754C14.078 46.5389 14.4638 46.3784 14.7484 46.0938C15.0331 45.8091 15.1936 45.4233 15.1947 45.0208V38.9427C15.1936 38.5402 15.0331 38.1544 14.7484 37.8697C14.4638 37.5851 14.078 37.4246 13.6754 37.4235ZM12.1561 43.5015H9.1167V40.462H12.1561V43.5015Z" fill="#8740F6"/>
<path d="M25.8317 37.4235H19.7537C19.3511 37.4246 18.9653 37.5851 18.6806 37.8697C18.396 38.1544 18.2355 38.5402 18.2344 38.9427V45.0208C18.2355 45.4233 18.396 45.8091 18.6806 46.0938C18.9653 46.3784 19.3511 46.5389 19.7537 46.54H25.8317C26.2342 46.5389 26.62 46.3784 26.9047 46.0938C27.1894 45.8091 27.3498 45.4233 27.351 45.0208V38.9427C27.3498 38.5402 27.1894 38.1544 26.9047 37.8697C26.62 37.5851 26.2342 37.4246 25.8317 37.4235ZM24.3124 43.5015H21.2729V40.462H24.3124V43.5015Z" fill="#8740F6"/>
<path d="M37.984 37.4235H31.906C31.5034 37.4246 31.1177 37.5851 30.833 37.8697C30.5483 38.1544 30.3879 38.5402 30.3867 38.9427V45.0208C30.3879 45.4233 30.5483 45.8091 30.833 46.0938C31.1177 46.3784 31.5034 46.5389 31.906 46.54H37.984C38.3866 46.5389 38.7724 46.3784 39.057 46.0938C39.3417 45.8091 39.5021 45.4233 39.5033 45.0208V38.9427C39.5021 38.5402 39.3417 38.1544 39.057 37.8697C38.7724 37.5851 38.3866 37.4246 37.984 37.4235ZM36.4647 43.5015H33.4253V40.462H36.4647V43.5015Z" fill="#8740F6"/>
<path d="M13.6754 49.5802H7.5974C7.19482 49.5814 6.80906 49.7418 6.52439 50.0265C6.23972 50.3111 6.07928 50.6969 6.07812 51.0995V57.1775C6.07928 57.5801 6.23972 57.9658 6.52439 58.2505C6.80906 58.5352 7.19482 58.6956 7.5974 58.6968H13.6754C14.078 58.6956 14.4638 58.5352 14.7484 58.2505C15.0331 57.9658 15.1936 57.5801 15.1947 57.1775V51.0995C15.1936 50.6969 15.0331 50.3111 14.7484 50.0265C14.4638 49.7418 14.078 49.5814 13.6754 49.5802ZM12.1561 55.6582H9.1167V52.6188H12.1561V55.6582Z" fill="#8740F6"/>
<path d="M25.8317 49.5802H19.7537C19.3511 49.5814 18.9653 49.7418 18.6806 50.0265C18.396 50.3111 18.2355 50.6969 18.2344 51.0995V57.1775C18.2355 57.5801 18.396 57.9658 18.6806 58.2505C18.9653 58.5352 19.3511 58.6956 19.7537 58.6968H25.8317C26.2342 58.6956 26.62 58.5352 26.9047 58.2505C27.1894 57.9658 27.3498 57.5801 27.351 57.1775V51.0995C27.3498 50.6969 27.1894 50.3111 26.9047 50.0265C26.62 49.7418 26.2342 49.5814 25.8317 49.5802ZM24.3124 55.6582H21.2729V52.6188H24.3124V55.6582Z" fill="#8740F6"/>
<path d="M37.984 49.5802H31.906C31.5034 49.5814 31.1177 49.7418 30.833 50.0265C30.5483 50.3111 30.3879 50.6969 30.3867 51.0995V57.1775C30.3879 57.5801 30.5483 57.9658 30.833 58.2505C31.1177 58.5352 31.5034 58.6956 31.906 58.6968H37.984C38.3866 58.6956 38.7724 58.5352 39.057 58.2505C39.3417 57.9658 39.5021 57.5801 39.5033 57.1775V51.0995C39.5021 50.6969 39.3417 50.3111 39.057 50.0265C38.7724 49.7418 38.3866 49.5814 37.984 49.5802ZM36.4647 55.6582H33.4253V52.6188H36.4647V55.6582Z" fill="#8740F6"/>
<path d="M13.6754 61.7363H7.5974C7.19482 61.7375 6.80906 61.8979 6.52439 62.1826C6.23972 62.4673 6.07928 62.853 6.07812 63.2556V69.3336C6.07928 69.7362 6.23972 70.122 6.52439 70.4066C6.80906 70.6913 7.19482 70.8518 7.5974 70.8529H13.6754C14.078 70.8518 14.4638 70.6913 14.7484 70.4066C15.0331 70.122 15.1936 69.7362 15.1947 69.3336V63.2556C15.1936 62.853 15.0331 62.4673 14.7484 62.1826C14.4638 61.8979 14.078 61.7375 13.6754 61.7363ZM12.1561 67.8143H9.1167V64.7749H12.1561V67.8143Z" fill="#8740F6"/>
<path d="M25.8317 61.7363H19.7537C19.3511 61.7375 18.9653 61.8979 18.6806 62.1826C18.396 62.4673 18.2355 62.853 18.2344 63.2556V69.3336C18.2355 69.7362 18.396 70.122 18.6806 70.4066C18.9653 70.6913 19.3511 70.8518 19.7537 70.8529H25.8317C26.2342 70.8518 26.62 70.6913 26.9047 70.4066C27.1894 70.122 27.3498 69.7362 27.351 69.3336V63.2556C27.3498 62.853 27.1894 62.4673 26.9047 62.1826C26.62 61.8979 26.2342 61.7375 25.8317 61.7363ZM24.3124 67.8143H21.2729V64.7749H24.3124V67.8143Z" fill="#8740F6"/>
<path d="M37.984 61.7363H31.906C31.5034 61.7375 31.1177 61.8979 30.833 62.1826C30.5483 62.4673 30.3879 62.853 30.3867 63.2556V69.3336C30.3879 69.7362 30.5483 70.122 30.833 70.4066C31.1177 70.6913 31.5034 70.8518 31.906 70.8529H37.984C38.3866 70.8518 38.7724 70.6913 39.057 70.4066C39.3417 70.122 39.5021 69.7362 39.5033 69.3336V63.2556C39.5021 62.853 39.3417 62.4673 39.057 62.1826C38.7724 61.8979 38.3866 61.7375 37.984 61.7363ZM36.4647 67.8143H33.4253V64.7749H36.4647V67.8143Z" fill="#8740F6"/>
<path d="M45.5855 88.1325V7.59729C45.5844 7.19471 45.4239 6.80895 45.1393 6.52428C44.8546 6.23961 44.4688 6.07917 44.0662 6.07801H39.5049V1.51665C39.503 1.11498 39.3427 0.730285 39.0586 0.446256C38.7746 0.162228 38.3899 0.00184574 37.9882 0L7.59729 0C7.19471 0.00115719 6.80895 0.161596 6.52428 0.446266C6.23961 0.730937 6.07917 1.1167 6.07801 1.51928V6.08064H1.51665C1.11498 6.08249 0.730283 6.24287 0.446255 6.5269C0.162227 6.81093 0.00184574 7.19562 0 7.59729V88.1325M9.11745 3.03944H36.4689V6.07801H9.11745V3.03944ZM21.2735 88.1334H15.1955V79.0159H21.2735V88.1334ZM30.3909 88.1334H24.3129V79.0159H30.3909V88.1334ZM42.5469 88.1334H33.4295V77.4957C33.4283 77.0932 33.2679 76.7074 32.9832 76.4227C32.6986 76.1381 32.3128 75.9776 31.9102 75.9765H13.6762C13.2736 75.9776 12.8878 76.1381 12.6032 76.4227C12.3185 76.7074 12.158 77.0932 12.1569 77.4957V88.1325H3.03944V9.11746H42.5434L42.5469 88.1334Z" fill="#8740F6"/>
<path d="M44.3855 90H1.19298C1.03596 90.0003 0.880436 89.9695 0.735364 89.9094C0.590292 89.8493 0.458531 89.7611 0.347661 89.6499C0.236791 89.5387 0.149005 89.4067 0.0893416 89.2614C0.0296783 89.1162 -0.000682315 88.9606 1.16327e-05 88.8035V87.5685H45.5855V88.7842C45.5866 88.9429 45.5564 89.1001 45.4966 89.2471C45.4369 89.394 45.3488 89.5278 45.2373 89.6407C45.1259 89.7536 44.9933 89.8434 44.8472 89.9051C44.701 89.9667 44.5442 89.999 44.3855 90Z" fill="#8740F6"/>
</svg>
