<?xml version="1.0" encoding="UTF-8"?>
<svg id="Camada_1" data-name="Camada 1" xmlns="http://www.w3.org/2000/svg" viewBox="0 0 100 100">
  <defs>
    <style>
      .cls-1 {
        fill: #fff;
      }

      .cls-1, .cls-2 {
        stroke-width: 0px;
      }

      .cls-2 {
        fill: #8b47fe;
      }
    </style>
  </defs>
  <circle class="cls-2" cx="50" cy="50" r="37.7"/>
  <g>
    <path class="cls-1" d="M74.59,35.49c-2.65-3.46-4.91-4.92-8.65-2.07l-2.69,2.05c-.65.49-3.02.66-5.32.82-.18.01-.36.03-.54.04l-.71-.3c-2.78-1.18-4.04-1.72-7.25-1.46-.65.06-1.37.13-2.14.21-2.09.22-5.77.6-7.06.46-.04-.06-.08-.12-.14-.17l-2.03-1.58c-3.7-2.9-5.98-1.47-8.68,1.96l-4.21,5.37c-1.31,1.68-2.5,3.47-2.28,5.29.16,1.27.93,2.41,1.69,3.01l2.89,2.27c.59.47,1,.96,1.29,1.51l-1.25,1.32c-.91.95-1.18,2.37-.7,3.7.46,1.29,1.56,2.33,2.87,2.73.38.11.76.16,1.13.16.18,0,.36-.03.53-.05-.05.54.01,1.11.21,1.66.46,1.29,1.56,2.33,2.87,2.72.38.11.76.16,1.13.16.18,0,.36-.03.53-.05-.05.54.01,1.11.21,1.66.46,1.29,1.56,2.33,2.88,2.72.38.11.75.16,1.13.16.23,0,.46-.02.68-.06.03.27.09.53.19.79.42,1.16,1.42,2.11,2.6,2.46.36.11.72.17,1.07.17.86,0,1.67-.32,2.25-.93h0s.33-.35.33-.35l2.3,1.8c.27.21.93.42,1.61.42.5,0,1.02-.12,1.52-.35,1.12-.53,1.97-1.61,2.21-2.82.03-.14.05-.28.06-.42.25.05.49.09.75.09.55,0,1.11-.12,1.65-.37,1.24-.58,2.18-1.77,2.44-3.11.06-.3.08-.59.07-.88.35.11.72.17,1.09.17.55,0,1.11-.12,1.65-.37,1.24-.58,2.17-1.77,2.44-3.11.05-.23.07-.46.07-.69.49.25,1.04.38,1.6.38s1.11-.12,1.65-.37c1.24-.57,2.17-1.77,2.44-3.11.23-1.17-.08-2.33-.8-3.14,2.12-.93,4.45-2.25,6.38-4.71l1.9-1.45c1.53-1.17,2.33-2.3,2.5-3.56.23-1.71-.72-3.36-2.21-5.32l-4.14-5.43ZM30.57,36.38c2.64-3.36,3.98-3.71,6.55-1.7l1.41,1.1-10.84,13.82-2-1.56c-.59-.46-1.19-1.29-1.29-2.12-.13-1.02.45-2.23,1.97-4.16l4.21-5.37ZM28.25,57.39c-.28-.79-.14-1.61.37-2.15l2.54-2.68c.26-.27,1.08-.45,1.89-.21.86.26,1.57.93,1.87,1.77.28.79.14,1.62-.37,2.15h0s-2.55,2.69-2.55,2.69c-.25.27-1.07.45-1.88.21-.86-.25-1.57-.93-1.87-1.78ZM32.98,61.89c-.28-.8-.14-1.62.37-2.16l2.3-2.41c.51-.54,1.33-.72,2.14-.47.86.25,1.57.93,1.87,1.77.28.79.14,1.61-.37,2.15l-2.29,2.41c-.51.53-1.33.72-2.14.48-.85-.25-1.57-.94-1.87-1.77ZM37.72,66.38c-.28-.8-.13-1.62.37-2.15l2.29-2.41h0c.51-.54,1.33-.72,2.14-.48.85.25,1.57.93,1.87,1.77.28.79.14,1.62-.37,2.15l-2.3,2.42c-.51.53-1.32.71-2.13.48-.85-.26-1.57-.93-1.87-1.77ZM42.59,69.99c-.11-.31-.14-.61-.11-.9l.35-.36s0,0,0,0h0s2.11-2.22,2.11-2.22c.29-.05.59-.04.9.06.73.23,1.35.82,1.62,1.53.24.67.13,1.35-.27,1.79l-1.22,1.27c-.41.44-1.09.58-1.77.37-.73-.22-1.36-.81-1.62-1.54h0ZM67.87,60.83c-.77.36-1.6.29-1.89.07l-5.89-4.61c-.33-.26-.81-.2-1.07.13-.26.33-.2.81.13,1.07l3.87,3.03c.58.46.85,1.25.69,2.07-.17.88-.78,1.65-1.59,2.03-.77.35-1.61.29-2.19-.16l-3.88-3.03c-.33-.26-.81-.2-1.07.13-.26.33-.2.81.13,1.07l2.67,2.09c.58.46.84,1.25.68,2.07-.17.87-.78,1.65-1.59,2.03-.77.35-1.61.29-2.19-.16h0l-2.65-2.08c-.33-.26-.81-.2-1.07.13-.26.33-.2.81.13,1.07l2.45,1.92c.07.29.09.59.03.9-.16.75-.68,1.43-1.38,1.76-.64.3-1.33.27-1.81-.1l-1.93-1.51c.67-.85.85-2.03.44-3.16-.43-1.16-1.42-2.1-2.6-2.46-.14-.04-.27-.07-.41-.1.24-.75.23-1.6-.06-2.41-.46-1.29-1.56-2.33-2.86-2.72-.56-.17-1.13-.2-1.66-.13.05-.54-.02-1.1-.21-1.65-.46-1.29-1.56-2.34-2.87-2.72-.56-.17-1.12-.2-1.66-.13.05-.54-.01-1.1-.21-1.65-.45-1.3-1.55-2.33-2.87-2.72-1.34-.4-2.71-.07-3.62.84-.27-.41-.6-.81-1-1.17l10.88-13.87c1.18.22,3.51.04,7.7-.4.76-.08,1.48-.15,2.11-.21,2.12-.18,3.17,0,4.74.6-.51.1-1.01.21-1.46.37l-6.87,2.49c-.3.05-.58.08-.83.12-1.71.24-2.75.38-3.29,1.75-.38.99-.1,2.22.77,3.21,1.43,1.65,3.89,2.26,6.5,1.65l3.88-.5c1.58-.21,2.95.89,4.27,1.95l11.51,9.02c.58.46.85,1.25.69,2.07-.17.88-.78,1.66-1.59,2.03ZM68.86,54.86h0s-10.64-8.33-10.64-8.33c-1.42-1.14-3.19-2.55-5.41-2.27l-3.95.51c-3.16.73-4.69-.69-5.09-1.15-.48-.56-.67-1.21-.5-1.66.19-.49.39-.56,2.08-.8.28-.04.59-.08.93-.13.05-.01.1-.02.14-.04l6.95-2.51c1.25-.45,2.99-.57,4.67-.69,2.23-.15,4.52-.32,6.16-1.22l10.82,14.1c-1.86,2.2-4.05,3.32-6.16,4.18ZM77.51,48.58l-1.38,1.06-10.69-13.93,1.42-1.08c2.59-1.98,3.94-1.61,6.52,1.79l4.14,5.42c1.5,1.96,2.05,3.18,1.91,4.19-.11.84-.72,1.65-1.92,2.56Z"/>
    <path class="cls-1" d="M51.33,74.48c-.71,0-1.48-.21-1.86-.51l-1.98-1.54v.18h-.24c-.91.87-2.3,1.16-3.61.75-1.3-.39-2.39-1.43-2.86-2.71-.06-.15-.1-.31-.14-.48-.54.05-1.07-.01-1.59-.17-1.43-.43-2.64-1.56-3.14-2.97-.15-.44-.23-.89-.25-1.34-.45.02-.91-.05-1.35-.18-1.44-.43-2.64-1.57-3.14-2.98-.15-.44-.24-.89-.25-1.34-.45.02-.9-.05-1.35-.18-1.44-.43-2.64-1.57-3.14-2.98-.53-1.48-.23-3.06.79-4.12l1.04-1.1c-.26-.42-.59-.78-1.04-1.14l-2.89-2.26c-.74-.57-1.66-1.77-1.85-3.27-.23-1.96,1-3.84,2.37-5.59l4.21-5.37c2.78-3.54,5.3-5.12,9.25-2.03l2.03,1.58s.07.07.1.1c1.43.1,5.17-.3,6.81-.47l.19-.02c.7-.07,1.36-.14,1.96-.19,3.31-.27,4.7.32,7.45,1.49l.62.26.44-.03c2.02-.14,4.55-.32,5.1-.73l2.69-2.05c3.99-3.04,6.49-1.43,9.22,2.15h0l4.14,5.43c1.55,2.04,2.54,3.77,2.29,5.62-.19,1.37-1.03,2.59-2.66,3.83l-1.86,1.42c-1.92,2.43-4.18,3.73-6.03,4.58.57.87.78,1.96.56,3.06-.29,1.47-1.31,2.77-2.67,3.4-.97.45-2.06.53-3.05.21,0,.06-.02.12-.03.18-.29,1.47-1.31,2.77-2.66,3.4-.8.37-1.7.49-2.52.34-.01.15-.03.29-.06.44-.28,1.47-1.3,2.77-2.66,3.4-.71.33-1.42.48-2.22.38v.03c-.28,1.33-1.21,2.52-2.44,3.11-.54.26-1.13.39-1.69.39ZM47.38,71.31l2.59,2.02c.18.14.75.34,1.36.34.45,0,.91-.11,1.34-.32,1.01-.48,1.77-1.45,1.99-2.53.02-.12.04-.24.05-.37l.04-.46.45.1c.85.18,1.47.06,2.14-.25,1.13-.53,1.97-1.61,2.21-2.82.05-.25.07-.51.06-.79v-.58s.53.18.53.18c.75.24,1.66.18,2.44-.18,1.12-.52,1.97-1.6,2.21-2.82.04-.21.06-.42.06-.62v-.65s.59.3.59.3c.88.45,1.95.44,2.88,0,1.12-.52,1.97-1.6,2.21-2.82.2-1.04-.05-2.06-.7-2.79l-.37-.42.51-.22c1.86-.81,4.24-2.07,6.22-4.59l.07-.07,1.9-1.45c1.45-1.1,2.19-2.15,2.35-3.29.21-1.57-.7-3.14-2.13-5.02l-4.14-5.43c-2.55-3.34-4.59-4.65-8.08-1.99l-2.69,2.05c-.69.53-2.64.7-5.54.9l-.63.04-.8-.34c-2.79-1.19-3.95-1.68-7.06-1.43-.59.05-1.25.12-1.95.19l-.19.02c-1.87.2-5.78.61-7.15.46l-.18-.02-.11-.14s-.06-.08-.08-.09l-2.02-1.58c-3.45-2.7-5.51-1.42-8.11,1.89l-4.21,5.37c-1.26,1.61-2.4,3.32-2.2,4.99.15,1.17.88,2.22,1.54,2.73l2.9,2.27c.62.49,1.08,1.03,1.4,1.65l.14.26-1.45,1.53c-.8.84-1.04,2.1-.61,3.29.41,1.17,1.41,2.12,2.6,2.47.47.14.95.17,1.4.11l.51-.07.04.5c-.05.5.01,1,.18,1.48.42,1.17,1.41,2.11,2.6,2.47.48.14.99.17,1.45.11l.51-.07v.51c-.06.51,0,1.01.17,1.49.42,1.16,1.42,2.11,2.61,2.46.53.16,1.09.19,1.62.09l.42-.08.06.43c.04.27.09.5.17.7.38,1.05,1.28,1.9,2.33,2.22,1.09.34,2.21.08,2.9-.66l.6-.62ZM51.32,72.95c-.44,0-.85-.13-1.19-.39l-2.26-1.76.25-.32c.59-.75.73-1.78.38-2.77-.39-1.04-1.28-1.89-2.34-2.21-.12-.04-.24-.06-.37-.08l-.45-.09.14-.44c.22-.69.2-1.43-.06-2.15-.42-1.17-1.41-2.11-2.6-2.46-.49-.15-.99-.19-1.49-.11l-.51.07.04-.51c.04-.51-.02-1-.19-1.47-.41-1.17-1.41-2.12-2.6-2.47-.48-.15-.99-.19-1.49-.11l-.51.07.05-.51c.05-.5-.02-1-.19-1.47-.41-1.17-1.41-2.12-2.6-2.47-1.18-.35-2.41-.07-3.22.73l-.36.36-.27-.43c-.25-.39-.56-.76-.93-1.09l-.28-.25,11.27-14.37.24.04c1.15.21,3.55.02,7.59-.4l2.12-.21c2.07-.18,3.22-.03,4.93.63l1.33.51-1.4.27c-.59.11-1.03.22-1.4.36l-6.87,2.49c-.36.06-.62.1-.86.13-1.84.25-2.58.4-3.02,1.5-.33.85-.06,1.92.69,2.79,1.33,1.53,3.61,2.1,6.1,1.52l3.92-.5c1.74-.23,3.17.91,4.55,2.02l11.53,9.04c.7.55,1.02,1.5.83,2.47-.2,1-.9,1.89-1.82,2.32h0c-.91.43-1.9.35-2.32.02l-5.89-4.6c-.15-.12-.37-.09-.5.06-.06.07-.08.16-.07.26.01.09.06.18.13.24l3.87,3.03c.7.55,1.02,1.5.83,2.47-.2,1-.89,1.89-1.81,2.32-.92.42-1.91.34-2.61-.21l-3.88-3.03c-.15-.12-.37-.09-.5.06-.06.07-.08.16-.07.26.01.09.06.18.13.23l2.67,2.09c.7.55,1.02,1.5.83,2.47-.2,1-.89,1.89-1.82,2.32-.86.4-1.8.35-2.49-.13h0l-.11-.09-2.65-2.08c-.08-.06-.17-.08-.26-.07-.09.01-.18.06-.24.13-.12.15-.09.37.06.49l2.56,2,.03.13c.09.37.1.73.03,1.08-.18.88-.8,1.66-1.6,2.04-.34.16-.7.24-1.04.24ZM49.01,70.64l1.63,1.27c.35.27.88.29,1.38.05.58-.28,1.02-.84,1.15-1.47.04-.19.04-.39,0-.59l-2.34-1.83c-.51-.4-.59-1.14-.2-1.64.19-.24.47-.4.78-.44.31-.04.62.05.86.24l2.66,2.08c.46.36,1.13.4,1.76.11.69-.32,1.21-.99,1.36-1.73.13-.67-.07-1.31-.53-1.67l-2.67-2.09c-.24-.19-.4-.47-.44-.78s.05-.62.24-.86c.4-.5,1.14-.59,1.64-.2l3.88,3.03c.46.36,1.13.4,1.76.11.69-.32,1.21-.99,1.36-1.74.13-.67-.08-1.31-.54-1.67l-3.87-3.03c-.25-.19-.4-.47-.44-.78-.04-.31.05-.62.24-.86.4-.5,1.13-.59,1.64-.2l5.89,4.6c.14.11.8.2,1.47-.11h0c.69-.32,1.21-.99,1.36-1.74.13-.67-.08-1.31-.54-1.67l-11.51-9.02c-1.27-1.02-2.55-2.05-3.96-1.87l-3.88.5c-2.75.65-5.33-.02-6.86-1.78-.96-1.1-1.28-2.49-.84-3.62.63-1.59,1.88-1.77,3.6-2,.3-.04.56-.08.83-.12l6.8-2.47s.08-.03.12-.04c-.88-.21-1.8-.27-3.23-.15l-2.11.21c-3.94.41-6.27.6-7.57.43l-10.51,13.4c.19.19.37.4.53.61,1-.77,2.36-1.01,3.67-.62,1.44.43,2.64,1.57,3.14,2.98.16.43.24.88.25,1.34.47-.02.92.05,1.36.18,1.43.42,2.64,1.56,3.14,2.97.15.43.24.88.25,1.34.46-.02.91.05,1.36.18,1.42.42,2.62,1.56,3.13,2.97.26.74.32,1.51.18,2.24.01,0,.02,0,.03,0,1.29.4,2.39,1.44,2.86,2.71.4,1.12.3,2.29-.27,3.22ZM44.83,72.02c-.24,0-.49-.04-.74-.12-.85-.26-1.57-.94-1.88-1.78l-.2-.54h.07c-.02-.17-.02-.35,0-.53v-.14s.34-.35.34-.35v-.24h.23s2.1-2.2,2.1-2.2l.14-.02c.37-.06.73-.04,1.08.07.85.27,1.57.95,1.88,1.78.29.81.16,1.66-.36,2.21l-1.22,1.28c-.36.38-.88.59-1.44.59ZM43.01,69.96c.24.55.73.99,1.31,1.17.53.16,1.05.07,1.36-.26l1.22-1.28c.3-.32.37-.85.19-1.37-.22-.6-.74-1.1-1.36-1.29-.19-.06-.38-.08-.59-.06l-1.9,1.99v.24h-.23s-.13.14-.13.14c0,.2.02.39.09.58l.04.12ZM40.29,68.66c-.27,0-.54-.04-.81-.12-.98-.29-1.8-1.07-2.14-2.02h0c-.33-.94-.15-1.92.46-2.57l2.3-2.42c.62-.65,1.59-.87,2.55-.58.97.29,1.79,1.06,2.13,2.02.33.94.16,1.92-.45,2.57l-2.31,2.42c-.44.46-1.06.7-1.73.7ZM38.11,66.25c.26.72.87,1.3,1.61,1.52.66.19,1.32.05,1.72-.37l2.3-2.41c.4-.42.51-1.09.28-1.74-.26-.72-.87-1.3-1.6-1.52-.64-.19-1.28-.07-1.68.32l-.05.05-2.29,2.41c-.4.42-.51,1.09-.28,1.74ZM35.55,64.17c-.27,0-.54-.04-.81-.12-.97-.29-1.79-1.07-2.14-2.02h0c-.33-.95-.15-1.93.46-2.58l2.3-2.41c.61-.64,1.59-.87,2.55-.58.97.29,1.79,1.06,2.14,2.02.33.93.16,1.92-.46,2.57l-2.29,2.41c-.44.46-1.07.71-1.74.71ZM33.37,61.75c.26.72.87,1.3,1.6,1.52.66.19,1.32.05,1.73-.37l2.29-2.41c.4-.43.51-1.1.28-1.74-.26-.72-.87-1.3-1.6-1.52-.66-.2-1.32-.06-1.73.37l-2.3,2.41c-.4.42-.51,1.09-.28,1.74ZM30.89,59.68c-.29,0-.6-.04-.88-.12-.98-.29-1.8-1.07-2.14-2.03h0c-.33-.93-.16-1.91.46-2.56l2.54-2.68c.37-.39,1.33-.61,2.3-.33.98.29,1.8,1.07,2.13,2.03.31.88.18,1.8-.34,2.44h0s-.11.13-.11.13l-2.55,2.68c-.27.29-.82.45-1.41.45ZM32.28,52.64c-.42,0-.75.11-.83.2l-2.54,2.68c-.4.43-.51,1.09-.28,1.73h0c.25.72.87,1.31,1.6,1.53.71.21,1.35.02,1.47-.1l2.55-2.69c.4-.42.51-1.08.28-1.73-.25-.72-.87-1.3-1.6-1.52-.23-.07-.45-.09-.65-.09ZM68.88,55.41l-10.92-8.56c-1.36-1.09-3.04-2.45-5.11-2.19l-3.95.51c-3.33.78-5.01-.78-5.45-1.28-.59-.68-.8-1.48-.57-2.08.29-.73.7-.81,2.4-1.05.28-.04.59-.08.92-.13l7.01-2.53c1.32-.47,3.16-.6,4.78-.71,2.17-.15,4.41-.3,5.99-1.17l.31-.17,11.23,14.64-.21.25c-1.93,2.28-4.23,3.44-6.24,4.27l-.2.2ZM53.37,43.81c2.13,0,3.83,1.37,5.1,2.4l10.45,8.18c1.89-.79,3.85-1.8,5.58-3.74l-10.41-13.57c-1.7.81-3.89.96-6.02,1.11-1.57.11-3.35.23-4.56.66l-6.95,2.51s-.11.04-.16.05c-.4.06-.71.11-.99.14-1.63.23-1.65.28-1.75.55-.12.3.06.82.42,1.25.36.41,1.75,1.69,4.69,1.02l3.99-.52c.21-.03.42-.04.62-.04ZM76.05,50.21l-11.19-14.58,1.75-1.33c1.47-1.12,2.56-1.48,3.62-1.19,1.03.28,2.04,1.17,3.47,3.05l4.14,5.42c1.57,2.06,2.15,3.36,1.99,4.49-.13.95-.79,1.85-2.07,2.82l-1.71,1.3ZM66.01,35.78l10.2,13.29,1.06-.81c1.1-.84,1.66-1.56,1.76-2.29.12-.89-.43-2.05-1.83-3.89l-4.14-5.42c-1.3-1.71-2.21-2.53-3.04-2.76-.8-.22-1.64.09-2.91,1.05l-1.1.83ZM27.75,50.16l-2.32-1.81c-.59-.46-1.32-1.37-1.44-2.4-.14-1.14.45-2.43,2.05-4.46l4.21-5.36c2.77-3.53,4.37-3.92,7.12-1.77l1.73,1.35-11.34,14.46ZM30.89,36.63l-4.21,5.36c-1.43,1.82-1.99,2.97-1.88,3.86.09.73.63,1.46,1.13,1.85l1.68,1.31,10.34-13.18-1.08-.85c-2.22-1.73-3.33-1.74-5.97,1.63h0Z"/>
  </g>
</svg>