<?xml version="1.0" encoding="UTF-8"?>
<svg id="Camada_1" data-name="Camada 1" xmlns="http://www.w3.org/2000/svg" xmlns:xlink="http://www.w3.org/1999/xlink" viewBox="0 0 100 100">
  <defs>
    <style>
      .cls-1 {
        fill: none;
      }

      .cls-1, .cls-2, .cls-3 {
        stroke-width: 0px;
      }

      .cls-4 {
        clip-path: url(#clippath);
      }

      .cls-2 {
        fill: #fff;
      }

      .cls-3 {
        fill: #8b47fe;
      }
    </style>
    <clipPath id="clippath">
      <rect class="cls-1" x="25.87" y="24.37" width="48.25" height="48.25"/>
    </clipPath>
  </defs>
  <circle class="cls-3" cx="50" cy="50" r="37.7"/>
  <g class="cls-4">
    <path class="cls-2" d="M36.67,71.64c-.53,0-1.05-.16-1.5-.49-.83-.6-1.22-1.65-1-2.65l3.1-13.68-10.53-9.23c-.77-.68-1.07-1.75-.75-2.72.32-.98,1.18-1.67,2.21-1.76l13.93-1.27,5.51-12.89c.41-.95,1.33-1.56,2.36-1.56s1.95.61,2.36,1.56l5.51,12.89,13.93,1.27c1.03.09,1.89.79,2.21,1.76.32.98.02,2.05-.75,2.72l-10.53,9.23,3.1,13.67c.23,1.01-.16,2.05-1,2.65-.83.6-1.94.65-2.82.12l-12.01-7.18-12.01,7.18c-.41.24-.86.36-1.32.36ZM50,61c.46,0,.91.12,1.32.36l11.34,6.78-2.93-12.91c-.21-.92.1-1.88.81-2.5l9.94-8.72-13.15-1.19c-.95-.09-1.76-.68-2.13-1.55l-5.19-12.16-5.2,12.16c-.37.87-1.18,1.46-2.12,1.55l-13.15,1.19,9.94,8.72c.71.62,1.02,1.58.81,2.5l-2.93,12.91,11.34-6.78c.41-.24.86-.36,1.32-.36ZM42.03,40.1s0,0,0,0h0ZM57.97,40.09h0s0,0,0,0Z"/>
  </g>
</svg>