<?xml version="1.0" encoding="UTF-8"?>
<svg id="Camada_1" data-name="Camada 1" xmlns="http://www.w3.org/2000/svg" viewBox="0 0 220 220">
  <defs>
    <style>
      .cls-1 {
        fill: #43c8cf;
        fill-rule: evenodd;
        stroke-width: 0px;
      }
    </style>
  </defs>
  <path class="cls-1" d="M79.73,161.03c-2.19-1.17-4.31-2.48-6.33-3.91-1.67-1.18-3.28-2.46-4.82-3.81-.9-.79-1.77-1.61-2.62-2.46-.67-.67-1.32-1.35-1.96-2.05-.54-.59-1.07-1.2-1.58-1.82-.46-.54-.9-1.1-1.33-1.66-.4-.51-.78-1.03-1.16-1.56-.35-.49-.69-.98-1.03-1.48-.31-.46-.62-.93-.92-1.4-.28-.44-.56-.9-.83-1.35-.26-.43-.51-.86-.76-1.31-.24-.42-.46-.84-.69-1.26-.22-.4-.42-.81-.63-1.23-.19-.39-.39-.79-.58-1.19-.18-.39-.36-.78-.53-1.16-.17-.38-.33-.76-.49-1.14-.15-.37-.3-.74-.45-1.12-.14-.36-.28-.73-.41-1.1-.13-.36-.26-.71-.39-1.08-.12-.35-.24-.7-.35-1.06-.11-.34-.22-.69-.33-1.04-.1-.34-.2-.68-.3-1.02-.1-.33-.19-.67-.27-1.01-.09-.33-.17-.66-.25-.99-.08-.33-.16-.65-.23-.98-.06-.27-.13-.55-.19-.82-.01-.05-.02-.1-.03-.15-.07-.32-.13-.64-.19-.96-.06-.32-.12-.63-.17-.95-.06-.31-.11-.62-.16-.93-.05-.31-.1-.62-.14-.93-.04-.31-.08-.61-.12-.91-.04-.3-.07-.6-.11-.9-.03-.3-.06-.59-.09-.89-.03-.3-.05-.59-.08-.89-.02-.29-.04-.58-.06-.88-.02-.29-.03-.58-.05-.87-.01-.29-.03-.57-.04-.86-.01-.28-.02-.57-.02-.85,0-.28,0-.56-.01-.84,0-.28,0-.56,0-.83,0-.28,0-.55.01-.83,0-.27.02-.55.03-.82.01-.27.02-.54.04-.81.01-.27.03-.54.05-.81.02-.27.04-.53.06-.8.02-.27.05-.53.07-.79.03-.26.05-.53.08-.79.03-.26.06-.52.09-.78.03-.26.07-.52.1-.77.03-.26.07-.51.11-.77.04-.26.08-.51.12-.76.04-.25.09-.5.13-.76.04-.25.09-.5.14-.75.05-.25.1-.5.15-.74.05-.25.11-.49.16-.74.06-.24.11-.49.17-.73.06-.24.12-.49.18-.73.06-.24.12-.48.19-.72.06-.24.13-.48.2-.72.07-.24.14-.48.2-.71.07-.24.14-.47.21-.71.07-.23.14-.47.22-.7.08-.23.15-.46.23-.7s.16-.46.24-.69c.08-.23.16-.46.24-.69.08-.23.17-.45.25-.68.08-.23.17-.45.26-.68.02-.05.04-.1.06-.15-.44-.42-.84-.89-1.19-1.39-.29-.42-.55-.86-.78-1.32-.18-.36-.33-.74-.47-1.13-.11-.33-.21-.67-.29-1.02-.01-.05-.02-.1-.03-.16-.06-.26-.1-.53-.13-.79-.04-.3-.06-.59-.07-.88,0-.28,0-.56,0-.83.01-.27.04-.53.07-.79.04-.25.08-.51.13-.76.05-.24.11-.48.18-.73.07-.24.15-.47.23-.69s.18-.45.28-.66c.1-.21.21-.43.33-.64.12-.21.24-.41.37-.61.13-.2.27-.39.41-.58.15-.19.3-.38.46-.56.16-.18.33-.36.5-.53.18-.17.36-.34.55-.5.19-.16.4-.32.6-.46.21-.15.43-.3.66-.43.24-.14.48-.27.73-.39.26-.13.53-.24.8-.35.29-.11.59-.21.89-.29.18-.05.36-.1.55-.14.15-.03.3-.06.45-.08.39-.06.78-.1,1.16-.12.48-.02.95,0,1.43.04.66.07,1.31.2,1.93.39.04.01.09.03.13.04,1.47.49,2.8,1.31,3.88,2.4.34.35.66.72.94,1.11.13.17.26.35.38.54.26.4.48.82.68,1.26.16.35.3.72.41,1.09.09.28.16.57.23.86,0,.04.02.09.03.13.06.31.11.62.14.93.03.29.04.58.05.87,0,.27,0,.55-.03.82-.02.26-.05.53-.09.78-.04.25-.09.5-.15.75-.06.24-.12.48-.2.71-.07.23-.16.46-.25.69-.09.22-.19.44-.29.66-.1.22-.22.42-.34.63-.12.2-.25.41-.38.6-.13.2-.28.39-.43.57-.15.19-.31.37-.47.55-.17.18-.34.35-.52.52-.18.17-.37.33-.57.49-.2.16-.41.31-.62.45-.22.15-.45.29-.68.42-.24.14-.49.26-.75.38-.27.12-.54.23-.83.33-.3.1-.61.19-.92.27-.09.02-.18.04-.27.06-.26.06-.52.1-.78.13-.41.05-.82.08-1.23.08-.45,0-.9-.03-1.34-.1-.01.03-.02.06-.04.09-.09.23-.17.45-.25.68-.08.23-.16.46-.24.69-.08.23-.16.46-.24.69-.08.23-.15.47-.23.7-.08.23-.15.47-.22.7-.07.24-.14.47-.21.71-.07.24-.14.48-.2.71-.06.24-.13.48-.19.72-.06.24-.12.48-.18.72-.06.25-.11.49-.17.73-.06.24-.11.49-.16.74-.05.25-.1.5-.15.74-.05.25-.09.5-.14.75-.04.25-.09.5-.13.76-.04.26-.08.51-.12.76-.04.26-.07.51-.11.77-.03.26-.07.52-.1.78-.03.26-.06.52-.08.79-.03.26-.05.53-.07.79-.02.27-.04.53-.06.8-.02.27-.04.54-.05.81-.01.27-.03.54-.04.82,0,.27-.02.55-.02.82,0,.28,0,.55,0,.83,0,.28,0,.56,0,.84,0,.28,0,.57.02.85,0,.28.02.57.03.86.01.29.03.58.05.87.02.29.04.59.06.88.02.3.05.59.08.89.03.3.06.6.09.9.04.3.07.6.11.91.04.31.08.61.13.92.05.31.1.62.15.93.05.31.11.63.17.94.06.32.12.64.19.95.02.08.03.16.05.24.05.25.11.49.16.73.07.33.15.65.23.98.08.33.17.67.26,1,.09.34.19.68.28,1.01.1.34.2.69.31,1.03.11.35.22.7.34,1.05.12.36.24.71.37,1.07.13.37.27.73.41,1.09.14.37.29.75.45,1.11.16.38.32.76.49,1.14.17.39.35.78.53,1.17.19.4.39.8.59,1.2.21.42.43.83.65,1.24.23.43.47.86.71,1.28.26.45.53.89.8,1.33.29.47.58.93.89,1.39.33.49.67.98,1.01,1.46.38.52.76,1.04,1.15,1.55.44.57.89,1.12,1.35,1.67.53.63,1.07,1.25,1.63,1.85.68.73,1.38,1.44,2.1,2.13,1,.96,2.05,1.89,3.12,2.77,3.55,2.9,7.47,5.33,11.65,7.2,1.27.57,2.56,1.09,3.87,1.55.94.33,1.88.64,2.84.92.79.23,1.58.44,2.39.64.69.17,1.4.32,2.1.46.63.12,1.26.24,1.9.34.58.09,1.17.17,1.75.25.55.07,1.09.13,1.65.18.51.05,1.02.08,1.54.11.2.01.4.03.61.04.04-.14.08-.28.12-.42.07-.23.16-.46.24-.68.09-.22.19-.44.29-.66.1-.22.22-.43.34-.63.12-.2.25-.41.38-.6.13-.2.28-.39.43-.58.15-.19.3-.37.47-.55.17-.18.34-.35.52-.52.18-.17.37-.33.57-.49.2-.16.41-.31.62-.46.22-.15.44-.29.68-.42.24-.14.49-.26.74-.38.27-.12.54-.23.82-.33.3-.1.6-.2.92-.27.1-.02.2-.05.3-.07.25-.05.5-.09.74-.13.41-.05.81-.08,1.22-.09.52,0,1.03.04,1.53.11.93.14,1.83.42,2.66.81.7.32,1.35.73,1.95,1.21.72.58,1.37,1.25,1.91,2.02.19.26.36.54.52.83.1.17.19.33.27.5.18.37.34.74.48,1.14.11.33.21.67.29,1.02,0,.04.02.09.03.13.06.27.1.54.14.82.04.3.06.59.07.88,0,.28,0,.56,0,.83-.01.22-.03.44-.06.66,0,.04,0,.09-.02.13-.03.25-.07.51-.13.76-.05.24-.11.49-.18.73-.07.23-.15.47-.23.69-.08.23-.18.45-.28.66-.1.22-.21.43-.33.64-.12.21-.24.41-.37.61-.13.2-.27.39-.41.58-.15.19-.3.37-.46.55-.16.18-.33.36-.5.53-.18.17-.36.34-.55.5-.19.16-.4.32-.61.46-.21.15-.44.29-.66.43-.24.14-.48.27-.73.39-.26.13-.53.24-.8.34-.29.11-.59.2-.89.29-.17.05-.35.09-.52.13-.16.03-.32.07-.48.09-.39.06-.78.1-1.17.12-.48.02-.96,0-1.43-.05-.73-.08-1.44-.24-2.12-.47-1.38-.48-2.64-1.26-3.68-2.28-.52-.51-.98-1.07-1.37-1.69-.26-.4-.49-.82-.69-1.26-.07-.14-.13-.29-.19-.44-.19,0-.38-.02-.57-.03-.5-.02-1-.05-1.5-.09-.53-.04-1.05-.08-1.58-.13-.56-.06-1.12-.12-1.67-.2-.59-.08-1.18-.16-1.77-.26-.64-.1-1.28-.22-1.92-.35-.7-.14-1.4-.29-2.09-.45-.78-.18-1.56-.38-2.33-.6-.91-.25-1.81-.53-2.7-.83-1.14-.38-2.26-.79-3.36-1.24-1.89-.76-3.74-1.63-5.54-2.59h-.02ZM29.32,58.66c-.42-.15-.86-.27-1.3-.36-.28-.06-.57-.1-.86-.14-.48-.06-.97-.08-1.46-.06-.39.01-.78.05-1.18.11-.18.03-.35.06-.53.1-.16.03-.32.07-.48.11-.3.08-.61.18-.9.28-.28.1-.54.22-.81.34-.25.12-.5.25-.73.39-.23.13-.45.28-.67.42-.21.14-.41.3-.61.46-.19.16-.38.32-.56.49-.18.17-.35.35-.51.52-.16.18-.31.36-.46.55-.15.19-.28.38-.42.58-.13.2-.26.4-.37.61-.12.21-.23.42-.33.63-.1.22-.2.44-.28.66-.09.23-.17.46-.24.69-.07.24-.13.48-.19.72-.05.25-.1.5-.13.75-.03.26-.06.53-.08.79-.01.27-.02.55,0,.83,0,.29.03.59.07.88.03.28.08.57.14.85l.02.09c.07.35.17.68.28,1.01.13.38.28.76.45,1.12.22.46.47.89.75,1.3.39.57.84,1.09,1.34,1.56-.01.03-.02.05-.03.08-.09.22-.18.45-.27.67-.09.23-.18.45-.26.67-.09.23-.17.45-.26.68-.08.23-.17.45-.25.68-.08.23-.17.45-.25.68-.08.23-.16.46-.24.69-.08.23-.16.46-.24.69-.08.23-.16.46-.23.69-.08.23-.15.46-.23.7-.08.23-.15.47-.22.7-.07.23-.15.47-.22.7-.07.23-.14.47-.21.71-.07.24-.14.47-.21.71-.07.24-.14.48-.2.71-.07.24-.13.48-.2.71-.06.24-.13.48-.19.72-.06.24-.13.48-.19.72-.06.24-.12.48-.18.73-.06.24-.12.49-.18.73-.06.25-.11.49-.17.73-.06.24-.11.49-.17.74-.05.25-.11.49-.16.74-.05.25-.1.49-.15.74-.05.25-.1.5-.15.75-.05.25-.09.5-.14.75-.05.25-.09.5-.14.75-.04.25-.09.51-.13.76-.04.25-.09.5-.13.76-.04.26-.08.51-.12.76s-.08.51-.12.77c-.04.26-.07.51-.11.77-.03.26-.07.52-.1.77-.03.26-.07.52-.1.78-.03.26-.06.52-.09.78-.03.26-.06.52-.08.79-.03.26-.05.53-.08.79-.03.26-.05.53-.07.79-.02.27-.04.53-.06.8s-.04.53-.06.8c-.02.27-.04.54-.05.81-.02.27-.03.54-.04.81-.01.27-.02.54-.04.82,0,.27-.02.54-.03.82,0,.27-.02.55-.02.82s-.01.55-.02.83c0,.28,0,.56,0,.83,0,.28,0,.56,0,.84,0,.28,0,.56,0,.84,0,.28,0,.56.01.84,0,.28.01.57.02.85.01.28.02.57.03.86.01.29.03.57.04.86.01.29.03.58.04.87.02.29.03.58.05.87.02.29.04.58.06.88.02.3.05.59.07.88.03.3.05.59.08.89.03.3.06.6.09.89.03.3.06.6.1.9.04.3.07.6.11.9.04.3.07.61.12.91.04.31.08.61.13.92.04.31.09.61.14.92.05.31.1.62.15.93.05.31.1.63.16.94.06.31.11.63.17.94.06.32.12.63.18.95.06.32.13.64.19.96.04.18.08.37.12.56.03.14.06.27.09.41.07.33.14.65.22.97.07.32.14.65.22.97.08.33.17.66.25.99.08.33.17.66.25,1,.09.34.18.67.27,1,.09.34.19.68.28,1.01.1.34.19.68.3,1.02.1.35.21.69.32,1.03.11.35.21.69.32,1.04.11.35.24.7.35,1.06.12.35.23.71.35,1.06.13.36.26.72.39,1.08.13.36.26.72.39,1.08.14.37.29.74.43,1.1.15.37.29.74.44,1.11.16.38.32.76.48,1.13.16.38.32.76.48,1.13.17.39.35.78.53,1.16.18.39.35.78.53,1.17.19.4.38.8.58,1.19.2.4.4.81.6,1.21.21.41.42.82.63,1.23.22.42.45.84.67,1.26.23.42.46.85.7,1.27.25.44.5.87.75,1.3.26.45.52.89.79,1.33.28.45.55.91.83,1.35.3.47.6.93.9,1.39.32.48.64.96.96,1.43.34.49.68.99,1.02,1.47.36.51.73,1.02,1.1,1.52.39.53.79,1.05,1.19,1.57,13.94,17.98,34.07,30.46,56.48,34.9.65.13,1.29.25,1.94.36.61.11,1.23.21,1.85.31.59.09,1.18.18,1.78.26.57.08,1.14.15,1.72.22.54.06,1.09.12,1.64.17.53.05,1.06.1,1.59.14.52.04,1.03.09,1.55.12.49.03.99.06,1.49.08.48.02.97.04,1.45.06.48.02.95.03,1.43.04.46.01.91,0,1.37,0,.45,0,.9,0,1.36,0,.44,0,.88-.01,1.32-.03.43,0,.86-.02,1.29-.04.42-.02.84-.04,1.27-.06.41-.02.82-.05,1.24-.07.41-.03.81-.05,1.22-.09.4-.03.8-.06,1.19-.1.39-.04.78-.07,1.18-.11.38-.04.77-.08,1.15-.13.38-.04.75-.09,1.13-.14.37-.05.74-.1,1.11-.15.36-.05.73-.1,1.1-.16.36-.06.72-.11,1.08-.17.35-.06.71-.12,1.06-.18.35-.06.71-.12,1.06-.19.34-.07.68-.14,1.03-.2.34-.07.68-.13,1.02-.2.09-.02.17-.04.26-.06.25-.05.5-.11.75-.16.33-.07.66-.15.99-.23.33-.08.65-.15.98-.23.32-.08.65-.16.97-.24.32-.08.64-.16.95-.25s.63-.17.94-.25c.31-.08.62-.17.93-.26.31-.09.61-.18.92-.27.3-.09.61-.18.91-.28.3-.09.6-.19.9-.28.3-.1.59-.19.89-.29s.59-.2.88-.3c.29-.1.58-.2.87-.3.29-.1.57-.2.86-.31.28-.1.57-.21.85-.31.28-.11.56-.21.84-.32.28-.11.56-.21.83-.33.27-.11.55-.22.82-.33.27-.11.54-.22.81-.34.27-.11.54-.22.8-.34.27-.11.53-.23.8-.35.26-.12.53-.23.79-.35.26-.12.52-.24.78-.36.26-.12.51-.24.77-.36.25-.12.51-.24.76-.37.25-.12.5-.25.76-.37.25-.12.5-.25.75-.38.25-.12.49-.25.74-.38.25-.13.49-.25.73-.38.24-.13.49-.26.73-.39.24-.13.48-.26.72-.39.24-.13.48-.27.71-.4.24-.13.47-.27.71-.4.23-.14.47-.27.7-.41.23-.14.46-.27.69-.41.23-.14.46-.28.69-.41.23-.14.45-.28.68-.42.22-.14.45-.28.67-.42.22-.14.44-.28.66-.43.22-.14.44-.29.66-.43.22-.14.44-.29.65-.43.22-.15.43-.29.65-.44.22-.15.43-.29.64-.44.21-.15.42-.3.64-.45s.42-.3.63-.45c.21-.15.42-.3.62-.45.21-.15.41-.3.62-.46.2-.15.41-.3.61-.46.2-.15.4-.31.61-.46.2-.15.4-.31.6-.47.2-.16.4-.31.59-.47.2-.16.39-.32.59-.47.2-.16.39-.32.59-.48.2-.16.39-.32.58-.48.19-.16.38-.32.57-.48.19-.16.38-.32.57-.49.19-.16.37-.33.56-.49.19-.17.37-.33.56-.49.18-.16.37-.33.55-.5.18-.16.37-.33.55-.5.18-.17.36-.33.54-.5.18-.17.36-.34.54-.51.18-.17.35-.34.53-.51.18-.17.35-.34.53-.51.17-.17.35-.34.52-.51.11-.1.21-.21.32-.31.43.19.87.36,1.32.49.62.18,1.27.3,1.93.35.46.04.91.04,1.38.02.38-.02.76-.07,1.13-.14.1-.02.21-.04.31-.06.23-.05.45-.1.67-.17.3-.09.59-.19.88-.3.27-.11.53-.22.79-.35.25-.12.48-.25.71-.4.23-.14.44-.28.65-.44.2-.15.4-.3.6-.47.19-.16.37-.33.55-.5.17-.17.34-.35.5-.53.16-.18.31-.37.45-.56.14-.19.28-.39.41-.59.13-.2.25-.4.36-.61.11-.21.22-.42.32-.64.1-.22.19-.44.27-.67.08-.23.16-.46.23-.7.07-.24.13-.48.18-.73.05-.25.09-.51.12-.76.03-.26.05-.53.06-.8.01-.28,0-.56,0-.84-.02-.3-.04-.59-.08-.89-.03-.22-.07-.44-.12-.67-.02-.1-.04-.19-.06-.28-.09-.35-.19-.7-.31-1.03-.15-.4-.32-.78-.51-1.15-.23-.44-.49-.85-.78-1.25-.03-.04-.06-.09-.1-.13-1.21-1.62-2.91-2.83-4.81-3.43-.41-.13-.83-.24-1.25-.32-.53-.1-1.07-.15-1.61-.16-.42,0-.83.02-1.25.07-.31.04-.62.08-.92.15-.05,0-.09.02-.14.03-.32.07-.63.16-.93.26-.28.1-.57.2-.83.32-.26.11-.51.24-.76.37-.24.13-.47.27-.69.41-.22.14-.42.29-.63.45-.2.15-.39.31-.57.48-.18.16-.36.34-.52.52-.17.18-.33.36-.48.54-.15.19-.3.37-.43.57-.14.19-.27.39-.39.6-.12.2-.24.41-.34.63-.11.21-.21.43-.3.65-.09.22-.18.45-.25.68-.08.23-.15.47-.2.71-.06.25-.11.49-.15.74-.04.26-.07.52-.1.78-.02.27-.04.54-.03.82,0,.29.01.57.04.86.03.31.07.61.13.91.02.09.04.17.05.25.05.25.11.49.18.73.11.37.24.73.39,1.08.14.33.3.65.47.96-.04.04-.07.07-.11.11-.17.17-.35.35-.52.51-.18.17-.35.34-.53.51-.18.17-.35.34-.53.51-.18.17-.36.34-.54.5-.18.17-.36.33-.55.5-.18.17-.37.33-.55.5-.18.16-.37.33-.55.49-.19.16-.37.33-.56.49-.19.16-.38.33-.57.49-.19.16-.38.32-.57.49-.19.16-.38.32-.58.48-.2.16-.39.32-.58.48-.2.16-.39.32-.59.47-.2.16-.4.31-.59.47-.2.16-.4.31-.6.47-.2.15-.4.31-.61.46-.2.15-.41.31-.61.46-.2.15-.41.31-.62.46-.21.15-.42.3-.63.45-.21.15-.42.3-.63.45-.21.15-.42.3-.64.44-.22.15-.43.29-.64.44-.22.15-.43.29-.65.44s-.44.29-.66.43-.44.29-.66.43c-.22.14-.45.28-.67.42-.22.14-.45.28-.68.42-.23.14-.46.28-.69.41-.23.14-.46.27-.69.41-.23.14-.47.27-.7.41-.24.14-.47.27-.71.4-.24.13-.47.27-.71.4-.24.13-.48.26-.72.39-.24.13-.49.26-.73.39-.25.13-.49.26-.74.38-.25.13-.49.25-.74.38-.25.12-.5.25-.75.37-.25.13-.51.25-.76.37-.26.12-.51.24-.77.36-.26.12-.52.24-.78.36-.26.12-.52.24-.78.35-.27.12-.53.23-.8.35-.27.11-.54.23-.8.34-.27.11-.54.23-.81.34-.27.11-.55.22-.82.33-.28.11-.56.22-.83.32-.28.11-.56.21-.84.32-.28.11-.57.21-.85.31-.29.1-.57.2-.86.3-.29.1-.58.2-.87.3-.29.1-.59.2-.88.29-.3.1-.6.19-.89.29-.3.09-.6.19-.9.28-.31.09-.61.18-.92.27-.31.09-.62.18-.93.27-.31.09-.63.17-.94.26-.32.09-.63.17-.95.25-.32.08-.64.16-.97.24-.33.08-.65.16-.98.23-.33.08-.66.15-.99.22-.19.04-.38.08-.57.12-.15.03-.29.06-.44.09-.34.07-.68.14-1.02.2-.34.07-.69.14-1.04.2-.36.06-.71.12-1.06.18-.36.06-.71.13-1.06.18-.36.06-.73.11-1.1.16-.37.05-.73.11-1.1.16-.38.05-.76.09-1.13.14-.38.04-.76.09-1.14.13-.39.04-.78.08-1.18.11-.4.04-.79.07-1.19.11-.4.03-.81.06-1.22.09-.41.03-.83.05-1.24.07-.42.02-.84.04-1.27.06-.43.02-.87.03-1.3.04-.44.01-.88.02-1.32.03-.46,0-.91,0-1.37,0-.47,0-.93-.01-1.39-.02-.47-.01-.95-.02-1.43-.04-.49-.02-.99-.05-1.48-.08-.51-.03-1.01-.06-1.52-.1-.52-.04-1.04-.08-1.56-.13-.55-.05-1.09-.11-1.63-.17-.57-.06-1.13-.14-1.69-.21-.59-.08-1.18-.16-1.76-.25-.61-.09-1.23-.19-1.84-.3-.65-.11-1.3-.23-1.94-.36-.69-.14-1.37-.28-2.05-.43-.74-.17-1.47-.34-2.2-.52-.8-.2-1.59-.41-2.38-.63-.88-.24-1.74-.5-2.61-.77-.98-.31-1.96-.63-2.92-.97-1.17-.41-2.32-.85-3.47-1.31-1.53-.61-3.03-1.26-4.51-1.95-6.34-2.96-12.32-6.65-17.79-10.99-1.27-1.01-2.52-2.07-3.74-3.15-.93-.82-1.84-1.66-2.73-2.53-.74-.71-1.46-1.44-2.17-2.18-.63-.66-1.25-1.32-1.87-1.99-.55-.61-1.1-1.22-1.63-1.85-.49-.57-.97-1.15-1.45-1.73-.44-.54-.88-1.09-1.31-1.65-.4-.52-.8-1.04-1.19-1.57-.37-.5-.73-1-1.09-1.51-.34-.48-.68-.97-1.01-1.46-.32-.47-.63-.94-.94-1.42-.3-.46-.59-.92-.88-1.38-.28-.45-.55-.9-.82-1.35-.26-.43-.51-.87-.76-1.31-.24-.43-.49-.85-.73-1.29-.23-.42-.46-.84-.69-1.26-.22-.41-.42-.82-.64-1.23-.21-.4-.41-.81-.61-1.21-.19-.4-.39-.79-.58-1.19-.18-.39-.36-.78-.54-1.17-.18-.39-.35-.77-.53-1.16-.17-.38-.32-.75-.48-1.14-.16-.37-.32-.75-.47-1.13-.15-.37-.29-.74-.44-1.11-.14-.36-.28-.73-.42-1.1-.13-.36-.26-.72-.39-1.08-.13-.36-.25-.71-.38-1.07-.12-.35-.24-.7-.35-1.06-.11-.35-.23-.7-.34-1.05-.11-.34-.21-.69-.32-1.03-.1-.34-.21-.68-.31-1.03-.1-.34-.19-.67-.28-1.01-.09-.34-.19-.67-.28-1.01-.09-.33-.17-.66-.25-.99-.08-.33-.17-.66-.25-1-.08-.32-.15-.65-.22-.98-.07-.32-.15-.65-.22-.97-.02-.11-.05-.21-.07-.31-.05-.22-.09-.43-.14-.65-.07-.32-.13-.64-.19-.96-.06-.32-.12-.63-.18-.95-.06-.31-.11-.63-.16-.94-.05-.31-.1-.62-.16-.93-.05-.31-.1-.62-.14-.92-.05-.3-.09-.61-.13-.92-.04-.31-.08-.61-.12-.91-.04-.3-.08-.61-.11-.91-.04-.3-.07-.6-.1-.9-.03-.3-.06-.59-.09-.89-.03-.29-.05-.59-.08-.89-.03-.3-.05-.59-.07-.88-.02-.29-.04-.58-.06-.88-.02-.29-.04-.58-.05-.87-.02-.29-.03-.58-.04-.87-.01-.29-.03-.57-.04-.86-.01-.28-.02-.57-.03-.86,0-.28-.01-.57-.02-.85,0-.28,0-.56-.01-.85,0-.28,0-.56,0-.84,0-.28,0-.55,0-.83,0-.28,0-.55.01-.83,0-.28.01-.55.02-.82,0-.27.02-.55.03-.82.01-.27.02-.54.04-.82.01-.27.03-.54.04-.81.01-.27.03-.54.05-.81.02-.27.04-.53.06-.8.02-.27.04-.53.06-.8.02-.27.05-.53.07-.79.03-.26.05-.53.08-.79.03-.26.06-.52.09-.78.03-.26.06-.52.09-.78.03-.26.07-.52.1-.78.03-.26.07-.52.1-.77.04-.25.07-.51.11-.77.04-.26.08-.51.12-.77.04-.26.08-.51.13-.76.04-.25.09-.5.13-.76.04-.25.09-.5.14-.75.05-.25.09-.5.14-.75.05-.25.1-.5.15-.75.05-.25.1-.49.15-.74.05-.25.11-.49.16-.74.06-.24.11-.49.17-.74.06-.24.11-.49.17-.73.06-.25.12-.49.18-.73.06-.24.12-.48.18-.72.06-.24.13-.48.19-.72.06-.24.13-.48.2-.72.07-.24.13-.47.2-.71.07-.24.14-.47.21-.71.07-.24.14-.47.21-.71.07-.23.14-.47.22-.7.07-.23.15-.47.22-.7.08-.23.15-.46.23-.7.08-.23.16-.46.23-.69.08-.23.16-.46.24-.69.08-.23.16-.46.24-.69.08-.23.16-.46.25-.69.08-.23.17-.45.25-.68s.17-.45.26-.68c.09-.23.18-.45.26-.67.01-.03.02-.05.03-.08.44.06.88.09,1.33.09.4,0,.8-.03,1.21-.09.23-.03.46-.07.69-.12.11-.02.23-.05.34-.08.31-.08.62-.17.91-.27.28-.1.55-.21.82-.33.25-.12.5-.24.74-.38.23-.13.46-.27.67-.42.21-.15.42-.3.62-.46.2-.16.38-.32.57-.49.18-.17.35-.34.51-.52.16-.18.32-.36.47-.55.15-.19.29-.38.42-.58.13-.2.26-.4.38-.6.12-.21.23-.42.33-.63.1-.22.2-.44.29-.66.09-.23.17-.45.24-.69.07-.24.14-.48.2-.72.06-.25.11-.5.14-.75.04-.26.07-.52.08-.79.02-.27.03-.55.02-.83,0-.29-.02-.58-.06-.87-.03-.31-.08-.62-.15-.93,0-.02,0-.04-.01-.06-.07-.32-.15-.63-.25-.94-.12-.38-.26-.75-.42-1.1-.2-.44-.43-.87-.7-1.27-.28-.42-.58-.82-.92-1.19-.17-.19-.34-.36-.52-.54-.99-.95-2.18-1.69-3.47-2.15v.04ZM29.97,65.76c.1.19.18.38.26.57.07.17.13.34.17.53,0,.02.01.05.02.08.04.18.05.34.07.52.02.1.03.2.02.31,0,.02,0,.04,0,.06.02.08.01.16,0,.25,0,.08,0,.15-.01.23,0,.09-.02.17-.03.26-.04.25-.1.49-.18.73-.08.22-.17.43-.28.63,0,0,0,.02-.01.03-.05.13-.13.24-.2.35-.05.09-.11.18-.17.26-.11.15-.23.29-.37.41-.04.04-.08.08-.11.12-.05.05-.1.1-.16.14-.07.07-.16.13-.25.2-.06.04-.12.09-.18.13-.06.04-.11.07-.17.11-.07.05-.12.09-.2.12-.11.06-.22.12-.34.17-.12.05-.25.1-.38.15-.1.02-.17.05-.27.08l-.25.05c-.11.02-.22.05-.33.05-.12.03-.25,0-.37.02-.17.02-.35.02-.52.01-.13-.01-.27-.03-.4-.04-.15-.03-.3-.06-.46-.11-.59-.15-1.15-.42-1.61-.82-.07-.05-.15-.11-.21-.18-.28-.22-.49-.46-.68-.75-.06-.09-.12-.18-.17-.27-.04-.08-.08-.15-.12-.23-.12-.18-.2-.37-.27-.57v-.02c-.04-.1-.07-.21-.1-.32-.02-.07-.04-.15-.05-.22-.04-.18-.05-.34-.07-.52,0-.06-.01-.12-.02-.18-.01-.17-.01-.35.01-.52,0-.08,0-.17.02-.23,0-.02,0-.04,0-.06.03-.25.09-.5.16-.74.04-.11.08-.23.13-.35.03-.11.08-.22.15-.33.01-.02.03-.04.04-.07.05-.14.11-.25.21-.38.03-.06.07-.12.11-.17.14-.2.29-.38.46-.55.14-.14.29-.27.46-.39.04-.03.08-.06.12-.09.19-.14.39-.26.59-.35.03-.02.07-.04.1-.06.12-.06.24-.1.35-.14.12-.05.23-.09.35-.12.05-.02.1-.04.15-.05.04,0,.08-.02.12-.03.12-.03.24-.05.36-.06.06-.01.12-.03.18-.02l.08-.02c.14-.01.27,0,.41,0h.09s.06.01.11.02c.12,0,.27,0,.4.04.19.02.39.06.57.13.15.03.31.1.45.18.11.04.22.08.34.16.25.11.52.28.72.47.1.06.2.14.28.25.12.1.25.21.34.34.08.11.19.23.26.34.08.09.15.2.19.29.03.05.06.11.08.16h0ZM181.39,165.19c.04.06.08.11.11.17.18.25.3.54.41.85.03.06.05.13.07.19.05.14.09.29.12.43l.03.14c.01.06.03.12.02.18.01.06.02.13.02.2,0,.04,0,.09,0,.12.02.02,0,.04.01.06.01.06,0,.12,0,.19.01.06,0,.12,0,.17,0,.1,0,.2,0,.3,0,.11-.02.22-.04.33-.02.14-.05.29-.09.42,0,.03-.02.06-.03.08-.02.13-.07.27-.14.4-.02.07-.05.13-.08.2-.08.2-.19.39-.32.57-.01.02-.02.03-.03.05-.13.2-.28.39-.45.56-.17.18-.35.35-.55.5-.21.16-.43.3-.66.43-.26.13-.53.25-.82.33-.1.03-.21.05-.31.08-.26.06-.52.09-.77.08h0s-.04,0-.04,0c-.04,0-.06.01-.08,0-.19,0-.4-.02-.59-.04-.14,0-.29-.02-.43-.08-.15-.03-.28-.07-.42-.12-.15-.04-.29-.1-.42-.16-.37-.16-.72-.38-1.04-.64-.24-.2-.46-.43-.66-.68-.1-.1-.19-.23-.26-.36-.11-.16-.21-.35-.29-.55,0-.02-.02-.05-.03-.07-.12-.26-.22-.55-.28-.85,0-.04-.02-.08-.03-.12-.02-.11-.04-.22-.05-.34-.02-.19-.03-.37-.02-.55,0-.27.03-.53.09-.78.05-.24.12-.48.21-.71.01-.04.03-.07.04-.1.06-.19.15-.38.25-.55.05-.07.09-.14.14-.22.08-.13.17-.25.27-.37.09-.1.18-.21.27-.3.07-.08.15-.15.22-.23.13-.12.28-.23.42-.33.06-.05.12-.09.19-.13.07-.04.14-.08.21-.12.17-.1.35-.19.53-.26.05-.02.1-.04.15-.05.1-.02.19-.06.27-.08.1-.04.17-.06.27-.08.08-.02.15-.03.23-.05.09-.02.18-.03.27-.04.37-.03.74-.01,1.09.04.37.05.72.15,1.05.29.25.09.49.23.73.39.02.02.05.03.07.05.12.06.2.14.27.21.32.24.61.54.85.88.01.01.02.03.04.05v.02ZM151.23,26.73c-2.07-1.1-4.18-2.12-6.33-3.07-1.35-.59-2.7-1.15-4.08-1.68-1.1-.42-2.2-.82-3.31-1.21-.95-.33-1.9-.64-2.87-.93-.85-.27-1.72-.52-2.58-.76-.79-.22-1.57-.43-2.37-.62-.73-.18-1.46-.35-2.2-.52-.68-.16-1.37-.3-2.06-.44-.65-.13-1.3-.25-1.96-.37-.62-.11-1.24-.22-1.86-.31-.6-.1-1.19-.18-1.79-.27-.57-.08-1.15-.16-1.72-.23-.54-.07-1.09-.12-1.64-.18-.53-.06-1.06-.1-1.6-.15-.52-.04-1.04-.09-1.56-.12-.49-.03-.99-.06-1.49-.08-.49-.03-.97-.05-1.46-.07-.48-.02-.95-.03-1.43-.04-.46,0-.92-.01-1.38-.02-.46,0-.91,0-1.36,0-.44,0-.88.01-1.32.03-.43,0-.87.02-1.3.04-.42.01-.84.04-1.26.06-.41.02-.83.04-1.24.07-.41.03-.81.05-1.22.09-.4.03-.8.06-1.2.1-.39.04-.78.07-1.18.11-.39.04-.77.08-1.16.12-.38.04-.75.09-1.13.14-.37.05-.75.09-1.12.14-.37.05-.73.1-1.1.16-.36.06-.73.11-1.09.17-.35.06-.71.12-1.06.18-.35.06-.71.12-1.06.18-.34.06-.68.13-1.03.2-.34.07-.68.13-1.03.2-.13.03-.26.05-.38.08-.21.04-.42.09-.63.13-.33.07-.66.15-1,.22l-.98.23c-.32.08-.65.16-.97.24-.32.08-.64.16-.96.25-.32.08-.63.17-.95.25-.31.08-.62.17-.93.26-.31.09-.61.18-.92.27-.3.09-.61.18-.91.28-.3.09-.6.18-.9.28-.3.1-.59.19-.89.29-.29.1-.59.2-.88.29-.29.1-.58.2-.87.3-.29.1-.57.2-.86.31-.28.1-.57.21-.85.31s-.56.21-.84.32c-.28.11-.56.21-.83.32-.27.11-.55.22-.82.33-.27.11-.54.22-.81.33-.27.11-.54.23-.81.34-.27.11-.53.23-.8.34-.26.12-.53.23-.79.35-.26.12-.52.24-.78.36-.26.12-.51.24-.77.36-.25.12-.51.24-.76.37-.25.12-.5.25-.76.37-.25.12-.5.25-.75.38-.25.12-.49.25-.74.38-.12.06-.24.13-.36.19-1.3-1.24-2.93-2.11-4.71-2.48-.56-.12-1.12-.19-1.7-.21-.43-.02-.86,0-1.29.04-.36.03-.72.09-1.09.17h-.01c-.32.07-.63.15-.94.25-.29.09-.57.2-.85.31-.26.11-.52.23-.77.36-.24.13-.47.26-.7.41-.22.14-.43.29-.64.45-.2.15-.4.31-.58.48-.18.16-.36.33-.53.51-.17.17-.33.35-.48.54-.15.18-.3.37-.44.57-.14.19-.27.39-.39.59-.13.2-.24.41-.35.62-.11.21-.21.43-.31.65-.1.22-.18.45-.26.68-.08.23-.15.47-.21.71-.06.24-.12.49-.16.74-.05.26-.08.51-.11.77-.03.27-.04.54-.04.81,0,.28,0,.57.03.86.02.3.06.6.11.91.02.13.04.26.07.39.04.2.09.39.14.58.08.29.17.56.28.82.03.08.06.17.09.24.17.42.36.81.58,1.19.31.53.66,1.03,1.05,1.49.6.7,1.3,1.31,2.07,1.83.92.6,1.93,1.04,3,1.3.59.14,1.19.24,1.8.27.44.02.88.02,1.33-.01.37-.03.74-.08,1.11-.15.05-.01.11-.02.16-.03.27-.06.55-.13.81-.21.3-.09.58-.19.86-.3.27-.11.52-.23.78-.36.24-.12.48-.26.71-.4.22-.14.44-.29.64-.44.2-.15.4-.31.59-.48.19-.16.37-.33.54-.5.17-.17.33-.35.49-.54.15-.18.3-.37.45-.56.14-.19.27-.39.4-.59.13-.2.25-.41.36-.62.11-.21.21-.42.31-.65.1-.22.19-.44.26-.67.08-.23.16-.47.22-.7.06-.24.12-.49.17-.73.05-.25.08-.51.11-.77.03-.27.05-.54.05-.8,0-.28,0-.56-.02-.85-.02-.3-.05-.6-.1-.9-.01-.07-.02-.13-.03-.2.19-.1.39-.2.58-.3.25-.13.49-.25.74-.38.25-.12.5-.25.75-.37.25-.13.51-.25.76-.37.26-.12.51-.24.77-.36.26-.12.52-.24.78-.36.26-.12.52-.24.79-.35.27-.12.53-.23.8-.35.27-.11.53-.23.81-.34.27-.11.54-.23.81-.33.27-.11.55-.22.83-.33.28-.11.56-.22.83-.32.28-.11.56-.21.84-.32.28-.11.57-.21.85-.31.29-.1.58-.2.86-.3.29-.1.58-.2.88-.3.29-.1.59-.2.89-.29.3-.1.6-.19.9-.28.3-.09.6-.19.91-.28.31-.09.61-.18.92-.27.31-.09.62-.18.93-.26.31-.09.63-.17.95-.25.32-.09.64-.17.95-.25.32-.08.65-.16.97-.24.33-.08.65-.16.98-.23.33-.08.66-.15.99-.22.15-.03.3-.06.46-.1.19-.04.38-.07.56-.11.34-.07.68-.14,1.02-.2.35-.07.69-.13,1.04-.2.36-.06.71-.13,1.06-.18.36-.06.71-.12,1.07-.18.36-.06.73-.11,1.1-.16.37-.05.74-.11,1.11-.16.38-.05.76-.09,1.13-.14.38-.05.76-.09,1.15-.13.39-.04.78-.08,1.18-.11.4-.04.79-.07,1.19-.1.4-.03.81-.06,1.22-.09.41-.03.83-.05,1.24-.07.42-.02.84-.04,1.27-.06.44-.01.87-.02,1.3-.03.44,0,.88-.02,1.32-.02.46,0,.91,0,1.37,0,.47,0,.93.01,1.4.03.48.01.95.02,1.42.04.5.02.99.05,1.49.08.51.03,1.02.07,1.53.11.52.04,1.05.08,1.57.13.54.05,1.09.11,1.63.17.57.07,1.14.14,1.7.21.59.08,1.18.17,1.77.26.62.1,1.24.2,1.85.31.65.12,1.3.24,1.95.37.69.14,1.38.29,2.07.44.74.17,1.48.34,2.21.53.8.21,1.6.42,2.4.65.88.25,1.76.51,2.63.79,1,.32,2,.66,2.99,1.01,1.18.42,2.36.87,3.52,1.34,1.61.65,3.19,1.35,4.75,2.1,5.88,2.8,11.44,6.23,16.57,10.24,1.36,1.06,2.69,2.16,3.98,3.3.95.83,1.88,1.69,2.79,2.56.75.72,1.5,1.46,2.22,2.21.64.66,1.27,1.33,1.89,2.01.56.61,1.11,1.23,1.66,1.86.49.57.99,1.16,1.47,1.75.44.55.88,1.1,1.32,1.65.41.52.81,1.05,1.2,1.58.37.5.74,1.01,1.1,1.52.35.48.68.97,1.02,1.47.32.47.64.95.95,1.43.3.46.6.92.89,1.39.28.44.55.9.82,1.35.26.43.51.87.77,1.31.25.43.49.86.73,1.29.23.42.46.84.69,1.26.22.41.43.82.64,1.23.21.41.42.81.62,1.22.19.4.39.79.57,1.19.19.39.37.78.55,1.18.18.39.35.77.53,1.17.17.38.33.76.48,1.14.16.38.32.75.48,1.13.15.37.29.74.44,1.11.14.37.29.73.43,1.1.13.36.26.72.39,1.08.13.36.26.71.38,1.07.12.35.24.7.35,1.06.12.35.23.7.35,1.05.11.34.21.69.32,1.03.1.34.21.68.31,1.03.1.34.19.67.28,1.01.09.34.19.67.28,1.01.09.33.17.66.25.99.08.33.17.66.25.99.08.32.15.65.22.98.07.32.15.65.22.98.03.14.06.28.09.43.04.18.08.36.11.54.07.32.13.64.19.96l.18.95c.06.31.11.63.17.94.06.31.11.62.16.94.05.31.1.62.14.92.05.31.09.61.14.92.04.31.08.61.12.91.04.3.08.61.11.91.04.3.07.6.1.9.03.3.06.59.09.89.03.29.06.59.08.89.03.3.05.59.07.89.02.29.05.58.06.88.02.29.04.58.05.87.02.29.03.58.04.87.01.29.02.57.04.86,0,.28.02.57.03.86,0,.28.01.57.02.85,0,.28,0,.56.01.85,0,.28,0,.56,0,.84,0,.27,0,.54,0,.81h-.02c-.31.08-.61.18-.91.29-.28.1-.55.21-.81.34-.25.12-.5.24-.74.38-.23.13-.45.28-.67.42-.21.14-.41.3-.61.46-.19.16-.38.32-.56.49-.18.17-.35.34-.51.52-.16.18-.31.36-.46.55-.15.19-.29.38-.42.58-.13.2-.26.4-.37.6-.12.21-.23.42-.33.64-.1.22-.2.44-.28.66-.09.23-.17.46-.24.69-.07.24-.13.48-.19.72-.05.25-.1.5-.13.75-.04.26-.06.52-.08.79-.02.28-.02.55,0,.83,0,.29.03.58.06.88.03.29.08.59.14.88,0,.02,0,.04.01.05.07.35.17.68.27,1.01.13.38.28.76.45,1.11.21.45.47.89.74,1.3.47.69,1.02,1.31,1.65,1.85.58.51,1.23.95,1.92,1.31.27.14.54.26.82.37.76.31,1.56.52,2.38.64.49.07.99.1,1.5.09.4,0,.8-.04,1.2-.09.04,0,.08-.01.12-.02.18-.02.36-.05.54-.09.12-.03.25-.05.37-.09.31-.08.62-.17.91-.28.28-.1.55-.21.81-.33.25-.12.5-.25.74-.38.23-.13.45-.27.67-.42.21-.15.42-.3.62-.46.2-.16.38-.32.56-.49.18-.17.35-.34.51-.52.16-.18.32-.36.47-.55.15-.19.29-.38.42-.58.13-.2.26-.4.38-.61.12-.21.23-.42.34-.63.1-.22.2-.44.29-.66.09-.23.17-.45.24-.69.07-.24.14-.48.19-.72.06-.25.1-.5.14-.75.04-.26.07-.52.08-.79.02-.27.02-.55.02-.83,0-.29-.02-.58-.06-.87-.03-.31-.08-.62-.15-.93v-.03c-.08-.33-.16-.66-.27-.97-.12-.38-.27-.75-.43-1.1-.21-.45-.44-.88-.71-1.28-.42-.64-.92-1.23-1.47-1.74-.89-.84-1.93-1.5-3.05-1.96,0-.25,0-.5,0-.76,0-.28,0-.56,0-.84,0-.28,0-.56,0-.84,0-.28,0-.57-.02-.85,0-.28-.01-.57-.02-.85-.01-.28-.02-.57-.03-.86-.01-.29-.03-.57-.04-.86-.01-.29-.03-.58-.05-.87-.02-.29-.03-.58-.06-.88-.02-.29-.04-.58-.06-.88-.02-.3-.05-.59-.07-.88-.03-.29-.05-.59-.08-.89-.03-.3-.06-.6-.09-.89-.03-.3-.07-.6-.1-.9-.04-.3-.07-.6-.11-.9-.04-.3-.08-.61-.12-.91-.04-.31-.08-.61-.13-.92-.04-.31-.09-.61-.14-.92-.05-.31-.1-.62-.15-.93-.05-.31-.1-.63-.16-.94-.06-.31-.11-.63-.17-.94s-.12-.63-.18-.95c-.06-.32-.13-.64-.19-.96-.03-.15-.06-.3-.1-.45-.04-.17-.08-.34-.12-.52-.07-.32-.15-.65-.22-.98-.08-.32-.15-.65-.22-.98-.08-.33-.17-.66-.25-1-.08-.33-.16-.66-.25-.99-.09-.34-.18-.67-.27-1.01-.09-.34-.19-.68-.28-1.02-.1-.34-.2-.68-.3-1.02-.1-.35-.21-.69-.32-1.04-.11-.35-.22-.69-.33-1.04-.11-.36-.24-.7-.35-1.06-.12-.35-.24-.71-.36-1.06-.13-.36-.26-.72-.39-1.08-.13-.36-.26-.72-.39-1.08-.14-.37-.29-.74-.44-1.11-.15-.37-.29-.74-.43-1.11-.16-.38-.32-.76-.48-1.14-.16-.38-.32-.76-.48-1.13-.17-.39-.35-.77-.53-1.16-.18-.39-.36-.78-.54-1.17-.19-.4-.38-.8-.58-1.19-.2-.41-.4-.81-.6-1.21-.21-.41-.42-.82-.63-1.23-.22-.42-.45-.84-.68-1.26-.23-.43-.47-.85-.7-1.27-.25-.44-.5-.87-.75-1.3-.26-.45-.53-.89-.8-1.33-.28-.46-.56-.91-.84-1.36-.3-.47-.6-.93-.9-1.39-.32-.48-.64-.96-.98-1.44-.34-.5-.69-.99-1.03-1.48-.37-.51-.74-1.02-1.11-1.52-.4-.53-.8-1.06-1.2-1.58-.43-.55-.87-1.1-1.31-1.65-.48-.59-.96-1.16-1.45-1.73-.53-.62-1.07-1.23-1.62-1.84-.6-.67-1.22-1.32-1.84-1.97-.7-.73-1.41-1.45-2.13-2.15-.84-.82-1.68-1.62-2.55-2.41-1.09-.99-2.19-1.96-3.32-2.89-1.8-1.5-3.66-2.92-5.57-4.28-3.36-2.39-6.87-4.56-10.51-6.5l-.02.03ZM59.97,30.66c.3.37.55.81.72,1.28l.02.04c.06.17.12.36.16.55.03.12.04.26.06.39,0,.06.01.12.02.17.02.23.03.46,0,.68-.02.26-.06.51-.13.76-.02.09-.05.17-.08.26-.04.15-.1.29-.16.43-.09.22-.2.44-.33.64-.01.02-.03.04-.04.06-.12.18-.24.35-.39.51-.04.05-.09.09-.14.14-.12.13-.25.25-.39.37-.2.16-.41.31-.64.43h0c-.13.07-.26.14-.39.19-.06.03-.13.07-.21.09-.07.03-.13.05-.2.07-.15.05-.29.09-.44.12-.2.04-.4.07-.59.08-.02,0-.04,0-.06,0-.24.03-.49.02-.75,0h-.02c-.27-.02-.54-.08-.8-.16-.55-.17-1.06-.44-1.5-.8-.14-.07-.25-.18-.33-.28-.06-.04-.11-.1-.17-.15-.06-.06-.11-.13-.16-.19-.08-.09-.17-.19-.23-.3-.2-.26-.36-.56-.48-.87-.02-.04-.03-.09-.05-.13-.08-.19-.15-.41-.19-.62-.02-.09-.04-.17-.04-.26,0-.03,0-.05,0-.08-.02-.08-.03-.14-.02-.2-.02-.18-.04-.37-.01-.54,0-.02,0-.03,0-.04,0-.01,0-.03,0-.04,0-.08,0-.19.02-.28,0-.12.01-.23.05-.36,0-.03.02-.06.02-.1.02-.1.04-.21.08-.3.04-.14.09-.27.14-.4.09-.22.2-.44.32-.64.03-.04.05-.09.08-.13.1-.16.21-.31.34-.45.07-.08.13-.15.2-.22.09-.11.2-.21.31-.3.18-.16.39-.3.6-.41.02-.01.03-.02.04-.03.11-.07.23-.13.35-.18.03-.03.07-.06.13-.07.07-.06.17-.08.27-.12h.06c.17-.07.35-.13.53-.17.14-.03.28-.04.42-.06h.1c.2-.03.43-.04.64-.02.12,0,.27,0,.4.04.1.01.21.02.31.04.23.05.45.12.66.21.02.02.05.01.07.03.15.03.27.11.39.18.25.11.51.28.72.47.12.08.25.18.33.28.13.13.26.26.38.41h0ZM201.66,118.23c.06.11.11.22.16.35.06.09.1.21.13.31.05.14.09.29.13.44,0,.03.02.07.02.11.03.12.05.22.05.34.02.1.03.22.03.33,0,.05,0,.09.01.14.01.18,0,.36-.01.55,0,.09-.02.18-.03.26-.02.12-.05.25-.08.36-.02.13-.05.25-.09.37-.07.23-.17.45-.3.65-.05.14-.11.25-.21.38-.05.08-.11.16-.16.24-.11.16-.24.31-.38.44-.04.04-.07.07-.1.11-.16.16-.32.3-.51.44-.02.02-.04.03-.06.04-.23.15-.46.29-.71.4-.11.05-.23.1-.35.13-.17.06-.35.12-.54.16h0c-.41.09-.81.12-1.21.09-.14,0-.28-.03-.42-.05-.19-.02-.37-.07-.57-.13-.42-.12-.81-.31-1.17-.54-.26-.15-.49-.33-.68-.54-.12-.1-.23-.22-.32-.35-.11-.14-.23-.28-.32-.43-.04-.06-.08-.12-.12-.19-.04-.07-.08-.14-.11-.22-.1-.19-.18-.38-.25-.57-.04-.11-.07-.22-.11-.34-.02-.06-.03-.13-.05-.19-.04-.18-.05-.34-.07-.53,0-.07-.01-.14-.01-.2,0-.14,0-.29,0-.43,0-.13,0-.25.03-.38,0-.03.01-.07.02-.1.02-.19.07-.36.13-.55,0-.03.01-.05.02-.08.04-.14.09-.27.15-.39.03-.1.08-.19.13-.28.01-.02.02-.03.03-.05.09-.2.21-.39.33-.56.14-.19.3-.38.47-.55.15-.15.3-.28.47-.4.03-.03.07-.06.1-.08.09-.07.19-.13.3-.19.07-.06.13-.09.21-.1.07-.04.13-.07.2-.11.27-.13.56-.23.87-.31.03,0,.06-.01.09-.02.18-.04.34-.05.53-.07.18-.02.38-.03.56-.02.08,0,.15.01.23.02.15.01.3.04.45.05.3.06.57.15.85.26.27.09.5.23.74.38.36.21.67.5.94.82.21.22.39.47.55.75.01.02.02.05.04.07h0ZM140.56,34.38c-.99-.56-2.07-.95-3.21-1.14-.52-.09-1.04-.13-1.58-.13-.41,0-.82.02-1.24.07-.28.03-.57.08-.85.14-.07.01-.13.03-.2.04-.32.07-.62.16-.92.26-.28.1-.56.21-.83.33-.26.11-.51.24-.75.37-.23.13-.46.27-.68.42-.21.14-.42.29-.62.45-.2.16-.39.32-.57.49-.18.17-.35.34-.52.51-.16.17-.32.36-.48.54-.04.05-.08.1-.12.15h-.02c-.58-.16-1.16-.32-1.75-.48-.75-.2-1.5-.39-2.26-.56-.69-.16-1.39-.31-2.09-.45-.65-.13-1.3-.25-1.95-.37-.61-.11-1.22-.21-1.84-.3-.58-.08-1.16-.17-1.74-.24-.55-.07-1.11-.13-1.66-.19-.53-.06-1.06-.1-1.59-.15-.51-.04-1.02-.08-1.53-.11-.49-.03-.99-.06-1.48-.08-.48-.02-.95-.03-1.43-.04-.46,0-.92-.02-1.39-.02-.45,0-.9,0-1.34,0-.44,0-.87.02-1.31.03-.42.01-.85.03-1.27.05-.41.02-.83.04-1.24.07-.41.03-.81.06-1.21.09-.39.03-.79.07-1.19.11-.39.04-.77.08-1.16.12-.38.04-.76.09-1.14.14-.37.05-.74.1-1.11.15-.37.05-.73.1-1.09.16-.36.05-.71.12-1.07.18-.35.06-.7.12-1.05.19-.34.06-.69.13-1.03.2-.3.06-.6.12-.91.19-.03,0-.07.02-.11.02-.33.07-.66.15-.99.22-.33.07-.65.15-.98.23-.32.08-.65.16-.97.24-.32.08-.63.17-.95.25-.31.08-.63.17-.94.26-.31.09-.62.18-.92.27-.3.09-.61.18-.91.28-.3.09-.6.18-.9.28-.3.09-.59.2-.88.29-.29.1-.58.2-.87.3-.29.1-.57.2-.86.31-.28.1-.56.21-.85.32-.28.11-.56.21-.84.32-.27.11-.55.22-.82.33-.27.11-.55.22-.82.33-.27.11-.54.23-.8.34-.27.11-.53.23-.8.35-.26.12-.52.24-.78.36-.26.12-.51.24-.77.36-.25.12-.51.24-.76.37-.25.12-.5.25-.75.37-.25.12-.5.25-.75.38-.25.13-.49.26-.73.38-.24.13-.49.26-.73.39-.24.13-.48.27-.71.4-.24.13-.48.26-.71.4-.23.13-.47.27-.7.41-.23.14-.47.27-.69.41-.23.14-.46.28-.68.42-.23.14-.45.28-.68.42-.22.14-.44.28-.67.42-.22.14-.44.28-.66.43-.22.14-.44.29-.65.44-.22.15-.43.29-.64.44-.21.15-.42.29-.64.44-.21.15-.42.3-.63.45-.21.15-.42.3-.62.45-.21.15-.41.31-.62.46-.2.15-.41.3-.61.46-.2.15-.4.31-.6.47-.2.16-.4.31-.59.47-.2.16-.39.32-.59.47-.2.16-.39.32-.58.48-.19.16-.38.32-.57.48-.19.16-.38.32-.57.49-.19.16-.37.33-.56.49-.19.16-.37.33-.56.49-.18.16-.37.33-.55.5s-.36.33-.54.5c-.18.17-.36.34-.54.51-.18.17-.35.34-.53.51-.18.17-.35.34-.52.52-.17.17-.35.35-.52.52-.17.17-.34.35-.51.52-.17.18-.34.35-.5.53-.17.18-.33.35-.5.53-.17.18-.33.36-.49.53-.16.18-.33.36-.49.54-.16.18-.32.36-.48.54-.16.18-.32.36-.48.54-.16.18-.31.37-.47.55-.15.18-.31.37-.47.55-.15.18-.3.37-.46.55-.15.19-.3.37-.45.56-.15.19-.3.37-.45.56-.15.19-.3.37-.44.56-.15.19-.29.38-.43.57-.15.19-.29.38-.43.57-.14.19-.28.39-.42.58-.14.19-.28.39-.42.58-.14.19-.27.39-.41.58-.14.19-.28.39-.41.58-.13.2-.27.39-.4.59-.13.2-.27.39-.4.59-.13.2-.26.4-.39.6-.13.2-.26.4-.38.6-.13.2-.25.4-.38.61-.13.2-.25.4-.37.61-.13.2-.25.41-.37.61-.12.2-.24.41-.36.61-.12.2-.24.41-.36.62-.12.21-.23.41-.35.62-.12.21-.23.41-.34.62-.11.21-.23.42-.34.63-.11.21-.23.42-.33.63-.11.21-.22.43-.33.64-.11.21-.22.42-.32.64-.11.21-.21.43-.31.64-.1.22-.21.43-.31.65-.1.21-.2.43-.3.65-.1.22-.2.43-.3.65s-.19.44-.29.66c-.1.22-.2.44-.29.66-.1.22-.19.44-.28.67-.09.22-.19.44-.28.67-.09.22-.18.45-.27.67-.09.22-.18.45-.26.68-.09.23-.17.45-.26.68-.08.23-.17.45-.25.68-.08.23-.16.46-.24.69-.08.23-.16.46-.24.69-.08.23-.16.46-.23.69-.08.23-.16.47-.23.7-.08.23-.15.47-.22.7-.07.23-.14.47-.22.7-.07.24-.14.47-.21.71-.07.24-.14.48-.2.71-.07.24-.13.48-.2.72-.06.24-.13.48-.19.72-.06.24-.12.48-.18.73-.06.24-.12.49-.17.73-.06.25-.11.49-.17.73-.06.24-.11.49-.16.74-.05.25-.1.49-.15.74-.05.25-.1.5-.15.74-.05.25-.09.5-.14.75-.05.25-.09.5-.14.76-.04.25-.09.5-.13.76s-.08.51-.12.76c-.04.26-.08.51-.11.77-.03.26-.07.51-.11.77-.03.26-.07.52-.1.78-.03.26-.06.52-.09.78-.03.26-.05.53-.08.79-.03.26-.05.53-.08.79,0,.04,0,.08-.01.12-.25.08-.5.16-.74.26-.27.11-.53.22-.79.35-.25.12-.48.26-.71.4-.23.14-.44.28-.65.44-.21.15-.4.3-.59.47-.19.16-.37.33-.55.5-.17.17-.34.35-.5.53-.16.18-.31.37-.45.56-.14.19-.28.39-.41.59-.13.2-.25.41-.36.61-.11.21-.22.42-.32.64-.1.22-.19.44-.27.67-.08.23-.16.46-.22.7-.07.24-.13.48-.17.73-.05.25-.09.51-.12.76-.03.26-.05.53-.06.8,0,.28,0,.56,0,.84.02.3.04.59.09.89.03.22.07.43.12.65.02.1.04.21.07.31.09.35.19.7.31,1.03.15.4.32.78.51,1.15.25.49.54.95.87,1.38,1.39,1.84,3.41,3.14,5.66,3.64.11.03.23.05.34.07.53.1,1.07.15,1.63.17.42,0,.84-.01,1.26-.06.31-.03.63-.09.95-.15.04,0,.08-.02.12-.02.32-.07.64-.16.94-.26.28-.09.56-.2.83-.32h.01c.25-.12.5-.24.75-.37.24-.13.47-.27.69-.41.22-.14.43-.29.63-.45.2-.15.39-.32.57-.48.18-.16.35-.34.52-.52.17-.18.33-.36.48-.54.15-.19.3-.37.43-.57.14-.19.27-.39.39-.6.12-.2.24-.41.34-.62.11-.21.21-.43.3-.65s.18-.45.25-.68c.08-.23.15-.47.21-.71.06-.25.11-.49.15-.74.04-.26.08-.52.1-.78.03-.27.04-.54.03-.82,0-.29-.01-.57-.04-.86-.02-.3-.07-.61-.12-.91-.02-.09-.04-.18-.05-.27-.05-.24-.11-.47-.18-.71-.11-.37-.23-.73-.38-1.07-.18-.42-.39-.83-.62-1.22-.33-.56-.72-1.08-1.16-1.55-1.1-1.2-2.48-2.11-4.01-2.65.02-.21.04-.42.07-.63.03-.26.05-.53.08-.79.03-.26.07-.52.1-.78.03-.26.07-.52.1-.78.03-.26.07-.51.11-.77.04-.26.08-.51.12-.77.04-.25.08-.51.13-.76.04-.25.09-.5.14-.76.05-.25.09-.5.14-.75.05-.25.1-.5.15-.74.05-.25.1-.5.15-.74.06-.24.11-.49.17-.73.06-.24.11-.49.17-.73.06-.24.12-.48.18-.73.06-.24.12-.48.19-.72.06-.24.13-.48.2-.72.06-.24.13-.47.2-.71.07-.24.14-.47.21-.71.07-.24.14-.47.22-.7.07-.23.14-.47.22-.7.08-.23.15-.46.23-.7.08-.23.15-.46.23-.69.08-.23.16-.46.24-.69.08-.23.16-.46.24-.68.08-.23.17-.45.26-.68.08-.23.17-.45.26-.68.09-.23.18-.45.27-.67.09-.22.18-.45.27-.67.09-.22.19-.44.28-.66.09-.22.19-.44.29-.66.1-.22.19-.44.29-.66.1-.22.2-.44.3-.65.1-.22.2-.43.31-.65.1-.22.21-.43.31-.65.1-.22.21-.43.32-.64.11-.21.21-.42.32-.64.11-.21.22-.43.33-.64.11-.21.22-.42.34-.63.11-.21.23-.42.34-.63.12-.21.23-.41.35-.62.12-.21.23-.41.35-.62.12-.2.24-.41.36-.61.12-.2.24-.41.36-.61.12-.2.25-.4.38-.61.13-.2.25-.4.38-.61.13-.2.26-.4.39-.6.13-.2.26-.4.39-.6.13-.2.27-.4.4-.59.13-.2.27-.39.4-.59.14-.2.28-.39.41-.58.14-.19.28-.39.41-.58.14-.19.28-.38.42-.58.14-.19.28-.38.43-.57.14-.19.29-.38.43-.57.15-.19.29-.38.44-.56.15-.19.3-.37.45-.56.15-.19.3-.37.45-.56.15-.19.3-.37.46-.56.15-.18.31-.37.47-.55.15-.18.31-.37.47-.55.16-.18.32-.36.48-.54.16-.18.32-.36.48-.54.16-.18.33-.36.49-.53.17-.18.33-.36.5-.53.17-.17.34-.35.51-.53.17-.18.34-.35.51-.52.17-.17.35-.35.52-.52.17-.17.35-.35.52-.51.18-.17.35-.34.53-.51.18-.17.36-.34.54-.51.18-.17.36-.33.55-.5.18-.17.37-.33.55-.5.18-.16.37-.33.56-.49.19-.17.38-.33.57-.49.19-.16.38-.32.57-.49.19-.16.39-.32.58-.48.2-.16.39-.32.59-.48.2-.16.4-.31.6-.47.2-.16.4-.31.6-.47.2-.15.41-.31.61-.46.2-.15.41-.31.62-.46.21-.15.42-.3.63-.45s.42-.3.63-.45c.21-.15.42-.3.64-.44.22-.15.43-.29.65-.44.22-.15.44-.29.66-.43.22-.14.44-.28.67-.42s.45-.28.67-.42c.23-.14.46-.28.68-.42.23-.14.46-.27.69-.41.23-.14.47-.27.7-.41.24-.14.47-.27.71-.4.24-.13.48-.27.72-.4.24-.13.49-.26.73-.39.25-.13.49-.25.74-.38.25-.13.5-.25.75-.38.25-.13.51-.25.76-.37.25-.12.51-.24.77-.36.26-.12.52-.24.78-.36.26-.12.53-.23.79-.35.27-.11.53-.23.8-.34.27-.11.54-.22.82-.33.27-.11.55-.22.83-.33.28-.11.56-.22.84-.32.28-.11.57-.21.85-.31.29-.1.57-.21.86-.31.29-.1.58-.2.88-.29.29-.1.59-.19.89-.29s.6-.19.9-.28c.31-.09.61-.18.92-.27.31-.09.62-.17.93-.26.32-.08.63-.17.95-.25.32-.08.65-.16.97-.24.33-.08.65-.16.98-.23.31-.07.62-.14.93-.21h.07c.34-.09.68-.16,1.02-.22.35-.07.69-.13,1.04-.2.35-.06.71-.13,1.06-.18.36-.06.72-.12,1.08-.17.37-.06.74-.11,1.11-.16.38-.05.75-.1,1.13-.14.38-.05.77-.08,1.16-.12.39-.04.79-.07,1.18-.11.4-.03.81-.06,1.21-.09.41-.03.83-.05,1.24-.07.43-.02.85-.04,1.28-.05.44-.01.88-.02,1.32-.03.45,0,.9,0,1.36,0,.47,0,.93.01,1.4.03.49.01.97.03,1.45.06.5.03,1,.06,1.51.09.52.04,1.05.08,1.57.13.55.05,1.09.11,1.64.18.58.07,1.15.15,1.72.23.61.09,1.22.19,1.83.29.65.11,1.3.24,1.95.36.7.14,1.4.29,2.09.46.77.18,1.53.37,2.29.58.29.08.58.16.87.24,0,.09,0,.19-.01.29,0,.28,0,.57.03.86.03.31.07.61.13.92.01.07.03.13.04.2.06.27.12.53.2.79.11.37.24.73.39,1.08.19.43.4.84.65,1.24.36.58.77,1.12,1.23,1.6,1.16,1.21,2.61,2.11,4.22,2.61.64.2,1.31.33,1.99.39.46.04.93.05,1.39.03.38-.02.76-.06,1.15-.13.13-.02.25-.05.38-.07.21-.04.41-.09.62-.15.3-.09.6-.18.88-.29.27-.1.54-.22.8-.34.25-.12.49-.25.72-.39.23-.13.44-.28.66-.43.21-.15.41-.3.6-.47.19-.16.37-.33.55-.5.02-.02.04-.04.06-.05.15-.15.3-.31.44-.47.16-.18.31-.37.45-.56.14-.19.28-.38.41-.58s.25-.4.36-.61c.12-.21.22-.42.32-.64.1-.22.19-.44.27-.67.08-.23.16-.46.22-.7.07-.24.13-.48.17-.73.03-.16.06-.32.08-.49.02-.09.03-.18.04-.27.04-.26.06-.53.08-.79.01-.28.01-.55,0-.83-.01-.29-.04-.59-.08-.88-.03-.24-.07-.48-.12-.72-.02-.08-.03-.15-.05-.23-.08-.35-.18-.69-.3-1.02-.14-.39-.3-.77-.49-1.14-.24-.47-.51-.92-.83-1.35-.68-.93-1.52-1.72-2.46-2.36-.2-.13-.4-.26-.61-.37h0ZM139.46,40.4c.06.09.12.18.18.28.14.26.26.55.36.82,0,.03.02.06.03.09.04.12.06.24.09.36.04.19.06.38.08.57,0,.11,0,.21,0,.32,0,.18,0,.35-.02.52,0,.06-.01.12-.03.18,0,.15-.04.3-.09.43,0,.04-.02.09-.03.13-.04.15-.09.3-.16.44-.03.08-.06.16-.09.24-.08.18-.18.36-.31.53-.02.03-.03.06-.05.09-.13.21-.28.4-.45.56-.01,0-.02.02-.04.03-.13.15-.29.29-.45.4-.02.02-.04.04-.06.06-.09.08-.19.15-.3.2-.12.08-.25.15-.38.22-.07.03-.14.07-.22.1-.02.02-.04.03-.07.04-.02,0-.02.02-.04,0-.16.08-.33.14-.5.18-.08.02-.16.04-.24.06-.29.06-.58.1-.86.1-.22,0-.45-.01-.67-.05-.13-.02-.24-.03-.37-.07-.17-.02-.35-.07-.51-.14-.63-.2-1.2-.55-1.67-1.01-.16-.15-.32-.33-.46-.5-.03-.04-.03-.05-.06-.09-.05-.05-.11-.12-.15-.22-.06-.09-.1-.16-.16-.26-.04-.07-.08-.14-.11-.22-.02-.04-.03-.09-.05-.14-.03-.05-.07-.11-.08-.19v-.02c-.05-.09-.09-.21-.11-.31-.05-.12-.07-.21-.09-.33,0-.02,0-.04-.01-.07-.03-.16-.05-.32-.06-.48-.01-.13-.02-.27-.01-.4,0-.03,0-.06,0-.09-.01-.17,0-.33.02-.48,0-.07.02-.15.03-.22.02-.12.05-.24.09-.36.03-.12.07-.24.11-.35.02-.05.04-.09.06-.14.07-.18.15-.35.24-.51.04-.08.09-.15.14-.23.08-.12.17-.24.26-.36.14-.18.3-.35.47-.5l.03-.03c.13-.12.28-.25.45-.36.05-.04.1-.07.15-.1.16-.1.32-.19.5-.26.08-.04.17-.08.25-.11.08-.03.16-.07.25-.1.15-.05.33-.11.51-.15.05-.01.11-.02.16-.03.04,0,.08,0,.13,0,.1-.02.18-.04.28-.04h.02c.1,0,.2-.03.31,0,.19,0,.38,0,.57.03.06,0,.11.01.16.02.19.02.37.07.55.13.15.03.29.09.4.14.27.09.53.24.77.4.26.15.49.33.68.54.1.1.21.21.3.31.08.07.14.16.2.25.04.06.09.11.13.17h0ZM36.83,109.37s.04.04.05.05c.25.19.46.42.64.69.08.09.14.18.18.27.08.11.15.22.2.35.04.07.08.13.11.2.04.09.07.18.1.27.08.19.15.41.19.62.01.05.02.1.03.14.02.15.03.28.05.42.02.1.03.22,0,.33,0,.04,0,.08,0,.13,0,.11,0,.22-.01.33-.01.15-.04.3-.07.46-.05.24-.12.48-.21.71-.01.03-.02.06-.04.09-.03.13-.09.27-.19.39-.03.06-.06.11-.09.17-.11.21-.24.41-.4.6-.09.11-.18.21-.29.32-.07.06-.14.14-.22.21-.02.02-.05.04-.07.06-.17.15-.35.28-.54.4-.05.03-.11.07-.16.1-.2.1-.39.2-.6.27-.01,0-.02,0-.03,0-.21.09-.43.15-.64.2-.09.02-.18.04-.27.04-.09.01-.17.02-.26.03-.04,0-.08.02-.12,0-.16.01-.31.02-.47.02-.04,0-.07,0-.11-.02-.1,0-.23-.01-.34-.03-.02,0-.04,0-.06,0-.08,0-.17-.02-.26-.06-.72-.16-1.39-.49-1.95-.98-.25-.21-.49-.45-.7-.74-.02-.02-.04-.04-.06-.06-.05-.06-.09-.12-.12-.19-.18-.27-.33-.55-.41-.87-.02-.05-.04-.1-.06-.14-.05-.15-.1-.29-.13-.46s-.05-.34-.07-.51v-.06c-.03-.1-.03-.22-.01-.33-.01-.16,0-.31,0-.45.02-.19.05-.37.09-.54.01-.07.03-.14.04-.21.01-.03.02-.07.04-.1.03-.13.09-.27.14-.4.02-.06.05-.12.07-.18.06-.14.13-.28.22-.4.03-.07.07-.14.13-.2,0,0,0-.02.01-.03.05-.12.13-.22.23-.31l.22-.24.13-.14v-.02c.07-.08.15-.14.24-.22.04-.05.1-.09.16-.13.03-.02.06-.04.09-.06.16-.12.29-.21.45-.3.04-.02.08-.04.11-.06.21-.11.43-.2.65-.27.06-.02.12-.04.18-.06.11-.03.21-.07.33-.09.18-.04.36-.06.55-.07h.06s.08-.02.12-.02c.16-.01.32,0,.48,0,.01,0,.03,0,.05.01.34.01.64.07.95.17.14.03.28.08.42.14.13.05.25.11.37.19.3.15.59.34.84.57h0ZM181.3,91.4c-.18-.03-.37-.06-.55-.09-.37-.06-.74-.09-1.11-.1-.42-.01-.84,0-1.27.05-.31.03-.63.09-.94.15-.04,0-.08.02-.13.03-.32.07-.63.16-.93.26-.28.1-.56.2-.83.32-.25.11-.51.24-.75.38l-.03.02c-.22.12-.45.26-.66.39-.22.14-.43.29-.63.45-.2.15-.39.32-.57.48-.18.16-.36.34-.52.51-.17.17-.33.36-.48.54-.15.19-.3.37-.43.57-.14.19-.27.39-.39.6-.12.2-.24.41-.35.62s-.21.43-.3.65c-.09.22-.18.45-.26.68-.08.23-.15.47-.21.71-.06.25-.11.49-.15.74-.04.26-.08.52-.1.78-.02.27-.04.54-.03.82,0,.29.01.57.04.86.02.3.07.61.12.91.02.09.03.18.05.27.05.24.11.48.18.71.11.37.24.73.38,1.07.18.43.39.83.62,1.22.34.56.73,1.08,1.16,1.56,1.22,1.33,2.79,2.3,4.52,2.8.08.03.16.05.25.07,0,.03,0,.06,0,.09,0,.28,0,.55-.01.83,0,.28-.01.55-.02.83-.01.27-.02.55-.03.82-.01.27-.02.54-.04.81-.01.27-.03.54-.05.81-.02.27-.04.53-.06.8-.02.27-.04.53-.06.8-.02.26-.05.53-.08.79-.03.26-.05.53-.08.79-.03.26-.06.52-.1.78-.03.26-.06.52-.1.78-.03.26-.07.51-.11.77-.04.26-.07.51-.11.77-.04.26-.09.5-.13.76-.04.25-.09.5-.13.76-.05.25-.09.5-.15.75-.05.25-.09.5-.15.75-.05.25-.1.49-.16.74-.05.25-.11.49-.16.74-.06.24-.12.49-.17.73-.06.25-.12.49-.18.73-.06.24-.12.48-.19.72-.06.24-.13.48-.19.72-.06.24-.14.48-.2.71-.07.24-.14.48-.2.71-.07.24-.14.47-.22.7-.07.23-.14.47-.22.7-.08.23-.15.47-.23.7s-.15.46-.23.7c-.08.23-.16.46-.24.69-.08.23-.16.46-.24.69-.08.23-.17.45-.26.68-.08.23-.17.45-.26.68-.09.23-.18.45-.27.67-.09.22-.18.45-.27.67-.09.22-.19.44-.28.66-.09.22-.19.44-.29.66-.1.22-.19.44-.29.66-.1.22-.2.44-.3.66-.1.22-.21.43-.31.65-.1.21-.21.43-.31.65-.1.22-.21.43-.32.64-.11.21-.21.43-.32.64-.11.21-.22.42-.33.63-.11.21-.22.42-.33.63-.11.21-.23.42-.34.62-.11.21-.23.42-.34.62-.12.21-.24.41-.36.62-.12.2-.24.41-.36.62-.12.2-.25.41-.37.61-.12.2-.24.41-.37.61s-.26.4-.38.6c-.13.2-.25.4-.38.6-.13.2-.26.4-.39.59-.13.2-.26.4-.39.59-.13.2-.27.39-.41.59-.13.2-.27.39-.41.59-.14.19-.28.39-.42.58-.14.19-.28.39-.42.58-.14.19-.29.38-.43.57-.14.19-.29.38-.43.57-.14.19-.29.38-.44.57-.15.19-.3.38-.44.56-.15.19-.3.37-.45.56-.15.19-.3.37-.46.56-.15.18-.31.37-.47.55-.16.18-.31.37-.47.55-.16.18-.32.36-.48.54-.16.18-.32.36-.48.54-.16.18-.33.36-.49.53-.17.18-.33.36-.5.53-.17.17-.34.35-.5.53-.17.17-.34.35-.51.52-.17.17-.35.35-.52.52-.17.17-.35.35-.52.51-.18.17-.35.34-.53.51-.18.17-.35.34-.54.51-.18.17-.36.33-.54.5-.18.17-.37.34-.55.5-.18.16-.37.33-.56.49-.19.16-.37.33-.56.49-.19.16-.38.32-.57.48-.19.16-.38.32-.58.48-.2.16-.39.32-.59.47-.2.16-.39.32-.59.47-.2.16-.4.31-.6.46-.2.15-.4.31-.61.46-.2.15-.41.3-.62.46-.21.15-.41.31-.62.45-.21.15-.42.3-.64.45s-.42.3-.64.44c-.22.15-.43.29-.65.44-.22.15-.44.29-.66.43-.22.14-.44.28-.67.42-.22.14-.45.28-.67.42-.23.14-.45.28-.68.42-.23.14-.46.28-.69.41-.23.14-.47.27-.7.41-.24.14-.47.27-.71.4-.24.13-.48.27-.72.4-.24.13-.49.26-.73.39-.25.13-.49.26-.73.39-.25.13-.5.25-.75.37-.25.13-.5.25-.76.37-.26.12-.51.24-.77.36-.26.12-.52.24-.78.36-.26.12-.53.23-.79.35-.27.12-.54.23-.8.34-.27.11-.54.23-.81.34-.27.11-.55.22-.83.33-.28.11-.56.22-.83.32-.28.11-.57.21-.85.31-.29.1-.58.2-.86.3-.29.1-.58.2-.87.3-.3.1-.59.19-.89.29-.3.1-.6.19-.9.28-.31.09-.61.18-.92.27-.31.09-.62.17-.93.26-.31.08-.63.17-.94.25-.32.08-.65.16-.97.24-.33.08-.65.16-.98.23-.33.07-.66.15-.99.22-.02,0-.03,0-.05.01-.32.07-.64.14-.96.2-.35.07-.69.13-1.04.2-.35.06-.7.12-1.06.18-.36.06-.72.12-1.08.17-.37.06-.73.11-1.1.16-.38.05-.75.1-1.13.14-.38.05-.77.09-1.15.13-.39.04-.79.08-1.18.11-.4.04-.81.06-1.21.09-.41.03-.83.05-1.24.07-.42.02-.85.04-1.27.05-.44.01-.88.02-1.31.03-.45,0-.9,0-1.35,0-.47,0-.93-.01-1.4-.03-.48-.01-.97-.03-1.45-.05-.5-.03-1-.06-1.5-.09-.52-.04-1.05-.08-1.57-.13-.37-.03-.73-.07-1.09-.11-.02-.2-.07-.42-.11-.63h0c-.07-.35-.16-.68-.27-1-.12-.38-.27-.75-.43-1.11-.21-.45-.45-.88-.72-1.28-.44-.65-.95-1.25-1.51-1.77-.92-.85-1.99-1.51-3.16-1.95-.72-.28-1.48-.46-2.26-.56-.48-.06-.97-.08-1.47-.07-.39.01-.79.05-1.18.1-.2.03-.39.07-.59.11-.14.03-.29.06-.43.1-.31.08-.61.17-.9.28-.28.1-.55.21-.81.34-.25.12-.49.25-.73.38-.23.13-.45.28-.67.42-.21.14-.41.3-.61.46-.19.16-.38.32-.56.49-.18.17-.35.35-.51.53-.16.18-.31.36-.46.55-.08.11-.17.22-.24.33-.06.08-.12.16-.18.25-.13.2-.26.4-.38.6-.12.2-.23.42-.34.63-.1.22-.2.44-.29.66-.09.23-.17.45-.24.69-.07.24-.14.48-.19.72-.05.25-.1.5-.14.75-.04.26-.06.52-.08.79-.01.24-.02.47-.01.71,0,.04,0,.08,0,.12,0,.29.03.59.06.88.04.3.08.6.15.9,0,.01,0,.02,0,.03.07.35.17.68.27,1.01.13.38.27.75.44,1.11.21.45.46.89.74,1.29.45.68.99,1.29,1.59,1.82.85.76,1.83,1.37,2.9,1.79.75.3,1.53.5,2.34.61.49.07.98.09,1.48.08.4,0,.79-.04,1.19-.1.21-.03.42-.07.63-.11.13-.03.26-.06.39-.09.31-.08.61-.17.9-.28.28-.1.55-.21.81-.34.25-.12.5-.25.74-.38.23-.13.45-.28.67-.42.21-.14.42-.3.61-.46.19-.16.38-.32.56-.49.18-.17.35-.34.51-.52.16-.18.32-.36.47-.55.15-.19.29-.38.42-.58.13-.2.26-.4.38-.61.04-.08.09-.15.13-.23.35.04.69.08,1.04.11.53.05,1.06.1,1.59.14.51.04,1.01.07,1.53.11.49.03.98.05,1.47.07.47.02.95.03,1.42.04.46,0,.92.02,1.38.01.45,0,.89,0,1.34,0,.44,0,.87-.02,1.3-.03.42-.01.85-.03,1.27-.05.41-.02.82-.04,1.24-.07.4-.03.81-.06,1.21-.09.39-.03.79-.07,1.18-.11.39-.04.77-.08,1.16-.12.38-.04.75-.09,1.13-.14.37-.05.74-.1,1.11-.15.36-.05.73-.11,1.09-.16.36-.06.71-.12,1.07-.18.35-.06.7-.12,1.05-.19.34-.07.69-.13,1.03-.2.26-.06.52-.11.79-.16.08-.02.15-.03.23-.05.33-.07.66-.15,1-.22.33-.08.65-.15.98-.23.32-.08.65-.16.97-.24.32-.08.63-.17.95-.25s.63-.17.94-.26c.31-.09.61-.18.92-.27.3-.09.61-.18.91-.28.3-.09.6-.19.9-.28.3-.09.59-.19.88-.29.29-.1.58-.2.87-.3.29-.1.57-.2.85-.31.28-.1.57-.21.85-.31.28-.11.56-.21.83-.32.28-.11.55-.21.83-.33.27-.11.54-.23.81-.34.27-.11.54-.23.81-.34.27-.11.53-.23.79-.35.26-.12.52-.23.78-.35.26-.12.51-.24.77-.36.25-.12.51-.24.76-.37.25-.12.5-.25.75-.37.25-.12.5-.25.74-.38.25-.13.49-.25.73-.38.24-.13.49-.26.73-.39.24-.13.48-.26.71-.39.24-.13.47-.27.71-.4.23-.14.46-.27.7-.41.23-.14.46-.27.69-.41.23-.14.46-.28.68-.42.22-.14.45-.28.68-.42s.44-.28.66-.43c.22-.14.44-.28.66-.43.22-.14.43-.29.65-.43.22-.15.43-.29.65-.44.21-.15.42-.3.64-.45.21-.15.42-.3.63-.45.21-.15.41-.3.62-.46s.42-.3.62-.46c.2-.15.4-.31.6-.46.2-.15.4-.31.6-.46.2-.16.39-.32.59-.47.2-.16.4-.31.59-.47.2-.16.39-.32.58-.48.19-.16.39-.32.57-.48.19-.16.38-.32.57-.49.19-.16.37-.33.56-.49.19-.16.37-.33.55-.5.18-.16.37-.33.55-.5.18-.17.36-.33.54-.5.18-.17.36-.34.53-.51.18-.17.35-.34.53-.51.18-.17.35-.35.52-.51.17-.17.35-.34.52-.51.17-.17.34-.35.51-.53.17-.18.34-.35.51-.53.17-.18.33-.35.5-.53.17-.18.33-.35.5-.53.16-.18.32-.36.49-.54.16-.18.32-.36.48-.54.16-.18.32-.36.48-.54.16-.18.31-.37.47-.55.15-.18.31-.37.47-.55.15-.18.3-.37.45-.56.15-.19.31-.37.45-.56.15-.19.3-.38.44-.57.15-.19.3-.37.44-.57.15-.19.29-.38.43-.57.14-.19.29-.38.43-.57.14-.19.28-.39.42-.58.14-.19.28-.39.42-.58.14-.19.28-.39.41-.58.14-.2.27-.39.41-.59.13-.2.27-.39.4-.59.13-.2.26-.4.39-.59.13-.2.26-.4.39-.59.13-.2.25-.4.38-.6s.26-.4.38-.6c.13-.2.25-.41.37-.61.12-.2.25-.41.37-.61.12-.2.24-.41.36-.61.12-.2.24-.41.36-.62.12-.21.24-.41.35-.62.12-.21.23-.42.34-.63.11-.21.23-.42.34-.63.11-.21.22-.42.33-.64.11-.21.22-.42.33-.63.11-.21.21-.43.32-.64.11-.21.21-.43.31-.64.1-.22.21-.43.31-.65.1-.21.2-.43.3-.65.1-.22.2-.44.3-.65.1-.22.19-.44.29-.66s.2-.44.29-.66c.09-.22.19-.44.28-.67.09-.22.19-.44.28-.67.09-.22.18-.45.27-.67.09-.22.18-.45.26-.67.09-.23.17-.45.26-.68.08-.23.17-.45.25-.68.08-.23.16-.46.24-.69.08-.23.16-.46.24-.69.08-.23.16-.46.24-.69.08-.23.15-.47.22-.7.08-.23.15-.46.22-.7.07-.23.14-.47.21-.71.07-.24.14-.47.21-.71.07-.24.13-.47.2-.71.07-.24.14-.48.2-.72.06-.24.12-.48.19-.72.06-.24.12-.48.18-.73.06-.24.12-.49.17-.73.06-.24.11-.49.17-.73.06-.25.11-.49.16-.74.05-.25.1-.49.15-.74.05-.25.1-.5.15-.75.05-.25.09-.5.14-.75.05-.25.09-.5.14-.76.04-.25.08-.51.12-.76.04-.25.08-.51.12-.76.04-.26.07-.51.11-.77.04-.26.08-.51.11-.77.03-.26.06-.52.09-.78.03-.26.06-.52.1-.78.03-.26.05-.53.08-.79.03-.26.05-.53.08-.79.02-.27.04-.53.06-.8.02-.27.04-.53.06-.8.02-.27.03-.54.05-.81.01-.27.03-.54.04-.81.01-.27.02-.55.03-.82,0-.27.02-.55.03-.82,0-.28,0-.55.01-.83,0-.28,0-.55,0-.83,0-.02,0-.04,0-.05.25-.1.5-.21.74-.33.25-.12.49-.25.72-.39.23-.14.45-.28.66-.43.21-.15.4-.3.6-.47.19-.16.37-.33.55-.5.17-.17.34-.35.5-.53.16-.18.31-.37.45-.56.14-.19.28-.39.41-.59.13-.2.25-.4.36-.61.11-.21.22-.42.32-.64.1-.22.19-.44.27-.67.08-.23.16-.46.22-.7.07-.24.13-.48.17-.73.05-.25.09-.51.12-.76.03-.26.05-.53.06-.8,0-.28,0-.56,0-.84-.02-.3-.04-.59-.09-.89-.03-.22-.07-.44-.12-.65-.02-.1-.04-.2-.07-.3-.09-.35-.19-.7-.32-1.03-.15-.4-.32-.78-.51-1.15-.25-.49-.55-.95-.88-1.38-1.46-1.92-3.59-3.25-5.97-3.69h.02ZM183.1,98.38l.03.04c.11.14.21.29.28.46.13.2.22.43.28.67l.02.05c.05.15.1.29.13.45.04.17.05.34.07.51v.03c.03.24.04.47,0,.7,0,.04,0,.07,0,.1,0,.15-.03.29-.07.43-.01.11-.04.22-.06.32-.05.19-.13.39-.22.57,0,.04-.02.08-.03.11-.03.07-.07.15-.11.21-.06.15-.14.29-.23.42-.11.16-.23.3-.36.43-.03.05-.06.09-.09.13-.09.11-.2.21-.31.31-.08.07-.15.13-.23.19-.14.11-.3.22-.45.3-.07.05-.14.09-.21.12-.07.03-.15.07-.22.09-.09.06-.21.1-.33.13-.09.04-.18.07-.28.11-.11.03-.22.06-.32.09-.25.05-.5.08-.75.09-.16,0-.32,0-.48-.02-.19,0-.38-.02-.56-.07-.29-.05-.57-.12-.83-.23-.35-.14-.69-.34-1-.58-.09-.06-.17-.13-.26-.2-.28-.23-.52-.51-.73-.82-.08-.11-.15-.2-.21-.31-.07-.13-.14-.27-.21-.42-.05-.12-.1-.24-.14-.36-.02-.1-.06-.17-.08-.27-.04-.09-.06-.17-.08-.27,0-.04-.02-.09-.03-.13-.02-.14-.04-.29-.05-.43-.02-.16-.02-.3-.01-.45,0-.07.01-.13.02-.19,0-.19.02-.38.06-.58v-.02c.05-.24.11-.48.2-.71.09-.22.19-.44.32-.64l.02-.03c.05-.07.09-.15.14-.22.01-.04.03-.07.05-.07.04-.09.11-.17.18-.25,0-.01,0-.02.02-.02h0c.14-.2.31-.38.5-.54.02-.02.05-.04.08-.06.17-.14.35-.28.54-.39.03-.02.06-.03.09-.05.15-.09.31-.17.48-.25.05-.03.1-.06.16-.08.05-.02.11-.04.17-.05.17-.06.35-.12.53-.16.09-.02.17-.04.26-.05.46-.07.92-.07,1.36,0,.68.11,1.32.37,1.88.75v.02c.42.27.78.64,1.08,1.05h0ZM93.61,178.82s-.04-.07-.07-.11c-.05-.12-.1-.21-.19-.31-.08-.11-.17-.21-.25-.32-.28-.33-.61-.62-.97-.85-.22-.16-.5-.31-.77-.4-.19-.09-.39-.15-.58-.19-.16-.05-.31-.08-.46-.09-.13-.03-.26-.05-.4-.04-.01,0-.03,0-.04,0-.16-.02-.31,0-.47.01-.21,0-.43.03-.65.08-.02,0-.04,0-.07.01-.27.07-.54.16-.78.27-.03,0-.05.02-.08.03-.18.08-.36.17-.52.28h-.02c-.06.04-.11.08-.17.12-.12.08-.23.17-.33.26-.09.07-.17.14-.25.22-.17.17-.33.35-.47.55-.13.18-.25.37-.35.58,0,.01-.01.02-.02.03-.07.11-.11.24-.16.36-.04.1-.08.2-.11.31-.01.03-.02.06-.03.1-.05.14-.08.29-.1.41-.01.07-.03.15-.04.22-.01.08-.02.16-.03.25-.01.05-.03.07-.02.11,0,.1-.02.21,0,.31,0,.05,0,.1,0,.14,0,.04,0,.07.01.1,0,.21.03.43.08.65.01.05.02.11.04.17.09.35.22.68.39.99.02.05.04.09.07.14.07.12.14.24.22.34.15.24.35.47.55.65.1.1.21.21.33.28.2.19.47.36.72.47.15.09.26.15.39.19.14.05.27.11.4.14.07.03.14.06.22.06.15.05.31.08.47.09.11,0,.21.03.32.03.04,0,.08,0,.13,0,.15.01.29.02.43,0,.21,0,.41-.03.63-.07h.03c.15-.04.28-.07.42-.12.16-.06.31-.11.46-.18.12-.05.24-.11.35-.18.13-.07.23-.15.36-.22h.01c.21-.15.39-.31.57-.48.17-.17.33-.36.46-.55.07-.09.13-.19.19-.29.08-.1.14-.2.19-.31h0c.12-.22.21-.44.29-.67.08-.24.14-.48.17-.73.01-.09.02-.19.03-.28.01-.13.03-.25.02-.4,0-.04,0-.09,0-.13,0-.04,0-.08-.01-.12,0-.23-.03-.45-.08-.67,0-.04-.02-.09-.03-.13-.04-.17-.09-.33-.17-.49-.06-.17-.11-.33-.2-.48-.02-.05-.04-.09-.06-.14h0ZM59.84,77.51c-.11,0-.22,0-.34.02-.14,0-.29.02-.43.05l-.16.03c-.07.01-.13.03-.19.04-.3.08-.58.18-.85.31-.24.12-.47.26-.69.41-.2.15-.39.31-.56.49-.17.17-.32.36-.46.56-.14.19-.26.4-.36.61-.1.22-.19.44-.27.67-.07.24-.13.49-.15.74-.03.27-.04.55-.02.82.01.21.04.43.09.64.02.1.04.2.07.29.01.05.03.1.05.16v.02c.05.14.1.27.17.38.05.12.09.21.15.3.05.11.1.2.16.3.03.06.07.12.11.18.02.02.05.05.06.07.15.22.32.41.52.57.08.11.19.21.33.28.53.45,1.18.75,1.87.89.09.02.18.04.26.05.08.02.15.03.23.03.23.02.47.01.71,0,.18,0,.36-.02.55-.06.03,0,.07-.01.1-.02l.12-.02c.16-.03.29-.08.45-.14.08-.03.17-.05.25-.09.16-.07.31-.14.45-.23.09-.05.18-.11.27-.17l.18-.11c.16-.11.3-.22.43-.35.05-.05.1-.11.15-.16.1-.1.21-.21.28-.33.01-.02.03-.03.05-.05.15-.17.29-.39.39-.6.01-.02.03-.05.03-.08.11-.19.2-.38.27-.58.02-.07.04-.15.06-.22.05-.16.09-.33.13-.5.02-.12.04-.23.05-.34.01-.15.02-.29,0-.46.02-.11.01-.23,0-.33-.02-.18-.04-.36-.08-.56l-.04-.2s-.01-.06-.04-.07c-.03-.12-.05-.22-.11-.33-.05-.17-.12-.33-.2-.48-.01-.03-.03-.05-.04-.07-.08-.17-.18-.34-.27-.48-.17-.23-.37-.46-.57-.65-.08-.11-.19-.21-.33-.28-.2-.19-.47-.36-.72-.47-.12-.1-.26-.15-.39-.18-.39-.17-.83-.28-1.25-.31-.14-.02-.29-.03-.43-.03h0ZM114.27,159.74h-.02c-.26-.03-.53-.03-.79,0-.14.01-.3.03-.45.06-.02,0-.05.01-.07.02-.1.02-.18.04-.27.08-.1.02-.18.04-.27.08-.09.02-.19.06-.28.11-.01,0-.02.01-.03.02-.12.05-.23.09-.34.15-.13.07-.24.13-.36.22h-.01c-.11.09-.23.18-.34.26-.08.06-.16.14-.24.21-.18.17-.34.35-.48.54-.04.05-.07.1-.1.15-.09.08-.14.2-.21.31-.03.04-.05.09-.08.13-.12.21-.22.43-.3.65-.02.07-.04.13-.06.19-.05.14-.09.29-.1.41,0,.04-.02.08-.03.11-.03.13-.05.27-.05.4-.01.13,0,.25,0,.37v.03c0,.28.02.58.09.87v.03c.04.17.1.35.16.51.06.19.14.38.23.56.17.34.39.64.64.92.17.19.35.36.52.51h.02s0,.04.03.03c.12.1.25.18.37.25.22.18.48.31.75.4.14.05.27.11.4.14.07.03.14.05.22.06.18.05.35.07.54.09.14.02.29.03.45.03h.1c.13.02.25,0,.37-.02.18-.02.34-.03.53-.07.06-.01.11-.02.16-.04.04,0,.07-.02.11-.04.1-.02.18-.04.27-.08h.02c.1-.05.19-.07.29-.13.05-.02.11-.04.16-.07.19-.09.35-.19.51-.28l.17-.13.15-.12c.15-.11.29-.23.42-.36.15-.15.29-.32.41-.5.01,0,.02-.01.02-.03,0,0,.02-.02.03-.03.12-.15.22-.32.3-.49.02-.04.05-.08.07-.12.11-.21.2-.44.27-.67v-.03c.08-.22.14-.46.17-.71,0-.05,0-.09.01-.14.02-.23.02-.46,0-.69,0-.05,0-.09-.02-.14-.02-.18-.03-.34-.07-.52-.02-.09-.04-.18-.07-.27-.03-.11-.08-.23-.12-.34-.02-.1-.06-.17-.09-.25-.05-.15-.12-.29-.19-.42-.02-.05-.05-.09-.08-.14-.12-.21-.27-.39-.42-.56-.16-.17-.32-.33-.49-.47,0-.02,0-.04-.03-.04-.51-.43-1.1-.76-1.75-.91-.13-.04-.24-.07-.37-.09-.12-.03-.24-.05-.36-.05h-.01Z"/>
</svg>