<?xml version="1.0" encoding="UTF-8"?>
<svg id="Camada_1" data-name="Camada 1" xmlns="http://www.w3.org/2000/svg" xmlns:xlink="http://www.w3.org/1999/xlink" viewBox="0 0 100 100">
  <defs>
    <style>
      .cls-1 {
        fill: #43c8cf;
      }

      .cls-1, .cls-2 {
        stroke-width: 0px;
      }

      .cls-2 {
        fill: #fff;
      }

      .cls-3 {
        mask: url(#mask);
      }
    </style>
    <mask id="mask" x="9.87" y="3.93" width="78.03" height="78.03" maskUnits="userSpaceOnUse">
      <g id="mask0_1734_2729" data-name="mask0 1734 2729">
        <path class="cls-2" d="M9.87,3.93h78.03v78.03H9.87V3.93Z"/>
      </g>
    </mask>
  </defs>
  <g class="cls-3">
    <g>
      <path class="cls-1" d="M31.75,79.38c-.55,0-1.1-.21-1.53-.63-.84-.84-.84-2.21,0-3.05l14.69-14.69c.4-.4.95-.63,1.53-.63h4.9c2.58,0,5.01-1,6.83-2.83l15.52-15.52c.85-.85.85-2.22,0-3.07-.82-.82-2.26-.81-3.07,0l-1.84,1.84s0,0,0,0c-.42.42-.97.63-1.52.63h0c-.55,0-1.1-.21-1.53-.63s-.63-.97-.63-1.53.21-1.1.63-1.53l4.29-4.29c.41-.41.64-.96.64-1.53s-.23-1.12-.64-1.53l-.03-.03c-.8-.78-2.2-.79-3.01-.01l-1.87,1.87c-.84.84-2.21.84-3.05,0-.84-.84-.84-2.21,0-3.05l1.84-1.84s.04-.04.06-.06l2.39-2.38c.4-.4.63-.96.63-1.53s-.23-1.13-.64-1.54c-.81-.81-2.22-.82-3.04-.03l-3.04,3.04c-.84.84-2.21.84-3.05,0-.84-.84-.84-2.21,0-3.05l.07-.07,2.94-2.94s.03-.03.05-.05l2.4-2.4c.4-.4.64-.96.64-1.53s-.22-1.11-.62-1.51c0,0-.02-.02-.02-.02-.85-.85-2.22-.85-3.07,0l-9.18,9.18c-.84.84-2.21.84-3.05,0-.84-.84-.84-2.21,0-3.05l9.18-9.18c2.51-2.52,6.6-2.53,9.13-.04.01.01.03.03.04.04,1.22,1.23,1.9,2.85,1.9,4.58,0,.86-.18,1.71-.51,2.5.84.32,1.62.82,2.28,1.48,1.23,1.23,1.9,2.86,1.9,4.59,0,.88-.17,1.73-.5,2.51.85.32,1.63.82,2.27,1.47l.04.04c1.2,1.22,1.87,2.84,1.87,4.55,0,.88-.17,1.72-.5,2.51.84.32,1.61.82,2.27,1.48,2.53,2.53,2.53,6.64,0,9.17l-15.52,15.52c-2.64,2.64-6.15,4.09-9.88,4.09h-4l-14.06,14.06c-.42.42-.97.63-1.53.63Z"/>
      <path class="cls-1" d="M26.85,48.2c-1.71,0-3.38-.69-4.58-1.9h0s-1.22-1.23-1.22-1.23c-1.22-1.22-1.9-2.85-1.9-4.59s.69-3.38,1.9-4.58c.02-.02.04-.04.07-.07,1.2-1.17,2.84-1.84,4.52-1.84s3.38.69,4.59,1.9l1.22,1.22c1.23,1.22,1.9,2.85,1.9,4.59s-.66,3.33-1.86,4.55c-.01.01-.02.03-.04.04-1.23,1.22-2.85,1.9-4.59,1.9ZM25.31,43.25c.81.81,2.23.81,3.05.02,0,0,.02-.02.02-.02.41-.41.63-.95.63-1.53s-.23-1.13-.63-1.53l-1.23-1.22c-.81-.81-2.26-.81-3.07,0-.01.01-.03.03-.04.04-.38.4-.6.94-.6,1.49s.23,1.12.64,1.53l1.23,1.23Z"/>
      <path class="cls-1" d="M32.97,42.08c-1.71,0-3.38-.69-4.59-1.9l-3.67-3.67c-1.23-1.23-1.9-2.85-1.9-4.59s.67-3.36,1.9-4.59c1.23-1.23,2.86-1.9,4.59-1.9s3.38.69,4.58,1.9l3.68,3.68c1.22,1.22,1.9,2.85,1.9,4.59s-.69,3.38-1.9,4.58c-1.23,1.23-2.85,1.9-4.59,1.9ZM29.3,29.75c-.58,0-1.13.23-1.54.64-.41.41-.64.96-.64,1.54s.23,1.12.64,1.53l3.67,3.67c.81.81,2.25.81,3.07,0,.41-.41.64-.96.64-1.54s-.23-1.13-.63-1.53l-3.68-3.68c-.4-.4-.96-.63-1.53-.63Z"/>
      <path class="cls-1" d="M39.09,35.96c-1.73,0-3.36-.67-4.58-1.9l-6.12-6.12c-1.22-1.22-1.9-2.85-1.9-4.59s.67-3.36,1.9-4.59,2.86-1.9,4.59-1.9,3.36.67,4.59,1.9l6.12,6.12c1.22,1.22,1.9,2.85,1.9,4.58s-.67,3.36-1.9,4.59-2.86,1.9-4.59,1.9ZM32.97,21.18c-.58,0-1.12.23-1.53.64-.41.41-.64.96-.64,1.54s.23,1.12.64,1.53l6.12,6.12s0,0,0,0c.82.82,2.25.82,3.07,0,.41-.41.64-.96.64-1.54s-.23-1.12-.64-1.53l-6.12-6.12c-.41-.41-.95-.64-1.53-.64Z"/>
      <path class="cls-1" d="M45.22,29.84c-1.73,0-3.36-.67-4.58-1.9,0,0,0,0,0,0l-7.35-7.35c-1.21-1.2-1.9-2.88-1.9-4.58s.69-3.38,1.9-4.59c1.22-1.23,2.85-1.9,4.59-1.9s3.38.69,4.59,1.9l7.35,7.35c1.23,1.23,1.9,2.85,1.9,4.59s-.67,3.36-1.9,4.58c-1.21,1.21-2.88,1.9-4.59,1.9ZM43.68,24.89c.82.81,2.25.82,3.07,0,.41-.41.64-.96.64-1.54s-.23-1.12-.64-1.54l-7.35-7.35c-.81-.81-2.26-.81-3.07,0-.41.41-.64.97-.64,1.54s.23,1.13.63,1.53l7.35,7.35Z"/>
      <path class="cls-1" d="M66.03,79.38c-.55,0-1.1-.21-1.53-.63l-14.69-14.69c-.84-.84-.84-2.21,0-3.05.84-.84,2.21-.84,3.05,0l14.69,14.69c.84.84.84,2.21,0,3.05-.42.42-.97.63-1.53.63Z"/>
      <path class="cls-1" d="M85.61,59.79c-.55,0-1.1-.21-1.53-.63l-12.24-12.24c-.84-.84-.84-2.21,0-3.05.84-.84,2.21-.84,3.05,0l12.24,12.24c.84.84.84,2.21,0,3.05-.42.42-.97.63-1.53.63Z"/>
      <path class="cls-1" d="M12.16,59.79c-.55,0-1.1-.21-1.53-.63-.84-.84-.84-2.21,0-3.05l12.24-12.24c.84-.84,2.21-.84,3.05,0,.84.84.84,2.21,0,3.05l-12.24,12.24c-.42.42-.97.63-1.53.63Z"/>
      <path class="cls-1" d="M41.54,15.72c-.79,0-1.55-.44-1.93-1.19-.53-1.07-.1-2.36.96-2.89l9.8-4.9c.83-.42,1.83-.25,2.49.4l4.9,4.9c.84.84.84,2.21,0,3.05-.84.84-2.21.84-3.05,0l-3.8-3.8-8.4,4.2c-.31.15-.64.23-.96.23Z"/>
    </g>
  </g>
</svg>