<?xml version="1.0" encoding="UTF-8"?>
<svg id="Camada_1" data-name="Camada 1" xmlns="http://www.w3.org/2000/svg" viewBox="0 0 100 100">
  <defs>
    <style>
      .cls-1 {
        fill: #43c8cf;
        stroke-width: 0px;
      }
    </style>
  </defs>
  <path class="cls-1" d="M81.6,70.6h-20.89l-.98,1.58c-.2.32-.54.51-.92.51h-19.14c-.37,0-.72-.19-.92-.51l-.98-1.58h-20.89v2.94l9.67,1.43h45.37l9.67-1.43v-2.94ZM72.12,49.68l-.89.52v3.25l.36-.21c.17-.1.35-.14.54-.14s.37.05.54.14l.36.21v-3.25l-.89-.52ZM21.17,68.45h17.21c.37,0,.72.19.92.51l.98,1.58h17.94l.98-1.58c.2-.32.54-.51.92-.51h17.21v-34.81h-8.76l4.08,2.19c.35.19.57.55.57.95,0,0,0,0,0,0v11.04l1.43.83c.33.19.54.55.54.93v5.74c0,.39-.21.74-.54.93-.17.1-.35.14-.54.14s-.37-.05-.54-.14l-1.43-.83-1.43.83c-.33.19-.74.19-1.08,0-.33-.19-.54-.55-.54-.93v-5.74c0-.39.21-.74.54-.93l1.43-.83v-9.24l-7.88,4.22v12.81c0,.4-.22.76-.57.95l-10.3,5.52c-.99.53-2.02.79-3.06.79s-2.07-.26-3.06-.79l-10.3-5.52c-.35-.19-.57-.55-.57-.95v-12.81l-9.47-5.08c-.35-.19-.57-.55-.57-.95s.22-.76.57-.95l4.08-2.19h-8.76v34.81ZM61.01,43.96l-11.26,6.04c-.16.09-.33.13-.51.13s-.35-.04-.51-.13l-11.26-6.04v7.14l11.34,6.08c.31.17.54.17.85,0l11.34-6.08v-7.14h0ZM37.47,54.97l9.73,5.22c1.31.7,2.76.7,4.08,0l9.73-5.22v-1.43l-10.32,5.54c-.47.25-.96.38-1.44.38s-.97-.13-1.44-.38l-10.32-5.54v1.43ZM28.64,36.77l20.6,11.05,20.6-11.05-20.6-11.05-20.6,11.05ZM83.75,69.52v4.95c0,.53-.39.99-.92,1.07l-10.67,1.57c-.05,0-.1.01-.16.01H26.48c-.05,0-.11,0-.16-.01l-10.67-1.57c-.53-.08-.92-.53-.92-1.07v-4.95c0-.6.48-1.08,1.08-1.08h3.2v-35.89c0-.6.48-1.08,1.08-1.08h13.86l14.78-7.93c.32-.17.7-.17,1.02,0l14.78,7.93h13.86c.6,0,1.08.48,1.08,1.08v35.89h3.2c.6,0,1.08.48,1.08,1.08ZM46.1,18.84c-.42.42-.42,1.1,0,1.53.42.42,1.1.42,1.53,0,.89-.89,2.35-.89,3.24,0,.21.21.49.32.76.32s.55-.11.76-.32c.42-.42.42-1.1,0-1.53-1.73-1.73-4.56-1.73-6.29,0ZM54.96,17.35c.28,0,.55-.11.76-.32.42-.42.42-1.1,0-1.53-1.73-1.73-4.03-2.68-6.48-2.68s-4.75.95-6.48,2.68c-.42.42-.42,1.1,0,1.53.42.42,1.1.42,1.53,0,2.73-2.73,7.18-2.73,9.91,0,.21.21.49.32.76.32ZM39.42,13.7c-.42-.42-.42-1.1,0-1.53,2.62-2.62,6.11-4.07,9.82-4.07s7.2,1.44,9.82,4.07c.42.42.42,1.1,0,1.53-.21.21-.49.32-.76.32s-.55-.11-.76-.32c-2.22-2.22-5.16-3.44-8.29-3.44s-6.08,1.22-8.29,3.44c-.42.42-1.1.42-1.53,0Z"/>
</svg>