<?xml version="1.0" encoding="UTF-8"?>
<svg id="Camada_1" data-name="Camada 1" xmlns="http://www.w3.org/2000/svg" xmlns:xlink="http://www.w3.org/1999/xlink" viewBox="0 0 100 100">
  <defs>
    <style>
      .cls-1 {
        fill: #43c8cf;
      }

      .cls-1, .cls-2 {
        stroke-width: 0px;
      }

      .cls-2 {
        fill: none;
      }

      .cls-3 {
        clip-path: url(#clippath);
      }
    </style>
    <clipPath id="clippath">
      <rect class="cls-2" x="20.38" y="15.56" width="58.52" height="63.02"/>
    </clipPath>
  </defs>
  <g class="cls-3">
    <g>
      <path class="cls-1" d="M78.49,16.12c-.34-.37-.81-.57-1.29-.56-.21,0-5.2.09-11.79,1.85-6.11,1.63-14.8,5.08-21.44,12.23-.77.83-1.5,1.69-2.18,2.58-5.39-.79-10.56.84-15.1,4.79-3.87,3.36-5.9,7.22-5.98,7.38-.3.58-.3,1.28-.01,1.86.29.58.84.96,1.46,1l10.13.68-2.78,2.99c-.33.36-.52.85-.52,1.36s.19,1,.52,1.36l1.4,1.51s-.04.04-.06.06c-6.02,6.48-6.2,16.52-6.21,16.95,0,.52.18,1.02.52,1.38.33.36.79.56,1.26.56h.02c.39,0,9.72-.21,15.74-6.69.02-.02.04-.04.06-.06l1.4,1.51c.33.36.79.56,1.26.56s.93-.2,1.26-.56l2.78-2.99.63,10.91c.04.66.39,1.25.93,1.57.27.16.56.23.85.23s.6-.08.87-.24c.15-.09,3.73-2.28,6.85-6.44,3.66-4.89,5.18-10.46,4.44-16.26.82-.73,1.62-1.51,2.39-2.35,6.64-7.15,9.84-16.5,11.36-23.09,1.63-7.09,1.71-12.47,1.71-12.7,0-.52-.18-1.02-.52-1.38ZM33.31,52.27l3.05-3.28,11.62,12.51-3.05,3.28-11.62-12.51ZM33.39,57.92s.04-.04.06-.06l6.28,6.77s-.04.04-.06.06c-3.47,3.74-8.51,4.97-11.27,5.37.37-2.97,1.52-8.4,4.98-12.14ZM50.93,59.24l-12.47-13.43c1.78-4.67,4.34-9.46,8.05-13.45,4.94-5.32,11.18-8.41,16.38-10.19l9.99,10.76c-1.65,5.6-4.52,12.33-9.46,17.64-3.75,4.04-8.26,6.79-12.49,8.67ZM73.95,28.77l-7.2-7.75c3.61-.93,6.71-1.32,8.58-1.49-.15,2.02-.52,5.35-1.38,9.24ZM29.03,39.92c3.18-2.74,6.62-4.09,10.26-4.06-1.7,2.77-3.04,5.64-4.1,8.4l-9.61-.65c.85-1.13,2.01-2.46,3.45-3.7ZM56.4,69.38c-1.15,1.55-2.39,2.8-3.44,3.72l-.6-10.35c2.57-1.14,5.23-2.59,7.8-4.42.03,3.92-1.22,7.62-3.77,11.05Z"/>
      <path class="cls-1" d="M63.08,32.72c-1.36-1.46-3.16-2.27-5.09-2.27s-3.73.81-5.09,2.27c-2.8,3.02-2.8,7.93,0,10.95,1.36,1.46,3.16,2.27,5.09,2.27s3.73-.81,5.09-2.27c1.36-1.46,2.11-3.41,2.11-5.48s-.75-4.02-2.11-5.48ZM60.55,40.95c-.68.74-1.59,1.14-2.56,1.14s-1.88-.41-2.56-1.14c-1.41-1.52-1.41-4,0-5.52.68-.74,1.6-1.14,2.56-1.14s1.88.41,2.56,1.14c.68.74,1.06,1.72,1.06,2.76s-.38,2.02-1.06,2.76Z"/>
    </g>
  </g>
</svg>