<?xml version="1.0" encoding="UTF-8"?>
<svg id="Camada_1" data-name="Camada 1" xmlns="http://www.w3.org/2000/svg" viewBox="0 0 100 100">
  <defs>
    <style>
      .cls-1 {
        fill: #43c8cf;
        stroke-width: 0px;
      }
    </style>
  </defs>
  <g>
    <path class="cls-1" d="M84.76,72.87h-31.69v.63c0,1.7-1.38,3.07-3.07,3.07s-3.07-1.38-3.07-3.07v-.63H15.24v-3.8h69.51v3.8ZM17.94,62.32c10.17-2.6,21.25-.56,30.09,5.48h-30.44l.35-5.48ZM46.46,65.31c-8.61-5.05-18.89-6.64-28.44-4.31l.53-8.33c11.08.73,20.63,5.08,27.91,12.65ZM81.97,61c-9.55-2.33-19.83-.73-28.44,4.31,7.28-7.57,16.83-11.91,27.91-12.65l.53,8.33ZM82.06,62.32l.35,5.48h-30.44c8.85-6.05,19.92-8.08,30.09-5.48ZM83.68,67.81l-1.05-16.47-.63.03c-13.07.7-24.11,6.26-32,16.07-7.89-9.81-18.93-15.37-32-16.07l-.63-.03-1.05,16.47h-2.35v6.33h31.73c.31,2.09,2.12,3.71,4.3,3.71s3.98-1.61,4.3-3.71h31.73v-6.33h-2.35Z"/>
    <path class="cls-1" d="M50,78.34c-2.23,0-4.19-1.57-4.71-3.71H13.48v-7.33h2.38l1.05-16.5,1.12.06c12.98.7,24.02,6.15,31.97,15.78,7.95-9.63,19-15.08,31.97-15.78l1.12-.06,1.05,16.5h2.38v7.33h-31.82c-.52,2.14-2.47,3.71-4.71,3.71ZM14.48,73.64h31.66l.06.43c.28,1.87,1.91,3.28,3.8,3.28s3.52-1.41,3.8-3.28l.06-.43h31.66v-5.33h-2.32l-1.05-16.45h-.13c-12.9.7-23.84,6.2-31.64,15.9l-.39.48-.39-.48c-7.8-9.7-18.74-15.19-31.64-15.89h-.13s-1.05,16.44-1.05,16.44h-2.32v5.33ZM50,77.08c-1.97,0-3.57-1.6-3.57-3.57v-.13H14.74v-4.8h70.52v4.8h-31.69v.13c0,1.97-1.6,3.57-3.57,3.57ZM15.74,72.37h31.69v1.13c0,1.42,1.15,2.57,2.57,2.57s2.57-1.15,2.57-2.57v-1.13h31.69v-2.8H15.74v2.8ZM82.94,68.31h-32.59l1.33-.91c9.04-6.18,20.15-8.2,30.5-5.55l.35.09.41,6.38ZM53.65,67.31h28.23l-.29-4.59c-9.44-2.31-19.51-.64-27.93,4.59ZM49.65,68.31H17.06l.41-6.38.35-.09c10.35-2.65,21.46-.62,30.5,5.55l1.33.91ZM18.12,67.31h28.23c-8.42-5.23-18.49-6.9-27.93-4.59l-.29,4.59ZM49.33,67.57l-3.12-1.83c-8.5-4.98-18.73-6.53-28.07-4.26l-.66.16.61-9.51.5.03c11.13.74,20.89,5.16,28.23,12.8l2.51,2.61ZM26.77,59.46c5.73,0,11.49,1.27,16.76,3.74-6.69-5.84-15.09-9.28-24.51-10.01l-.46,7.16c2.69-.6,5.45-.9,8.21-.9ZM50.67,67.57l2.5-2.61c7.34-7.64,17.1-12.06,28.23-12.8l.5-.03.61,9.51-.66-.16c-9.34-2.27-19.57-.72-28.07,4.26l-3.12,1.83ZM80.98,53.2c-9.42.72-17.81,4.16-24.51,10.01,7.81-3.66,16.7-4.7,24.96-2.85l-.46-7.16Z"/>
  </g>
  <g>
    <path class="cls-1" d="M48.57,37.04h-2.33c-1.28,0-2.33-1.05-2.33-2.33s1.05-2.33,2.33-2.33,2.33,1.05,2.33,2.33v2.33ZM51.44,37.04v-2.33c0-1.28,1.05-2.33,2.33-2.33s2.33,1.05,2.33,2.33-1.05,2.33-2.33,2.33h-2.33ZM37.19,29.9c.53-6.29,5.69-11.33,11.99-11.72,3.6-.23,7.01,1,9.62,3.46,2.62,2.46,4.05,5.78,4.05,9.37,0,4.82-2.66,9.2-6.95,11.42-1.45.76-2.41,2.14-2.58,3.7h-1.89v-7.82h2.33c1.98,0,3.6-1.61,3.6-3.6s-1.61-3.6-3.6-3.6-3.6,1.61-3.6,3.6v3.6h0v7.82h-.34v-7.82h0v-3.6c0-1.98-1.61-3.6-3.6-3.6s-3.6,1.61-3.6,3.6,1.61,3.6,3.6,3.6h2.33v7.82h-1.89c-.17-1.55-1.11-2.94-2.56-3.68-4.65-2.4-7.37-7.32-6.93-12.55ZM54.76,47.4c.42,0,.76.35.76.76s-.34.76-.76.76h-9.52c-.42,0-.76-.35-.76-.76s.34-.76.76-.76h9.52ZM55.52,50.93c0,.42-.34.76-.76.76h-9.52c-.42,0-.76-.34-.76-.76s.34-.75.76-.75h9.52c.42,0,.76.34.76.75ZM55.52,53.72c0,.41-.34.75-.76.75h-9.52c-.42,0-.76-.34-.76-.75s.34-.76.76-.76h9.52c.42,0,.76.34.76.76ZM50.66,57.23h-1.32c-.93,0-1.72-.62-1.99-1.46h5.3c-.27.84-1.06,1.46-1.99,1.46ZM43.54,43.58c1,.51,1.69,1.47,1.85,2.55h-.15c-1.11,0-2.03.91-2.03,2.03,0,.54.21,1.03.56,1.39-.35.35-.56.84-.56,1.38s.21,1.03.56,1.39c-.35.36-.56.85-.56,1.39,0,1.11.91,2.02,2.03,2.02h.81c.28,1.56,1.65,2.76,3.29,2.76h1.32c1.65,0,3.01-1.2,3.29-2.76h.81c1.11,0,2.03-.9,2.03-2.02,0-.54-.21-1.03-.56-1.39.35-.36.56-.85.56-1.39s-.21-1.03-.56-1.38c.35-.36.56-.85.56-1.39,0-1.11-.91-2.03-2.03-2.03h-.15c.17-1.08.86-2.04,1.89-2.57,4.7-2.44,7.62-7.24,7.62-12.54,0-3.88-1.62-7.63-4.45-10.29-2.87-2.7-6.62-4.04-10.58-3.81-6.93.43-12.58,5.97-13.17,12.88-.48,5.74,2.51,11.15,7.61,13.78Z"/>
    <path class="cls-1" d="M50.66,59h-1.32c-1.72,0-3.21-1.14-3.69-2.76h-.42c-1.39,0-2.53-1.13-2.53-2.52,0-.5.15-.98.42-1.39-.27-.41-.42-.89-.42-1.39s.15-.98.42-1.39c-.27-.41-.42-.89-.42-1.39,0-1.23.88-2.26,2.05-2.48-.25-.7-.76-1.3-1.45-1.65h0c-5.29-2.73-8.38-8.33-7.88-14.27.6-7.16,6.46-12.89,13.63-13.34,4.1-.25,7.99,1.16,10.95,3.94,2.93,2.75,4.61,6.64,4.61,10.65,0,5.48-3.02,10.46-7.89,12.99-.7.36-1.23.97-1.49,1.68,1.16.22,2.05,1.25,2.05,2.48,0,.5-.15.98-.42,1.39.27.4.42.88.42,1.39s-.15.98-.42,1.39c.27.41.42.89.42,1.39,0,1.39-1.13,2.52-2.53,2.52h-.42c-.48,1.62-1.96,2.76-3.69,2.76ZM45.24,46.63c-.84,0-1.53.68-1.53,1.53,0,.39.15.76.42,1.05l.33.35-.34.35c-.27.27-.42.64-.42,1.03s.15.76.42,1.05l.33.34-.33.35c-.27.28-.42.65-.42,1.05,0,.84.68,1.52,1.53,1.52h1.23l.07.41c.24,1.36,1.42,2.35,2.8,2.35h1.32c1.38,0,2.56-.99,2.8-2.35l.07-.41h1.23c.84,0,1.53-.68,1.53-1.52,0-.39-.15-.76-.42-1.05l-.33-.34.33-.34c.27-.28.42-.66.42-1.05s-.15-.76-.42-1.04l-.34-.34.33-.35c.27-.28.42-.66.42-1.05,0-.84-.68-1.53-1.53-1.53h-.74l.09-.58c.19-1.25,1-2.35,2.16-2.94,4.53-2.35,7.35-6.99,7.35-12.1,0-3.74-1.56-7.36-4.29-9.92-2.76-2.6-6.38-3.89-10.2-3.67-6.68.42-12.14,5.76-12.7,12.42-.46,5.54,2.42,10.76,7.34,13.29h0c1.14.58,1.93,1.68,2.11,2.92l.08.57h-.73ZM50.66,57.73h-1.32c-1.13,0-2.12-.73-2.47-1.81l-.21-.65h6.67l-.21.65c-.35,1.08-1.34,1.81-2.47,1.81ZM48.23,56.27c.29.29.69.46,1.11.46h1.32c.42,0,.82-.17,1.11-.46h-3.54ZM54.76,54.97h-9.52c-.69,0-1.26-.56-1.26-1.25s.56-1.26,1.26-1.26h9.52c.69,0,1.26.57,1.26,1.26s-.57,1.25-1.26,1.25ZM45.24,53.46c-.15,0-.26.11-.26.26s.12.25.26.25h9.52c.14,0,.26-.11.26-.25,0-.15-.11-.26-.26-.26h-9.52ZM54.76,52.19h-9.52c-.69,0-1.26-.57-1.26-1.26s.56-1.25,1.26-1.25h9.52c.69,0,1.26.56,1.26,1.25s-.57,1.26-1.26,1.26ZM45.24,50.68c-.14,0-.26.11-.26.25,0,.15.11.26.26.26h9.52c.15,0,.26-.11.26-.26s-.12-.25-.26-.25h-9.52ZM54.76,49.42h-9.52c-.69,0-1.26-.57-1.26-1.26s.56-1.26,1.26-1.26h9.52c.69,0,1.26.57,1.26,1.26s-.57,1.26-1.26,1.26ZM45.24,47.9c-.14,0-.26.12-.26.26s.12.26.26.26h9.52c.14,0,.26-.12.26-.26s-.12-.26-.26-.26h-9.52ZM53.77,46.63h-2.83v-8.82h2.83c1.71,0,3.1-1.39,3.1-3.1s-1.39-3.1-3.1-3.1-3.1,1.39-3.1,3.1v11.92s-1.34,0-1.34,0v-11.92c0-1.71-1.39-3.1-3.09-3.1s-3.09,1.39-3.09,3.1,1.39,3.1,3.09,3.1h2.83v8.82h-2.84l-.05-.45c-.15-1.4-1.01-2.63-2.29-3.29-4.83-2.49-7.65-7.61-7.2-13.04h0c.55-6.54,5.91-11.77,12.46-12.17,3.72-.24,7.27,1.04,9.99,3.59,2.71,2.55,4.21,6,4.21,9.73,0,5.01-2.77,9.56-7.22,11.86-1.29.67-2.16,1.91-2.32,3.31l-.05.44ZM51.94,45.63h.96c.32-1.54,1.33-2.88,2.78-3.64,4.12-2.13,6.68-6.34,6.68-10.98,0-3.45-1.38-6.65-3.89-9-2.52-2.36-5.79-3.55-9.25-3.33-6.06.37-11.01,5.21-11.53,11.26h0c-.42,5.03,2.19,9.76,6.66,12.06,1.44.74,2.45,2.08,2.76,3.62h.96v-6.82h-1.83c-2.26,0-4.09-1.84-4.09-4.1s1.84-4.1,4.09-4.1c1.69,0,3.14,1.02,3.76,2.48.63-1.46,2.08-2.48,3.76-2.48,2.26,0,4.1,1.84,4.1,4.1s-1.84,4.1-4.1,4.1h-1.83v6.82ZM53.77,37.54h-2.83v-2.83c0-1.56,1.27-2.83,2.83-2.83s2.83,1.27,2.83,2.83-1.27,2.83-2.83,2.83ZM51.94,36.54h1.83c1.01,0,1.83-.82,1.83-1.83s-.82-1.83-1.83-1.83-1.83.82-1.83,1.83v1.83ZM49.07,37.54h-2.83c-1.56,0-2.83-1.27-2.83-2.83s1.27-2.83,2.83-2.83,2.83,1.27,2.83,2.83v2.83ZM46.24,32.88c-1.01,0-1.83.82-1.83,1.83s.82,1.83,1.83,1.83h1.83v-1.83c0-1.01-.82-1.83-1.83-1.83Z"/>
  </g>
</svg>