<?xml version="1.0" encoding="UTF-8"?>
<svg id="Camada_1" data-name="Camada 1" xmlns="http://www.w3.org/2000/svg" viewBox="0 0 100 100">
  <defs>
    <style>
      .cls-1 {
        fill: #43c8cf;
        stroke-width: 0px;
      }
    </style>
  </defs>
  <path class="cls-1" d="M66.63,60.28v8.31c0,1.17-.91,2.13-2.02,2.13h-30.83c-1.12,0-2.02-.95-2.02-2.13v-10.45c0-1.25-.72-2.33-1.83-2.75-1.12-.43-2.35-.07-3.11.9-1.14,1.45-2.82,2.28-4.59,2.28s-3.46-.84-4.59-2.31c-1.14-1.49-1.54-3.38-1.14-5.3.46-2.16,2.05-3.93,4.08-4.51,2.33-.67,4.72.11,6.24,2.03.77.98,2,1.33,3.12.9,1.11-.42,1.82-1.5,1.82-2.75v-10.45c0-1.17.91-2.13,2.02-2.13h9.94c1.19,0,2.22-.75,2.62-1.92.41-1.18.07-2.47-.86-3.27-1.38-1.2-2.17-2.96-2.17-4.83s.8-3.64,2.2-4.82c1.42-1.2,3.21-1.62,5.04-1.2,2.06.48,3.74,2.16,4.29,4.28.63,2.45-.11,4.96-1.93,6.56-.93.81-1.26,2.1-.86,3.28.4,1.17,1.43,1.92,2.61,1.92h9.94c1.12,0,2.02.95,2.02,2.13v8.31c-1.66-1.37-3.72-2.13-5.88-2.13-2.92,0-5.64,1.38-7.46,3.78-1.82,2.4-2.49,5.53-1.82,8.58.8,3.67,3.57,6.58,7.06,7.42,2.91.7,5.86,0,8.11-1.86ZM33.78,74.56h30.83c3.13,0,5.68-2.68,5.68-5.97v-10.46c0-1.25-.76-2.37-1.89-2.79-1.12-.41-2.32-.06-3.06.91-1.43,1.87-3.73,2.69-6,2.14-2.1-.5-3.83-2.32-4.3-4.53-.42-1.93-.02-3.83,1.12-5.33,1.12-1.48,2.8-2.33,4.6-2.33s3.46.84,4.59,2.31c.74.97,1.94,1.32,3.06.91,1.13-.42,1.89-1.54,1.89-2.79v-10.45c0-3.29-2.55-5.97-5.68-5.97h-7.88c1.84-2.49,2.47-5.74,1.65-8.92-.9-3.49-3.66-6.25-7.03-7.03-2.89-.67-5.85.04-8.12,1.95-2.27,1.91-3.57,4.77-3.57,7.82,0,2.26.72,4.42,2.01,6.18h-7.89c-3.13,0-5.68,2.68-5.68,5.97v8.29c-2.37-1.94-5.46-2.6-8.49-1.74-3.32.95-5.94,3.85-6.69,7.39-.64,3.04.04,6.15,1.86,8.54,1.82,2.38,4.53,3.75,7.44,3.75,2.15,0,4.21-.75,5.88-2.11v8.29c0,3.29,2.55,5.97,5.68,5.97Z"/>
</svg>