<?xml version="1.0" encoding="UTF-8"?>
<svg id="Camada_1" data-name="Camada 1" xmlns="http://www.w3.org/2000/svg" viewBox="0 0 100 100">
  <defs>
    <style>
      .cls-1 {
        fill: #43c8cf;
        stroke-width: 0px;
      }
    </style>
  </defs>
  <path class="cls-1" d="M82.58,64.54l-1.16,1.21c-14.8,14.33-29.37,15.05-29.51,15.05-.09,0-.18.01-.26.03-1.46.29-5.89.37-15.59-5-.8-.44-1.66-.66-2.53-.66-.36,0-.73.04-1.09.12l-7.41-14.32c2.82-2.15,10.88-7.24,18.84-2.62.68.4,1.34.98,2.01,1.77,1.66,1.98,5.82,3.18,12.72,3.67,2.03.14,2.77.64,2.85.74,0,.11-.2.67-1.16,1.46-2.3,1.97-8.4,4.2-15,1.79-.79-.29-1.67.06-2.08.82-.41.76-.23,1.72.43,2.27.27.19.56.33.86.44,1.12.43,2.29.73,3.48.83,12.41,1.12,18.23-2.78,18.23-2.78l7.85-5.1,4.83-2.82c.05-.03.11-.07.16-.1.62-.46,1.38-.63,2.13-.45.73.17,1.34.63,1.72,1.29.4.7.25,1.77-.3,2.36ZM25.47,79.4l-7.35-14.32,3.85-2.05,7.29,13.92-3.79,2.45ZM85.91,60.46c-.85-1.57-2.31-2.68-4-3.07-1.65-.38-3.4-.02-4.79.98l-4.76,2.78c-2.93,1.71-5.53,3.41-7.89,5.17.44-.94.54-1.9.27-2.8-.4-1.34-1.75-3-5.92-3.29-8.58-.6-10.2-2.26-10.35-2.45-.93-1.11-1.89-1.95-2.92-2.55-11.94-6.94-23.39,3.49-23.87,3.94h0s-6.68,3.56-6.68,3.56c-.41.22-.72.6-.86,1.06-.14.46-.09.96.12,1.38l9.04,17.62c.22.44.61.76,1.07.89.15.04.3.06.45.06.32,0,.63-.09.91-.27l6.74-4.36s.04-.03.06-.05c.02-.01.05-.02.08-.04.56-.32,1.24-.32,1.82,0,8.16,4.52,13.19,5.52,16.05,5.52.68,0,1.23-.06,1.68-.14,1.66-.09,16.41-1.29,31.66-16.05l1.25-1.3c1.67-1.74,2.02-4.45.85-6.58Z"/>
  <path class="cls-1" d="M58.36,27.27c2.08,0,3.77,1.76,3.77,3.93s-1.69,3.93-3.77,3.93-3.77-1.76-3.77-3.93,1.69-3.93,3.77-3.93ZM58.36,38.71c3.98,0,7.22-3.37,7.22-7.51s-3.24-7.51-7.22-7.51-7.22,3.37-7.22,7.51,3.24,7.51,7.22,7.51Z"/>
  <path class="cls-1" d="M44.73,29.67c.64-.16,1.14-.69,1.28-1.35.26-1.22.69-2.39,1.27-3.49.32-.6.28-1.33-.09-1.89l-1.32-1.92,1.23-1.49,2.04,1.12c.58.32,1.28.27,1.81-.13,1.4-1.05,2.95-1.78,4.63-2.17.64-.15,1.14-.66,1.3-1.32l.51-2.31,1.89-.03.55,2.33c.16.66.66,1.18,1.3,1.33,1.77.41,3.4,1.19,4.85,2.33.52.41,1.22.48,1.81.17l2.02-1.09,1.24,1.48-1.36,1.95c-.38.55-.43,1.29-.13,1.89.52,1.02.9,2.11,1.15,3.25.14.66.64,1.19,1.27,1.35l2.22.56.03,1.93-2.24.57c-.64.16-1.13.69-1.27,1.35-.26,1.21-.68,2.38-1.26,3.47-.31.59-.28,1.32.09,1.88l1.32,1.94-1.23,1.48-2.01-1.12c-.58-.32-1.29-.27-1.83.13-1.4,1.06-2.97,1.8-4.66,2.19-.64.15-1.14.66-1.3,1.32l-.52,2.31-1.89.02-.53-2.31c-.15-.67-.66-1.18-1.3-1.33-1.77-.41-3.4-1.2-4.85-2.34-.31-.24-.67-.36-1.04-.36-.26,0-.52.06-.77.19l-2.03,1.08-1.24-1.48,1.35-1.91c.39-.55.44-1.29.13-1.9-.52-1.03-.91-2.12-1.15-3.25-.14-.66-.63-1.18-1.26-1.35l-2.22-.55-.02-1.96,2.22-.55ZM41.67,35.62l1.25.33c.2.69.43,1.37.72,2.03l-.73,1.04c-.93,1.32-.88,3.12.14,4.38l1.24,1.53c1.01,1.25,2.71,1.62,4.12.9l1.16-.6c1.31.9,2.73,1.58,4.23,2.04l.29,1.26c.36,1.6,1.72,2.72,3.3,2.73h1.92s.02.01.02.01c1.57,0,2.93-1.1,3.31-2.69l.31-1.3c1.4-.43,2.73-1.05,3.97-1.87l1.09.61c1.39.77,3.09.46,4.15-.76l1.28-1.49c1.05-1.22,1.16-3.02.27-4.37l-.74-1.11c.33-.75.62-1.52.84-2.31l1.24-.31c1.53-.39,2.6-1.8,2.6-3.45v-2c0-1.64-1.07-3.06-2.6-3.45l-1.25-.32c-.2-.69-.43-1.36-.71-2.02l.75-1.08c.93-1.33.86-3.13-.16-4.38l-1.25-1.53c-1.02-1.25-2.72-1.61-4.13-.87l-1.15.6c-1.31-.89-2.73-1.57-4.23-2.04l-.3-1.29c-.38-1.59-1.74-2.7-3.31-2.7h-1.92c-1.57,0-2.94,1.11-3.31,2.71l-.3,1.3c-1.39.43-2.71,1.05-3.94,1.85l-1.13-.62c-1.39-.77-3.1-.44-4.14.79l-1.28,1.5c-1.04,1.23-1.15,3.03-.25,4.38l.73,1.09c-.34.75-.62,1.53-.85,2.33l-1.21.3c-1.53.38-2.61,1.79-2.62,3.43v2c-.01,1.64,1.05,3.06,2.58,3.46Z"/>
</svg>