<?xml version="1.0" encoding="UTF-8"?>
<svg id="Camada_1" data-name="Camada 1" xmlns="http://www.w3.org/2000/svg" viewBox="0 0 400 400">
  <defs>
    <style>
      .cls-1 {
        fill: #5acfd5;
      }

      .cls-1, .cls-2 {
        stroke-width: 0px;
      }

      .cls-2 {
        fill: #8b47fe;
      }
    </style>
  </defs>
  <path class="cls-2" d="M231.04,41.99c-20.53-3.98-41.4-3.97-62.03.04-20.63,4.01-39.97,11.8-57.48,23.17-18.14,11.77-33.51,26.88-45.72,44.9-12.2,18.03-20.49,37.89-24.63,59.03-4,20.42-3.99,41.19.03,61.71,2.46,12.51,6.36,24.65,11.63,36.13-.6.55-1.15,1.16-1.63,1.87-3.16,4.66-1.91,11.01,2.78,14.15,4.69,3.14,11.07,1.9,14.22-2.76,3.16-4.66,1.91-11.01-2.78-14.15-2.31-1.55-5.03-2.03-7.58-1.56-5.05-11.03-8.8-22.7-11.16-34.73-3.89-19.82-3.9-39.87-.03-59.59,3.99-20.41,11.99-39.58,23.78-56.99,11.78-17.41,26.63-31.99,44.13-43.35,16.91-10.97,35.58-18.5,55.5-22.37,19.92-3.87,40.07-3.88,59.88-.04,20.51,3.98,39.79,11.94,57.28,23.66,17.49,11.72,32.15,26.49,43.57,43.91,11.03,16.83,18.59,35.41,22.48,55.23,3.89,19.82,3.9,39.87.04,59.58-4,20.41-12,39.58-23.78,56.99-11.78,17.41-26.63,31.99-44.13,43.35-16.91,10.98-35.58,18.5-55.5,22.37-9.27,1.8-18.69,2.77-28,2.89-1.54.02-2.78,1.28-2.76,2.82.02,1.53,1.29,2.76,2.83,2.74,9.65-.13,19.4-1.14,29-3,20.63-4.01,39.97-11.8,57.49-23.17,18.13-11.77,33.51-26.88,45.71-44.9,12.2-18.03,20.49-37.89,24.63-59.03,4-20.42,3.99-41.18-.04-61.71-4.03-20.52-11.86-39.77-23.29-57.2-11.83-18.04-27.02-33.34-45.13-45.48-18.12-12.14-38.07-20.38-59.33-24.5h0ZM63.59,277.12c-1.43,2.12-4.33,2.68-6.46,1.26-2.13-1.43-2.7-4.31-1.26-6.43.45-.66,1.04-1.17,1.7-1.52,0,0,0,0,.01,0,0,0,0,0,.01,0,1.46-.75,3.28-.7,4.74.27,2.13,1.43,2.7,4.31,1.26,6.43h0Z"/>
  <path class="cls-1" d="M200.83,170.43c-23.78,0-43.12,19.34-43.12,43.12s19.34,43.12,43.12,43.12,43.12-19.34,43.12-43.12-19.34-43.12-43.12-43.12ZM200.83,244.35c-16.98,0-30.8-13.82-30.8-30.8s13.82-30.8,30.8-30.8,30.8,13.82,30.8,30.8-13.82,30.8-30.8,30.8Z"/>
  <path class="cls-1" d="M200.83,195.07c-10.19,0-18.48,8.29-18.48,18.48s8.29,18.48,18.48,18.48,18.48-8.29,18.48-18.48-8.29-18.48-18.48-18.48ZM200.83,219.71c-3.4,0-6.16-2.76-6.16-6.16s2.76-6.16,6.16-6.16,6.16,2.76,6.16,6.16-2.76,6.16-6.16,6.16Z"/>
  <path class="cls-1" d="M200.82,96.51c-3.4,0-6.16,2.76-6.16,6.16v24.64c0,3.4,2.76,6.16,6.16,6.16s6.16-2.76,6.16-6.16v-24.64c0-3.4-2.76-6.16-6.16-6.16Z"/>
  <path class="cls-1" d="M266.78,110.63c-2.41-2.41-6.31-2.41-8.71,0l-18.48,18.48c-2.4,2.4-2.4,6.3,0,8.71,2.41,2.4,6.31,2.4,8.71,0l18.48-18.48c2.4-2.41,2.4-6.31,0-8.71Z"/>
  <path class="cls-1" d="M162.05,129.11l-18.48-18.48c-2.41-2.41-6.31-2.41-8.71,0-2.41,2.4-2.41,6.3,0,8.71l18.48,18.48c2.41,2.4,6.31,2.4,8.71,0,2.41-2.41,2.41-6.31,0-8.71Z"/>
  <path class="cls-1" d="M304.79,209.94c-.47-.65-11.77-16.17-30.05-31.87-20.71-17.78-46.38-32.29-73.91-32.29s-53.21,14.51-73.91,32.29c-18.28,15.69-29.58,31.21-30.05,31.87-1.56,2.15-1.56,5.06,0,7.22.47.65,11.77,16.17,30.05,31.87,20.78,17.84,46.44,32.29,73.91,32.29s53.14-14.45,73.91-32.29c18.28-15.69,29.58-31.21,30.05-31.87,1.56-2.16,1.56-5.06,0-7.22ZM266.94,239.45c-17.13,14.77-40.63,29.54-66.12,29.54s-50.15-15.85-65.68-29.14c-12.16-10.41-21.2-20.95-25.5-26.3,4.15-5.15,12.69-15.12,24.24-25.19,17.19-15,41.04-30.25,66.94-30.25s50.15,15.84,65.68,29.14c12.16,10.41,21.19,20.95,25.5,26.3-4.25,5.28-13.1,15.59-25.06,25.9Z"/>
</svg>