<?xml version="1.0" encoding="UTF-8"?>
<svg id="Camada_1" data-name="Camada 1" xmlns="http://www.w3.org/2000/svg" viewBox="0 0 400 400">
  <defs>
    <style>
      .cls-1 {
        fill: #5acfd5;
      }

      .cls-1, .cls-2 {
        stroke-width: 0px;
      }

      .cls-2 {
        fill: #8b47fe;
      }
    </style>
  </defs>
  <path class="cls-2" d="M231.04,41.99c-20.53-3.98-41.4-3.97-62.03.04-20.63,4.01-39.97,11.8-57.48,23.17-18.13,11.77-33.51,26.88-45.72,44.9-12.2,18.03-20.49,37.89-24.63,59.03-4,20.42-3.99,41.19.03,61.71,2.46,12.51,6.37,24.65,11.63,36.13-.6.55-1.15,1.16-1.63,1.87-3.16,4.66-1.91,11.01,2.78,14.15,4.69,3.14,11.07,1.9,14.22-2.76,3.16-4.66,1.91-11.01-2.78-14.15-2.31-1.55-5.03-2.03-7.58-1.56-5.05-11.03-8.8-22.7-11.16-34.73-3.89-19.82-3.9-39.87-.03-59.59,3.99-20.41,11.99-39.58,23.78-56.99,11.78-17.41,26.63-31.99,44.13-43.35,16.91-10.97,35.58-18.5,55.5-22.37,19.92-3.87,40.07-3.88,59.88-.04,20.51,3.98,39.79,11.94,57.28,23.66,17.49,11.72,32.15,26.49,43.57,43.91,11.03,16.83,18.59,35.41,22.48,55.23,3.89,19.82,3.9,39.87.04,59.58-4,20.41-12,39.59-23.78,56.99-11.78,17.41-26.63,31.99-44.13,43.35-16.91,10.98-35.58,18.5-55.5,22.37-9.27,1.8-18.69,2.77-28,2.89-1.54.02-2.78,1.28-2.76,2.82.02,1.53,1.29,2.76,2.83,2.74,9.65-.13,19.4-1.14,29-3,20.63-4.01,39.97-11.8,57.49-23.17,18.13-11.77,33.51-26.88,45.71-44.9,12.2-18.03,20.49-37.89,24.63-59.03,4-20.42,3.99-41.18-.04-61.71-4.03-20.52-11.86-39.77-23.29-57.2-11.83-18.04-27.02-33.34-45.13-45.48-18.12-12.14-38.07-20.38-59.33-24.51h0ZM63.59,277.12c-1.43,2.12-4.33,2.68-6.47,1.26-2.13-1.43-2.7-4.31-1.26-6.43.45-.66,1.04-1.17,1.7-1.52,0,0,0,0,.01,0,0,0,0,0,.01,0,1.46-.75,3.28-.7,4.74.27,2.13,1.43,2.7,4.31,1.26,6.43h0Z"/>
  <path class="cls-1" d="M201.18,168.23c2.89,0,5.24-2.35,5.24-5.24s-2.34-5.24-5.24-5.24c-23.14,0-41.91,18.76-41.91,41.91s18.76,41.91,41.91,41.91,41.91-18.76,41.91-41.91c0-2.89-2.35-5.24-5.24-5.24s-5.24,2.34-5.24,5.24c0,17.36-14.07,31.43-31.43,31.43s-31.43-14.07-31.43-31.43,14.07-31.43,31.43-31.43Z"/>
  <path class="cls-1" d="M301.14,168.55c-.91-2.75-3.87-4.24-6.62-3.33-2.69.89-4.18,3.75-3.38,6.46,15.67,49.89-12.08,103.03-61.96,118.69-49.88,15.67-103.03-12.08-118.69-61.96-15.67-49.89,12.08-103.03,61.96-118.69,18.47-5.8,38.27-5.8,56.73,0,2.77.84,5.7-.73,6.53-3.51.82-2.73-.69-5.62-3.4-6.5-55.39-17.38-114.39,13.44-131.77,68.83-17.38,55.39,13.44,114.39,68.83,131.77,55.39,17.38,114.39-13.44,131.77-68.83,6.43-20.48,6.43-42.45,0-62.93Z"/>
  <path class="cls-1" d="M211.16,132.29c.03-2.98-2.26-5.48-5.24-5.7-1.56-.13-3.13-.27-4.74-.27-40.5,0-73.34,32.84-73.34,73.34s32.83,73.34,73.34,73.34,73.34-32.84,73.34-73.34c0-1.89-.12-3.79-.35-5.67-.42-2.88-3.09-4.87-5.96-4.45-2.87.42-4.87,3.09-4.45,5.96.01.11.03.22.06.33.11,1.27.23,2.53.23,3.82,0,34.72-28.14,62.86-62.86,62.87-34.72,0-62.86-28.14-62.86-62.86,0-34.72,28.14-62.86,62.86-62.86h0c1.3,0,2.56.11,3.82.22l.98.08c2.74.12,5.05-2.01,5.17-4.74,0-.03,0-.05,0-.07Z"/>
  <path class="cls-1" d="M232.62,142.04v18.78l-35.13,35.13c-2.08,2.01-2.14,5.33-.13,7.41,2.01,2.08,5.33,2.14,7.41.13.04-.04.09-.09.13-.13l35.13-35.13h18.78c1.39,0,2.72-.55,3.7-1.54l31.43-31.43c2.05-2.05,2.05-5.36,0-7.41-.98-.98-2.31-1.53-3.7-1.53h-15.72v-15.72c0-2.89-2.35-5.24-5.24-5.24-1.39,0-2.72.55-3.7,1.53l-31.43,31.43c-.98.98-1.54,2.31-1.54,3.7ZM243.1,144.21l20.95-20.95v8.31c0,2.89,2.35,5.24,5.24,5.24h8.31l-20.95,20.95h-13.55v-13.55Z"/>
</svg>