<?xml version="1.0" encoding="UTF-8"?>
<svg id="Camada_1" data-name="Camada 1" xmlns="http://www.w3.org/2000/svg" viewBox="0 0 400 400">
  <defs>
    <style>
      .cls-1 {
        fill: #5acfd5;
      }

      .cls-1, .cls-2 {
        stroke-width: 0px;
      }

      .cls-2 {
        fill: #8b47fe;
      }
    </style>
  </defs>
  <path class="cls-2" d="M231.04,41.99c-20.53-3.98-41.4-3.97-62.03.04-20.63,4.01-39.97,11.8-57.48,23.17-18.13,11.77-33.51,26.88-45.72,44.9-12.2,18.03-20.49,37.89-24.63,59.03-4,20.42-3.99,41.19.03,61.71,2.46,12.51,6.37,24.65,11.63,36.12-.6.55-1.15,1.16-1.63,1.87-3.16,4.66-1.91,11.01,2.78,14.15,4.69,3.14,11.07,1.9,14.22-2.76,3.16-4.67,1.91-11.01-2.78-14.15-2.31-1.55-5.03-2.03-7.58-1.56-5.05-11.03-8.8-22.7-11.16-34.73-3.89-19.82-3.9-39.87-.03-59.59,3.99-20.4,11.99-39.58,23.78-56.98,11.78-17.41,26.63-31.99,44.13-43.35,16.91-10.98,35.58-18.5,55.5-22.37,19.92-3.87,40.07-3.88,59.88-.04,20.51,3.98,39.79,11.94,57.28,23.66,17.49,11.72,32.15,26.49,43.57,43.91,11.03,16.83,18.59,35.4,22.48,55.22,3.89,19.82,3.9,39.87.04,59.58-4,20.41-12,39.58-23.78,56.99-11.78,17.4-26.63,31.99-44.13,43.35-16.91,10.98-35.58,18.5-55.5,22.37-9.27,1.8-18.69,2.77-28,2.89-1.54.02-2.78,1.28-2.76,2.82.02,1.54,1.29,2.76,2.83,2.74,9.65-.12,19.4-1.13,29-2.99,20.63-4.01,39.97-11.8,57.49-23.18,18.13-11.77,33.51-26.87,45.71-44.9,12.2-18.03,20.49-37.89,24.63-59.03,4-20.42,3.99-41.18-.04-61.71-4.03-20.52-11.86-39.77-23.29-57.2-11.83-18.04-27.02-33.34-45.13-45.48-18.12-12.14-38.07-20.38-59.33-24.51h0ZM63.59,277.12c-1.43,2.12-4.33,2.68-6.47,1.26-2.13-1.43-2.7-4.31-1.26-6.43.45-.66,1.04-1.17,1.7-1.52,0,0,0,0,.01,0,0,0,0,0,.01,0,1.46-.75,3.28-.7,4.74.27,2.13,1.43,2.7,4.31,1.26,6.43h0Z"/>
  <path class="cls-1" d="M295.45,165.77l-26.66-41.17c-2.06-3.19-5.57-5.1-9.37-5.1h-117.62c-3.79,0-7.3,1.9-9.36,5.08l-26.74,41.17c-2.73,4.21-2.31,9.76,1.03,13.51l85.51,96c2.12,2.38,5.15,3.74,8.34,3.74,0,0,0,0,0,0,3.18,0,6.22-1.36,8.34-3.74l85.52-96c3.33-3.74,3.76-9.29,1.03-13.5ZM254.02,129.08l-22.42,34.67-22.43-34.67h44.85ZM222.81,167.77h-44.48l22.24-34.37,22.24,34.37ZM191.96,129.08l-22.37,34.57-22.36-34.57h44.74ZM138.37,133.02l22.48,34.75h-45.05l22.57-34.75ZM117.83,177.34h48.17l25.47,82.67-73.64-82.67ZM200.56,257.05l-24.56-79.71h49.11l-24.56,79.71ZM209.67,260.02l25.47-82.67h48.17l-73.64,82.67ZM240.4,167.77l22.46-34.73,22.49,34.73h-44.95Z"/>
</svg>