<?xml version="1.0" encoding="UTF-8"?>
<svg id="Camada_1" data-name="Camada 1" xmlns="http://www.w3.org/2000/svg" viewBox="0 0 100 100">
  <defs>
    <style>
      .cls-1 {
        fill: #fff;
        stroke: #fff;
      }

      .cls-2 {
        fill: #8b47fe;
        stroke-width: 0px;
      }
    </style>
  </defs>
  <circle class="cls-2" cx="50" cy="50" r="29.93"/>
  <path class="cls-1" d="M63.26,36.15h-25.89c-1.08,0-1.96.88-1.96,1.96v16.31c0,1.08.88,1.96,1.96,1.96h9.17v2.59h-3.72c-1.27,0-2.3,1.03-2.3,2.3v1.43c0,.28.23.51.51.51h18.58c.28,0,.51-.23.51-.51v-1.43c0-1.27-1.03-2.3-2.3-2.3h-3.72v-2.59h9.17c1.08,0,1.96-.88,1.96-1.96v-16.31c0-1.08-.88-1.96-1.96-1.96ZM37.37,37.17h25.89c.52,0,.94.42.94.94v14.03h-27.77v-14.03c0-.52.42-.94.94-.94ZM59.09,61.28v.92h-17.56v-.92c0-.71.57-1.28,1.28-1.28h15c.71,0,1.28.57,1.28,1.28ZM53.07,58.97h-5.5v-2.59h5.5v2.59ZM63.26,55.36h-25.89c-.52,0-.94-.42-.94-.94v-1.26h27.77v1.26c0,.52-.42.94-.94.94Z"/>
</svg>