<?xml version="1.0" encoding="UTF-8"?>
<svg id="Camada_1" data-name="Camada 1" xmlns="http://www.w3.org/2000/svg" xmlns:xlink="http://www.w3.org/1999/xlink" viewBox="0 0 100 100">
  <defs>
    <style>
      .cls-1 {
        fill: none;
      }

      .cls-1, .cls-2, .cls-3 {
        stroke-width: 0px;
      }

      .cls-4 {
        clip-path: url(#clippath);
      }

      .cls-2 {
        fill: #fff;
      }

      .cls-3 {
        fill: #8b47fe;
      }
    </style>
    <clipPath id="clippath">
      <rect class="cls-1" x="31.73" y="32.04" width="35.91" height="35.91"/>
    </clipPath>
  </defs>
  <ellipse class="cls-3" cx="50" cy="50" rx="30.24" ry="29.93"/>
  <g class="cls-4">
    <g>
      <path class="cls-2" d="M52.11,57.79h-.6l.51-1.98c.05-.19.05-.39.01-.58-.04-.19-.12-.37-.24-.53-.12-.16-.28-.28-.45-.37s-.37-.13-.57-.13h-2.53c-.29,0-.57.11-.79.3-.21.2-.35.47-.37.75l-.38,4.26c-.01.16,0,.32.06.48.05.15.13.29.24.41.11.12.24.21.39.28.15.06.31.1.47.1h.8l-.18,3.1c-.02.23.05.45.17.64.13.19.32.33.54.39.22.07.46.07.68-.02.22-.08.4-.24.52-.44l2.72-4.89c.11-.18.17-.38.18-.59,0-.21-.04-.41-.14-.59-.1-.18-.25-.33-.43-.44-.18-.11-.38-.16-.59-.16ZM49.71,63.19l.18-2.97c0-.08,0-.16-.04-.24-.03-.08-.07-.15-.13-.21-.06-.06-.12-.11-.2-.14-.07-.03-.16-.05-.24-.05l-1.4.04.38-4.23h2.5s.03,0,.04.01c.01,0,.02.02.03.03,0,.01.02.03.02.04,0,.01,0,.03,0,.04l-.7,2.72c-.02.09-.02.18,0,.27.02.09.06.17.11.25.06.07.13.13.21.17.08.04.17.06.26.06l1.33-.03-2.36,4.23Z"/>
      <path class="cls-2" d="M49.68,32.04c-3.55,0-7.02,1.05-9.98,3.03-2.95,1.97-5.25,4.78-6.61,8.06-1.36,3.28-1.71,6.89-1.02,10.37.69,3.48,2.4,6.68,4.91,9.19,2.51,2.51,5.71,4.22,9.19,4.91,3.48.69,7.09.34,10.37-1.02,3.28-1.36,6.09-3.66,8.06-6.61,1.97-2.95,3.03-6.42,3.03-9.98,0-4.76-1.9-9.32-5.27-12.69-3.37-3.37-7.93-5.26-12.69-5.27ZM49.68,66.76c-3.31,0-6.55-.98-9.31-2.82-2.76-1.84-4.9-4.46-6.17-7.52-1.27-3.06-1.6-6.43-.95-9.68.65-3.25,2.24-6.24,4.59-8.58s5.33-3.94,8.58-4.59,6.62-.31,9.68.95c3.06,1.27,5.68,3.42,7.52,6.17,1.84,2.76,2.82,6,2.82,9.31,0,4.44-1.77,8.7-4.91,11.84-3.14,3.14-7.4,4.91-11.84,4.91Z"/>
      <path class="cls-2" d="M49.68,34.44c-3.98,0-7.8,1.52-10.69,4.24-2.89,2.73-4.63,6.46-4.87,10.43-.01.19.02.39.08.57.07.18.17.35.3.49.13.14.29.25.46.33.18.07.36.11.55.11h11.23c.14.68.5,1.28,1.04,1.72.53.44,1.2.68,1.89.68s1.36-.24,1.89-.68c.53-.44.9-1.05,1.04-1.72h11.23c.19,0,.38-.04.55-.11s.33-.19.46-.32c.13-.14.23-.31.3-.49.07-.18.1-.37.08-.57-.23-3.97-1.97-7.7-4.87-10.43-2.89-2.73-6.72-4.24-10.69-4.24ZM56.79,37.51l-5.05,8.08-.75-7c-.03-.32-.19-.61-.43-.83-.24-.21-.55-.33-.87-.33s-.63.12-.87.33c-.24.21-.39.51-.43.83l-.75,6.99-5.05-8.08c2.16-1.23,4.61-1.87,7.1-1.87s4.94.65,7.1,1.87h0ZM50.7,47.2c-.66-.25-1.38-.25-2.04,0l.91-8.48s.01-.09.11-.09.1.05.11.09l.91,8.48ZM35.38,49.34s-.04-.05-.05-.08c-.01-.03-.01-.06-.01-.09.13-2.2.76-4.33,1.84-6.24s2.59-3.55,4.41-4.79l5.86,9.37-.07.62c-.3.37-.51.8-.61,1.26h-11.23s-.05,0-.08-.02c-.03-.01-.05-.03-.07-.04ZM49.68,51.8c-.35,0-.7-.11-1-.3-.3-.2-.53-.48-.66-.81-.14-.33-.17-.69-.1-1.04.07-.35.24-.67.49-.92.25-.25.57-.42.92-.49.35-.07.71-.03,1.04.1.33.14.61.37.81.66.2.29.3.64.3,1,0,.48-.19.93-.53,1.27s-.79.53-1.27.53ZM63.99,49.34s-.04.03-.07.04c-.02.01-.05.02-.08.02h-11.23c-.1-.46-.31-.9-.61-1.26l-.07-.62,5.86-9.37c1.82,1.24,3.33,2.87,4.41,4.79,1.08,1.91,1.71,4.05,1.84,6.24,0,.03,0,.06-.01.09-.01.03-.03.06-.05.08Z"/>
    </g>
  </g>
</svg>