<?xml version="1.0" encoding="UTF-8"?>
<svg id="Camada_1" data-name="Camada 1" xmlns="http://www.w3.org/2000/svg" viewBox="0 0 100 100">
  <defs>
    <style>
      .cls-1 {
        fill: #fff;
      }

      .cls-1, .cls-2 {
        stroke-width: 0px;
      }

      .cls-2 {
        fill: #8b47fe;
      }
    </style>
  </defs>
  <circle class="cls-2" cx="50" cy="50" r="29.93"/>
  <path class="cls-1" d="M65.53,61.8l-7.76-7.76c1.83-2.24,2.94-5.1,2.94-8.22,0-7.17-5.83-12.99-12.99-12.99s-12.99,5.83-12.99,12.99,5.83,12.99,12.99,12.99c3.12,0,5.98-1.1,8.22-2.94l7.76,7.76c.51.51,1.33.51,1.84,0,.51-.51.51-1.33,0-1.84ZM37.32,45.83c0-5.73,4.66-10.4,10.4-10.4s10.4,4.66,10.4,10.4-4.66,10.4-10.4,10.4-10.4-4.66-10.4-10.4Z"/>
</svg>