<?xml version="1.0" encoding="UTF-8"?>
<svg id="Camada_1" data-name="Camada 1" xmlns="http://www.w3.org/2000/svg" viewBox="0 0 100 100">
  <defs>
    <style>
      .cls-1 {
        fill: #fff;
      }

      .cls-1, .cls-2 {
        stroke-width: 0px;
      }

      .cls-2 {
        fill: #8b47fe;
      }
    </style>
  </defs>
  <circle class="cls-2" cx="50" cy="50" r="29.93"/>
  <path class="cls-1" d="M50.53,67.96c-.1,0-.21-.01-.31-.04-.06-.01-.12-.03-.17-.06-4.03-1.61-7.44-4.36-9.88-7.96-2.43-3.6-3.72-7.79-3.72-12.13v-8.74c0-.52.31-.99.8-1.19.27-.11,6.58-2.65,13.28-2.65s13.02,2.55,13.28,2.65c.48.2.8.66.8,1.19v8.74c0,4.34-1.29,8.54-3.72,12.13-2.43,3.59-5.85,6.35-9.88,7.96-.06.02-.11.04-.17.06-.1.03-.21.04-.31.04ZM39.01,39.92v7.85c0,7.68,4.5,14.5,11.52,17.52,7.01-3.02,11.52-9.84,11.52-17.52v-7.85c-1.85-.66-6.65-2.17-11.52-2.17s-9.67,1.51-11.52,2.17Z"/>
  <path class="cls-1" d="M49.25,55.16c-.33,0-.66-.13-.9-.37l-3.84-3.84c-.5-.5-.5-1.31,0-1.81.5-.5,1.31-.5,1.81,0l2.93,2.93,6.77-6.77c.5-.5,1.31-.5,1.81,0,.5.5.5,1.31,0,1.81l-7.68,7.68c-.25.25-.58.37-.9.37Z"/>
</svg>