<?xml version="1.0" encoding="UTF-8"?>
<svg id="Camada_1" data-name="Camada 1" xmlns="http://www.w3.org/2000/svg" viewBox="0 0 100 100">
  <defs>
    <style>
      .cls-1 {
        fill: #fff;
      }

      .cls-1, .cls-2 {
        stroke-width: 0px;
      }

      .cls-2 {
        fill: #8b47fe;
      }
    </style>
  </defs>
  <circle class="cls-2" cx="50" cy="50" r="29.93"/>
  <path class="cls-1" d="M67.66,54.45c-.02-3.53-1.17-6.96-3.3-9.78-2.13-2.82-5.1-4.88-8.49-5.87.05-.26.05-.53-.02-.79-.07-.26-.19-.5-.36-.71-.17-.21-.39-.37-.63-.48s-.51-.17-.77-.16h-8.4c-.27,0-.53.05-.77.16-.24.11-.46.28-.63.48-.17.21-.29.45-.36.71-.07.26-.07.53-.02.79-3.39.99-6.36,3.04-8.49,5.86-2.12,2.81-3.28,6.24-3.31,9.77-.29-.02-.58.02-.86.12-.27.1-.53.25-.74.45-.21.2-.38.44-.5.71-.12.27-.18.56-.18.85v1.51c0,.56.22,1.1.62,1.5.4.4.94.62,1.5.62h35.44c.56,0,1.1-.22,1.5-.62.4-.4.62-.94.62-1.5v-1.51c0-.52-.19-1.02-.54-1.41-.35-.39-.82-.63-1.33-.69ZM43.91,40.28v9.66c0,.19.07.37.21.5s.31.21.5.21.37-.07.5-.21.21-.31.21-.5v-11.63c0-.11.15-.24.36-.24h3.49v12.85c0,.19.08.36.21.49.13.13.31.2.5.2s.36-.07.5-.2c.13-.13.21-.31.21-.49v-12.85h3.49c.21,0,.36.13.36.24v11.63c0,.19.07.37.21.5s.31.21.5.21.37-.07.5-.21.21-.31.21-.5v-9.66c3,.97,5.61,2.86,7.48,5.4,1.86,2.54,2.88,5.6,2.9,8.75h-32.71c.02-3.15,1.04-6.21,2.9-8.75,1.86-2.54,4.48-4.43,7.48-5.39ZM68.11,58.06c0,.19-.07.37-.21.5s-.31.21-.5.21H31.97c-.19,0-.37-.07-.5-.21s-.21-.31-.21-.5v-1.51c0-.19.07-.37.21-.5s.31-.21.5-.21h35.44c.19,0,.37.07.5.21s.21.31.21.5v1.51Z"/>
</svg>