<?xml version="1.0" encoding="UTF-8"?>
<svg id="Camada_1" data-name="Camada 1" xmlns="http://www.w3.org/2000/svg" viewBox="0 0 100 100">
  <defs>
    <style>
      .cls-1 {
        fill: #8b47fe;
        stroke-width: 0px;
      }
    </style>
  </defs>
  <path class="cls-1" d="M18.86,63.88c.51.25,1.07.43,1.64.53l-.89,1.25c-.18.25-.3.54-.34.85l-1.33,8.81c-.11.75.21,1.49.84,1.92.63.43,1.45.48,2.12.12l7.49-3.99c1.03,1.84,3.03,3.09,5.31,3.09,1.55,0,2.97-.58,4.04-1.52,1.07.95,2.49,1.52,4.04,1.52,3.34,0,6.06-2.68,6.06-5.97v-.76c3.76,1.8,7.95,2.75,12.13,2.75s8.6-.98,12.4-2.82v4.81c0,.69.36,1.33.96,1.69.59.36,1.34.4,1.97.09l8.09-3.98c.68-.34,1.12-1.03,1.12-1.78v-23.89c0-1.1-.91-1.99-2.02-1.99h-13.95l-14.26-6.87,5.42-7.62c.64-.9.42-2.14-.5-2.77l-6.62-4.57c-.91-.63-2.17-.41-2.81.49-.86,1.2-6.32,8.89-7.17,10.08-1.66-.86-3.65-.85-4.91-.31l-7.69,3.29c-1.11.48-2.05,1.26-2.7,2.27l-11.04,17.1c-.72,1.11-1.01,3.02-.43,4.74.51,1.51,1.59,2.74,3.04,3.45ZM22.53,71.96l.66-4.4,1.81-2.54c.77,1.11,1.83,2.02,3.06,2.63l-1.56,2.19-3.98,2.12ZM33.69,72.47c-1.11,0-2.02-.89-2.02-1.99v-.97l.72-1.02h3.32v1.99c0,1.1-.91,1.99-2.02,1.99ZM41.78,72.47c-1.11,0-2.02-.89-2.02-1.99v-1.99h4.04v1.99c0,1.1-.91,1.99-2.02,1.99ZM80.45,69.25l-4.04,1.99v-22.66h4.04v20.67ZM67.17,48.38c.28.13.58.2.89.2h4.31v16.66c-1.36.52-5.59,3.25-12.4,3.25-7.21,0-11.66-3.15-13.24-3.77-.29-.14-.61-.21-.9-.21h-14.15c-2.07,0-3.78-1.54-4.01-3.51.06-.29.06-.58,0-.87.2-2.01,1.93-3.58,4.02-3.58h12.47c4.23,0,8.2-1.62,11.19-4.57.79-.78.79-2.04,0-2.81-.79-.78-2.07-.78-2.86,0-2.23,2.19-5.18,3.4-8.33,3.4h-.43l8.2-11.53,15.25,7.35ZM47.26,33.69l3.31,2.28-11.79,16.58h-4.93c1.72-2.42,11.84-16.65,13.41-18.87ZM51.9,27.17l3.31,2.28-2.32,3.26-3.31-2.28,2.32-3.26ZM19.72,57.72l10.97-17c.22-.34.53-.6.9-.76l7.59-3.25c.34-.1.69-.1,1.01-.03l-11.76,16.54c-2.49,1.07-4.32,3.34-4.75,6.06-.37,1.02-1.98,1.54-3.02,1.02-.99-.48-1.38-1.64-.94-2.59Z"/>
</svg>