<?xml version="1.0" encoding="UTF-8"?>
<svg id="Camada_1" data-name="Camada 1" xmlns="http://www.w3.org/2000/svg" viewBox="0 0 100 100">
  <defs>
    <style>
      .cls-1 {
        fill: #8b47fe;
        stroke-width: 0px;
      }
    </style>
  </defs>
  <path class="cls-1" d="M78.28,70.18l-9.74-9.75c-1.07-1.07-2.77-1.07-3.87-.06l-2.88-2.88s0,0,0,0c6.64-8.91,5.95-21.61-2.12-29.7-8.78-8.83-23.19-8.97-32.16,0-8.83,8.86-8.83,23.25,0,32.13,7.86,7.82,20.79,9.15,30.23,1.69l2.85,2.85c-1.02,1.1-1.01,2.8.06,3.87l9.74,9.75c1.09,1.09,2.86,1.09,3.95,0l3.93-3.94c1.09-1.09,1.09-2.86,0-3.95ZM32.19,55.27c-6.31-6.33-6.31-16.53,0-22.84,6.3-6.31,16.51-6.31,22.84,0,6.28,6.31,6.28,16.51,0,22.84-6.33,6.28-16.54,6.28-22.84,0Z"/>
  <path class="cls-1" d="M35.18,42.85c-1.32,0-2.41,1.08-2.41,2.41v2.34c0,1.32,1.08,2.41,2.41,2.41s2.41-1.08,2.41-2.41v-2.34c0-1.32-1.06-2.41-2.41-2.41Z"/>
  <path class="cls-1" d="M43.6,35.22c-1.32,0-2.41,1.08-2.41,2.41v9.96c0,1.32,1.08,2.41,2.41,2.41s2.41-1.08,2.41-2.41v-9.96c0-1.32-1.06-2.41-2.41-2.41Z"/>
  <path class="cls-1" d="M52.03,38.96c-1.32,0-2.41,1.08-2.41,2.41v6.23c0,1.32,1.08,2.41,2.41,2.41s2.41-1.08,2.41-2.41v-6.23c0-1.32-1.06-2.41-2.41-2.41Z"/>
</svg>