<?xml version="1.0" encoding="UTF-8"?>
<svg id="Camada_1" data-name="Camada 1" xmlns="http://www.w3.org/2000/svg" viewBox="0 0 100 100">
  <defs>
    <style>
      .cls-1 {
        fill: #8b47fe;
        stroke-width: 0px;
      }
    </style>
  </defs>
  <path class="cls-1" d="M58.39,70.15h-.69c-.38,0-.75-.15-1.02-.42-.27-.27-.42-.64-.42-1.02s.15-.75.42-1.02c.27-.27.64-.42,1.02-.42h.69v-5.18c0-.32.11-.64.31-.89.2-.25.49-.43.8-.51,1.86-.42,3.63-1.14,5.25-2.14.28-.17.6-.25.93-.21.32.04.63.18.86.41l3.64,3.64,3.74-3.74-3.64-3.64c-.23-.23-.38-.53-.41-.86-.04-.32.04-.65.21-.93,1.01-1.61,1.74-3.38,2.16-5.24.07-.32.25-.6.5-.81s.57-.31.9-.31h5.15v-5.26h-5.15c-.33,0-.64-.11-.9-.31-.26-.2-.43-.49-.51-.81-.42-1.86-1.15-3.63-2.16-5.24-.17-.28-.25-.6-.21-.93.04-.32.18-.63.41-.86l3.64-3.64-3.74-3.74-3.64,3.64c-.23.23-.53.38-.86.41-.32.04-.65-.04-.93-.21-1.62-1-3.4-1.72-5.25-2.14-.32-.07-.6-.25-.8-.51-.2-.26-.31-.57-.31-.89v-5.18h-5.27v5.18c0,.33-.11.64-.31.9-.2.25-.48.43-.8.51-1.85.42-3.63,1.14-5.25,2.14-.28.17-.6.25-.93.21-.32-.04-.63-.18-.85-.41l-3.64-3.64-3.74,3.74,3.64,3.64c.23.23.38.53.41.86.04.32-.04.65-.21.93-1.01,1.61-1.74,3.38-2.16,5.24-.07.32-.25.6-.51.81-.26.2-.57.31-.9.31h-5.15v.69c0,.38-.15.75-.42,1.02-.27.27-.64.42-1.02.42s-.75-.15-1.02-.42c-.27-.27-.42-.64-.42-1.02v-.69c0-.76.3-1.5.84-2.04.54-.54,1.27-.84,2.04-.84h4.04c.4-1.4.96-2.74,1.66-4.02l-2.85-2.86c-.54-.54-.84-1.27-.84-2.04s.3-1.5.84-2.04l3.74-3.74c.27-.27.58-.48.93-.63.35-.14.72-.22,1.1-.22.38,0,.75.07,1.1.22.35.14.67.36.93.63l2.86,2.85c1.27-.68,2.62-1.23,4.01-1.63v-4.07c0-.76.3-1.5.84-2.04.54-.54,1.27-.84,2.04-.84h5.27c.76,0,1.5.3,2.04.84.54.54.84,1.27.84,2.04v4.07c1.39.4,2.74.94,4.01,1.63l2.85-2.85c.27-.27.59-.48.93-.62.35-.14.72-.22,1.1-.22s.75.07,1.1.22c.35.14.67.36.93.62l3.73,3.74c.54.54.84,1.27.84,2.04s-.3,1.49-.84,2.04l-2.85,2.85c.7,1.27,1.26,2.61,1.67,4.01h4.03c.76,0,1.5.3,2.04.84s.84,1.27.84,2.04v5.27c0,.76-.3,1.5-.84,2.04-.54.54-1.27.84-2.04.84h-4.03c-.4,1.39-.96,2.74-1.66,4.02l2.85,2.85c.54.54.84,1.27.84,2.04s-.3,1.5-.84,2.04l-3.74,3.74c-.54.54-1.27.84-2.04.84s-1.5-.3-2.04-.84l-2.86-2.86c-1.27.69-2.62,1.23-4.01,1.63v4.06c0,.76-.3,1.49-.84,2.03-.54.54-1.27.84-2.03.85Z"/>
  <path class="cls-1" d="M55.76,54.76c-.38,0-.75-.15-1.03-.42-.27-.27-.43-.64-.44-1.02,0-.19.03-.38.1-.55.07-.17.18-.33.31-.47.13-.13.29-.24.46-.31.17-.07.36-.11.55-.11h.04c1.51,0,2.99-.45,4.25-1.29,1.26-.84,2.24-2.03,2.82-3.43.58-1.4.73-2.93.43-4.42-.3-1.48-1.02-2.85-2.09-3.91-1.07-1.07-2.43-1.8-3.91-2.09-1.48-.3-3.02-.14-4.42.43-1.4.58-2.59,1.56-3.43,2.81-.84,1.26-1.29,2.74-1.29,4.25,0,.38-.15.75-.42,1.03-.27.27-.64.43-1.02.43-.19,0-.37-.03-.55-.1-.17-.07-.33-.17-.47-.31s-.24-.29-.31-.46c-.07-.17-.11-.36-.11-.55,0-2.08.6-4.12,1.75-5.86,1.15-1.74,2.79-3.09,4.71-3.9,1.92-.8,4.04-1.02,6.08-.62,2.04.4,3.92,1.4,5.4,2.87,1.48,1.47,2.48,3.35,2.89,5.39.41,2.04.2,4.16-.59,6.09-.79,1.92-2.14,3.57-3.87,4.73-1.73,1.16-3.77,1.78-5.85,1.78Z"/>
  <path class="cls-1" d="M38.48,81.67h-2.88c-.76,0-1.5-.3-2.04-.84-.54-.54-.84-1.27-.84-2.04v-2.13c-.8-.25-1.58-.56-2.33-.95l-1.5,1.5c-.54.54-1.27.84-2.04.84s-1.5-.3-2.04-.84l-2.04-2.04c-.54-.54-.84-1.27-.84-2.04s.3-1.5.84-2.04l1.49-1.49c-.39-.75-.71-1.53-.97-2.33h-2.11c-.76,0-1.5-.3-2.04-.84-.54-.54-.84-1.27-.84-2.04v-2.88c0-.76.3-1.5.84-2.04.54-.54,1.27-.84,2.04-.84h2.11c.25-.8.58-1.58.97-2.33l-1.5-1.49c-.54-.54-.84-1.27-.84-2.04s.3-1.5.84-2.04l2.04-2.04c.54-.54,1.27-.84,2.04-.84s1.5.3,2.04.84l1.5,1.5c.75-.38,1.52-.7,2.33-.95v-2.14c0-.76.3-1.5.84-2.04.54-.54,1.27-.84,2.04-.84h2.88c.76,0,1.5.3,2.04.84.54.54.84,1.27.84,2.04v2.14c.8.25,1.58.56,2.33.95l1.5-1.5c.54-.54,1.27-.84,2.04-.84s1.5.3,2.04.84l2.04,2.04c.54.54.84,1.27.84,2.04s-.3,1.5-.84,2.04l-1.49,1.49c.39.75.71,1.53.97,2.33h2.11c.76,0,1.5.3,2.04.84.54.54.84,1.27.84,2.04v2.88c0,.76-.3,1.5-.84,2.04-.54.54-1.27.84-2.04.84h-2.11c-.25.8-.58,1.59-.97,2.33l1.5,1.49c.54.54.84,1.27.84,2.04s-.3,1.5-.84,2.04l-2.04,2.04c-.54.54-1.27.84-2.04.84s-1.5-.3-2.04-.84l-1.5-1.5c-.75.38-1.53.7-2.33.95v2.13c0,.76-.3,1.5-.84,2.04-.54.54-1.27.84-2.04.84ZM30.15,72.48c.27,0,.54.08.77.22,1.1.68,2.31,1.17,3.57,1.45.32.07.6.25.8.51.2.26.31.57.31.9v3.24h2.88v-3.24c0-.33.11-.64.31-.9s.49-.43.8-.51c1.26-.28,2.47-.77,3.57-1.45.28-.17.6-.25.93-.21.32.04.63.18.86.41l2.27,2.27,2.04-2.04-2.27-2.27c-.23-.23-.38-.53-.41-.86-.04-.32.04-.65.21-.93.69-1.1,1.19-2.3,1.49-3.56.07-.32.25-.6.5-.8.25-.2.57-.31.89-.32h3.21v-2.88h-3.21c-.33,0-.64-.11-.9-.31-.26-.2-.43-.49-.5-.81-.29-1.26-.79-2.47-1.48-3.56-.17-.28-.25-.6-.21-.93.04-.32.18-.63.41-.86l2.27-2.27-2.04-2.04-2.27,2.27c-.23.23-.53.38-.86.41s-.65-.04-.93-.21c-1.1-.68-2.3-1.17-3.57-1.45-.32-.07-.6-.25-.8-.51-.2-.26-.31-.57-.31-.9v-3.24h-2.88v3.24c0,.33-.11.64-.31.9-.2.25-.49.43-.8.51-1.26.28-2.47.77-3.57,1.45-.28.17-.6.25-.93.21s-.63-.18-.86-.41l-2.27-2.27-2.04,2.04,2.27,2.27c.23.23.38.53.41.86.04.32-.04.65-.21.93-.69,1.1-1.19,2.3-1.48,3.56-.07.32-.25.6-.51.81-.26.2-.57.31-.9.31h-3.21v2.88h3.21c.33,0,.64.11.9.31.26.2.43.49.51.81.29,1.26.79,2.47,1.48,3.56.17.28.25.6.21.93-.04.32-.18.63-.41.86l-2.27,2.27,2.04,2.04,2.27-2.27c.27-.27.64-.42,1.02-.42Z"/>
  <path class="cls-1" d="M37.04,70.15c-1.42,0-2.81-.42-4-1.21s-2.11-1.92-2.65-3.23c-.55-1.32-.69-2.76-.41-4.16.28-1.4.96-2.68,1.97-3.69,1.01-1.01,2.29-1.69,3.69-1.97,1.4-.28,2.84-.14,4.16.41,1.31.55,2.44,1.47,3.23,2.65.79,1.18,1.21,2.57,1.21,4,0,1.91-.76,3.74-2.11,5.09-1.35,1.35-3.18,2.11-5.09,2.11ZM37.04,58.64c-.85,0-1.69.25-2.4.73-.71.47-1.26,1.15-1.59,1.94-.33.79-.41,1.66-.25,2.5.17.84.58,1.61,1.18,2.21.6.6,1.37,1.01,2.21,1.18.84.17,1.71.08,2.49-.25s1.46-.88,1.94-1.59c.47-.71.73-1.55.73-2.4,0-1.15-.46-2.24-1.27-3.05-.81-.81-1.91-1.27-3.05-1.27Z"/>
</svg>