<?xml version="1.0" encoding="UTF-8"?>
<svg id="Camada_1" data-name="Camada 1" xmlns="http://www.w3.org/2000/svg" viewBox="0 0 100 100">
  <defs>
    <style>
      .cls-1 {
        fill: #8b47fe;
        stroke-width: 0px;
      }
    </style>
  </defs>
  <path class="cls-1" d="M90.48,40.89h-13.2l-6.73,6.73h-8.01c-1.2-13.54-12.61-24.19-26.46-24.19-14.65,0-26.56,11.92-26.56,26.57s11.92,26.57,26.56,26.57c13.85,0,25.25-10.65,26.46-24.19h8.16l6.58,6.58h13.2v-4.95l-3.14-4.02,3.14-3.94v-5.16ZM36.08,71.82c-12.03,0-21.82-9.79-21.82-21.82s9.79-21.82,21.82-21.82c11.23,0,20.5,8.53,21.69,19.45h-4.95c-1.16-8.2-8.22-14.53-16.74-14.53-9.32,0-16.9,7.58-16.9,16.91s7.58,16.91,16.9,16.91c8.52,0,15.58-6.33,16.74-14.53h4.95c-1.19,10.92-10.46,19.45-21.69,19.45ZM43.17,47.63c-.99-2.97-3.8-5.11-7.09-5.11-4.13,0-7.48,3.36-7.48,7.48s3.36,7.48,7.48,7.48c3.3,0,6.1-2.14,7.09-5.11h4.83c-1.11,5.57-6.03,9.79-11.92,9.79-6.7,0-12.16-5.46-12.16-12.16s5.46-12.16,12.16-12.16c5.89,0,10.82,4.22,11.92,9.79h-4.83ZM38.82,50c0,1.51-1.23,2.74-2.74,2.74s-2.74-1.23-2.74-2.74,1.23-2.74,2.74-2.74,2.74,1.23,2.74,2.74ZM84.62,54.21h-5.38l-4.28-4.28,4.28-4.28h5.5l-3.44,4.32,3.32,4.25Z"/>
</svg>