<?xml version="1.0" encoding="UTF-8"?>
<svg id="Camada_1" data-name="Camada 1" xmlns="http://www.w3.org/2000/svg" viewBox="0 0 100 100">
  <defs>
    <style>
      .cls-1 {
        fill: #43eae8;
        stroke-width: 0px;
      }
    </style>
  </defs>
  <path class="cls-1" d="M82.44,10.34H17.54c-3.58,0-6.49,2.98-6.49,6.64,0,5.16,0-18.68,0,50.45,0,3.66,2.91,6.64,6.49,6.64h35.78c.9,0,1.62-.74,1.62-1.66s-.73-1.66-1.62-1.66H17.55c-1.79,0-3.25-1.49-3.25-3.32V27.55h71.4v39.88c0,1.83-1.46,3.32-3.24,3.32h-7.09c-.9,0-1.62.74-1.62,1.66s.73,1.66,1.62,1.66h7.09c3.58,0,6.49-2.98,6.49-6.64V16.99c0-3.69-2.94-6.65-6.51-6.65ZM39.44,24.23H14.31v-7.24c0-1.83,1.46-3.32,3.25-3.32h21.88v10.56ZM85.69,24.23h-43.01v-10.56h39.78c1.77,0,3.23,1.48,3.23,3.32v7.24Z"/>
  <path class="cls-1" d="M20.2,20.6h.64c.9,0,1.62-.74,1.62-1.66s-.73-1.66-1.62-1.66h-.64c-.9,0-1.62.74-1.62,1.66s.73,1.66,1.62,1.66Z"/>
  <path class="cls-1" d="M26.55,20.6h.64c.9,0,1.62-.74,1.62-1.66s-.73-1.66-1.62-1.66h-.64c-.9,0-1.62.74-1.62,1.66s.73,1.66,1.62,1.66Z"/>
  <path class="cls-1" d="M32.89,20.6h.64c.9,0,1.62-.74,1.62-1.66s-.73-1.66-1.62-1.66h-.64c-.9,0-1.62.74-1.62,1.66s.72,1.66,1.62,1.66Z"/>
  <path class="cls-1" d="M78.04,17.28h-27.7c-.9,0-1.62.74-1.62,1.66s.73,1.66,1.62,1.66h27.7c.9,0,1.62-.74,1.62-1.66s-.73-1.66-1.62-1.66Z"/>
  <path class="cls-1" d="M57.87,83.05c0,3.64,2.91,6.61,6.49,6.61s6.58-3.09,6.47-6.82c0,0,0,0,0,0l-.54-16.46c6.93-2.51,11.92-9.27,11.92-17.22,0-10.08-8.01-18.28-17.85-18.28s-17.86,8.2-17.86,18.28c0,7.94,4.98,14.69,11.9,17.21-.06,1.9.21-6.5-.53,16.69ZM64.36,86.34c-1.79,0-3.24-1.48-3.24-3.29.16-5.1.52-16.45.5-15.83,1.8.29,3.74.27,5.45,0l.52,15.72c.05,1.86-1.4,3.4-3.23,3.4ZM49.74,49.15c0-8.25,6.56-14.96,14.62-14.96s14.6,6.71,14.6,14.96c0,6.91-4.61,12.73-10.84,14.44-2.42.69-5.17.64-7.41.03-6.3-1.67-10.97-7.51-10.97-14.47Z"/>
  <path class="cls-1" d="M19.87,63.54h-.7c-.9,0-1.62.74-1.62,1.66s.73,1.66,1.62,1.66h24.53c.9,0,1.62-.74,1.62-1.66s-.73-1.66-1.62-1.66h-.7v-20.47c0-.92-.73-1.66-1.62-1.66s-1.62.74-1.62,1.66v20.47h-3.38v-10.93c0-.92-.73-1.66-1.62-1.66s-1.62.74-1.62,1.66v10.93h-3.38v-14.9c0-.92-.73-1.66-1.62-1.66s-1.62.74-1.62,1.66v14.9h-3.38v-8.14c0-.92-.73-1.66-1.62-1.66s-1.62.74-1.62,1.66v8.14Z"/>
  <path class="cls-1" d="M28.68,37.39c-.34-.29-.78-.41-1.22-.37-.44.05-.84.29-1.1.65l-6.16,8.36c-.54.73-.4,1.77.32,2.33.71.55,1.73.41,2.27-.33l5.14-6.98,5.32,4.48c.36.3.82.43,1.28.36.46-.07.86-.34,1.11-.74l5.02-7.88c.33.66,1.03,1.05,1.77.89.88-.19,1.44-1.07,1.25-1.97l-.71-3.43c-.1-.49-.53-.95-.7-1.06-.26-.17-.75-.34-1.23-.23l-3.35.72c-.88.19-1.44,1.07-1.25,1.97.16.76.79,1.25,1.51,1.29l-4.03,6.33-5.23-4.4Z"/>
  <path class="cls-1" d="M65.12,53.25c.34.31.79.46,1.24.41.45-.05.87-.29,1.14-.66l6.66-9.14c.54-.74.39-1.78-.33-2.32-.72-.55-1.74-.4-2.27.34l-5.6,7.69-3.77-3.43c-.35-.32-.82-.47-1.29-.41-.47.06-.88.33-1.14.73l-5.24,8.05c-.5.76-.29,1.79.45,2.3.75.51,1.76.3,2.25-.46l4.21-6.46,3.7,3.36Z"/>
</svg>