<?xml version="1.0" encoding="UTF-8"?>
<svg id="Camada_1" data-name="Camada 1" xmlns="http://www.w3.org/2000/svg" viewBox="0 0 100 100">
  <defs>
    <style>
      .cls-1 {
        fill: #43eae8;
        stroke-width: 0px;
      }
    </style>
  </defs>
  <path class="cls-1" d="M38.22,49.95c-.76-.53-1.81-.33-2.33.43-.06.09-5.99,8.71-11.43,16.07-1.48.53-2.63.55-3.42.04-1.05-.67-1.48-2.25-1.62-3.22l22.31-30.81c1.52,1.03,3.06,2.11,4.57,3.2l-4.52,6.29c-.54.75-.37,1.8.38,2.34.3.21.64.32.98.32.52,0,1.04-.24,1.37-.7l4.49-6.25c4.7,3.58,9.01,7.33,11.88,10.81.09.12.2.22.33.3.26.18,2.22,1.51,4.31,1.51.49,0,1-.07,1.48-.26.93-.35,2.15-1.21,2.68-3.34.06-.24.07-.49.02-.74-.54-2.69-3.38-8.56-7.58-14.12-1.27-1.68-2.82-3.54-4.64-5.38.11-.09.22-.19.3-.31.89-1.29-.47-3.76-3.02-5.51-2.39-1.64-4.99-2.08-6.04-1.07-1.74-1.01-3.61-1.89-5.59-2.58-.88-.3-1.83.16-2.14,1.04-.3.88.16,1.83,1.04,2.14,7.88,2.72,13.81,8.95,17.4,13.7,3.86,5.1,6.28,10.17,6.88,12.37-.11.29-.26.57-.49.65-.57.22-1.77-.27-2.52-.74-3.26-3.9-8.21-8.1-13.51-12.04-.06-.06-.13-.12-.2-.17-.06-.04-.12-.08-.18-.11-2.3-1.7-4.67-3.35-6.98-4.9-.05-.04-.1-.08-.15-.12-.09-.06-.18-.12-.28-.16-7.32-4.87-14.08-8.71-16.81-10-.41-.59-.58-1.09-.49-1.41.11-.38.64-.72,1-.88h5.95c.93,0,1.68-.75,1.68-1.68s-.75-1.68-1.68-1.68h-6.27c-.17,0-.35.03-.51.08-.27.09-2.69.92-3.38,3.17-.46,1.5-.03,3.11,1.28,4.78.17.22.39.39.64.5,2.21.98,8.49,4.49,15.49,9.08l-22.61,31.22c-.22.3-.33.67-.32,1.04.02.46.24,4.53,3.2,6.44.94.61,2.02.92,3.21.92s2.38-.28,3.73-.83c.29-.12.53-.31.72-.56,5.55-7.49,11.73-16.47,11.79-16.56.53-.76.33-1.81-.43-2.33Z"/>
  <path class="cls-1" d="M83.52,50.55l-5.12-5.22v-9.32c2.89-.75,5.04-3.38,5.04-6.5,0-3.7-3.01-6.72-6.72-6.72s-6.72,3.01-6.72,6.72c0,3.12,2.14,5.76,5.04,6.5v10.01c0,.44.17.86.48,1.18l5.12,5.22v22.71c0,.93.75,1.68,1.68,1.68s1.68-.75,1.68-1.68v-23.39c0-.44-.17-.86-.48-1.18ZM73.37,29.5c0-1.85,1.51-3.36,3.36-3.36s3.36,1.51,3.36,3.36-1.51,3.36-3.36,3.36-3.36-1.51-3.36-3.36Z"/>
  <path class="cls-1" d="M66.54,84.03l-5.13-4.2c-.3-.25-.68-.38-1.06-.38h-9.09c-.07,0-.13,0-.19.01-.41-3.31-3.24-5.89-6.66-5.89-3.7,0-6.72,3.01-6.72,6.72s3.01,6.72,6.72,6.72c2.85,0,5.3-1.79,6.27-4.31.18.07.38.11.59.11h8.5l4.66,3.82c.31.26.69.38,1.06.38.49,0,.97-.21,1.3-.62.59-.72.48-1.78-.24-2.36ZM44.4,83.65c-1.85,0-3.36-1.51-3.36-3.36s1.51-3.36,3.36-3.36,3.36,1.51,3.36,3.36-1.51,3.36-3.36,3.36Z"/>
  <path class="cls-1" d="M64.28,65.33c.53-.96.83-2.06.83-3.22,0-3.7-3.01-6.72-6.72-6.72s-6.72,3.01-6.72,6.72,3.01,6.72,6.72,6.72c1.32,0,2.55-.38,3.59-1.04l8.16,7.81v5.27c0,.93.75,1.68,1.68,1.68s1.68-.75,1.68-1.68v-5.98c0-.46-.19-.9-.52-1.21l-8.7-8.33ZM58.4,65.46c-1.85,0-3.36-1.51-3.36-3.36s1.51-3.36,3.36-3.36,3.36,1.51,3.36,3.36-1.51,3.36-3.36,3.36Z"/>
</svg>