<?xml version="1.0" encoding="UTF-8"?>
<svg id="Camada_1" data-name="Camada 1" xmlns="http://www.w3.org/2000/svg" xmlns:xlink="http://www.w3.org/1999/xlink" viewBox="0 0 100 100">
  <defs>
    <style>
      .cls-1, .cls-2 {
        fill: none;
        stroke: #43eae8;
        stroke-linejoin: round;
        stroke-width: 4px;
      }

      .cls-2 {
        stroke-linecap: round;
      }

      .cls-3 {
        fill: #fff;
        stroke-width: 0px;
      }

      .cls-4 {
        mask: url(#mask);
      }
    </style>
    <mask id="mask" x="9.18" y="9.6" width="81.65" height="80.8" maskUnits="userSpaceOnUse">
      <g id="mask0_1734_2729" data-name="mask0 1734 2729">
        <path class="cls-3" d="M9.6,9.6h80.8v80.8H9.6V9.6Z"/>
      </g>
    </mask>
  </defs>
  <g class="cls-4">
    <g>
      <path class="cls-1" d="M88.82,29.49c0-3.07-3.17-5.89-8.48-8.11-7.11-2.98-18.06-4.89-30.34-4.89s-23.23,1.91-30.34,4.89c-5.31,2.23-8.48,5.04-8.48,8.11"/>
      <path class="cls-1" d="M64.13,49.21c6.41.84,11.99,2.23,16.21,4"/>
      <path class="cls-1" d="M19.66,53.21c4.23-1.77,9.81-3.16,16.21-4"/>
      <path class="cls-2" d="M42.9,83.51h-14.21v-9.28c0-5.2,4.22-9.42,9.42-9.42h4.87v-3.75"/>
      <path class="cls-2" d="M57.01,61.06v3.75h4.87c5.21,0,9.42,4.22,9.42,9.42v9.28h-14.3"/>
      <path class="cls-1" d="M64.13,49.21c-.15,5.08-2.97,9.48-7.11,11.85-2.07,1.19-4.46,1.86-7.01,1.86s-4.95-.68-7.01-1.86c-4.14-2.37-6.97-6.77-7.11-11.85"/>
      <path class="cls-1" d="M36.28,35.92c1.53-6.15,7.09-10.7,13.71-10.7,3.9,0,7.44,1.58,9.99,4.14,1.78,1.78,3.09,4.03,3.72,6.56"/>
      <path class="cls-1" d="M66.02,37.81v9.51c0,1.04-.84,1.89-1.88,1.89h-8.7c-.52,0-1.01-.21-1.37-.59l-4.06-4.28-4.06,4.28c-.36.38-.85.59-1.37.59h-8.7c-1.04,0-1.89-.84-1.89-1.89v-9.51c0-1.04.84-1.88,1.89-1.88h28.27c1.04,0,1.88.84,1.88,1.88Z"/>
      <path class="cls-1" d="M57.01,64.8v2.1c0,.5-.2.98-.56,1.34-.99.99-3.21,2.76-6.46,2.76-.46,0-3.89-.06-6.49-2.78-.34-.35-.52-.82-.52-1.3v-2.12"/>
      <path class="cls-2" d="M61.31,83.51v-6.65"/>
      <path class="cls-2" d="M38.69,76.86v6.65"/>
      <path class="cls-2" d="M48.3,55.39c.26.12.92.4,1.8.38.77-.02,1.33-.25,1.59-.38"/>
      <path class="cls-1" d="M80.34,53.21v-15.6c5.31-2.23,8.48-5.04,8.48-8.11v31.83c0,3.07-3.17,5.89-8.48,8.11v-16.23Z"/>
      <path class="cls-1" d="M19.66,53.21v-15.6c-5.31-2.23-8.48-5.04-8.48-8.11v31.83c0,3.07,3.17,5.89,8.48,8.11v-16.23Z"/>
    </g>
  </g>
</svg>