<?xml version="1.0" encoding="UTF-8"?>
<svg id="Camada_1" data-name="Camada 1" xmlns="http://www.w3.org/2000/svg" viewBox="0 0 100 100">
  <defs>
    <style>
      .cls-1 {
        fill: #43eae8;
        stroke-width: 0px;
      }
    </style>
  </defs>
  <path class="cls-1" d="M32.08,40.14c.24,0,.47-.04.69-.13.22-.09.42-.22.59-.39.17-.17.3-.36.39-.58.09-.22.14-.45.14-.69s-.05-.47-.14-.69c-.09-.22-.22-.42-.39-.58-.17-.17-.37-.3-.59-.39-.22-.09-.45-.13-.69-.13h-2.68v-2.68c0-.48-.19-.93-.53-1.27s-.79-.52-1.27-.52-.93.19-1.27.52c-.34.34-.52.79-.52,1.27v2.68h-2.69c-.24,0-.47.04-.69.13-.22.09-.42.22-.59.39-.17.17-.3.36-.39.58-.09.22-.14.45-.14.69s.05.47.14.69c.09.22.22.42.39.58.17.17.37.3.59.39.22.09.45.13.69.13h2.69v2.68c0,.48.19.93.52,1.27.34.34.79.52,1.27.52s.93-.19,1.27-.52.53-.79.53-1.27v-2.68h2.68Z"/>
  <path class="cls-1" d="M72.4,35.66c.99,0,1.79-.8,1.79-1.79s-.8-1.79-1.79-1.79-1.79.8-1.79,1.79.8,1.79,1.79,1.79Z"/>
  <path class="cls-1" d="M72.4,44.62c.99,0,1.79-.8,1.79-1.79s-.8-1.79-1.79-1.79-1.79.8-1.79,1.79.8,1.79,1.79,1.79Z"/>
  <path class="cls-1" d="M76.87,40.14c.99,0,1.79-.8,1.79-1.79s-.8-1.79-1.79-1.79-1.79.8-1.79,1.79.8,1.79,1.79,1.79Z"/>
  <path class="cls-1" d="M67.92,40.14c.99,0,1.79-.8,1.79-1.79s-.8-1.79-1.79-1.79-1.79.8-1.79,1.79.8,1.79,1.79,1.79Z"/>
  <path class="cls-1" d="M36.56,46.41c-1.24,0-2.45.37-3.48,1.06s-1.83,1.67-2.31,2.81c-.47,1.15-.6,2.41-.36,3.62.24,1.22.84,2.33,1.72,3.21.88.88,1.99,1.47,3.21,1.72,1.22.24,2.48.12,3.62-.36,1.15-.47,2.13-1.28,2.82-2.31.69-1.03,1.06-2.24,1.06-3.48,0-1.66-.66-3.26-1.84-4.43-1.18-1.18-2.77-1.84-4.43-1.84ZM36.56,55.37c-.53,0-1.05-.16-1.49-.45-.44-.29-.79-.71-.99-1.21-.2-.49-.26-1.03-.15-1.55.1-.52.36-1,.74-1.38.38-.38.85-.63,1.38-.73.52-.1,1.06-.05,1.55.15.49.2.91.55,1.21.99.3.44.45.96.45,1.49,0,.71-.28,1.4-.79,1.9-.5.5-1.19.79-1.9.79Z"/>
  <path class="cls-1" d="M63.44,46.41c-1.24,0-2.45.37-3.48,1.06-1.03.69-1.84,1.67-2.31,2.81-.47,1.15-.6,2.41-.36,3.62.24,1.22.84,2.33,1.72,3.21.88.88,1.99,1.47,3.21,1.72,1.22.24,2.48.12,3.62-.36,1.15-.47,2.13-1.28,2.82-2.31.69-1.03,1.06-2.24,1.06-3.48,0-1.66-.66-3.26-1.84-4.43-1.18-1.18-2.77-1.84-4.43-1.84ZM63.44,55.37c-.53,0-1.05-.16-1.49-.45-.44-.29-.79-.71-.99-1.21-.2-.49-.26-1.03-.15-1.55.1-.52.36-1,.74-1.38.38-.38.86-.63,1.38-.73.52-.1,1.06-.05,1.55.15.49.2.91.55,1.21.99.3.44.45.96.45,1.49,0,.71-.28,1.4-.79,1.9s-1.19.79-1.9.79Z"/>
  <path class="cls-1" d="M46.42,41.04h-1.79c-.24,0-.47.04-.69.13-.22.09-.42.22-.59.39-.17.17-.3.36-.39.58-.09.22-.14.45-.14.69s.05.47.14.69c.09.22.22.42.39.58.17.17.37.3.59.39.22.09.45.13.69.13h1.79c.47,0,.92-.2,1.26-.53.33-.33.52-.79.52-1.26s-.19-.93-.52-1.26c-.33-.34-.78-.53-1.26-.53Z"/>
  <path class="cls-1" d="M55.37,41.04h-1.79c-.47,0-.92.2-1.26.53-.33.33-.52.79-.52,1.26s.19.93.52,1.26c.33.34.78.53,1.26.53h1.79c.24,0,.47-.04.69-.13.22-.09.42-.22.59-.39.17-.17.3-.36.39-.58.09-.22.14-.45.14-.69s-.05-.47-.14-.69c-.09-.22-.23-.42-.39-.58-.17-.17-.37-.3-.59-.39-.22-.09-.46-.13-.69-.13Z"/>
  <path class="cls-1" d="M86.7,33.41c-1.12-4.18-3.85-7.73-7.59-9.9-3.74-2.16-8.19-2.75-12.36-1.63-2.96.79-6.7,3.35-8.68,5.94-.18.21-.4.39-.65.5-.25.12-.53.17-.8.17h-13.21c-.28,0-.55-.05-.81-.17-.25-.12-.47-.29-.65-.5-1.99-2.59-5.72-5.15-8.68-5.94-4.18-1.12-8.62-.53-12.37,1.63-3.74,2.16-6.47,5.72-7.59,9.9-7.33,27.35-5.74,42.02,4.85,44.86,6.57,1.76,12.55-2.33,17.79-12.17.21.01.42.02.62.02,3.39.01,6.65-1.27,9.12-3.58h8.63c2.47,2.31,5.74,3.59,9.12,3.58.2,0,.41,0,.62-.02,4.45,8.36,9.44,12.57,14.87,12.57.99,0,1.97-.14,2.92-.4,10.59-2.84,12.18-17.51,4.85-44.86ZM80.92,74.81c-4.95,1.33-9.73-2.52-14.24-11.42-.17-.33-.44-.61-.77-.78-.33-.17-.71-.24-1.08-.19-.46.07-.93.11-1.4.11-1.33,0-2.64-.26-3.86-.79-1.22-.52-2.32-1.29-3.24-2.25-.17-.17-.37-.31-.59-.41-.22-.1-.46-.14-.7-.14h-10.09c-.24,0-.48.05-.7.14-.22.09-.42.23-.59.41-.92.96-2.02,1.73-3.24,2.25-1.22.52-2.53.79-3.86.79-.47,0-.93-.04-1.4-.11-.37-.05-.75.02-1.08.19-.33.17-.6.44-.77.78-4.51,8.9-9.3,12.75-14.24,11.42-8.03-2.15-8.83-16.15-2.32-40.47.72-2.7,2.32-5.08,4.53-6.79,2.22-1.7,4.93-2.63,7.72-2.64,1.12,0,2.23.15,3.31.44,2.22.6,5.25,2.68,6.76,4.66.51.65,1.17,1.18,1.91,1.53.74.36,1.56.54,2.39.54h13.2c.83,0,1.65-.18,2.39-.54.75-.36,1.4-.88,1.91-1.53,1.51-1.97,4.55-4.06,6.76-4.66,3.26-.87,6.73-.42,9.65,1.27,2.92,1.69,5.05,4.46,5.92,7.72,6.52,24.33,5.72,38.32-2.32,40.47Z"/>
</svg>