<?xml version="1.0" encoding="UTF-8"?>
<svg id="Camada_1" data-name="Camada 1" xmlns="http://www.w3.org/2000/svg" viewBox="0 0 100 100">
  <defs>
    <style>
      .cls-1 {
        fill: #43eae8;
        stroke-width: 0px;
      }
    </style>
  </defs>
  <path class="cls-1" d="M50,64.29c.91,0,1.64-.73,1.64-1.64s-.73-1.64-1.64-1.64-1.64.73-1.64,1.64.73,1.64,1.64,1.64Z"/>
  <path class="cls-1" d="M85.42,12.76H14.58c-3.62,0-6.57,2.95-6.57,6.57v45.89c0,3.62,2.95,6.57,6.57,6.57h26.38l-1.84,5.66c-2.33.39-4.11,2.42-4.11,4.86,0,2.72,2.21,4.93,4.93,4.93h20.1c2.72,0,4.93-2.21,4.93-4.93,0-2.44-1.78-4.47-4.11-4.86l-1.84-5.66h26.38c3.62,0,6.57-2.95,6.57-6.57V19.33c0-3.62-2.95-6.57-6.57-6.57ZM61.69,82.31c0,.91-.74,1.64-1.64,1.64h-20.1c-.91,0-1.64-.74-1.64-1.64s.74-1.64,1.64-1.64h20.1c.91,0,1.64.74,1.64,1.64ZM57.4,77.38h-14.79l1.82-5.59h11.16l1.82,5.59ZM88.71,65.22c0,1.81-1.48,3.29-3.29,3.29H14.58c-1.81,0-3.29-1.47-3.29-3.29V19.33c0-1.81,1.47-3.29,3.29-3.29h70.83c1.81,0,3.29,1.47,3.29,3.29v45.89h0Z"/>
  <path class="cls-1" d="M80.39,20.25H19.61c-2.27,0-4.11,1.84-4.11,4.11v35.83c0,2.27,1.84,4.11,4.11,4.11h23.02c.91,0,1.64-.74,1.64-1.64s-.74-1.64-1.64-1.64h-23.02c-.45,0-.82-.37-.82-.82V24.36c0-.45.37-.82.82-.82h60.78c.45,0,.82.37.82.82v35.83c0,.45-.37.82-.82.82h-23.02c-.91,0-1.64.74-1.64,1.64s.74,1.64,1.64,1.64h23.02c2.26,0,4.11-1.84,4.11-4.11V24.36c0-2.27-1.84-4.11-4.11-4.11Z"/>
  <path class="cls-1" d="M40.48,36.35v-5.45c0-2.27-1.84-4.11-4.11-4.11h-8.84c-2.27,0-4.11,1.84-4.11,4.11v5.45c0,2.27,1.84,4.11,4.11,4.11h8.84c2.27,0,4.11-1.84,4.11-4.11ZM37.2,36.35c0,.45-.37.82-.82.82h-8.84c-.45,0-.82-.37-.82-.82v-5.45c0-.45.37-.82.82-.82h8.84c.45,0,.82.37.82.82v5.45Z"/>
  <path class="cls-1" d="M75.54,43.83c-.15-.57-.6-1.01-1.16-1.16l-12.07-3.23c-.57-.15-1.17.01-1.59.43-.42.42-.58,1.02-.43,1.59l3.23,12.07c.15.57.6,1.01,1.16,1.16.57.15,1.17-.01,1.59-.43l.93-.93,4.38,4.39c.31.31.73.48,1.16.48s.85-.17,1.16-.48l4.65-4.65c.64-.64.64-1.68,0-2.32l-4.39-4.39.93-.93c.42-.42.58-1.02.43-1.59ZM75.08,51.9l-2.32,2.32-4.39-4.39c-.32-.32-.74-.48-1.16-.48s-.84.16-1.16.48l-.08.08-1.76-6.57,6.57,1.76-.08.08c-.64.64-.64,1.68,0,2.32l4.39,4.39Z"/>
  <path class="cls-1" d="M44.45,31.98h10.14c.91,0,1.64-.74,1.64-1.64s-.74-1.64-1.64-1.64h-10.14c-.91,0-1.64.74-1.64,1.64s.74,1.64,1.64,1.64Z"/>
  <path class="cls-1" d="M44.45,38.55h10.14c.91,0,1.64-.74,1.64-1.64s-.74-1.64-1.64-1.64h-10.14c-.91,0-1.64.74-1.64,1.64s.74,1.64,1.64,1.64Z"/>
  <path class="cls-1" d="M44.45,47.96h10.14c.91,0,1.64-.74,1.64-1.64s-.74-1.64-1.64-1.64h-10.14c-.91,0-1.64.74-1.64,1.64s.74,1.64,1.64,1.64Z"/>
  <path class="cls-1" d="M56.23,52.9c0-.91-.74-1.64-1.64-1.64h-10.14c-.91,0-1.64.74-1.64,1.64s.74,1.64,1.64,1.64h10.14c.91,0,1.64-.74,1.64-1.64Z"/>
  <path class="cls-1" d="M25.11,49.77c0,3.77,3.07,6.83,6.83,6.83s6.83-3.07,6.83-6.83-3.07-6.83-6.83-6.83-6.83,3.07-6.83,6.83ZM35.5,49.77c0,1.96-1.59,3.55-3.55,3.55s-3.55-1.59-3.55-3.55,1.59-3.55,3.55-3.55,3.55,1.59,3.55,3.55Z"/>
</svg>