<?xml version="1.0" encoding="UTF-8"?>
<svg id="Camada_1" data-name="Camada 1" xmlns="http://www.w3.org/2000/svg" viewBox="0 0 100 100">
  <defs>
    <style>
      .cls-1 {
        fill: #43c8cf;
      }

      .cls-1, .cls-2 {
        stroke-width: 0px;
      }

      .cls-2 {
        fill: #8b47fe;
      }
    </style>
  </defs>
  <path class="cls-2" d="M57.46,11.87c-4.93-.96-9.95-.96-14.91.01-4.96.97-9.61,2.85-13.81,5.59-4.36,2.84-8.05,6.49-10.99,10.83-2.93,4.35-4.92,9.14-5.92,14.24-.96,4.93-.96,9.94,0,14.89.59,3.02,1.53,5.95,2.79,8.72-.14.13-.28.28-.39.45-.76,1.12-.46,2.66.67,3.41,1.13.76,2.66.46,3.42-.67.76-1.13.46-2.66-.67-3.41-.56-.37-1.21-.49-1.82-.38-1.21-2.66-2.12-5.48-2.68-8.38-.93-4.78-.94-9.62,0-14.38.96-4.92,2.88-9.55,5.71-13.75,2.83-4.2,6.4-7.72,10.61-10.46,4.06-2.65,8.55-4.46,13.34-5.4,4.79-.93,9.63-.94,14.39,0,4.93.96,9.56,2.88,13.76,5.71,4.2,2.83,7.73,6.39,10.47,10.59,2.65,4.06,4.47,8.54,5.4,13.33.93,4.78.94,9.62,0,14.38-.96,4.92-2.88,9.55-5.72,13.75-2.83,4.2-6.4,7.72-10.61,10.46-4.06,2.65-8.55,4.46-13.34,5.4-2.23.43-4.49.67-6.73.7-.37,0-.67.31-.66.68,0,.37.31.67.68.66,2.32-.03,4.66-.27,6.97-.72,4.96-.97,9.61-2.85,13.82-5.59,4.36-2.84,8.05-6.48,10.99-10.83,2.93-4.35,4.92-9.14,5.92-14.24.96-4.93.96-9.94,0-14.89-.97-4.95-2.85-9.6-5.6-13.8-2.84-4.35-6.49-8.05-10.85-10.97-4.35-2.93-9.15-4.92-14.26-5.91h0ZM17.22,68.61c-.35.51-1.04.65-1.55.3-.51-.34-.65-1.04-.3-1.55.11-.16.25-.28.41-.37,0,0,0,0,0,0,0,0,0,0,0,0,.35-.18.79-.17,1.14.07.51.34.65,1.04.3,1.55h0Z"/>
  <path class="cls-1" d="M50.01,52.74h9.65v-1.21h-9.65v-3.64h1.21v-1.21h-1.21v-2.43h7.24v-1.21h-7.24v-6.68c0-3.01-2.44-5.47-5.43-5.47-2.18,0-4.05,1.3-4.92,3.16h-.03c-3.08.63-5.31,3.39-5.31,6.55,0,.77.13,1.51.38,2.23-2.45,1.39-4,4.03-4,6.88,0,2.58,1.27,5,3.36,6.47-.59.94-.94,2.05-.94,3.25,0,3.35,2.71,6.07,6.03,6.07.18,0,.37-.01.56-.03.9,1.85,2.8,3.06,4.87,3.06,2.99,0,5.43-2.45,5.43-5.47v-6.68h4.22v-1.21h-4.22v-2.43ZM48.8,63.06c0,2.34-1.89,4.25-4.22,4.25-1.73,0-3.32-1.1-3.94-2.73l-.18-.47-.49.09c-.3.05-.57.08-.82.08-2.66,0-4.83-2.18-4.83-4.86s2.16-4.86,4.83-4.86v-1.21c-1.7,0-3.24.72-4.34,1.86-1.8-1.24-2.9-3.3-2.9-5.51,0-2.57,1.5-4.94,3.82-6.04l.54-.26-.25-.55c-.33-.72-.49-1.48-.49-2.27,0-2.36,1.52-4.44,3.7-5.18-.05.3-.08.61-.08.93,0,.96.25,1.91.73,2.73l1.04-.61c-.37-.64-.56-1.38-.56-2.13,0-2.34,1.89-4.25,4.22-4.25s4.22,1.91,4.22,4.25v26.72Z"/>
  <path class="cls-1" d="M44.58,64.88v1.21c1.66,0,3.02-1.36,3.02-3.04h-1.21c0,1-.81,1.82-1.81,1.82Z"/>
  <path class="cls-1" d="M36.74,59.42h-1.21c0,2.01,1.62,3.64,3.62,3.64v-1.21c-1.33,0-2.41-1.09-2.41-2.43Z"/>
  <path class="cls-1" d="M64.49,60.74v-2.54c0-1.67-1.35-3.04-3.02-3.04h-6.03v1.21h6.03c1,0,1.81.82,1.81,1.82v2.54c-.7.25-1.21.92-1.21,1.71,0,1,.81,1.82,1.81,1.82s1.81-.82,1.81-1.82c0-.79-.51-1.46-1.21-1.71ZM63.88,63.06c-.33,0-.6-.27-.6-.61s.27-.61.6-.61.6.27.6.61-.27.61-.6.61Z"/>
  <path class="cls-1" d="M66.3,50.31c-.78,0-1.45.51-1.7,1.21h-3.73v1.21h3.73c.25.7.91,1.21,1.7,1.21,1,0,1.81-.82,1.81-1.82s-.81-1.82-1.81-1.82ZM66.3,52.74c-.33,0-.6-.27-.6-.61s.27-.61.6-.61.6.27.6.61-.27.61-.6.61Z"/>
  <path class="cls-1" d="M64.6,46.66h-12.18v1.21h12.18c.25.7.91,1.21,1.7,1.21,1,0,1.81-.82,1.81-1.82s-.81-1.82-1.81-1.82c-.78,0-1.45.51-1.7,1.21ZM66.3,46.66c.33,0,.6.27.6.61s-.27.61-.6.61-.6-.27-.6-.61.27-.61.6-.61Z"/>
  <path class="cls-1" d="M64.49,41.2v-2.54c.7-.25,1.21-.92,1.21-1.71,0-1-.81-1.82-1.81-1.82s-1.81.82-1.81,1.82c0,.79.51,1.46,1.21,1.71v2.54c0,1-.81,1.82-1.81,1.82h-3.02v1.21h3.02c1.66,0,3.02-1.36,3.02-3.04ZM63.89,36.34c.33,0,.6.27.6.61s-.27.61-.6.61-.6-.27-.6-.61.27-.61.6-.61Z"/>
  <path class="cls-1" d="M37.27,46.59c-1.18,1.18-1.18,3.11,0,4.29l.85-.86c-.71-.71-.71-1.87,0-2.58.71-.71,1.85-.71,2.56,0l.85-.86c-1.18-1.18-3.09-1.18-4.27,0Z"/>
  <path class="cls-1" d="M44.58,33.3c-1.66,0-3.02,1.36-3.02,3.04h1.21c0-1,.81-1.82,1.81-1.82s1.81.82,1.81,1.82h1.21c0-1.67-1.35-3.04-3.02-3.04Z"/>
  <path class="cls-1" d="M46.99,44.84c0-1.67-1.35-3.04-3.02-3.04v1.21c1,0,1.81.82,1.81,1.82s-.81,1.82-1.81,1.82v1.21c1.66,0,3.02-1.36,3.02-3.04Z"/>
  <path class="cls-1" d="M40.96,57.6c0,1.67,1.35,3.04,3.02,3.04v-1.21c-1,0-1.81-.82-1.81-1.82s.81-1.82,1.81-1.82v-1.21c-1.66,0-3.02,1.36-3.02,3.04Z"/>
</svg>