<?xml version="1.0" encoding="UTF-8"?>
<svg id="Camada_1" data-name="Camada 1" xmlns="http://www.w3.org/2000/svg" viewBox="0 0 100 100">
  <defs>
    <style>
      .cls-1 {
        fill: #43c8cf;
      }

      .cls-1, .cls-2 {
        stroke-width: 0px;
      }

      .cls-2 {
        fill: #8b47fe;
      }
    </style>
  </defs>
  <path class="cls-2" d="M57.52,11.87c-4.98-.96-10.04-.96-15.04.01-5,.97-9.69,2.85-13.94,5.59-4.4,2.84-8.12,6.49-11.08,10.83-2.96,4.35-4.97,9.14-5.97,14.24-.97,4.93-.97,9.94,0,14.89.59,3.02,1.54,5.95,2.82,8.72-.15.13-.28.28-.39.45-.77,1.12-.46,2.66.67,3.41,1.14.76,2.68.46,3.45-.67.77-1.13.46-2.66-.67-3.41-.56-.37-1.22-.49-1.84-.38-1.22-2.66-2.13-5.48-2.71-8.38-.94-4.78-.95-9.62,0-14.38.97-4.92,2.91-9.55,5.76-13.75,2.86-4.2,6.46-7.72,10.7-10.46,4.1-2.65,8.63-4.46,13.46-5.4,4.83-.93,9.71-.94,14.52,0,4.97.96,9.65,2.88,13.89,5.71,4.24,2.83,7.79,6.39,10.56,10.59,2.67,4.06,4.51,8.54,5.45,13.33.94,4.78.95,9.62,0,14.38-.97,4.92-2.91,9.55-5.77,13.75-2.86,4.2-6.46,7.72-10.7,10.46-4.1,2.65-8.63,4.46-13.46,5.4-2.25.43-4.53.67-6.79.7-.37,0-.67.31-.67.68,0,.37.31.67.69.66,2.34-.03,4.7-.27,7.03-.72,5-.97,9.69-2.85,13.94-5.59,4.4-2.84,8.12-6.48,11.08-10.83,2.96-4.35,4.97-9.14,5.97-14.24.97-4.93.97-9.94,0-14.89-.98-4.95-2.87-9.6-5.64-13.8-2.87-4.35-6.55-8.05-10.94-10.97-4.39-2.93-9.23-4.92-14.38-5.91h0ZM16.93,68.61c-.35.51-1.05.65-1.57.3-.52-.34-.65-1.04-.31-1.55.11-.16.25-.28.41-.37,0,0,0,0,0,0,0,0,0,0,0,0,.35-.18.8-.17,1.15.07.52.34.65,1.04.31,1.55h0Z"/>
  <path class="cls-1" d="M64.24,60.66h-6.22c.26-.55.48-1.13.65-1.73l4.21-1.03c2.57-.63,4.36-2.91,4.36-5.55,0-3.15-2.57-5.72-5.73-5.72h-.55l.41-2.24c.15-.81-.48-1.56-1.3-1.56h-22.53c-.83,0-1.45.75-1.3,1.56,2.85,15.38,2.59,14.63,3.36,16.26h-6.22c-1.14,0-1.75,1.35-.99,2.2,2.19,2.45,3.9,5.07,8.59,5.07h15.65c4.72,0,6.46-2.68,8.59-5.07.76-.85.15-2.2-.99-2.2ZM56.63,65.28h-15.65c-1.77,0-3.37-.55-4.64-1.98h24.93c-1.27,1.42-2.86,1.98-4.64,1.98ZM39.14,45.48h19.34c-2.47,13.35-2.26,13.37-3.51,15.18h-12.32c-1.22-1.77-1.01-1.66-3.51-15.18ZM64.59,52.35c0,1.4-.95,2.64-2.34,2.98l-3.03.74,1.26-6.79h1.04c1.7,0,3.08,1.38,3.08,3.07Z"/>
  <path class="cls-1" d="M45.02,40.29c.75,1.59,3.15.46,2.4-1.13-1.08-2.29-.81-1.71-1.3-2.76-.58-1.22-.17-2.71,1.01-3.47,3.54-2.24,3.58-5.91,1.76-8.18-1.1-1.37-3.17.29-2.07,1.65,1.02,1.27.71,3.13-.67,4.01-2.99,1.89-3.53,4.79-2.43,7.11l1.3,2.76Z"/>
  <path class="cls-1" d="M50.21,38.14c-1.18,1.34.86,3.03,1.99,1.75l.98-1.11c1.09-1.23,1.38-3.02.31-4.81-.27-.45-.24-1.01.07-1.42l1.63-2.19c1.05-1.41-1.08-2.98-2.13-1.58l-1.63,2.19c-.96,1.28-1.04,3-.22,4.37.72,1.19.07,1.59-1,2.8Z"/>
</svg>