<?xml version="1.0" encoding="UTF-8"?>
<svg id="Camada_1" data-name="Camada 1" xmlns="http://www.w3.org/2000/svg" viewBox="0 0 100 100">
  <defs>
    <style>
      .cls-1 {
        fill: #43c8cf;
        fill-rule: evenodd;
      }

      .cls-1, .cls-2 {
        stroke-width: 0px;
      }

      .cls-2 {
        fill: #8b47fe;
      }
    </style>
  </defs>
  <path class="cls-2" d="M58.31,11.67c-4.98-.97-10.04-.96-15.04,0-5,.97-9.69,2.86-13.94,5.62-4.4,2.85-8.12,6.52-11.08,10.89-2.96,4.37-4.97,9.19-5.97,14.32-.97,4.95-.97,9.99,0,14.97.59,3.04,1.54,5.98,2.82,8.76-.15.13-.28.28-.39.45-.77,1.13-.46,2.67.67,3.43,1.14.76,2.68.46,3.45-.67.77-1.13.46-2.67-.67-3.43-.56-.38-1.22-.49-1.84-.38-1.22-2.68-2.13-5.51-2.71-8.42-.94-4.81-.95-9.67,0-14.45.97-4.95,2.91-9.6,5.76-13.82,2.86-4.22,6.46-7.76,10.7-10.52,4.1-2.66,8.63-4.49,13.46-5.43,4.83-.94,9.71-.94,14.52,0,4.97.97,9.65,2.9,13.89,5.74,4.24,2.84,7.79,6.43,10.56,10.65,2.67,4.08,4.51,8.59,5.45,13.4.94,4.81.95,9.67,0,14.45-.97,4.95-2.91,9.6-5.77,13.82-2.86,4.22-6.46,7.76-10.7,10.52-4.1,2.66-8.63,4.49-13.46,5.43-2.25.44-4.53.67-6.79.7-.37,0-.67.31-.67.68,0,.37.31.67.69.67,2.34-.03,4.7-.28,7.03-.73,5-.97,9.69-2.86,13.94-5.62,4.4-2.85,8.12-6.52,11.08-10.89,2.96-4.37,4.97-9.19,5.97-14.32.97-4.95.97-9.99,0-14.97-.98-4.98-2.87-9.65-5.64-13.87-2.87-4.38-6.55-8.09-10.94-11.03-4.39-2.94-9.23-4.94-14.38-5.94h0ZM17.71,68.71c-.35.51-1.05.65-1.57.3-.52-.35-.65-1.05-.31-1.56.11-.16.25-.28.41-.37,0,0,0,0,0,0,0,0,0,0,0,0,.35-.18.8-.17,1.15.07.52.35.65,1.05.31,1.56h0Z"/>
  <path class="cls-1" d="M38.86,35.13c.16-.16.35-.29.56-.38.21-.09.44-.13.66-.13.23,0,.45.05.66.13.21.09.4.22.56.38.16.16.29.35.37.57.09.21.13.44.13.67,0,.23-.05.46-.13.67-.09.21-.22.4-.38.56l-10.6,10.6,10.6,10.61c.16.16.29.35.38.56.09.21.13.44.13.67,0,.23-.04.45-.13.67-.09.21-.21.4-.37.57-.16.16-.35.29-.56.38-.21.09-.44.13-.66.13-.23,0-.45-.04-.66-.13-.21-.09-.4-.22-.56-.38l-11.83-11.83c-.16-.16-.29-.35-.38-.57-.09-.21-.13-.44-.13-.67s.04-.46.13-.67c.09-.21.22-.4.38-.57l11.83-11.83ZM59.06,37.59l10.6,10.6-10.6,10.61c-.16.16-.29.35-.38.56-.09.21-.13.44-.13.67,0,.23.04.46.13.67.09.21.21.4.37.57.16.16.35.29.56.38.21.09.43.13.66.13.23,0,.45-.04.66-.13.21-.09.4-.22.56-.38l11.83-11.83c.16-.16.29-.35.38-.57.09-.21.13-.44.13-.67s-.05-.46-.13-.67c-.09-.21-.22-.4-.38-.57l-11.83-11.83c-.16-.16-.35-.29-.56-.38-.21-.09-.44-.13-.66-.13-.23,0-.45.05-.66.13-.21.09-.4.22-.56.38-.16.16-.29.35-.37.57-.09.21-.13.44-.13.67,0,.23.05.45.13.67.09.21.22.4.38.56ZM49.31,63.57l5.15-30.17c.04-.22.03-.46-.02-.68-.05-.22-.14-.43-.28-.62-.13-.19-.3-.34-.49-.47-.19-.12-.41-.2-.63-.24s-.45-.03-.67.02c-.22.05-.43.14-.62.28-.19.13-.34.3-.46.49-.12.19-.2.41-.24.63l-5.15,30.17c-.08.45.03.92.29,1.3.27.38.67.63,1.12.71.45.08.92-.03,1.29-.3.37-.27.63-.67.7-1.13Z"/>
</svg>