<?xml version="1.0" encoding="UTF-8"?>
<svg id="Camada_1" data-name="Camada 1" xmlns="http://www.w3.org/2000/svg" viewBox="0 0 100 100">
  <defs>
    <style>
      .cls-1 {
        fill: #43c8cf;
      }

      .cls-1, .cls-2 {
        stroke-width: 0px;
      }

      .cls-2 {
        fill: #8b47fe;
      }
    </style>
  </defs>
  <path class="cls-2" d="M57.52,11.87c-4.98-.96-10.04-.96-15.04.01-5,.97-9.69,2.85-13.94,5.59-4.4,2.84-8.12,6.49-11.08,10.83-2.96,4.35-4.97,9.14-5.97,14.24-.97,4.93-.97,9.94,0,14.89.6,3.02,1.54,5.95,2.82,8.72-.15.13-.28.28-.39.45-.77,1.12-.46,2.66.67,3.41,1.14.76,2.68.46,3.45-.67.77-1.13.46-2.66-.67-3.41-.56-.37-1.22-.49-1.84-.38-1.22-2.66-2.13-5.48-2.71-8.38-.94-4.78-.94-9.62,0-14.38.97-4.92,2.91-9.55,5.76-13.75,2.86-4.2,6.46-7.72,10.7-10.46,4.1-2.65,8.63-4.46,13.46-5.4,4.83-.93,9.71-.94,14.52,0,4.97.96,9.64,2.88,13.89,5.71,4.24,2.83,7.79,6.39,10.56,10.59,2.67,4.06,4.51,8.54,5.45,13.33.94,4.78.95,9.62,0,14.38-.97,4.92-2.91,9.55-5.77,13.75-2.86,4.2-6.46,7.72-10.7,10.46-4.1,2.65-8.63,4.46-13.46,5.4-2.25.43-4.53.67-6.79.7-.37,0-.67.31-.67.68,0,.37.31.67.69.66,2.34-.03,4.7-.27,7.03-.72,5-.97,9.69-2.85,13.94-5.59,4.4-2.84,8.12-6.48,11.08-10.83,2.96-4.35,4.97-9.14,5.97-14.24.97-4.93.97-9.94,0-14.89-.98-4.95-2.87-9.6-5.64-13.8-2.87-4.35-6.55-8.05-10.94-10.97-4.39-2.93-9.23-4.92-14.38-5.91h0ZM16.93,68.61c-.35.51-1.05.65-1.57.3-.52-.34-.65-1.04-.31-1.55.11-.16.25-.28.41-.37,0,0,0,0,0,0,0,0,0,0,0,0,.36-.18.8-.17,1.15.07.52.34.65,1.04.31,1.55h0Z"/>
  <path class="cls-1" d="M58.87,70.92h-18.93c-2.88,0-5.21-2.36-5.21-5.27v-30.69c0-2.92,2.33-5.27,5.21-5.27h18.93c2.88,0,5.21,2.36,5.21,5.27v30.69c0,2.92-2.33,5.27-5.21,5.27ZM39.94,32.56c-1.31,0-2.37,1.07-2.37,2.4v30.69c0,1.32,1.06,2.4,2.37,2.4h18.93c1.31,0,2.37-1.07,2.37-2.4v-30.69c0-1.32-1.06-2.4-2.37-2.4h-18.93ZM54.61,61.81c0-.79-.64-1.44-1.42-1.44h-7.57c-.78,0-1.42.65-1.42,1.44s.64,1.44,1.42,1.44h7.57c.78,0,1.42-.65,1.42-1.44ZM47.24,52.27c.55-.56.55-1.48,0-2.03l-3.73-3.78,3.73-3.78c.55-.56.55-1.48,0-2.03-.55-.56-1.46-.56-2.01,0l-4.73,4.8c-.55.56-.55,1.48,0,2.03l4.73,4.8c.28.29.64.42,1,.42s.72-.13,1-.42ZM53.55,52.27l4.73-4.8c.55-.56.55-1.48,0-2.03l-4.73-4.8c-.55-.56-1.46-.56-2.01,0-.55.56-.55,1.48,0,2.03l3.73,3.78-3.73,3.78c-.55.56-.55,1.48,0,2.03.28.29.64.42,1,.42s.72-.13,1-.42Z"/>
</svg>