<?xml version="1.0" encoding="UTF-8"?>
<svg id="Camada_1" data-name="Camada 1" xmlns="http://www.w3.org/2000/svg" viewBox="0 0 100 100">
  <defs>
    <style>
      .cls-1 {
        fill: #43c8cf;
      }

      .cls-1, .cls-2 {
        stroke-width: 0px;
      }

      .cls-2 {
        fill: #8b47fe;
      }
    </style>
  </defs>
  <path class="cls-2" d="M57.52,11.67c-4.98-.97-10.04-.96-15.04,0-5,.97-9.69,2.86-13.94,5.62-4.4,2.85-8.12,6.52-11.08,10.89-2.96,4.37-4.97,9.19-5.97,14.32-.97,4.95-.97,9.99,0,14.97.6,3.04,1.54,5.98,2.82,8.76-.15.13-.28.28-.39.45-.77,1.13-.46,2.67.67,3.43,1.14.76,2.68.46,3.45-.67.77-1.13.46-2.67-.67-3.43-.56-.38-1.22-.49-1.84-.38-1.22-2.68-2.13-5.51-2.71-8.42-.94-4.81-.94-9.67,0-14.45.97-4.95,2.91-9.6,5.76-13.82,2.86-4.22,6.46-7.76,10.7-10.52,4.1-2.66,8.63-4.49,13.46-5.43,4.83-.94,9.71-.94,14.52,0,4.97.97,9.64,2.9,13.89,5.74,4.24,2.84,7.79,6.43,10.56,10.65,2.67,4.08,4.51,8.59,5.45,13.4.94,4.81.95,9.67,0,14.45-.97,4.95-2.91,9.6-5.77,13.82-2.86,4.22-6.46,7.76-10.7,10.52-4.1,2.66-8.63,4.49-13.46,5.43-2.25.44-4.53.67-6.79.7-.37,0-.67.31-.67.68,0,.37.31.67.69.67,2.34-.03,4.7-.28,7.03-.73,5-.97,9.69-2.86,13.94-5.62,4.4-2.85,8.12-6.52,11.08-10.89,2.96-4.37,4.97-9.19,5.97-14.32.97-4.95.97-9.99,0-14.97-.98-4.98-2.87-9.65-5.64-13.87-2.87-4.38-6.55-8.09-10.94-11.03-4.39-2.94-9.23-4.94-14.38-5.94h0ZM16.93,68.71c-.35.51-1.05.65-1.57.3-.52-.35-.65-1.05-.31-1.56.11-.16.25-.28.41-.37,0,0,0,0,0,0,0,0,0,0,0,0,.36-.18.8-.17,1.15.07.52.35.65,1.05.31,1.56h0Z"/>
  <path class="cls-1" d="M73.87,47.29l-5.42-9.41c-.2-.36-.48-.67-.8-.92-.32-.25-.69-.43-1.09-.54-.39-.11-.81-.13-1.21-.08-.41.05-.8.19-1.15.39l-.85.49c-.43.25-.79.6-1.06,1.01-.27.42-.43.89-.48,1.39l-1.84-.74c-1.15-.46-2.37-.7-3.6-.7h-3.42c-1.47,0-2.91.34-4.23.99l-5.87-.73c-1.48-.19-2.97-.03-4.38.46l-1.55.55c-.07-.46-.24-.9-.5-1.29-.26-.39-.6-.71-1.01-.94l-.84-.49c-.35-.2-.74-.34-1.15-.39-.4-.05-.82-.03-1.21.08-.39.11-.76.29-1.09.54-.32.25-.6.56-.8.92l-5.42,9.4c-.2.35-.34.75-.39,1.15-.05.41-.03.82.08,1.21s.29.77.54,1.09c.25.32.56.6.91.8l.85.49c.47.27,1,.42,1.55.42.33,0,.65-.06.96-.17l2.51,3.34c-.16.48-.21,1-.14,1.5.07.5.27.98.56,1.4.3.41.68.75,1.14.99.45.23.95.36,1.46.36.05,0,.1,0,.16,0,.1.77.47,1.48,1.05,2,.58.52,1.33.8,2.11.8.05,0,.1-.02.16-.02.09.78.46,1.49,1.05,2.01.58.52,1.34.8,2.11.8.05,0,.1-.01.15-.01.1.77.47,1.49,1.05,2,.58.52,1.33.8,2.11.8.09,0,.19,0,.28-.01.42-.03.83-.15,1.2-.35s.7-.46.97-.79l1.29-1.54,1.09,1c.42.39.93.66,1.49.78.56.12,1.14.09,1.68-.09.54-.18,1.02-.51,1.4-.94s.62-.96.73-1.52c.16.03.32.04.48.04.68,0,1.35-.21,1.89-.62.55-.41.95-.98,1.15-1.63.37.14.76.22,1.16.22h.15c.42-.02.83-.12,1.21-.3.38-.18.72-.43,1.01-.74.28-.31.5-.68.65-1.07.14-.4.21-.82.19-1.24-.02-.32-.09-.63-.2-.93.59-.2,1.11-.57,1.49-1.07.38-.5.6-1.1.63-1.73l3.29-4.16c.48.49,1.11.8,1.79.89.68.09,1.37-.05,1.96-.39l.85-.49c.35-.2.66-.48.91-.8.25-.33.43-.7.54-1.09.11-.4.13-.81.08-1.21-.05-.41-.19-.8-.39-1.15h0ZM29.36,49.86c-.14.24-.36.41-.63.48-.27.07-.55.03-.79-.1l-.85-.49c-.12-.07-.22-.16-.31-.27-.08-.11-.14-.23-.18-.36-.04-.13-.04-.27-.03-.41.02-.14.06-.27.13-.38l5.42-9.41c.07-.12.16-.22.27-.31.11-.08.23-.14.36-.18.13-.04.27-.04.4-.02.14.02.27.06.38.13l.85.49c.24.14.41.36.48.63s.03.55-.1.79l-5.42,9.41ZM34.23,57.52c-.11-.1-.21-.21-.28-.34-.07-.13-.11-.28-.12-.42-.01-.15,0-.3.05-.44.04-.14.12-.27.21-.39l2.42-2.9c.09-.12.21-.22.34-.29.13-.07.28-.12.43-.13.15-.02.3,0,.45.04.14.04.28.12.39.21s.21.22.28.35c.07.14.11.28.12.43.01.15,0,.3-.06.45-.05.14-.12.28-.22.39l-2.42,2.9c-.1.11-.21.21-.34.28-.13.07-.28.11-.42.12-.15.01-.3,0-.44-.05-.14-.04-.27-.12-.39-.21h0ZM37.55,60.31c-.11-.1-.21-.21-.28-.34-.07-.13-.11-.28-.12-.42-.01-.15,0-.3.05-.44.04-.14.12-.27.21-.39l3.11-3.72c.19-.23.47-.37.77-.4.3-.03.59.07.82.26.23.19.37.47.4.77.03.3-.07.6-.26.83l-3.1,3.72c-.1.11-.21.21-.34.28-.13.07-.28.11-.42.12-.15.01-.3,0-.44-.05-.14-.04-.27-.12-.39-.21h0ZM40.86,63.11c-.23-.19-.37-.47-.4-.77-.03-.3.07-.6.26-.83l2.42-2.89c.09-.11.21-.21.34-.28.13-.07.27-.11.42-.12h.1c.21,0,.43.06.61.18.18.12.33.28.42.48.09.2.12.41.1.63-.03.21-.12.41-.25.58l-2.41,2.89c-.19.23-.47.37-.77.4-.3.03-.59-.07-.82-.26h-.01ZM45.78,65.76c-.09.11-.21.21-.34.28-.13.07-.28.11-.42.12-.3.03-.6-.07-.83-.26-.11-.1-.21-.21-.28-.34-.07-.13-.11-.28-.12-.42-.01-.15,0-.3.05-.44.04-.14.12-.27.21-.39l1.73-2.06c.09-.11.21-.21.34-.28.13-.07.28-.11.42-.12h.1c.21,0,.43.06.61.18.18.12.33.28.42.48.09.2.12.41.1.63-.03.21-.12.41-.25.58l-1.73,2.05ZM62.5,56.24c-.1.11-.22.2-.35.26-.13.06-.28.1-.43.1-.27.02-.54-.07-.75-.25l-2.81-2.63-.05-.04c-.2-.19-.47-.29-.74-.28-.27,0-.53.13-.72.33-.19.2-.29.47-.28.74,0,.28.13.54.33.72l3.79,3.54c.17.15.28.35.34.57.06.22.04.45-.03.66-.08.21-.21.4-.39.53-.18.13-.4.21-.62.22-.15,0-.29-.01-.43-.06-.14-.05-.27-.13-.37-.23l-3.75-3.51-.02-.02c-.2-.19-.47-.29-.74-.28-.27,0-.53.13-.72.33-.19.2-.29.47-.28.74,0,.28.13.54.33.72l2.51,2.37c.2.21.31.48.31.77,0,.29-.1.56-.29.78-.19.21-.46.34-.74.37-.29.02-.57-.06-.79-.24l-2.5-2.36c-.2-.19-.47-.29-.74-.28-.27,0-.53.12-.72.33-.19.2-.29.47-.28.74,0,.28.12.54.32.73l1.82,1.74c.22.2.35.49.37.79.01.3-.09.6-.29.82-.1.11-.22.2-.35.26s-.28.1-.43.11c-.15,0-.3-.02-.44-.07-.14-.05-.27-.13-.38-.23l-1.41-1.29c.15-.58.13-1.19-.05-1.76-.18-.57-.53-1.08-.99-1.46-.44-.36-.96-.6-1.52-.7.04-.25.05-.5.03-.75-.06-.71-.35-1.37-.83-1.9-.48-.52-1.12-.87-1.82-.98.04-.25.05-.5.03-.75-.04-.48-.19-.95-.44-1.37-.25-.42-.59-.77-.99-1.04-.4-.27-.86-.43-1.34-.5-.48-.06-.97-.01-1.42.14-.18-.54-.51-1.01-.94-1.38-.43-.37-.95-.62-1.5-.72-.56-.1-1.13-.05-1.66.14-.53.19-1,.53-1.36.96l-1.77,2.11-2.09-2.79s.07-.08.09-.12l5.19-9.03,2.82-.99c1.1-.39,2.28-.51,3.44-.36l3.24.41-2.66,1.68c-.84.53-1.46,1.36-1.72,2.32-.26.96-.16,1.99.3,2.88.45.89,1.22,1.58,2.16,1.93.93.35,1.96.33,2.89-.04l6.72-2.74,8.9,7.69c.22.2.35.48.36.78.01.3-.09.59-.29.81h0ZM64.04,53.36c-.08-.09-.16-.19-.24-.27l-9.4-8.12c-.14-.12-.32-.21-.51-.24-.19-.03-.38,0-.56.06l-7.3,2.98c-.44.18-.94.19-1.39.02s-.82-.5-1.04-.93c-.22-.43-.27-.92-.14-1.39.13-.46.42-.86.83-1.12l4.63-2.91c1.22-.77,2.62-1.17,4.06-1.17h3.42c.97,0,1.93.19,2.83.55l3.4,1.37,4.32,7.51-2.9,3.65ZM72.18,49.12c-.04.13-.1.26-.18.36-.08.11-.19.2-.3.27l-.85.49c-.24.14-.52.17-.79.1s-.49-.25-.63-.48l-5.42-9.41c-.14-.24-.17-.52-.1-.79s.24-.49.48-.63l.85-.49c.16-.09.34-.14.52-.14.09,0,.18.01.27.04.13.04.25.1.36.18.11.08.2.19.27.3l5.41,9.41c.07.12.11.25.13.39.02.14,0,.27-.03.41Z"/>
</svg>