<?xml version="1.0" encoding="UTF-8"?>
<svg id="Camada_1" data-name="Camada 1" xmlns="http://www.w3.org/2000/svg" viewBox="0 0 100 100">
  <defs>
    <style>
      .cls-1 {
        fill: #43c8cf;
      }

      .cls-1, .cls-2 {
        stroke-width: 0px;
      }

      .cls-2 {
        fill: #8b47fe;
      }
    </style>
  </defs>
  <path class="cls-2" d="M57.46,11.67c-4.93-.97-9.95-.96-14.91,0-4.96.97-9.61,2.86-13.81,5.62-4.36,2.85-8.05,6.52-10.99,10.89-2.93,4.37-4.92,9.19-5.92,14.32-.96,4.95-.96,9.99,0,14.97.59,3.04,1.53,5.98,2.79,8.76-.14.13-.28.28-.39.45-.76,1.13-.46,2.67.67,3.43,1.13.76,2.66.46,3.42-.67.76-1.13.46-2.67-.67-3.43-.56-.38-1.21-.49-1.82-.38-1.21-2.68-2.12-5.51-2.68-8.42-.93-4.81-.94-9.67,0-14.45.96-4.95,2.88-9.6,5.71-13.82,2.83-4.22,6.4-7.76,10.61-10.52,4.06-2.66,8.55-4.49,13.34-5.43,4.79-.94,9.63-.94,14.39,0,4.93.97,9.56,2.9,13.76,5.74,4.2,2.84,7.73,6.43,10.47,10.65,2.65,4.08,4.47,8.59,5.4,13.4.93,4.81.94,9.67,0,14.45-.96,4.95-2.88,9.6-5.72,13.82s-6.4,7.76-10.61,10.52c-4.06,2.66-8.55,4.49-13.34,5.43-2.23.44-4.49.67-6.73.7-.37,0-.67.31-.66.68,0,.37.31.67.68.67,2.32-.03,4.66-.28,6.97-.73,4.96-.97,9.61-2.86,13.82-5.62,4.36-2.85,8.05-6.52,10.99-10.89,2.93-4.37,4.92-9.19,5.92-14.32.96-4.95.96-9.99,0-14.97-.97-4.98-2.85-9.65-5.6-13.87-2.84-4.38-6.49-8.09-10.85-11.03-4.35-2.94-9.15-4.94-14.26-5.94h0ZM17.22,68.71c-.35.51-1.04.65-1.55.3-.51-.35-.65-1.05-.3-1.56.11-.16.25-.28.41-.37,0,0,0,0,0,0,0,0,0,0,0,0,.35-.18.79-.17,1.14.07.51.35.65,1.05.3,1.56h0Z"/>
  <path class="cls-1" d="M49.41,69.23c-.12,0-.24-.02-.36-.04-.07-.02-.13-.04-.2-.07-4.67-1.89-8.63-5.12-11.45-9.34-2.82-4.22-4.31-9.14-4.31-14.24v-10.25c0-.61.36-1.16.92-1.39.31-.13,7.63-3.12,15.4-3.12s15.1,2.99,15.4,3.12c.56.23.92.78.92,1.39v10.25c0,5.09-1.49,10.02-4.32,14.24-2.82,4.22-6.78,7.45-11.45,9.34-.06.03-.13.05-.2.07-.12.03-.24.04-.36.04ZM36.05,36.32v9.21c0,9.01,5.22,17.02,13.36,20.56,8.13-3.55,13.36-11.55,13.36-20.56v-9.21c-2.14-.77-7.71-2.54-13.36-2.54s-11.21,1.78-13.36,2.55Z"/>
  <path class="cls-1" d="M47.92,54.2c-.38,0-.76-.15-1.05-.44l-4.45-4.51c-.58-.59-.58-1.54,0-2.12.58-.59,1.52-.59,2.1,0l3.4,3.44,7.86-7.95c.58-.59,1.52-.59,2.1,0,.58.59.58,1.54,0,2.12l-8.91,9.01c-.29.29-.67.44-1.05.44Z"/>
</svg>