<?xml version="1.0" encoding="UTF-8"?>
<svg id="Camada_1" data-name="Camada 1" xmlns="http://www.w3.org/2000/svg" viewBox="0 0 100 100">
  <defs>
    <style>
      .cls-1 {
        fill: #43c8cf;
      }

      .cls-1, .cls-2 {
        stroke-width: 0px;
      }

      .cls-2 {
        fill: #8b47fe;
      }
    </style>
  </defs>
  <path class="cls-2" d="M57.52,11.87c-4.98-.96-10.04-.96-15.04.01-5,.97-9.69,2.85-13.94,5.59-4.4,2.84-8.12,6.49-11.08,10.83-2.96,4.35-4.97,9.14-5.97,14.24-.97,4.93-.97,9.94,0,14.89.59,3.02,1.54,5.95,2.82,8.72-.15.13-.28.28-.39.45-.77,1.12-.46,2.66.67,3.41,1.14.76,2.68.46,3.45-.67.77-1.13.46-2.66-.67-3.41-.56-.37-1.22-.49-1.84-.38-1.22-2.66-2.13-5.48-2.71-8.38-.94-4.78-.95-9.62,0-14.38.97-4.92,2.91-9.55,5.76-13.75,2.86-4.2,6.46-7.72,10.7-10.46,4.1-2.65,8.63-4.46,13.46-5.4,4.83-.93,9.71-.94,14.52,0,4.97.96,9.65,2.88,13.89,5.71,4.24,2.83,7.79,6.39,10.56,10.59,2.67,4.06,4.51,8.54,5.45,13.33.94,4.78.95,9.62,0,14.38-.97,4.92-2.91,9.55-5.77,13.75-2.86,4.2-6.46,7.72-10.7,10.46-4.1,2.65-8.63,4.46-13.46,5.4-2.25.43-4.53.67-6.79.7-.37,0-.67.31-.67.68,0,.37.31.67.69.66,2.34-.03,4.7-.27,7.03-.72,5-.97,9.69-2.85,13.94-5.59,4.4-2.84,8.12-6.48,11.08-10.83,2.96-4.35,4.97-9.14,5.97-14.24.97-4.93.97-9.94,0-14.89-.98-4.95-2.87-9.6-5.64-13.8-2.87-4.35-6.55-8.05-10.94-10.97-4.39-2.93-9.23-4.92-14.38-5.91h0ZM16.93,68.61c-.35.51-1.05.65-1.57.3-.52-.34-.65-1.04-.31-1.55.11-.16.25-.28.41-.37,0,0,0,0,0,0,0,0,0,0,0,0,.35-.18.8-.17,1.15.07.52.34.65,1.04.31,1.55h0Z"/>
  <path class="cls-1" d="M52.9,71.28h-6.55c-1.01,0-1.84-.82-1.84-1.84s.82-1.84,1.84-1.84h6.55c1.01,0,1.84.82,1.84,1.84s-.82,1.84-1.84,1.84Z"/>
  <path class="cls-1" d="M49.63,52.32c-.47,0-.94-.18-1.3-.54l-3.27-3.27c-.72-.72-.72-1.88,0-2.6s1.88-.72,2.6,0l1.98,1.97,1.98-1.97c.72-.72,1.88-.71,2.6,0,.72.72.71,1.88,0,2.6l-3.27,3.27c-.36.36-.83.54-1.3.54Z"/>
  <path class="cls-1" d="M49.62,55.59c-1.01,0-1.84-.82-1.84-1.84v-3.27c0-1.01.82-1.84,1.84-1.84s1.84.82,1.84,1.84v3.27c0,1.01-.82,1.84-1.84,1.84Z"/>
  <path class="cls-1" d="M52.9,64.74h-6.55c-2.82,0-5.11-2.29-5.11-5.1v-2.58c0-.5-.2-.96-.51-1.19-3.84-2.85-6.04-7.19-6.04-11.91,0-8.22,6.7-14.91,14.94-14.91s14.94,6.69,14.94,14.91c0,4.72-2.2,9.06-6.04,11.91-.31.23-.51.69-.51,1.19v2.58c0,2.81-2.29,5.1-5.11,5.1ZM49.63,32.71c-6.21,0-11.27,5.04-11.27,11.24,0,3.55,1.66,6.81,4.56,8.96,1.25.93,1.99,2.47,1.99,4.14v2.58c0,.79.65,1.43,1.44,1.43h6.55c.79,0,1.44-.64,1.44-1.43v-2.58c0-1.67.75-3.21,1.99-4.14,2.9-2.15,4.56-5.41,4.56-8.96,0-6.2-5.05-11.24-11.26-11.24Z"/>
</svg>