<?xml version="1.0" encoding="UTF-8"?>
<svg id="Camada_1" data-name="Camada 1" xmlns="http://www.w3.org/2000/svg" viewBox="0 0 100 100">
  <defs>
    <style>
      .cls-1 {
        fill: #43c8cf;
      }

      .cls-1, .cls-2 {
        stroke-width: 0px;
      }

      .cls-2 {
        fill: #8b47fe;
      }
    </style>
  </defs>
  <path class="cls-2" d="M57.52,11.67c-4.98-.97-10.04-.96-15.04,0-5,.97-9.69,2.86-13.94,5.62-4.4,2.85-8.12,6.52-11.08,10.89-2.96,4.37-4.97,9.19-5.97,14.32-.97,4.95-.97,9.99,0,14.97.59,3.04,1.54,5.98,2.82,8.76-.15.13-.28.28-.39.45-.77,1.13-.46,2.67.67,3.43,1.14.76,2.68.46,3.45-.67.77-1.13.46-2.67-.67-3.43-.56-.38-1.22-.49-1.84-.38-1.22-2.68-2.13-5.51-2.71-8.42-.94-4.81-.95-9.67,0-14.45.97-4.95,2.91-9.6,5.76-13.82,2.86-4.22,6.46-7.76,10.7-10.52,4.1-2.66,8.63-4.49,13.46-5.43,4.83-.94,9.71-.94,14.52,0,4.97.97,9.65,2.9,13.89,5.74,4.24,2.84,7.79,6.43,10.56,10.65,2.67,4.08,4.51,8.59,5.45,13.4.94,4.81.95,9.67,0,14.45-.97,4.95-2.91,9.6-5.77,13.82-2.86,4.22-6.46,7.76-10.7,10.52-4.1,2.66-8.63,4.49-13.46,5.43-2.25.44-4.53.67-6.79.7-.37,0-.67.31-.67.68,0,.37.31.67.69.67,2.34-.03,4.7-.28,7.03-.73,5-.97,9.69-2.86,13.94-5.62,4.4-2.85,8.12-6.52,11.08-10.89,2.96-4.37,4.97-9.19,5.97-14.32.97-4.95.97-9.99,0-14.97-.98-4.98-2.87-9.65-5.64-13.87-2.87-4.38-6.55-8.09-10.94-11.03-4.39-2.94-9.23-4.94-14.38-5.94h0ZM16.93,68.71c-.35.51-1.05.65-1.57.3-.52-.35-.65-1.05-.31-1.56.11-.16.25-.28.41-.37,0,0,0,0,0,0,0,0,0,0,0,0,.35-.18.8-.17,1.15.07.52.35.65,1.05.31,1.56h0Z"/>
  <path class="cls-1" d="M40.72,48.8c0,1.7.48,3.36,1.38,4.79.9,1.44,2.18,2.59,3.71,3.32l.02.07.08-.02c1.19.56,2.48.85,3.78.85,1.31,0,2.6-.28,3.79-.83h.01c1.46-.69,2.71-1.75,3.62-3.09.91-1.33,1.45-2.89,1.56-4.5.11-1.61-.22-3.22-.95-4.67s-1.83-2.66-3.19-3.53c-1.36-.87-2.92-1.35-4.54-1.41-1.61-.05-3.2.33-4.62,1.11-1.41.78-2.59,1.92-3.41,3.31-.82,1.39-1.25,2.98-1.25,4.59ZM51.96,43.4c-.4.07-.81.13-1.22.16v-1.6c.32.05.63.12.94.21.1.41.2.82.28,1.23ZM51.74,55.41c-.33.1-.66.18-1,.23v-1.5c.42.03.83.09,1.24.16-.07.37-.16.74-.25,1.11ZM47.32,54.3c.44-.08.89-.14,1.34-.17v1.51c-.38-.06-.75-.15-1.11-.27-.09-.35-.16-.71-.23-1.07ZM47.61,42.21c.34-.11.69-.19,1.05-.25v1.61c-.44-.03-.88-.09-1.32-.17.08-.4.17-.8.27-1.19h0ZM48.66,45.66v2.09h-1.85c.03-.77.1-1.53.19-2.29.55.1,1.11.16,1.66.2ZM48.66,49.85v2.19c-.56.04-1.12.11-1.68.2-.1-.8-.16-1.59-.19-2.39h1.86ZM50.74,52.04v-2.2h1.77c-.03.8-.09,1.59-.19,2.39-.52-.09-1.05-.16-1.58-.19ZM50.74,47.75v-2.1c.52-.04,1.05-.1,1.56-.19.1.76.16,1.52.19,2.29h-1.76ZM44.17,44.67c.26.1.53.2.79.28-.13.93-.21,1.86-.24,2.8h-1.84c.17-1.12.61-2.18,1.29-3.08h0ZM42.88,49.85h1.83c.03.97.11,1.94.24,2.91-.24.08-.48.16-.72.25-.71-.92-1.17-2.01-1.35-3.16h0ZM55.15,53.03c-.27-.1-.53-.2-.79-.28.13-.96.21-1.93.24-2.9h1.93c-.18,1.16-.65,2.26-1.37,3.19h0ZM56.52,47.75h-1.94c-.04-.93-.12-1.87-.24-2.8.3-.1.58-.2.87-.31.69.91,1.14,1.98,1.31,3.11h0Z"/>
  <path class="cls-1" d="M66.63,42.87c.27,0,.54-.11.73-.31.19-.2.3-.46.3-.74v-2.7c0-2.62-2.03-4.74-4.53-4.74h-26.27c-2.5,0-4.53,2.13-4.53,4.74v19.7c0,2.49,1.84,4.53,4.17,4.73l5.79,6.18c.3.32.68.55,1.11.64.43.1.87.06,1.27-.11.42-.17.77-.46,1.02-.84.25-.38.38-.83.38-1.28v-4.57h17.06c2.5,0,4.53-2.13,4.53-4.74v-10.85c0-.28-.11-.54-.3-.74s-.46-.31-.73-.31-.54.11-.73.31c-.19.2-.3.46-.3.74v10.85c0,1.46-1.11,2.65-2.47,2.65h-19.13v6.67s0,.07-.02.1c-.02.03-.04.06-.08.07-.05.02-.08,0-.12-.03l-6.39-6.82h-.54c-1.36,0-2.47-1.19-2.47-2.65v-19.7c0-1.46,1.11-2.65,2.47-2.65h26.27c1.36,0,2.47,1.19,2.47,2.65v2.7c0,.28.11.54.3.74.19.2.46.31.73.31Z"/>
</svg>