<?xml version="1.0" encoding="UTF-8"?>
<svg id="Camada_1" data-name="Camada 1" xmlns="http://www.w3.org/2000/svg" viewBox="0 0 100 100">
  <defs>
    <style>
      .cls-1 {
        fill: #fff;
      }

      .cls-1, .cls-2 {
        stroke-width: 0px;
      }

      .cls-2 {
        fill: #8b47fe;
      }
    </style>
  </defs>
  <circle class="cls-2" cx="50" cy="50" r="37.05"/>
  <path class="cls-1" d="M58.37,57.58v4.45h-16.3v-3.94l7.71-7.72c.78-.81,1.39-1.51,1.83-2.12.45-.62.77-1.18.96-1.67.21-.5.31-.97.31-1.42,0-.67-.12-1.25-.36-1.73-.24-.49-.59-.87-1.06-1.13-.46-.26-1.03-.4-1.7-.4-.72,0-1.34.16-1.87.49-.51.33-.91.78-1.18,1.36-.26.58-.39,1.24-.39,1.97h-4.73c0-1.32.34-2.54,1.01-3.64.68-1.11,1.63-1.99,2.86-2.64,1.23-.66,2.7-.99,4.39-.99s3.08.25,4.22.76c1.16.5,2.03,1.22,2.62,2.17.6.94.9,2.06.9,3.36,0,.73-.12,1.45-.38,2.15-.25.69-.61,1.39-1.08,2.08-.46.68-1.01,1.38-1.67,2.08-.65.7-1.38,1.43-2.18,2.18l-4.14,4.34h10.21Z"/>
</svg>