<?xml version="1.0" encoding="UTF-8"?>
<svg id="Camada_1" data-name="Camada 1" xmlns="http://www.w3.org/2000/svg" viewBox="0 0 100 100">
  <defs>
    <style>
      .cls-1 {
        fill: #fff;
      }

      .cls-1, .cls-2 {
        stroke-width: 0px;
      }

      .cls-2 {
        fill: #8b47fe;
      }
    </style>
  </defs>
  <circle class="cls-2" cx="50" cy="50" r="37.05"/>
  <path class="cls-1" d="M47.99,48.69h2.13c.79-.42,1.43-.55,1.94-.81.51-.28.89-.66,1.13-1.15.25-.5.38-1.08.38-1.74,0-.59-.12-1.12-.35-1.58-.22-.47-.57-.83-1.03-1.08-.47-.27-1.06-.4-1.77-.4-.56,0-1.08.11-1.56.33-.48.22-.86.54-1.15.94s-.43,2.51-.43,2.51h-4.6s.34-3.43,1.02-4.38c.69-.94,1.61-1.68,2.77-2.21,1.16-.53,2.43-.8,3.82-.8,1.57,0,2.95.25,4.12.76,1.18.5,2.1,1.24,2.76,2.21.66.98.99,2.19.99,3.63,0,.73-.17,1.44-.51,2.13-.34.68-.83,1.3-1.46,1.85-.63.54-1.39.98-2.29,1.31-.9.32-1.92.48-3.04-.06h-2.86v-1.48ZM47.99,51.66v-1.48h3.09c1.22,0,2.3.14,3.23.42.93.28,1.7.68,2.33,1.2.63.51,1.1,1.13,1.42,1.84.32.7.48,1.48.48,2.33,0,1.05-.2,1.99-.6,2.81-.4.81-.97,1.5-1.7,2.07-.72.57-1.56,1-2.53,1.3-.97.29-2.02.43-3.16.43-.95,0-1.88-.13-2.79-.39-.91-.27-1.73-.66-2.47-1.19-.73-.53-1.32-1.2-1.76-2.01-.43-.81-.65-1.78-.65-2.89h4.12s.15.53.45.99c.3.47.71.83,1.23,1.1.53.27,1.12.4,1.77.4.73,0,1.36-.13,1.88-.4.53-.28.93-.66,1.21-1.15.29-.5.43-1.08.43-1.74,0-.85-.15-1.53-.46-2.04-.31-.52-.75-.9-1.32-1.15-.57-.24-1.25-.37-2.04-.47h-2.13Z"/>
</svg>